<svg xmlns="http://www.w3.org/2000/svg" xmlns:xlink="http://www.w3.org/1999/xlink" viewBox="0 0 58.92 59.46"><defs><style>.cls-1{fill:#fff;}.cls-2{isolation:isolate;}.cls-3{mask:url(#mask);}.cls-4{fill:url(#radial-gradient);}.cls-5{fill:#37e2de;}.cls-6{fill:#35a3b5;}.cls-17,.cls-18,.cls-7{fill:#4dfff6;}.cls-7{opacity:0.3;}.cls-8{fill:url(#linear-gradient);}.cls-9{fill:url(#linear-gradient-2);}.cls-10{fill:url(#linear-gradient-3);}.cls-11{fill:url(#linear-gradient-4);}.cls-12{fill:url(#linear-gradient-5);}.cls-13{fill:#32cace;}.cls-14{fill:url(#linear-gradient-6);}.cls-15{fill:url(#linear-gradient-7);}.cls-16{fill:#362f41;mix-blend-mode:overlay;}.cls-18{opacity:0.5;}.cls-19{fill:url(#linear-gradient-8);}.cls-20{filter:url(#luminosity-invert-noclip);}</style><filter id="luminosity-invert-noclip" x="-3.62" y="-2.42" width="67.25" height="64.73" filterUnits="userSpaceOnUse" color-interpolation-filters="sRGB"><feColorMatrix values="-1 0 0 0 1 0 -1 0 0 1 0 0 -1 0 1 0 0 0 1 0" result="invert"/><feFlood flood-color="#fff" result="bg"/><feBlend in="invert" in2="bg"/></filter><mask id="mask" x="-4.16" y="-2.7" width="67.25" height="64.73" maskUnits="userSpaceOnUse"><g class="cls-20"><g transform="translate(-0.54 -0.27)"><path class="cls-1" d="M63.62,61.69V-1.83a.52.52,0,0,0-.16-.42A.57.57,0,0,0,63-2.42H-3.62V61.74c0,.56.54.56.83.56H63a.57.57,0,0,0,.44-.18A.52.52,0,0,0,63.62,61.69Zm-4.23-48c0,.73-.06,1.49-.12,2.31V16a70,70,0,0,1-1.52,9.67c-.68,3.09-1.55,6.39-2.68,10.09C54,39.17,53,42.19,51.91,45a49.33,49.33,0,0,1-4.39,9.06,19.51,19.51,0,0,1-2.79,3.41,7.38,7.38,0,0,1-4,2.12,3.24,3.24,0,0,1-1.84-.21,3.36,3.36,0,0,1-1.33-1.23,13.3,13.3,0,0,1-1.46-4c0-.2-.1-.4-.16-.59-.55-2.13-1-3.75-1.58-5.28,0-.13-.09-.26-.13-.39a6.59,6.59,0,0,0-1-2,4.34,4.34,0,0,0-2.14-1.51A3.44,3.44,0,0,0,30,44.22a3.57,3.57,0,0,0-1.53.35,4.58,4.58,0,0,0-1.63,1.32,10.8,10.8,0,0,0-1.8,3.91c-.27.93-.49,1.88-.7,2.8-.18.77-.36,1.57-.58,2.35a15.56,15.56,0,0,1-.73,2.19,5.24,5.24,0,0,1-1,1.62,2.65,2.65,0,0,1-1.66.79,5.86,5.86,0,0,1-2.3-.36,9.27,9.27,0,0,1-3.73-2.68,21.31,21.31,0,0,1-2.59-3.67,44.5,44.5,0,0,1-2.17-4.32C8.14,45.29,7,42,6.14,39.43,5,35.91,4,32.42,3.1,29.07,2.68,27.4,2.3,25.76,2,24.21s-.63-3.17-.87-4.8A36.23,36.23,0,0,1,.83,9.25c.47-3.5,1.68-6,3.59-7.35A8.9,8.9,0,0,1,8.52.52a21.91,21.91,0,0,1,5.19,0A29.56,29.56,0,0,1,18.9,1.54a29,29,0,0,1,4.69,1.78c.76.37,1.5.77,2.2,1.2.35.22.7.44,1,.68l.07,0a1.24,1.24,0,0,0,.5.28l.26,0a9.92,9.92,0,0,0,2.08.29,4.8,4.8,0,0,0,.67,0,11.9,11.9,0,0,0,2.67-.77c.52-.19,1-.41,1.54-.63l.47-.2c.78-.32,1.59-.65,2.42-1,1.38-.53,3-1.15,4.72-1.66a24.26,24.26,0,0,1,7-1.17,15.32,15.32,0,0,1,3,.28A7.91,7.91,0,0,1,56,2.35,7.93,7.93,0,0,1,58,5a14.22,14.22,0,0,1,1.18,4.24A28,28,0,0,1,59.39,13.65Z"/></g></g></mask><radialGradient id="radial-gradient" cx="32.89" cy="45.77" r="22.49" gradientUnits="userSpaceOnUse"><stop offset="0" stop-color="#362f41"/><stop offset="1" stop-color="#40cced" stop-opacity="0"/></radialGradient><linearGradient id="linear-gradient" x1="22.48" y1="28.47" x2="22.46" y2="28.5" xlink:href="#radial-gradient"/><linearGradient id="linear-gradient-2" x1="31.71" y1="32.28" x2="11.61" y2="62.35" xlink:href="#radial-gradient"/><linearGradient id="linear-gradient-3" x1="18.37" y1="12.86" x2="62.77" y2="-8.55" xlink:href="#radial-gradient"/><linearGradient id="linear-gradient-4" x1="35.36" y1="37.81" x2="4.92" y2="50.6" xlink:href="#radial-gradient"/><linearGradient id="linear-gradient-5" x1="26.2" y1="11.89" x2="52" y2="11.89" xlink:href="#radial-gradient"/><linearGradient id="linear-gradient-6" x1="22.14" y1="37.6" x2="61.95" y2="-1.38" xlink:href="#radial-gradient"/><linearGradient id="linear-gradient-7" x1="24.89" y1="9.06" x2="49.05" y2="-7.57" xlink:href="#radial-gradient"/><linearGradient id="linear-gradient-8" x1="26.9" y1="20.31" x2="10.98" y2="63.82" xlink:href="#radial-gradient"/></defs><title>logo60</title><g class="cls-2"><g id="Layer_1" data-name="Layer 1"><g id="Tooth_-_mark" data-name="Tooth - mark"><g class="cls-3"><path class="cls-4" d="M30,44.23h0A4.64,4.64,0,0,1,33.92,47c-2.31-8.32-8.93-20.46-16-19.8-7.61.7-5,15.13-5,15.13.41,4.75,2.12,11,3.74,16.18a6.5,6.5,0,0,0,3.58,1.1c2.57,0,3.34-3.34,4.17-6.88C25.27,48.69,26.25,44.49,30,44.23Z" transform="translate(-0.54 -0.27)"/><path class="cls-5" d="M11.34.63c-.2,0-.41.13-.61.13a12.82,12.82,0,0,0-4,.48A7,7,0,0,0,2.19,4.56c-3.62,6.83-.43,21,2.89,31.73,5.06,16.36,9.57,23.34,15.07,23.34,2.57,0,3.34-3.34,4.17-6.88.95-4.06,1.93-8.4,5.69-8.66h0c3.76.26,4.74,4.6,5.69,8.66.82,3.54,1.6,6.88,4.17,6.88,5.5,0,10-7,15.07-23.34,3.32-10.71,6.51-24.9,2.89-31.73A7,7,0,0,0,53.63,1,14.63,14.63,0,0,0,49.32.34c-4.55,0-9.22,1.83-13,3.31C34.79,4.26,33.45,5,32.2,5.33a7.82,7.82,0,0,1-5.09.25A20.06,20.06,0,0,0,24,3.89c-2-.79-4.27-1.83-6.63-2.5A30.93,30.93,0,0,0,13,.72C12.33.67,11.78.64,11.34.63Z" transform="translate(-0.54 -0.27)"/><path class="cls-6" d="M24.41,46.83" transform="translate(-0.54 -0.27)"/><path class="cls-7" d="M44.91,33.22C31.75,24.27,19.16,15.58,1.46,21.78A120.66,120.66,0,0,0,5.08,36.29c5.06,16.36,9.57,23.34,15.07,23.34,2.57,0,3.34-3.34,4.17-6.88.95-4.06,1.93-8.26,5.69-8.52h0c3.76.26,4.74,4.46,5.69,8.52.82,3.54,1.6,6.88,4.17,6.88,5.45,0,9.92-6.86,14.93-22.9C52.7,37.18,49.55,36.37,44.91,33.22Z" transform="translate(-0.54 -0.27)"/><path class="cls-8" d="M22.23,28.33l.48.3h0Z" transform="translate(-0.54 -0.27)"/><path class="cls-9" d="M30,44.23h0A4.63,4.63,0,0,1,33.92,47c-1.77-6.39-6.09-15-11.21-18.4l0,0c-6.18,3.66-1.81,15.82,1.73,23.43C25.38,48.25,26.45,44.47,30,44.23Z" transform="translate(-0.54 -0.27)"/><path class="cls-10" d="M37.15,16.3h0l-.31-.58S48.06,18.08,49.37.34h0c-4.55,0-9.22,1.83-13,3.31-1.57.61-3,1.31-4.24,1.68a7.12,7.12,0,0,1-4.87.11,23.58,23.58,0,0,0-3.24-2c-2-.79-4.28-1.69-6.64-2.36C16.71,1,16.08.84,15.48.74,22.47,2.85,30.41,9.24,37.15,16.3Z" transform="translate(-0.54 -0.27)"/><path class="cls-11" d="M27.73,45.05A4.21,4.21,0,0,1,30,44.23h0A4.64,4.64,0,0,1,33.92,47a44.34,44.34,0,0,0-7-14.28C25.16,34.13,23.94,37.4,27.73,45.05Z" transform="translate(-0.54 -0.27)"/><path class="cls-12" d="M40.85,20.39C49.91,30.9,53.67,10.9,53.67,10.9c.62-3.66.65-6.94,1-9.54a7.09,7.09,0,0,0-1-.4A14.63,14.63,0,0,0,49.32.34c-4.55,0-9.22,1.83-13,3.31-1.57.61-3,1.31-4.24,1.68a7.12,7.12,0,0,1-4.87.11C26.19,4.67,25.1,4.72,24,4.17a71.37,71.37,0,0,0-6.64-2.78c-.65-.15-1.28-.13-1.87-.22C23.82,3.69,33.47,11.83,40.85,20.39Z" transform="translate(-0.54 -0.27)"/><path class="cls-13" d="M17.87,27.22a6.36,6.36,0,0,1,2.52.28l.78-.52-2.35-.85s-6.19-.1-6.3,8.66h0C12.87,31.17,14.16,27.56,17.87,27.22Z" transform="translate(-0.54 -0.27)"/><path class="cls-7" d="M19.76,26.13a66.72,66.72,0,0,1,8.48,6.28s4.46,4.92,6.22,15.81a35.48,35.48,0,0,1,1.27,4.53c.82,3.54,1.6,6.88,4.17,6.88,3.6,0,6.78-3,10-9.68C44.22,42.19,32.1,27.66,19.76,26.13Z" transform="translate(-0.54 -0.27)"/><path class="cls-14" d="M53.67,10.9c.62-3.66.65-6.94,1-9.54a7.09,7.09,0,0,0-1-.4A14.67,14.67,0,0,0,49.37.34C48.06,18.08,36.83,15.72,36.83,15.72l.31.58c.64.67,1.27,1.35,1.89,2l0,0,.87,1,.06.08.87,1C49.91,30.9,53.67,10.9,53.67,10.9Z" transform="translate(-0.54 -0.27)"/><path class="cls-15" d="M20,2.64a61.46,61.46,0,0,1,13.24,9.83c3.79-.2,7.45-2.53,7.82-10.57-1.68.55-3.28,1.18-4.74,1.76s-3,1.31-4.24,1.68a7.12,7.12,0,0,1-4.87.11C26.19,4.68,25.1,4.6,24,4.05c-1.4-.55-2.9-1.42-4.46-2Z" transform="translate(-0.54 -0.27)"/><path class="cls-16" d="M39.9,59.63c5.5,0,10-7,15.07-23.34,3.32-10.71,6.51-24.9,2.89-31.73a7.46,7.46,0,0,0-2-2.46c.77,1.85,1.86,8.79-5.45,32.5C42.87,58.94,37,53,35,49.91c.26.92.49,1.88.71,2.84C36.55,56.29,37.33,59.63,39.9,59.63Z" transform="translate(-0.54 -0.27)"/><path class="cls-17" d="M10.05.37S18.77.06,27.42,8.21C41.88,21.83,45.56,29,50.91,19.11c-5.09,9.44-13.2-4-21.25-11.69C21.4-.46,10.05.37,10.05.37Z" transform="translate(-0.54 -0.27)"/><path class="cls-17" d="M11.34.35h-.61A14.63,14.63,0,0,0,6.42,1a7,7,0,0,0-4.23,3.6,11.5,11.5,0,0,0-.92,2.35C2.75,5,7.87-.43,16.61,3c10.51,4.16,17,11.46,18.3,12.61s.56-1,.56-1L22.71,3.76,19.9,1.92c-.82-.29-1.67-.57-2.53-.81A30.82,30.82,0,0,0,13,.44C12.33.39,11.78.36,11.34.35Z" transform="translate(-0.54 -0.27)"/><path class="cls-18" d="M11.34.35h-.61A14.63,14.63,0,0,0,6.42,1a7,7,0,0,0-4.23,3.6A15.91,15.91,0,0,0,.64,11C4.68,4.25,15,.53,41.44,21.74c-5.14-5.55-13.76-14.65-23-20.33l-1-.3A30.82,30.82,0,0,0,13,.44C12.33.39,11.78.36,11.34.35Z" transform="translate(-0.54 -0.27)"/><path class="cls-18" d="M11.34.35h-.61A14.63,14.63,0,0,0,6.42,1a7,7,0,0,0-4.23,3.6c-2.93,5.53-1.4,15.87,1,25.28C.94,9.73,21.1,2.4,21.17,2.37c-1.22-.45-2.5-.89-3.8-1.26A30.82,30.82,0,0,0,13,.44C12.33.39,11.78.36,11.34.35Z" transform="translate(-0.54 -0.27)"/><path class="cls-7" d="M11.34.35h-.61A14.63,14.63,0,0,0,6.42,1a7,7,0,0,0-4.23,3.6c-3.62,6.83-.43,21,2.89,31.73q1.62,5.25,3.19,9.25C7.19,38.38,3.93,4.59,42.38,21.91c-9.11-9.07-16-15.45-21.74-19.73-1.06-.39-2.15-.75-3.27-1.07A30.82,30.82,0,0,0,13,.44C12.33.39,11.78.36,11.34.35Z" transform="translate(-0.54 -0.27)"/><path class="cls-19" d="M22.74,28.67l0,0a7.49,7.49,0,0,0-4.84-1.41c-7.61.7-5,15.13-5,15.13.41,4.75,2.12,11,3.74,16.18a6.5,6.5,0,0,0,3.58,1.1c2.57,0,3.34-3.34,4.17-6.88l.15-.65C20.93,44.49,16.56,32.33,22.74,28.67Z" transform="translate(-0.54 -0.27)"/><path class="cls-13" d="M36.1,54.38c1,4.06,2.15,6,5.26,5.17a8.11,8.11,0,0,0,4.1-2.71c-2.39,1.12-6.76,2.17-8-3.42-1.75-7.85-4.84-15.57-8.59-20.71s-8.43-7.35-11.16-6.42,0,.65,0,.65l2.69.56s4.47,1.19,8.53,8.84A74,74,0,0,1,36,54,2.92,2.92,0,0,1,36.1,54.38Z" transform="translate(-0.54 -0.27)"/><path class="cls-17" d="M26.76,6.13,26.66,6l-1.5-1.92S15.87-1.37,6.72.77,1.15,20.26,1.59,22.48C0,10.37,1.31,1.42,8.26,1S26.51,5.75,26.76,6.13Z" transform="translate(-0.54 -0.27)"/></g><path class="cls-17" d="M27.92,6.34l.64.09a23.37,23.37,0,0,0-8.45-4.49C14.62.23,23.57,5.22,23.57,5.22Z" transform="translate(-0.54 -0.27)"/></g></g></g></svg>