<svg id="Layer_1" data-name="Layer 1" xmlns="http://www.w3.org/2000/svg" xmlns:xlink="http://www.w3.org/1999/xlink" viewBox="0 0 59.08 59.61"><defs><style>.cls-1{fill:#fff;}.cls-2{mask:url(#mask);}.cls-3{fill:url(#radial-gradient);}.cls-4{fill:#37e2de;}.cls-5{fill:#35a3b5;}.cls-16,.cls-17,.cls-6{fill:#4dfff6;}.cls-6{opacity:0.3;}.cls-7{fill:url(#linear-gradient);}.cls-8{fill:url(#linear-gradient-2);}.cls-9{fill:url(#linear-gradient-3);}.cls-10{fill:url(#linear-gradient-4);}.cls-11{fill:url(#linear-gradient-5);}.cls-12{fill:#32cace;}.cls-13{fill:url(#linear-gradient-6);}.cls-14{fill:url(#linear-gradient-7);}.cls-15{fill:#362f41;opacity:0.1;}.cls-17{opacity:0.5;}.cls-18{fill:url(#linear-gradient-8);}.cls-19{filter:url(#luminosity-invert-noclip);}</style><filter id="luminosity-invert-noclip" x="-3.71" y="-2.51" width="67.43" height="64.9" filterUnits="userSpaceOnUse" color-interpolation-filters="sRGB"><feColorMatrix values="-1 0 0 0 1 0 -1 0 0 1 0 0 -1 0 1 0 0 0 1 0" result="invert"/><feFlood flood-color="#fff" result="bg"/><feBlend in="invert" in2="bg"/></filter><mask id="mask" x="-4.17" y="-2.7" width="67.43" height="64.9" maskUnits="userSpaceOnUse"><g class="cls-19"><g transform="translate(-0.46 -0.19)"><path class="cls-1" d="M63.71,61.78V-1.91a.55.55,0,0,0-.16-.43.57.57,0,0,0-.42-.17H-3.71V61.83c0,.56.54.56.83.56h66a.6.6,0,0,0,.44-.18A.53.53,0,0,0,63.71,61.78ZM59.46,13.61c0,.73-.05,1.49-.11,2.31V16a70.36,70.36,0,0,1-1.52,9.7c-.68,3.1-1.56,6.41-2.69,10.11-1,3.39-2.07,6.42-3.16,9.26a50.24,50.24,0,0,1-4.4,9.09,20,20,0,0,1-2.8,3.42,7.41,7.41,0,0,1-4.06,2.12,3.27,3.27,0,0,1-1.85-.21,3.32,3.32,0,0,1-1.33-1.24,13.55,13.55,0,0,1-1.47-4l-.15-.59c-.56-2.13-1-3.76-1.58-5.29L34.19,48a6.42,6.42,0,0,0-1-2.05,4.52,4.52,0,0,0-2.14-1.52A3.89,3.89,0,0,0,30,44.26a3.64,3.64,0,0,0-1.54.35,4.58,4.58,0,0,0-1.63,1.32A11,11,0,0,0,25,49.86c-.26.93-.48,1.88-.7,2.8S24,54.24,23.77,55a18.36,18.36,0,0,1-.74,2.2,5.13,5.13,0,0,1-1,1.61,2.61,2.61,0,0,1-1.66.8,5.86,5.86,0,0,1-2.3-.36,9.23,9.23,0,0,1-3.74-2.69,21.59,21.59,0,0,1-2.6-3.68,47.09,47.09,0,0,1-2.18-4.33C8.08,45.33,6.92,42,6.08,39.45c-1.17-3.53-2.2-7-3.05-10.38-.42-1.68-.8-3.32-1.12-4.88S1.28,21,1,19.38A36.71,36.71,0,0,1,.76,9.2c.47-3.51,1.68-6,3.59-7.38A9,9,0,0,1,8.46.44a22.08,22.08,0,0,1,5.21,0,30.6,30.6,0,0,1,5.2,1.06,30.05,30.05,0,0,1,4.7,1.79,24.71,24.71,0,0,1,2.21,1.2l1,.68.07,0a1.19,1.19,0,0,0,.5.28l.27.06a9.82,9.82,0,0,0,2.08.28,4.83,4.83,0,0,0,.67,0A12.54,12.54,0,0,0,33.09,5c.52-.2,1-.42,1.54-.64l.48-.2c.78-.32,1.59-.65,2.42-1,1.38-.54,3-1.15,4.73-1.67A24.38,24.38,0,0,1,49.31.34a15.35,15.35,0,0,1,3,.28,8,8,0,0,1,3.75,1.66,7.69,7.69,0,0,1,2,2.63,14.66,14.66,0,0,1,1.19,4.26A27,27,0,0,1,59.46,13.61Z"/></g></g></mask><radialGradient id="radial-gradient" cx="32.9" cy="45.81" r="22.55" gradientUnits="userSpaceOnUse"><stop offset="0" stop-color="#362f41"/><stop offset="1" stop-color="#40cced" stop-opacity="0"/></radialGradient><linearGradient id="linear-gradient" x1="22.46" y1="28.47" x2="22.44" y2="28.5" xlink:href="#radial-gradient"/><linearGradient id="linear-gradient-2" x1="31.72" y1="32.29" x2="11.56" y2="62.44" xlink:href="#radial-gradient"/><linearGradient id="linear-gradient-3" x1="18.34" y1="12.82" x2="62.85" y2="-8.66" xlink:href="#radial-gradient"/><linearGradient id="linear-gradient-4" x1="35.37" y1="37.83" x2="4.86" y2="50.65" xlink:href="#radial-gradient"/><linearGradient id="linear-gradient-5" x1="26.18" y1="11.84" x2="52.06" y2="11.84" xlink:href="#radial-gradient"/><linearGradient id="linear-gradient-6" x1="22.12" y1="37.62" x2="62.04" y2="-1.46" xlink:href="#radial-gradient"/><linearGradient id="linear-gradient-7" x1="24.88" y1="9.01" x2="49.1" y2="-7.67" xlink:href="#radial-gradient"/><linearGradient id="linear-gradient-8" x1="26.89" y1="20.29" x2="10.93" y2="63.91" xlink:href="#radial-gradient"/></defs><title>just TOOTH mark_60x60</title><g id="Tooth_-_mark" data-name="Tooth - mark"><g class="cls-2"><path class="cls-3" d="M30,44.27h0a4.64,4.64,0,0,1,3.89,2.8c-2.32-8.34-9-20.52-16.09-19.86-7.63.7-5.06,15.17-5.06,15.17.42,4.77,2.12,11.06,3.75,16.23a6.57,6.57,0,0,0,3.6,1.1c2.57,0,3.35-3.35,4.17-6.9C25.25,48.74,26.24,44.53,30,44.27Z" transform="translate(-0.46 -0.19)"/><path class="cls-4" d="M11.29.56c-.2,0-.41.12-.61.12a13,13,0,0,0-4,.48A7.15,7.15,0,0,0,2.11,4.49C-1.51,11.34,1.69,25.57,5,36.3c5.08,16.41,9.6,23.41,15.12,23.41,2.57,0,3.35-3.35,4.17-6.9.95-4.07,1.94-8.42,5.7-8.68h0c3.77.26,4.75,4.61,5.7,8.68.83,3.55,1.61,6.9,4.18,6.9,5.52,0,10-7,15.12-23.41,3.32-10.73,6.52-25,2.9-31.81A7.07,7.07,0,0,0,53.7.88,14.81,14.81,0,0,0,49.37.26c-4.56,0-9.24,1.84-13,3.32-1.57.61-2.92,1.32-4.17,1.69a7.88,7.88,0,0,1-5.11.24A20.15,20.15,0,0,0,24,3.82C22,3,19.71,2,17.34,1.31A32.42,32.42,0,0,0,12.91.64C12.28.59,11.74.56,11.29.56Z" transform="translate(-0.46 -0.19)"/><path class="cls-5" d="M24.4,46.88" transform="translate(-0.46 -0.19)"/><path class="cls-6" d="M45,33.23c-13.2-9-25.82-17.69-43.56-11.47A119.28,119.28,0,0,0,5,36.3c5.08,16.41,9.6,23.41,15.12,23.41,2.57,0,3.35-3.35,4.17-6.9.95-4.07,1.94-8.28,5.7-8.54h0c3.77.26,4.75,4.47,5.7,8.54.83,3.55,1.61,6.9,4.18,6.9,5.47,0,10-6.88,15-23C52.76,37.2,49.6,36.38,45,33.23Z" transform="translate(-0.46 -0.19)"/><path class="cls-7" d="M22.2,28.32l.49.31h0Z" transform="translate(-0.46 -0.19)"/><path class="cls-8" d="M30,44.27h0a4.64,4.64,0,0,1,3.89,2.8c-1.78-6.4-6.1-15-11.24-18.44l0,0c-6.2,3.67-1.82,15.86,1.74,23.48C25.37,48.3,26.44,44.51,30,44.27Z" transform="translate(-0.46 -0.19)"/><path class="cls-9" d="M37.17,16.27h0l-.32-.58S48.1,18.05,49.42.26h-.05c-4.56,0-9.24,1.84-13,3.32-1.57.61-3,1.31-4.26,1.68a7.15,7.15,0,0,1-4.88.11A23.58,23.58,0,0,0,24,3.4C22,2.6,19.7,1.71,17.33,1,16.67.88,16,.76,15.44.66,22.45,2.78,30.41,9.18,37.17,16.27Z" transform="translate(-0.46 -0.19)"/><path class="cls-10" d="M27.72,45.09A4.24,4.24,0,0,1,30,44.27h0a4.66,4.66,0,0,1,3.89,2.8,44.42,44.42,0,0,0-7-14.33C25.14,34.14,23.92,37.42,27.72,45.09Z" transform="translate(-0.46 -0.19)"/><path class="cls-11" d="M40.88,20.36C50,30.9,53.73,10.85,53.73,10.85c.62-3.67.65-7,1-9.56a7.13,7.13,0,0,0-1-.41A14.81,14.81,0,0,0,49.37.26c-4.56,0-9.24,1.84-13,3.32-1.57.61-3,1.31-4.26,1.68a7.15,7.15,0,0,1-4.88.11C26.18,4.6,25.09,4.66,24,4.1,22,3.3,19.7,2,17.33,1.31c-.65-.15-1.28-.13-1.87-.22C23.8,3.62,33.48,11.78,40.88,20.36Z" transform="translate(-0.46 -0.19)"/><path class="cls-12" d="M17.84,27.21a6.55,6.55,0,0,1,2.52.28l.78-.52-2.35-.85s-6.2-.1-6.31,8.68h0C12.82,31.18,14.12,27.55,17.84,27.21Z" transform="translate(-0.46 -0.19)"/><path class="cls-6" d="M19.73,26.12a67,67,0,0,1,8.51,6.29s4.47,4.94,6.23,15.86a34.07,34.07,0,0,1,1.27,4.54c.83,3.55,1.61,6.9,4.18,6.9,3.62,0,6.81-3,10-9.71C44.26,42.23,32.11,27.65,19.73,26.12Z" transform="translate(-0.46 -0.19)"/><path class="cls-13" d="M53.73,10.85c.62-3.67.65-7,1-9.56a7.13,7.13,0,0,0-1-.41A15.21,15.21,0,0,0,49.42.26C48.1,18.05,36.84,15.68,36.84,15.68l.32.58c.64.67,1.27,1.35,1.89,2l0,0,.87,1,.07.08.87,1C50,30.9,53.73,10.85,53.73,10.85Z" transform="translate(-0.46 -0.19)"/><path class="cls-14" d="M20,2.57a61.72,61.72,0,0,1,13.27,9.85c3.8-.2,7.47-2.54,7.84-10.6-1.68.56-3.29,1.19-4.75,1.77s-3,1.31-4.26,1.68a7.15,7.15,0,0,1-4.88.11C26.18,4.62,25.09,4.53,24,4c-1.4-.55-2.9-1.43-4.47-2Z" transform="translate(-0.46 -0.19)"/><path class="cls-15" d="M39.92,59.71c5.52,0,10-7,15.12-23.41,3.32-10.73,6.52-25,2.9-31.81a7.65,7.65,0,0,0-2-2.47c.77,1.86,1.87,8.81-5.47,32.59C42.91,59,37,53,35,50c.26.93.49,1.89.71,2.85C36.57,56.36,37.35,59.71,39.92,59.71Z" transform="translate(-0.46 -0.19)"/><path class="cls-16" d="M10,.29S18.74,0,27.41,8.15C41.92,21.81,45.6,29,51,19.08c-5.09,9.46-13.23-4-21.3-11.72C21.37-.54,10,.29,10,.29Z" transform="translate(-0.46 -0.19)"/><path class="cls-16" d="M11.29.27h-.61A14.81,14.81,0,0,0,6.35.88,7.07,7.07,0,0,0,2.11,4.49,11.58,11.58,0,0,0,1.2,6.85C2.68,4.92,7.81-.52,16.58,3,27.11,7.12,33.67,14.44,34.92,15.59s.57-1.05.57-1.05L22.69,3.69,19.88,1.84c-.83-.29-1.68-.56-2.54-.81A30.93,30.93,0,0,0,12.91.36Q12,.29,11.29.27Z" transform="translate(-0.46 -0.19)"/><path class="cls-17" d="M11.29.27h-.61A14.81,14.81,0,0,0,6.35.88,7.07,7.07,0,0,0,2.11,4.49,16,16,0,0,0,.56,11C4.62,4.19,15,.45,41.47,21.72,36.32,16.15,27.67,7,18.36,1.34l-1-.31A30.93,30.93,0,0,0,12.91.36Q12,.29,11.29.27Z" transform="translate(-0.46 -0.19)"/><path class="cls-17" d="M11.29.27h-.61A14.81,14.81,0,0,0,6.35.88,7.07,7.07,0,0,0,2.11,4.49C-.82,10,.71,20.4,3.16,29.84.87,9.68,21.08,2.32,21.14,2.3c-1.22-.46-2.5-.9-3.8-1.27A31.14,31.14,0,0,0,12.91.36Q12,.29,11.29.27Z" transform="translate(-0.46 -0.19)"/><path class="cls-6" d="M11.29.27h-.61A14.81,14.81,0,0,0,6.35.88,7.07,7.07,0,0,0,2.11,4.49C-1.51,11.34,1.69,25.57,5,36.3c1.09,3.52,2.15,6.6,3.21,9.28C7.13,38.4,3.86,4.52,42.42,21.89c-9.14-9.09-16-15.5-21.8-19.79-1.06-.38-2.16-.75-3.28-1.07A31.14,31.14,0,0,0,12.91.36Q12,.29,11.29.27Z" transform="translate(-0.46 -0.19)"/><path class="cls-18" d="M22.72,28.67l0,0a7.54,7.54,0,0,0-4.85-1.42c-7.63.7-5.06,15.17-5.06,15.17.42,4.77,2.12,11.06,3.75,16.23a6.57,6.57,0,0,0,3.6,1.1c2.57,0,3.35-3.35,4.17-6.9.06-.22.11-.44.16-.66C20.9,44.53,16.52,32.34,22.72,28.67Z" transform="translate(-0.46 -0.19)"/><path class="cls-12" d="M36.12,54.44c1,4.08,2.15,6,5.27,5.18a8.13,8.13,0,0,0,4.11-2.7c-2.4,1.11-6.77,2.17-8-3.44-1.75-7.87-4.85-15.61-8.61-20.77s-8.45-7.36-11.19-6.43,0,.65,0,.65l2.69.56s4.49,1.19,8.55,8.87A74.06,74.06,0,0,1,36,54.1C36.05,54.2,36.09,54.32,36.12,54.44Z" transform="translate(-0.46 -0.19)"/><path class="cls-16" d="M26.75,6.07,26.65,6,25.15,4S15.83-1.45,6.66.69,1.07,20.23,1.51,22.46C0,10.32,1.23,1.34,8.2.94S26.5,5.68,26.75,6.07Z" transform="translate(-0.46 -0.19)"/></g><path class="cls-16" d="M27.92,6.27l.63.1a23.29,23.29,0,0,0-8.46-4.5C14.58.15,23.55,5.15,23.55,5.15Z" transform="translate(-0.46 -0.19)"/></g></svg>