<svg id="Layer_1" data-name="Layer 1" xmlns="http://www.w3.org/2000/svg" viewBox="0 0 86.35 88.94"><defs><style>.cls-1{fill:#dcdcdc;opacity:0.7;isolation:isolate;}</style></defs><title>clockIcon</title><path class="cls-1" d="M75.84,37.09l-.51-.66H75.2a.46.46,0,0,1-.23-.12l-.11-.1h-.72l-5.07,1.3-.38.19v.14H68.6l-.17.25a1.62,1.62,0,0,0,.28,2,4.45,4.45,0,0,0,.68.45H70l.35-.09c4-1,5-1.31,5.24-1.53l.07-.07A2.1,2.1,0,0,0,76,37.61Z" transform="translate(0.01 0)"/><path class="cls-1" d="M72.93,52.56a9.75,9.75,0,0,0-3.4-1.09h-.12A1.69,1.69,0,0,0,68,52.91a1.53,1.53,0,0,0,1,1.62c.85.27,1.69.5,2.49.71h.35a1.58,1.58,0,0,0,1.41-.85,1.52,1.52,0,0,0-.3-1.77Z" transform="translate(0.01 0)"/><polygon class="cls-1" points="34.02 49.3 33.35 48.98 33.33 49.01 34.02 49.3"/><polygon class="cls-1" points="40.41 54.41 40.41 55.16 40.42 55.16 40.41 54.41"/><polygon class="cls-1" points="39.48 54.48 39.48 54.48 39.99 53.94 39.48 54.48"/><polygon class="cls-1" points="45.33 45.69 46.08 45.69 46.08 45.67 45.33 45.69"/><polygon class="cls-1" points="46.27 54.63 47.02 54.63 46.27 54.63 46.27 54.63"/><polygon class="cls-1" points="46.14 54.98 46.14 54.98 46.89 54.98 46.14 54.98"/><polygon class="cls-1" points="46.2 56.17 46.2 55.42 46.19 55.42 46.2 56.17"/><polygon class="cls-1" points="46.59 53.8 46.59 53.8 47.34 53.8 46.59 53.8"/><path class="cls-1" d="M52.72,76.22c-.17-.72-.94-3.75-1.17-4.55a1.55,1.55,0,0,0-1.9-1.1h0a1.56,1.56,0,0,0-1.11,1.88c.37,1.54.76,3.07,1.17,4.58a1.53,1.53,0,0,0,1.5,1.24h.4a1.57,1.57,0,0,0,1.14-1.89A.45.45,0,0,0,52.72,76.22Z" transform="translate(0.01 0)"/><path class="cls-1" d="M37,14.28a1.58,1.58,0,0,0-3.12.52h0V15c.35,1.47.75,3,1.17,4.61a1.56,1.56,0,0,0,.71,1,1.59,1.59,0,0,0,.82.23,1.33,1.33,0,0,0,.4-.05A1.54,1.54,0,0,0,38,20a1.62,1.62,0,0,0,.14-1.24C38,18,37.19,15,37,14.28Z" transform="translate(0.01 0)"/><path class="cls-1" d="M18.18,51.42a1.72,1.72,0,0,0-1.65-.58l-1.54.4L11.9,52a1.42,1.42,0,0,0-1.12,1,1.57,1.57,0,0,0,1,2h0a1.54,1.54,0,0,0,.52.09,1.3,1.3,0,0,0,.39-.09c.64-.15,1.27-.31,1.9-.48s1.49-.38,2.24-.55a1.87,1.87,0,0,0,1.66-1.45v-.12A2.58,2.58,0,0,0,18.18,51.42Z" transform="translate(0.01 0)"/><path class="cls-1" d="M25.69,25.37A11.09,11.09,0,0,0,23.38,23a1.43,1.43,0,0,0-1.92.31,1.54,1.54,0,0,0-.1,1.95,17.17,17.17,0,0,0,2,2h0a1.58,1.58,0,0,0,1,.33,1.56,1.56,0,0,0,.89-.27,1.69,1.69,0,0,0,.64-1.76A2.2,2.2,0,0,0,25.69,25.37Z" transform="translate(0.01 0)"/><path class="cls-1" d="M36.33,70.38a1.58,1.58,0,0,0-1.87,1,16.83,16.83,0,0,0-.73,2.7,1.55,1.55,0,0,0,1.32,1.75h.22a1.57,1.57,0,0,0,1.45-1c.31-.94.56-1.84.75-2.67A1.53,1.53,0,0,0,36.33,70.38Z" transform="translate(0.01 0)"/><path class="cls-1" d="M51.67,14.12a1.59,1.59,0,0,0-1.85,1,16,16,0,0,0-.66,2.73,1.57,1.57,0,0,0,1.43,1.69h.14a1.4,1.4,0,0,0,.41-.05h0a1.6,1.6,0,0,0,1-1c.27-.88.5-1.78.68-2.68A1.54,1.54,0,0,0,51.67,14.12Z" transform="translate(0.01 0)"/><path class="cls-1" d="M65.12,65.77c-.39-.44-.82-.87-1.26-1.32l-.33-.33h0a1.66,1.66,0,0,0-1.63-.43,1.59,1.59,0,0,0-1,2,1.79,1.79,0,0,0,.36.61A20.71,20.71,0,0,0,62.9,68a1.56,1.56,0,0,0,2.66-1.11,1.49,1.49,0,0,0-.44-1.09Z" transform="translate(0.01 0)"/><path class="cls-1" d="M17.66,36.77A26.61,26.61,0,0,0,15.05,36a1.57,1.57,0,0,0-.82,3,22.77,22.77,0,0,0,2.57.72h.29a1.55,1.55,0,0,0,1.52-1.26,1.64,1.64,0,0,0-.95-1.78Z" transform="translate(0.01 0)"/><path class="cls-1" d="M23.57,63a1.49,1.49,0,0,0-.9.49c-.44.4-.86.81-1.29,1.23l-.37.36a1.57,1.57,0,0,0-.15,2.21l.07.08a1.57,1.57,0,0,0,1.15.5,1.73,1.73,0,0,0,1.16-.48c.57-.52,1.12-1.06,1.67-1.6a1.42,1.42,0,0,0,.44-1.51A1.55,1.55,0,0,0,23.57,63Z" transform="translate(0.01 0)"/><path class="cls-1" d="M69.71,25.6a1.56,1.56,0,0,0-1.86-1.16,1.62,1.62,0,0,0-.73.39l-1,.87-.71.64a1.58,1.58,0,0,0,.89,2.88,1.63,1.63,0,0,0,.88-.27,1.24,1.24,0,0,0,.29-.27c.37-.31.74-.64,1.11-1l.63-.57A1.49,1.49,0,0,0,69.71,25.6Z" transform="translate(0.01 0)"/><path class="cls-1" d="M68.45,10.77l.74-1.92C69.9,7,70.6,5.23,71.3,3.4A2.32,2.32,0,0,0,71,.87,2.3,2.3,0,0,0,69,0a2.69,2.69,0,0,0-2,1.45l-3.5,6.22A43.17,43.17,0,1,0,43.1,88.94a43.87,43.87,0,0,0,11.67-1.61A43.16,43.16,0,0,0,68.45,10.77ZM46.06,55.53l-.18.37s-11.13-8.12-14.51-11c1.85.58,11.23,4.2,11.23,4.2a2.66,2.66,0,0,0,2.94-.58l.18-.26c.26-.5,6.74-12,11.18-19.78C53.26,37.94,46.84,53.65,46.06,55.53ZM42.57,44.25,25.05,38.77a2.23,2.23,0,0,0-2.67,1.12,2.31,2.31,0,0,0,.42,2.79c.12.13,1.47,1.26,8.45,7.1C37,54.61,44.23,60.63,45,61.31a2.51,2.51,0,0,0,4.35-1.06c.49-1.4,17-44,17-44A37.54,37.54,0,0,1,43.15,83.3h0a37.55,37.55,0,0,1,0-75.1h0a37.7,37.7,0,0,1,17.56,4.36C59.93,13.88,44.1,41.55,42.57,44.25Z" transform="translate(0.01 0)"/></svg>