<svg id="Layer_1" data-name="Layer 1" xmlns="http://www.w3.org/2000/svg" viewBox="0 0 97.21 98.42"><defs><style>.cls-1{opacity:0.7;}.cls-2{fill:#dcdcdc;}</style></defs><title>smilesIcon</title><g class="cls-1"><path class="cls-2" d="M23.72,36.54c1.32-.29,2.65-.56,4-.73A37.53,37.53,0,0,1,32,35.58l1.79.09,2.81.33.76.16a31.2,31.2,0,0,1,9.7,3.6c1.2.69,2.34,1.46,3.47,2.26l2.07,1.78,1.28,1.25c.4.45.81.88,1.19,1.34s1,1.24,1.54,1.86c.13.19.25.39.39.58.68.93,1.26,1.93,1.86,2.91.64,1.21,1.23,2.46,1.74,3.69a35.92,35.92,0,0,1,1.25,3.8,31.3,31.3,0,0,1,.76,4.08,34.45,34.45,0,0,1,.21,4.2c0,.54-.08,1.08-.07,1.62l-.36,3-.09.4a31.53,31.53,0,0,1-2.39,7.58A35.36,35.36,0,0,1,56.41,86l-1.8,2.2-1.26,1.29c-1,.94-2.09,1.86-3.19,2.72a24,24,0,0,1-3.44,2.18c-1.2.65-2.47,1.24-3.71,1.81a22.87,22.87,0,0,1-3.89,1.24c-1.32.34-2.66.55-4,.77a31.77,31.77,0,0,1-4.3.21l-1.69-.07L26.28,98h-.11a31.78,31.78,0,0,1-13.56-5.89.67.67,0,0,0-.33-.15L10.12,90.1A8.69,8.69,0,0,0,9,89c-1-1.06-1.9-2.13-2.78-3.26-.25-.36-.49-.73-.75-1.09-.54-.77-1-1.6-1.5-2.4-.6-1.19-1.19-2.39-1.7-3.63A38.91,38.91,0,0,1,1,74.71a30.27,30.27,0,0,1-.75-4.08,25.27,25.27,0,0,1-.19-4.07.29.29,0,0,0,0-.13,5.5,5.5,0,0,0,.07-1.67c.19-1,.23-1.92.37-2.88a3.78,3.78,0,0,1,.14-.65A31.65,31.65,0,0,1,3.92,51.9a41.47,41.47,0,0,1,2.53-4l1.9-2.27a15.33,15.33,0,0,0,1.13-1.15,39.45,39.45,0,0,1,3.29-2.79,32.58,32.58,0,0,1,8.4-4.41C22,37,22.87,36.81,23.72,36.54ZM36.84,91.69a21.23,21.23,0,0,0,3.91-1.18,14.43,14.43,0,0,0,1.76-.77,11.74,11.74,0,0,0,1.9-1,14.49,14.49,0,0,0,2.32-1.56,7.29,7.29,0,0,0,1-.84,19.1,19.1,0,0,0,3.12-3.17A19.65,19.65,0,0,0,53,80.2a8.56,8.56,0,0,0,.63-1.15A19.8,19.8,0,0,0,55.37,75a8.43,8.43,0,0,0,.48-1.55,17.35,17.35,0,0,0,.64-3.27,21.19,21.19,0,0,0,.16-4.36,8.7,8.7,0,0,0,0-1.35,1.21,1.21,0,0,0,0-.38,10.76,10.76,0,0,0-.46-2.52,9.39,9.39,0,0,0-.38-1.65,10.6,10.6,0,0,0-.76-2.2,18.38,18.38,0,0,0-1-2.22A10.27,10.27,0,0,0,53.19,54a12.66,12.66,0,0,0-1.58-2.32,7.72,7.72,0,0,0-.88-1.1,21.39,21.39,0,0,0-3.18-3.13,18.92,18.92,0,0,0-2.79-2,8.19,8.19,0,0,0-1.22-.7A21.83,21.83,0,0,0,39.39,43a8.93,8.93,0,0,0-1.45-.42,19.31,19.31,0,0,0-3.37-.66,20,20,0,0,0-4.44-.15,6.63,6.63,0,0,0-1.54.13h-.36a27.72,27.72,0,0,0-4.42,1,24.61,24.61,0,0,0-5.33,2.41,18.92,18.92,0,0,0-2.26,1.51,7.18,7.18,0,0,0-1.09.89A19.84,19.84,0,0,0,12,50.81a20.12,20.12,0,0,0-2.06,2.88,8.15,8.15,0,0,0-.71,1.21,21.76,21.76,0,0,0-1.79,4.15A9.09,9.09,0,0,0,7,60.4a19.38,19.38,0,0,0-.69,3.47,21.61,21.61,0,0,0-.2,4.33,8.06,8.06,0,0,0,.11,1.39,13.39,13.39,0,0,0,.45,2.81,19.89,19.89,0,0,0,1.18,3.92,20.82,20.82,0,0,0,1.79,3.6c.12.21.23.43.37.64a11.4,11.4,0,0,0,1.33,1.83,4.55,4.55,0,0,0,.74,1,22,22,0,0,0,3.14,3.11,20.1,20.1,0,0,0,2.86,2,11,11,0,0,0,1.26.71A21.14,21.14,0,0,0,23.49,91a8,8,0,0,0,1.27.37,18.37,18.37,0,0,0,3.53.69,20,20,0,0,0,4.44.17,7.29,7.29,0,0,0,1.4-.12A11.26,11.26,0,0,0,36.84,91.69Z" transform="translate(0 0)"/><path class="cls-2" d="M34.26,52.26A4.52,4.52,0,0,1,38,50.73l1.21.21a9.46,9.46,0,0,1,2.28,1,13.72,13.72,0,0,1,2,1.47h0a12.57,12.57,0,0,1,2.35,3.3.31.31,0,0,0,.09.11,1.1,1.1,0,0,1-.57,1.38,1.18,1.18,0,0,1-1.23-.33l-.35-.26a18.79,18.79,0,0,0-1.63-1.32,4.93,4.93,0,0,0-2.25-1,1.72,1.72,0,0,0-.81-.09,3.31,3.31,0,0,0-2.45.9,2.23,2.23,0,0,0-.61.69,3.43,3.43,0,0,0-.51.84,12.4,12.4,0,0,0-.73,3.66c-.09.54-.16,1.09-.71,1.4a1.09,1.09,0,0,1-1.36-.58c-.09-.34-.19-.69-.27-1A13,13,0,0,1,32.18,58v-.33a10.69,10.69,0,0,1,1.37-4.47Z" transform="translate(0 0)"/><path class="cls-2" d="M15.47,59.68c.25-.22.49-.44.75-.65a4.36,4.36,0,0,1,2.94-.83l1.29.23c.28.09.56.18.84.29a10.93,10.93,0,0,1,3.32,2.12l.1.1a13,13,0,0,1,2.43,3.41,1.08,1.08,0,0,1-.59,1.35,1.14,1.14,0,0,1-.45,0c-.44,0-.68-.39-1-.58a20.69,20.69,0,0,0-1.94-1.56,4.47,4.47,0,0,0-2-.86,2.05,2.05,0,0,0-.92-.08,3.25,3.25,0,0,0-2.27.89,2,2,0,0,0-.61.66,2.89,2.89,0,0,0-.54.87,12.24,12.24,0,0,0-.75,3.69c-.09.54-.15,1.11-.72,1.4A1.14,1.14,0,0,1,14,69.55a14.62,14.62,0,0,1-.57-4v-.17a10.58,10.58,0,0,1,1.45-4.81A6.42,6.42,0,0,1,15.47,59.68Z" transform="translate(0 0)"/><path class="cls-2" d="M38.14,83.94A24.5,24.5,0,0,1,34.2,85a26.55,26.55,0,0,1-4.18.3,4.18,4.18,0,0,0-1,0c-.63-.09-1.27-.15-1.89-.28s-1.22-.3-1.83-.45c-.93-.3-1.86-.62-2.76-1-.26-.13-.52-.28-.79-.4a3.23,3.23,0,0,1-2.11-2.82,3.34,3.34,0,0,1,.45-1.69,3.21,3.21,0,0,1,2.32-1.5,3.58,3.58,0,0,1,1.58.29,12.41,12.41,0,0,0,1.43.67,8.38,8.38,0,0,0,2,.66,6.71,6.71,0,0,0,1.54.33,11.81,11.81,0,0,0,2.91,0,11.72,11.72,0,0,0,4-.92,11.81,11.81,0,0,0,3.59-2,11.75,11.75,0,0,0,3-3.32,8.32,8.32,0,0,0,1-2c.09-.2.18-.4.26-.61A4.18,4.18,0,0,1,45,68.2a3.21,3.21,0,0,1,2.74-.47,3.48,3.48,0,0,1,1.42.9,3.13,3.13,0,0,1,.52,3.16c-.15.39-.28.79-.42,1.18-.39.9-.85,1.77-1.32,2.62a22.15,22.15,0,0,1-2.32,3.12l-.61.66A23.65,23.65,0,0,1,41.75,82c-.61.39-1.23.74-1.87,1.07Z" transform="translate(0 0)"/><path class="cls-2" d="M86.61,9.58c.78.48,1.55,1,2.29,1.54a28.92,28.92,0,0,1,2.2,1.93l.83.89,1.19,1.47.29.44a21.44,21.44,0,0,1,3,6.36c.25.91.45,1.82.61,2.75.06.63.13,1.25.19,1.88v1.21a8.31,8.31,0,0,1-.06,1.22c-.06.41-.09,1.09-.13,1.64l-.09.47c-.11.78-.31,1.54-.48,2.3a18.8,18.8,0,0,1-.92,2.62,25.1,25.1,0,0,1-1.2,2.44,19.13,19.13,0,0,1-1.57,2.34,16.82,16.82,0,0,1-1.85,2.12,9.58,9.58,0,0,0-.8.76l-1.61,1.3-.23.15A21.67,21.67,0,0,1,83.5,48a25.11,25.11,0,0,1-4.5,1.2l-1.94.2H75.83A23.76,23.76,0,0,1,73,49.17a17.38,17.38,0,0,1-2.71-.57c-.89-.25-1.76-.57-2.62-.89a16.88,16.88,0,0,1-2.48-1.24A25.56,25.56,0,0,1,62.87,45c-.76-.61-1.48-1.27-2.19-1.94l-.79-.81-1.22-1.53v-.06a21.56,21.56,0,0,1-3.82-9.28.39.39,0,0,0-.09-.23c-.06-.65-.12-1.29-.17-1.94a5,5,0,0,0,0-1.09,25.39,25.39,0,0,1,.2-2.91,6.89,6.89,0,0,1,.15-.89c.1-.63.28-1.25.41-1.88.27-.87.56-1.73.9-2.57a26,26,0,0,1,1.22-2.49A18.75,18.75,0,0,1,59,15a19.27,19.27,0,0,1,1.84-2.07.14.14,0,0,0,0-.09,4.09,4.09,0,0,0,.83-.78c.54-.37,1-.83,1.55-1.22l.35-.23a21.5,21.5,0,0,1,6-3,27.49,27.49,0,0,1,3.11-.72l2-.2a9.91,9.91,0,0,0,1.09,0,28.46,28.46,0,0,1,2.92.21,21.93,21.93,0,0,1,6.18,1.85C85.54,9,86.07,9.3,86.61,9.58Zm-19.81,33a13.36,13.36,0,0,0,2.46,1.28,9,9,0,0,0,1.22.46,8.78,8.78,0,0,0,1.42.39,9.92,9.92,0,0,0,1.87.34,5.47,5.47,0,0,0,.9.08,13.67,13.67,0,0,0,3-.06,13.09,13.09,0,0,0,2.41-.43,5.27,5.27,0,0,0,.86-.25,13.67,13.67,0,0,0,2.8-1.16,5.31,5.31,0,0,0,1-.53,11.66,11.66,0,0,0,1.87-1.24,14.53,14.53,0,0,0,2.15-2,5.61,5.61,0,0,0,.59-.7c.08,0,.11-.14.16-.21a7.13,7.13,0,0,0,1-1.44,6.31,6.31,0,0,0,.6-1,8.15,8.15,0,0,0,.68-1.43,14.56,14.56,0,0,0,.57-1.56A6.87,6.87,0,0,0,92.61,32,9.18,9.18,0,0,0,93,30.14a4.78,4.78,0,0,0,.1-1,15,15,0,0,0-.06-3,12.37,12.37,0,0,0-.38-2.27,6,6,0,0,0-.26-.92,14.69,14.69,0,0,0-1.16-2.85,5.31,5.31,0,0,0-.58-.9,14.19,14.19,0,0,0-1.32-1.92A13.07,13.07,0,0,0,87.2,15.1a4.73,4.73,0,0,0-.81-.67l-.18-.17a18.7,18.7,0,0,0-2.6-1.6,17.08,17.08,0,0,0-3.74-1.36A12.67,12.67,0,0,0,78.05,11a4.3,4.3,0,0,0-1-.08,13.08,13.08,0,0,0-3,0,12.67,12.67,0,0,0-2.37.43,5,5,0,0,0-.92.25A14.39,14.39,0,0,0,68,12.78a6.85,6.85,0,0,0-.84.46,13,13,0,0,0-2,1.36,15.6,15.6,0,0,0-2.14,2,6.05,6.05,0,0,0-.61.73,8.9,8.9,0,0,0-1.09,1.56A13.45,13.45,0,0,0,60,21.36a13.37,13.37,0,0,0-.84,2.6,4.21,4.21,0,0,0-.12.48A7.15,7.15,0,0,0,58.83,26a2.83,2.83,0,0,0-.09.82,14.33,14.33,0,0,0,0,3,13.21,13.21,0,0,0,.44,2.42,6.33,6.33,0,0,0,.28.94A14.39,14.39,0,0,0,60.66,36a6,6,0,0,0,.44.78,12.54,12.54,0,0,0,1.39,2,13.25,13.25,0,0,0,2.12,2.18,6.15,6.15,0,0,0,.74.61,7.34,7.34,0,0,0,1.45,1.09Z" transform="translate(0 0)"/><path class="cls-2" d="M84.27,22.2a3,3,0,0,1,2.55,1l.49.68a6.29,6.29,0,0,1,.63,1.57,9.34,9.34,0,0,1,.25,1.75h0a8.4,8.4,0,0,1-.42,2.72V30a.74.74,0,0,1-.91.38.81.81,0,0,1-.44-.75v-.29a9.8,9.8,0,0,0-.16-1.42,3.36,3.36,0,0,0-.65-1.57,1.12,1.12,0,0,0-.36-.42,2.24,2.24,0,0,0-1.64-.75,1.62,1.62,0,0,0-.62,0,2.15,2.15,0,0,0-.65.17,8.33,8.33,0,0,0-2.09,1.43,1.13,1.13,0,0,1-1,.34.74.74,0,0,1-.39-.92l.36-.63a8.83,8.83,0,0,1,1.33-1.65c0-.05.11-.1.16-.16a7.43,7.43,0,0,1,2.76-1.5Z" transform="translate(0 0)"/><path class="cls-2" d="M71.61,16.91h.67a3,3,0,0,1,1.83,1l.52.72c.09.18.19.35.27.54a7.58,7.58,0,0,1,.6,2.61v.1a9,9,0,0,1-.43,2.81.73.73,0,0,1-.93.38.63.63,0,0,1-.24-.19c-.2-.23-.15-.51-.22-.77a13.77,13.77,0,0,0-.21-1.68A3.23,3.23,0,0,0,72.89,21a1.46,1.46,0,0,0-.41-.48A2.26,2.26,0,0,0,71,19.91a1.26,1.26,0,0,0-.61,0,1.75,1.75,0,0,0-.67.17,8.27,8.27,0,0,0-2.12,1.44c-.3.22-.6.47-1,.34a.74.74,0,0,1-.37-.92,9.82,9.82,0,0,1,1.65-2.24l.08-.08a7.2,7.2,0,0,1,3-1.65A4.62,4.62,0,0,0,71.61,16.91Z" transform="translate(0 0)"/><path class="cls-2" d="M71.12,39.47a14,14,0,0,1-4.61-3.18,2.56,2.56,0,0,0-.46-.47c-.26-.34-.54-.68-.79-1a10.55,10.55,0,0,1-.67-1.09c-.32-.59-.6-1.19-.86-1.8-.06-.19-.12-.38-.19-.57A2.17,2.17,0,0,1,63.85,29a2.28,2.28,0,0,1,1-.6,2.2,2.2,0,0,1,1.81.37,2.34,2.34,0,0,1,.63.89,7.09,7.09,0,0,0,.38,1,5.47,5.47,0,0,0,.66,1.27,4.44,4.44,0,0,0,.59.89,8.43,8.43,0,0,0,1.4,1.4,9.19,9.19,0,0,0,5.11,2.13,7.79,7.79,0,0,0,3-.2,5.53,5.53,0,0,0,1.43-.45c.14-.06.28-.11.41-.18a2.94,2.94,0,0,1,1.58-.41,2.2,2.2,0,0,1,1.56,1.07,2.24,2.24,0,0,1,.26,1.11,2.08,2.08,0,0,1-1.25,1.78l-.77.37c-.62.25-1.25.46-1.89.65a16.13,16.13,0,0,1-2.58.42h-.61a16.94,16.94,0,0,1-2.84-.25,14.11,14.11,0,0,1-1.42-.37Z" transform="translate(0 0)"/><path class="cls-2" d="M29,1.46c.61-.27,1.23-.52,1.86-.73A20.55,20.55,0,0,1,32.88.2l.87-.1L35.11,0h.38a15.47,15.47,0,0,1,5,.83c.64.22,1.26.48,1.88.76l1.24.67.73.48.7.53L46,4l.24.24c.41.39.78.81,1.17,1.23a13.58,13.58,0,0,1,1.18,1.62c.37.56.66,1.13,1,1.71a10.12,10.12,0,0,1,.74,1.9,17.16,17.16,0,0,1,.49,2c0,.27.07.53.12.79,0,.5.07,1,.11,1.49v.2a15.36,15.36,0,0,1-.45,3.88,17.45,17.45,0,0,1-1.23,3.12l-.72,1.27-.49.74c-.41.55-.83,1.09-1.28,1.61a11.67,11.67,0,0,1-1.45,1.37c-.51.42-1.06.81-1.61,1.19a18.69,18.69,0,0,1-1.76,1,13.72,13.72,0,0,1-1.85.74,15.75,15.75,0,0,1-2.05.5l-.82.13-1.41.1h0a15.43,15.43,0,0,1-7.07-1.55.25.25,0,0,0-.21-.1l-1.22-.69a4.12,4.12,0,0,0-.65-.44c-.56-.42-1.12-.85-1.64-1.31l-.46-.46c-.33-.32-.63-.68-.95-1a17.49,17.49,0,0,1-1.15-1.59c-.36-.59-.67-1.15-1-1.74a11.51,11.51,0,0,1-.74-1.9,13.05,13.05,0,0,1-.47-1.94v-.06a2.79,2.79,0,0,0-.12-.81c0-.48-.07-1-.09-1.42v-.33a15.33,15.33,0,0,1,.74-4.8,20.71,20.71,0,0,1,.85-2.14l.7-1.27a5.74,5.74,0,0,0,.43-.66A19.27,19.27,0,0,1,24.19,5a15.49,15.49,0,0,1,3.64-2.91C28.19,1.86,28.61,1.67,29,1.46ZM40.43,26.79a10.66,10.66,0,0,0,1.77-.93,8.23,8.23,0,0,0,.78-.53,5.92,5.92,0,0,0,.82-.68,6.75,6.75,0,0,0,1-1,5,5,0,0,0,.42-.5,9.6,9.6,0,0,0,1.21-1.82,10.54,10.54,0,0,0,.74-1.6,3.39,3.39,0,0,0,.21-.61A9.18,9.18,0,0,0,47.84,17a4.15,4.15,0,0,0,.08-.79,7.4,7.4,0,0,0,0-1.63,9.77,9.77,0,0,0-.31-2.08,4.64,4.64,0,0,0-.17-.64.64.64,0,0,0-.06-.18,4.91,4.91,0,0,0-.46-1.17,5.18,5.18,0,0,0-.34-.76,5,5,0,0,0-.57-1,9.86,9.86,0,0,0-.69-1,4.86,4.86,0,0,0-.58-.53,6.75,6.75,0,0,0-1-1,3.17,3.17,0,0,0-.52-.45A10.1,10.1,0,0,0,41.4,4.54a9.6,9.6,0,0,0-1.53-.7,5,5,0,0,0-.65-.23,10,10,0,0,0-2.17-.48,4.53,4.53,0,0,0-.74-.07,9.43,9.43,0,0,0-1.68,0,9.74,9.74,0,0,0-2.15.34,3.06,3.06,0,0,0-.73.21h-.17a15.59,15.59,0,0,0-2,.89,11.93,11.93,0,0,0-2.35,1.7,8.43,8.43,0,0,0-.95.94,3.18,3.18,0,0,0-.44.53,9.48,9.48,0,0,0-1.23,1.79A9,9,0,0,0,23.89,11a3.87,3.87,0,0,0-.23.65,10.77,10.77,0,0,0-.47,2.17,5.38,5.38,0,0,0-.07.69,10.11,10.11,0,0,0,0,1.74,10.78,10.78,0,0,0,.33,2.11,3.79,3.79,0,0,0,.18.66,5.89,5.89,0,0,0,.48,1.29A10,10,0,0,0,25,22.13a9.6,9.6,0,0,0,1.2,1.57,2.91,2.91,0,0,0,.24.27,6.45,6.45,0,0,0,.81.76,2.11,2.11,0,0,0,.45.39,10.9,10.9,0,0,0,1.8,1.21,10.12,10.12,0,0,0,1.57.72,4,4,0,0,0,.67.22,10,10,0,0,0,2.15.48c.21,0,.43.05.64.06a10.34,10.34,0,0,0,1.76,0,9.72,9.72,0,0,0,2.15-.33,2.94,2.94,0,0,0,.66-.19A11.86,11.86,0,0,0,40.43,26.79Z" transform="translate(0 0)"/><path class="cls-2" d="M35.51,8A2.21,2.21,0,0,1,37.18,7h.6A4.35,4.35,0,0,1,39,7.2a6,6,0,0,1,1.08.53h0a6,6,0,0,1,1.46,1.39l.05.05a.54.54,0,0,1-.15.7.58.58,0,0,1-.62,0l-.19-.09a7.9,7.9,0,0,0-.91-.48A2.43,2.43,0,0,0,38.51,9a.9.9,0,0,0-.4,0,1.63,1.63,0,0,0-1.1.66,1.18,1.18,0,0,0-.23.39,1.74,1.74,0,0,0-.17.45,5.62,5.62,0,0,0,0,1.83.81.81,0,0,1-.21.74.53.53,0,0,1-.71-.15l-.23-.47A6.21,6.21,0,0,1,35,10.94v-.16a5.35,5.35,0,0,1,.24-2.25A4.44,4.44,0,0,0,35.51,8Z" transform="translate(0 0)"/><path class="cls-2" d="M27.16,13.37l.3-.38a2.17,2.17,0,0,1,1.34-.68h.64a1.07,1.07,0,0,1,.43.06,5.54,5.54,0,0,1,1.79.71h.06a6.65,6.65,0,0,1,1.49,1.41.54.54,0,0,1-.16.71.52.52,0,0,1-.21.07,1.5,1.5,0,0,1-.55-.19,11.13,11.13,0,0,0-1.08-.57,2.15,2.15,0,0,0-1.06-.22,1,1,0,0,0-.45.05,1.64,1.64,0,0,0-1,.64,1.1,1.1,0,0,0-.23.37,1.28,1.28,0,0,0-.18.47,5.74,5.74,0,0,0,0,1.85.89.89,0,0,1-.22.74.55.55,0,0,1-.7-.16,6.79,6.79,0,0,1-.65-1.9v-.08A5.36,5.36,0,0,1,27,13.82C27,13.67,27.09,13.52,27.16,13.37Z" transform="translate(0 0)"/><path class="cls-2" d="M40.34,22.93a12.1,12.1,0,0,1-1.8.9,12.54,12.54,0,0,1-2,.53,1.85,1.85,0,0,0-.47.08h-.94a5.62,5.62,0,0,1-.92-.05,14.05,14.05,0,0,1-1.42-.23L32.37,24a1.59,1.59,0,0,1-1.28-1.16,1.64,1.64,0,0,1,.06-.85,1.6,1.6,0,0,1,1-.92,1.76,1.76,0,0,1,.79,0,6.87,6.87,0,0,0,.75.19,3.76,3.76,0,0,0,1,.13,3.31,3.31,0,0,0,.77,0,5.49,5.49,0,0,0,1.4-.25,5.69,5.69,0,0,0,1.85-.82A6.08,6.08,0,0,0,40.23,19a5.73,5.73,0,0,0,1.13-1.82,3.89,3.89,0,0,0,.32-1,.54.54,0,0,1,.07-.32,2,2,0,0,1,.41-1.11,1.55,1.55,0,0,1,1.27-.57,1.66,1.66,0,0,1,.77.3A1.53,1.53,0,0,1,44.74,16l-.09.61c-.11.47-.24.93-.39,1.39a10.6,10.6,0,0,1-.81,1.7l-.23.37a10.53,10.53,0,0,1-1.32,1.58c-.25.24-.52.47-.8.69Z" transform="translate(0 0)"/></g></svg>