<svg id="Layer_1" data-name="Layer 1" xmlns="http://www.w3.org/2000/svg" viewBox="0 0 97.25 98.4"><defs><style>.cls-1{opacity:0.6;}.cls-2{fill:#dcdcdc;}</style></defs><title>smilesIcon</title><g class="cls-1"><path class="cls-2" d="M25.11,37.34c1.32-.29,2.65-.56,4-.73s2.86-.22,4.29-.23l1.79.09L38,36.8l.76.16a31.2,31.2,0,0,1,9.7,3.6c1.2.69,2.34,1.46,3.47,2.26L54,44.6l1.28,1.25c.4.45.81.88,1.19,1.34s1,1.24,1.54,1.86c.13.19.25.39.39.58.68.93,1.26,1.93,1.86,2.91C60.9,53.75,61.49,55,62,56.23s.88,2.52,1.25,3.8.56,2.71.76,4.08.18,2.8.21,4.2c0,.54-.08,1.08-.07,1.62l-.36,3-.09.4a31.39,31.39,0,0,1-2.39,7.58,35.36,35.36,0,0,1-3.51,5.89L56,89l-1.26,1.29c-1,.94-2.09,1.86-3.19,2.72s-2.24,1.53-3.44,2.18S45.64,96.43,44.4,97s-2.57.9-3.89,1.24-2.66.55-4,.77-2.86.18-4.3.21l-1.69-.07-2.85-.35-.11,0A31.75,31.75,0,0,1,14,92.91a.67.67,0,0,0-.33-.15L11.51,90.9a8.69,8.69,0,0,0-1.13-1.14c-1-1.06-1.9-2.13-2.78-3.26-.25-.36-.49-.73-.75-1.09-.54-.77-1-1.6-1.5-2.4-.6-1.19-1.19-2.39-1.7-3.63s-.89-2.57-1.27-3.87-.55-2.71-.75-4.08-.21-2.71-.19-4.07a.35.35,0,0,0-.05-.13,5.5,5.5,0,0,0,.07-1.67c.19-1,.23-1.92.37-2.88,0-.22.1-.43.14-.65A31.65,31.65,0,0,1,5.31,52.7a42,42,0,0,1,2.53-4l1.9-2.27a15.33,15.33,0,0,0,1.13-1.15c1.05-1,2.15-1.92,3.29-2.79a32.74,32.74,0,0,1,8.4-4.41C23.39,37.84,24.26,37.61,25.11,37.34ZM38.23,92.49a21.47,21.47,0,0,0,3.91-1.18,14.43,14.43,0,0,0,1.76-.77,12.1,12.1,0,0,0,1.9-1.05,14.49,14.49,0,0,0,2.32-1.56,7.55,7.55,0,0,0,1-.84,19.1,19.1,0,0,0,3.12-3.17A19.46,19.46,0,0,0,54.37,81,8.16,8.16,0,0,0,55,79.85a19.58,19.58,0,0,0,1.76-4.1,8.43,8.43,0,0,0,.48-1.55,17.35,17.35,0,0,0,.64-3.27,21.19,21.19,0,0,0,.16-4.36A8.75,8.75,0,0,0,58,65.22a1.2,1.2,0,0,0,0-.38,10.86,10.86,0,0,0-.46-2.52,9.39,9.39,0,0,0-.38-1.65,11,11,0,0,0-.76-2.2,17.71,17.71,0,0,0-1-2.22,10.27,10.27,0,0,0-.82-1.44A13,13,0,0,0,53,52.49a7.2,7.2,0,0,0-.88-1.1,20.92,20.92,0,0,0-3.18-3.13,18.85,18.85,0,0,0-2.79-2,8.19,8.19,0,0,0-1.22-.7,21.83,21.83,0,0,0-4.15-1.81,8.27,8.27,0,0,0-1.45-.42,19.31,19.31,0,0,0-3.37-.66,20,20,0,0,0-4.44-.15,6.63,6.63,0,0,0-1.54.13,2.17,2.17,0,0,0-.36,0,28,28,0,0,0-4.42,1,24.61,24.61,0,0,0-5.33,2.41,19.32,19.32,0,0,0-2.26,1.51,6.62,6.62,0,0,0-1.09.89,19.84,19.84,0,0,0-3.13,3.15,20.12,20.12,0,0,0-2.06,2.88,8.15,8.15,0,0,0-.71,1.21,21.49,21.49,0,0,0-1.79,4.15,9.09,9.09,0,0,0-.4,1.35,19.56,19.56,0,0,0-.69,3.47A21.12,21.12,0,0,0,7.54,69a8.06,8.06,0,0,0,.11,1.39A13.68,13.68,0,0,0,8.1,73.2a19.89,19.89,0,0,0,1.18,3.92,20.47,20.47,0,0,0,1.79,3.6c.12.21.23.43.37.64a11.4,11.4,0,0,0,1.33,1.83,4.57,4.57,0,0,0,.74,1,21.47,21.47,0,0,0,3.14,3.11,20.61,20.61,0,0,0,2.86,2,11,11,0,0,0,1.26.71,21.14,21.14,0,0,0,4.11,1.79,7.73,7.73,0,0,0,1.27.37,18.37,18.37,0,0,0,3.53.69,20,20,0,0,0,4.44.17,7.29,7.29,0,0,0,1.4-.12A11.17,11.17,0,0,0,38.23,92.49Z" transform="translate(-1.39 -0.8)"/><path class="cls-2" d="M35.65,53.06a4.52,4.52,0,0,1,3.76-1.53l1.21.21a9.64,9.64,0,0,1,2.28,1,14.74,14.74,0,0,1,2,1.47l0,0a12.57,12.57,0,0,1,2.35,3.3.48.48,0,0,0,.09.11A1.1,1.1,0,0,1,46.77,59a1.18,1.18,0,0,1-1.23-.33,3.18,3.18,0,0,0-.35-.26,20.44,20.44,0,0,0-1.63-1.32,5,5,0,0,0-2.25-1A1.71,1.71,0,0,0,40.5,56a3.29,3.29,0,0,0-2.45.9,2.25,2.25,0,0,0-.61.69,3.15,3.15,0,0,0-.51.84,12.34,12.34,0,0,0-.73,3.66c-.09.54-.16,1.09-.71,1.4a1.09,1.09,0,0,1-1.36-.58c-.09-.34-.19-.69-.27-1a13,13,0,0,1-.29-3.11c0-.11,0-.22,0-.33A10.8,10.8,0,0,1,34.94,54Z" transform="translate(-1.39 -0.8)"/><path class="cls-2" d="M16.86,60.48c.25-.22.49-.44.75-.65A4.35,4.35,0,0,1,20.55,59l1.29.23c.28.09.56.18.84.29A11,11,0,0,1,26,61.64l.1.1a13.08,13.08,0,0,1,2.43,3.41,1.08,1.08,0,0,1-.59,1.35,1,1,0,0,1-.45,0c-.44,0-.68-.39-1-.58a22.43,22.43,0,0,0-1.94-1.56,4.51,4.51,0,0,0-2-.86,2.05,2.05,0,0,0-.92-.08,3.25,3.25,0,0,0-2.27.89,2,2,0,0,0-.61.66,2.82,2.82,0,0,0-.54.87,12.24,12.24,0,0,0-.75,3.69c-.09.54-.15,1.11-.72,1.4a1.13,1.13,0,0,1-1.34-.58,14.57,14.57,0,0,1-.57-4.05,1,1,0,0,1,0-.17,10.62,10.62,0,0,1,1.45-4.81C16.41,61.07,16.63,60.78,16.86,60.48Z" transform="translate(-1.39 -0.8)"/><path class="cls-2" d="M39.53,84.74a24.5,24.5,0,0,1-3.94,1.1,25.48,25.48,0,0,1-4.18.3,3.86,3.86,0,0,0-1,0c-.63-.09-1.27-.15-1.89-.28s-1.22-.3-1.83-.45c-.93-.3-1.86-.62-2.76-1-.26-.13-.52-.28-.79-.4a3.23,3.23,0,0,1-2.11-2.82,3.37,3.37,0,0,1,.45-1.69A3.21,3.21,0,0,1,23.8,78a3.58,3.58,0,0,1,1.58.29,12.41,12.41,0,0,0,1.43.67,8.31,8.31,0,0,0,2,.66,6.32,6.32,0,0,0,1.54.33,11.81,11.81,0,0,0,2.91,0,11.83,11.83,0,0,0,4-.92A11.83,11.83,0,0,0,40.85,77a11.7,11.7,0,0,0,3-3.32,8.5,8.5,0,0,0,1-2c.09-.2.18-.4.26-.61A4.22,4.22,0,0,1,46.38,69a3.21,3.21,0,0,1,2.74-.47,3.38,3.38,0,0,1,1.42.9,3.13,3.13,0,0,1,.52,3.16c-.15.39-.28.79-.42,1.18-.39.9-.85,1.77-1.32,2.62A22.27,22.27,0,0,1,47,79.51l-.61.66a24.26,24.26,0,0,1-3.25,2.65,21.52,21.52,0,0,1-1.87,1.07C40.7,84.16,40.12,84.46,39.53,84.74Z" transform="translate(-1.39 -0.8)"/><path class="cls-2" d="M88,10.38c.78.48,1.55,1,2.29,1.54a28.65,28.65,0,0,1,2.2,1.93l.83.89,1.19,1.47.29.44a21.35,21.35,0,0,1,3,6.36,28,28,0,0,1,.61,2.75c.06.63.13,1.25.19,1.88l0,1.21c0,.41,0,.81-.06,1.22s-.09,1.09-.13,1.64l-.09.47c-.11.78-.31,1.54-.48,2.3s-.57,1.76-.92,2.62-.77,1.64-1.2,2.44-1,1.58-1.57,2.34S93,43.33,92.3,44a9.5,9.5,0,0,0-.8.76l-1.61,1.3-.23.15a21.45,21.45,0,0,1-4.77,2.55,24.3,24.3,0,0,1-4.5,1.2l-1.94.2-1.23,0c-1,0-1.9-.08-2.84-.19s-1.82-.32-2.71-.57-1.76-.57-2.62-.89-1.68-.78-2.48-1.24a27,27,0,0,1-2.31-1.52c-.76-.61-1.48-1.27-2.19-1.94L61.28,43l-1.22-1.53,0-.06a21.56,21.56,0,0,1-3.82-9.28.39.39,0,0,0-.09-.23c-.06-.65-.12-1.29-.17-1.94a5.67,5.67,0,0,0,0-1.09c0-1,.09-1.94.2-2.91,0-.3.11-.59.15-.89.1-.63.28-1.25.41-1.88.27-.87.56-1.73.9-2.57s.78-1.67,1.22-2.49,1-1.58,1.57-2.34,1.19-1.42,1.84-2.07a.25.25,0,0,0,0-.09,4.09,4.09,0,0,0,.83-.78c.54-.37,1-.83,1.55-1.22L65,11.4a21.64,21.64,0,0,1,6-3,27.49,27.49,0,0,1,3.11-.72l2-.2a9.91,9.91,0,0,0,1.09,0,28.46,28.46,0,0,1,2.92.21,21.93,21.93,0,0,1,6.18,1.85C86.93,9.8,87.46,10.1,88,10.38Zm-19.81,33a13.69,13.69,0,0,0,2.46,1.28,9,9,0,0,0,1.22.46,8.51,8.51,0,0,0,1.42.39,9.92,9.92,0,0,0,1.87.34,5.47,5.47,0,0,0,.9.08,13.26,13.26,0,0,0,3-.06,13.09,13.09,0,0,0,2.41-.43,5.27,5.27,0,0,0,.86-.25,13.45,13.45,0,0,0,2.8-1.16,5.39,5.39,0,0,0,1-.53A11.9,11.9,0,0,0,88,42.26a14.31,14.31,0,0,0,2.15-2,5.61,5.61,0,0,0,.59-.7c.08-.05.11-.14.16-.21a7.27,7.27,0,0,0,1-1.44,6.6,6.6,0,0,0,.6-1,8.15,8.15,0,0,0,.68-1.43,13.81,13.81,0,0,0,.57-1.56A7,7,0,0,0,94,32.81a9.06,9.06,0,0,0,.34-1.87,5,5,0,0,0,.1-1,14.62,14.62,0,0,0-.06-3A12.63,12.63,0,0,0,94,24.67a6,6,0,0,0-.26-.92,14.69,14.69,0,0,0-1.16-2.85A5.51,5.51,0,0,0,92,20a13.91,13.91,0,0,0-1.32-1.92,13.07,13.07,0,0,0-2.09-2.18,4.73,4.73,0,0,0-.81-.67l-.18-.17A19.59,19.59,0,0,0,85,13.46a17.08,17.08,0,0,0-3.74-1.36,12.42,12.42,0,0,0-1.82-.34,4.36,4.36,0,0,0-.95-.08,13.27,13.27,0,0,0-3,.05,12.82,12.82,0,0,0-2.37.43,5,5,0,0,0-.92.25,14.39,14.39,0,0,0-2.84,1.17,6.85,6.85,0,0,0-.84.46,13.36,13.36,0,0,0-2,1.36,15.29,15.29,0,0,0-2.14,2,6.05,6.05,0,0,0-.61.73,9.29,9.29,0,0,0-1.09,1.56,13.14,13.14,0,0,0-1.28,2.47,13.84,13.84,0,0,0-.84,2.6,4.21,4.21,0,0,0-.12.48,7.15,7.15,0,0,0-.22,1.52,3.22,3.22,0,0,0-.09.82,14.43,14.43,0,0,0,.05,3A13.3,13.3,0,0,0,60.62,33a6.33,6.33,0,0,0,.28.94,14.39,14.39,0,0,0,1.15,2.82,6,6,0,0,0,.44.78,12.62,12.62,0,0,0,1.39,2A13.46,13.46,0,0,0,66,41.72a5.45,5.45,0,0,0,.74.61A7.22,7.22,0,0,0,68.19,43.42Z" transform="translate(-1.39 -0.8)"/><path class="cls-2" d="M85.66,23a3.07,3.07,0,0,1,2.55,1l.49.68a6.29,6.29,0,0,1,.63,1.57A9.27,9.27,0,0,1,89.58,28s0,0,0,0a8.36,8.36,0,0,1-.42,2.72.34.34,0,0,0,0,.1.74.74,0,0,1-.91.38.8.8,0,0,1-.44-.75,2.89,2.89,0,0,0,0-.29c0-.47-.09-.95-.16-1.42A3.34,3.34,0,0,0,87,27.17a1.12,1.12,0,0,0-.36-.42A2.25,2.25,0,0,0,85,26a1.61,1.61,0,0,0-.62,0,2.08,2.08,0,0,0-.65.17,8.33,8.33,0,0,0-2.09,1.43,1.13,1.13,0,0,1-1,.34.73.73,0,0,1-.39-.92l.36-.63a8.83,8.83,0,0,1,1.33-1.65c0-.05.11-.1.16-.16a7.43,7.43,0,0,1,2.76-1.5Z" transform="translate(-1.39 -0.8)"/><path class="cls-2" d="M73,17.71l.67,0a3,3,0,0,1,1.83,1l.52.72c.09.18.19.35.27.54a7.53,7.53,0,0,1,.6,2.61v.1a8.91,8.91,0,0,1-.43,2.81.74.74,0,0,1-.93.38.63.63,0,0,1-.24-.19c-.2-.23-.15-.51-.22-.77a13.53,13.53,0,0,0-.21-1.68,3.23,3.23,0,0,0-.58-1.39,1.46,1.46,0,0,0-.41-.48,2.26,2.26,0,0,0-1.53-.65,1.39,1.39,0,0,0-.61,0,1.7,1.7,0,0,0-.67.17,8.27,8.27,0,0,0-2.12,1.44c-.3.22-.6.47-1,.34a.75.75,0,0,1-.37-.92,9.75,9.75,0,0,1,1.65-2.24l.08-.08a7.22,7.22,0,0,1,3-1.65C72.5,17.78,72.75,17.74,73,17.71Z" transform="translate(-1.39 -0.8)"/><path class="cls-2" d="M72.51,40.27a14,14,0,0,1-4.61-3.18,2.56,2.56,0,0,0-.46-.47c-.26-.34-.54-.68-.79-1s-.45-.72-.67-1.09a19.79,19.79,0,0,1-.86-1.8c-.06-.19-.12-.38-.19-.57a2.18,2.18,0,0,1,.31-2.37,2.25,2.25,0,0,1,1-.6,2.21,2.21,0,0,1,1.81.37,2.34,2.34,0,0,1,.63.89,7.09,7.09,0,0,0,.38,1,5.47,5.47,0,0,0,.66,1.27,4.17,4.17,0,0,0,.59.89,8.06,8.06,0,0,0,1.4,1.4,9.16,9.16,0,0,0,5.11,2.13,7.75,7.75,0,0,0,3-.2,5.53,5.53,0,0,0,1.43-.45c.14-.06.28-.11.41-.18a2.92,2.92,0,0,1,1.58-.41,2.2,2.2,0,0,1,1.56,1.07,2.27,2.27,0,0,1,.26,1.11,2.1,2.1,0,0,1-1.25,1.78l-.77.37c-.62.25-1.25.46-1.89.65a15.09,15.09,0,0,1-2.58.42l-.61,0a16.94,16.94,0,0,1-2.84-.25,14.11,14.11,0,0,1-1.42-.37Z" transform="translate(-1.39 -0.8)"/><path class="cls-2" d="M30.36,2.26a19.93,19.93,0,0,1,1.86-.73A20.46,20.46,0,0,1,34.27,1L35.14.9,36.5.8h.38a15.31,15.31,0,0,1,5,.83c.64.22,1.26.48,1.88.76L45,3.06l.73.48.7.53.92.75.24.24c.41.39.78.81,1.17,1.23s.81,1.06,1.18,1.62.66,1.13,1,1.71.52,1.25.74,1.9.35,1.33.49,2a7.18,7.18,0,0,0,.12.79c0,.5.07,1,.11,1.49,0,.07,0,.13,0,.2a15.41,15.41,0,0,1-.45,3.88A17.79,17.79,0,0,1,50.72,23L50,24.27l-.49.74c-.41.55-.83,1.09-1.28,1.61s-.94.95-1.45,1.37-1.06.81-1.61,1.19-1.15.67-1.76,1-1.23.51-1.85.74-1.36.35-2.05.5l-.82.13-1.41.1h0a15.56,15.56,0,0,1-7.07-1.55A.25.25,0,0,0,30,30l-1.22-.69a4.12,4.12,0,0,0-.65-.44c-.56-.42-1.12-.85-1.64-1.31l-.46-.46c-.33-.32-.63-.68-.95-1-.4-.52-.79-1-1.15-1.59s-.67-1.15-1-1.74-.52-1.26-.74-1.9-.35-1.28-.47-1.94c0,0,0,0,0-.06a2.79,2.79,0,0,0-.12-.81c0-.48-.07-.95-.09-1.42,0-.11,0-.22,0-.33a15.33,15.33,0,0,1,.74-4.8,20.71,20.71,0,0,1,.85-2.14l.7-1.27a5.74,5.74,0,0,0,.43-.66A20.73,20.73,0,0,1,25.58,5.8a15.75,15.75,0,0,1,3.64-2.91C29.58,2.66,30,2.47,30.36,2.26ZM41.82,27.59a10.66,10.66,0,0,0,1.77-.93,8.23,8.23,0,0,0,.78-.53,6.73,6.73,0,0,0,.82-.68,6.84,6.84,0,0,0,1-1,5,5,0,0,0,.42-.5,9.29,9.29,0,0,0,1.21-1.82,10.54,10.54,0,0,0,.74-1.6,3.39,3.39,0,0,0,.21-.61,9.29,9.29,0,0,0,.46-2.14,4.15,4.15,0,0,0,.08-.79,8.07,8.07,0,0,0,0-1.63A10.08,10.08,0,0,0,49,13.28a4.64,4.64,0,0,0-.17-.64.55.55,0,0,0-.06-.18,5.08,5.08,0,0,0-.46-1.17,5.18,5.18,0,0,0-.34-.76,5.41,5.41,0,0,0-.57-1,8.24,8.24,0,0,0-.69-1A5.15,5.15,0,0,0,46.13,8a6.35,6.35,0,0,0-1-1,3.65,3.65,0,0,0-.52-.45,10.47,10.47,0,0,0-1.82-1.21,9.6,9.6,0,0,0-1.53-.7,5,5,0,0,0-.65-.23,10.64,10.64,0,0,0-2.17-.48,4.53,4.53,0,0,0-.74-.07,9.43,9.43,0,0,0-1.68,0,9.74,9.74,0,0,0-2.15.34,3.19,3.19,0,0,0-.73.21l-.17,0a15.36,15.36,0,0,0-2,.89A12.4,12.4,0,0,0,28.62,7a8.43,8.43,0,0,0-.95.94,3.18,3.18,0,0,0-.44.53A9.22,9.22,0,0,0,26,10.26a9.81,9.81,0,0,0-.72,1.58,3.58,3.58,0,0,0-.23.65,10.77,10.77,0,0,0-.47,2.17,5.38,5.38,0,0,0-.07.69,9.2,9.2,0,0,0,0,1.74,10.78,10.78,0,0,0,.33,2.11,3.79,3.79,0,0,0,.18.66,6.44,6.44,0,0,0,.48,1.29,10,10,0,0,0,.93,1.78,9.6,9.6,0,0,0,1.2,1.57,3.08,3.08,0,0,0,.24.27,5.83,5.83,0,0,0,.81.76,2.11,2.11,0,0,0,.45.39,10.9,10.9,0,0,0,1.8,1.21,10.12,10.12,0,0,0,1.57.72,4,4,0,0,0,.67.22,10.46,10.46,0,0,0,2.15.48,4.62,4.62,0,0,0,.64.06,9.41,9.41,0,0,0,1.76,0,9.72,9.72,0,0,0,2.15-.33,2.94,2.94,0,0,0,.66-.19A10.67,10.67,0,0,0,41.82,27.59Z" transform="translate(-1.39 -0.8)"/><path class="cls-2" d="M36.9,8.84a2.21,2.21,0,0,1,1.67-1.09h.6A4.46,4.46,0,0,1,40.36,8a6.76,6.76,0,0,1,1.08.53s0,0,0,0A6,6,0,0,1,42.9,9.92s0,0,.05.05a.55.55,0,0,1-.15.7.58.58,0,0,1-.62-.05,1.63,1.63,0,0,0-.19-.09,7.9,7.9,0,0,0-.91-.48,2.43,2.43,0,0,0-1.18-.29.91.91,0,0,0-.4,0,1.63,1.63,0,0,0-1.1.66,1.09,1.09,0,0,0-.23.39,1.89,1.89,0,0,0-.17.45,5.91,5.91,0,0,0,0,1.83.81.81,0,0,1-.21.74.54.54,0,0,1-.71-.15l-.23-.47a6.35,6.35,0,0,1-.43-1.47l0-.16a5.35,5.35,0,0,1,.24-2.25A5.36,5.36,0,0,0,36.9,8.84Z" transform="translate(-1.39 -0.8)"/><path class="cls-2" d="M28.55,14.17l.3-.38a2.15,2.15,0,0,1,1.34-.68h.64c.14,0,.29,0,.43.06a5.54,5.54,0,0,1,1.79.71l.06,0a6.65,6.65,0,0,1,1.49,1.41.53.53,0,0,1-.16.71.52.52,0,0,1-.21.07c-.21,0-.37-.12-.55-.19a11.13,11.13,0,0,0-1.08-.57,2.18,2.18,0,0,0-1.06-.22,1,1,0,0,0-.45.05,1.59,1.59,0,0,0-1,.64,1.1,1.1,0,0,0-.23.37,1.35,1.35,0,0,0-.18.47,6,6,0,0,0,0,1.85c0,.27,0,.55-.22.74a.55.55,0,0,1-.7-.16,7,7,0,0,1-.65-1.9s0-.05,0-.08a5.38,5.38,0,0,1,.25-2.45A5.24,5.24,0,0,1,28.55,14.17Z" transform="translate(-1.39 -0.8)"/><path class="cls-2" d="M41.73,23.73a11.63,11.63,0,0,1-1.8.9,12.15,12.15,0,0,1-2,.53,1.93,1.93,0,0,0-.47.08c-.31,0-.62,0-.94,0s-.61,0-.92-.05c-.48-.06-1-.13-1.42-.23l-.42-.12a1.6,1.6,0,0,1-1.28-1.16,1.64,1.64,0,0,1,.06-.85,1.59,1.59,0,0,1,1-.92,1.76,1.76,0,0,1,.79,0,6.33,6.33,0,0,0,.75.19,4,4,0,0,0,1,.13,3.31,3.31,0,0,0,.77,0,5.49,5.49,0,0,0,1.4-.25,5.69,5.69,0,0,0,1.85-.82,5.89,5.89,0,0,0,1.52-1.34A5.72,5.72,0,0,0,42.75,18a4.05,4.05,0,0,0,.32-1c0-.11,0-.21.07-.32a2,2,0,0,1,.41-1.11A1.59,1.59,0,0,1,44.82,15a1.66,1.66,0,0,1,.77.3,1.53,1.53,0,0,1,.54,1.47l-.09.61c-.11.47-.24.93-.39,1.39a10.6,10.6,0,0,1-.81,1.7l-.23.37a11.06,11.06,0,0,1-1.32,1.58,10.4,10.4,0,0,1-.8.69Z" transform="translate(-1.39 -0.8)"/></g></svg>