<?xml version="1.0" standalone="no"?>
<!DOCTYPE svg PUBLIC "-//W3C//DTD SVG 20010904//EN"
 "http://www.w3.org/TR/2001/REC-SVG-20010904/DTD/svg10.dtd">
<svg version="1.0" xmlns="http://www.w3.org/2000/svg"
 width="700.000000pt" height="700.000000pt" viewBox="0 0 700.000000 700.000000"
 preserveAspectRatio="xMidYMid meet">
<metadata>
Created by potrace 1.11, written by Peter Selinger 2001-2013
</metadata>
<g transform="translate(0.000000,700.000000) scale(0.100000,-0.100000)"
fill="#000000" stroke="none">
<path d="M1208 6865 c-1 -1 -34 -6 -73 -10 -88 -8 -263 -48 -335 -77 -265
-104 -405 -256 -495 -539 -15 -46 -28 -93 -31 -104 -32 -160 -34 -174 -40
-240 -3 -33 -10 -80 -14 -104 -9 -48 -9 -671 -1 -671 3 0 7 -21 7 -48 2 -55
12 -197 14 -197 3 0 8 -56 12 -122 2 -35 5 -63 9 -63 3 0 6 -15 7 -32 1 -31 3
-48 17 -143 10 -67 13 -84 21 -96 4 -8 3 -9 -4 -5 -9 5 -9 0 -2 -19 6 -15 8
-31 4 -36 -3 -5 -1 -9 3 -9 5 0 8 -16 8 -35 -1 -19 1 -35 5 -35 6 0 10 -33 14
-95 0 -16 4 -32 7 -35 4 -3 8 -21 10 -40 2 -19 5 -39 8 -45 3 -5 6 -23 8 -40
8 -65 11 -81 18 -98 4 -10 8 -31 9 -47 0 -17 4 -30 8 -30 5 0 7 -3 6 -7 -2 -7
11 -89 19 -123 2 -8 5 -24 6 -35 2 -12 6 -26 10 -31 3 -6 7 -27 9 -47 1 -21 5
-37 9 -37 4 0 6 -8 4 -17 -1 -10 0 -22 4 -28 3 -5 6 -14 8 -20 1 -5 6 -32 12
-60 6 -27 14 -61 17 -75 3 -14 25 -104 50 -200 25 -96 47 -182 48 -190 2 -8
10 -35 17 -60 7 -25 13 -51 15 -58 1 -6 13 -49 27 -95 14 -45 42 -138 62 -207
43 -142 196 -588 236 -685 7 -16 13 -34 15 -40 3 -16 128 -312 164 -390 69
-152 206 -422 221 -435 3 -3 11 -20 18 -37 8 -18 17 -33 21 -33 4 0 10 -8 13
-18 4 -9 18 -35 32 -57 13 -22 30 -50 37 -62 6 -13 15 -23 20 -23 4 0 8 -7 8
-15 0 -8 5 -15 10 -15 6 0 10 -7 10 -15 0 -8 5 -15 10 -15 6 0 10 -7 10 -15 0
-8 5 -15 12 -15 6 0 9 -3 5 -6 -3 -3 2 -13 11 -23 10 -9 28 -32 42 -51 114
-155 341 -361 454 -411 57 -25 196 -57 271 -62 113 -8 225 39 303 128 101 115
162 283 256 705 37 162 68 302 70 310 65 245 125 376 215 473 82 88 169 128
290 133 168 8 291 -61 387 -216 20 -33 41 -60 45 -60 5 0 8 -3 7 -7 -1 -5 6
-25 15 -46 9 -20 32 -86 51 -145 33 -103 54 -178 116 -417 79 -302 166 -528
253 -654 46 -67 126 -143 181 -169 110 -55 250 -52 380 7 445 202 946 1029
1341 2216 55 164 156 496 180 590 5 17 9 35 11 40 39 126 153 622 189 815 3
14 7 35 9 47 12 59 76 455 82 508 3 33 8 68 10 79 2 10 6 44 9 75 4 31 8 72
10 91 3 19 7 71 11 115 3 44 8 96 11 115 9 65 11 724 3 800 -5 41 -12 100 -15
130 -3 30 -8 64 -10 75 -3 11 -7 37 -10 57 -18 135 -91 374 -143 473 -117 223
-260 338 -494 400 -87 22 -113 27 -213 41 -56 8 -298 7 -376 -1 -263 -27 -546
-91 -804 -182 -107 -37 -129 -46 -495 -201 -19 -8 -36 -14 -38 -13 -1 1 -15
-5 -30 -13 -107 -60 -430 -171 -557 -191 -136 -22 -314 20 -497 115 -32 17
-58 27 -58 23 0 -4 -4 -3 -8 3 -11 17 -437 226 -554 272 -153 59 -395 129
-518 148 -19 3 -38 8 -41 9 -3 2 -28 7 -55 11 -27 3 -58 8 -69 10 -11 2 -45 6
-75 10 -30 3 -66 7 -80 10 -27 6 -426 14 -432 9z m1553 -3272 c13 -16 12 -17
-3 -4 -17 13 -22 21 -14 21 2 0 10 -8 17 -17z m74 -63 c10 -11 14 -20 9 -20
-5 0 -15 9 -22 20 -7 11 -11 20 -9 20 2 0 12 -9 22 -20z m125 -135 l25 -30
-27 24 c-16 14 -28 29 -28 34 0 6 1 8 3 6 1 -2 13 -17 27 -34z m61 -72 c13
-16 12 -17 -3 -4 -17 13 -22 21 -14 21 2 0 10 -8 17 -17z m34 -43 c10 -11 16
-20 13 -20 -3 0 -13 9 -23 20 -10 11 -16 20 -13 20 3 0 13 -9 23 -20z m36 -47
c13 -16 12 -17 -3 -4 -17 13 -22 21 -14 21 2 0 10 -8 17 -17z m50 -70 c13 -16
12 -17 -3 -4 -17 13 -22 21 -14 21 2 0 10 -8 17 -17z m30 -40 c13 -16 12 -17
-3 -4 -17 13 -22 21 -14 21 2 0 10 -8 17 -17z m149 -233 c6 -11 8 -20 6 -20
-3 0 -10 9 -16 20 -6 11 -8 20 -6 20 3 0 10 -9 16 -20z m30 -50 c6 -11 8 -20
6 -20 -3 0 -10 9 -16 20 -6 11 -8 20 -6 20 3 0 10 -9 16 -20z m64 -116 c3 -8
2 -12 -4 -9 -6 3 -10 10 -10 16 0 14 7 11 14 -7z m26 -44 c6 -11 8 -20 6 -20
-3 0 -10 9 -16 20 -6 11 -8 20 -6 20 3 0 10 -9 16 -20z m24 -46 c3 -8 2 -12
-4 -9 -6 3 -10 10 -10 16 0 14 7 11 14 -7z m40 -80 c3 -8 2 -12 -4 -9 -6 3
-10 10 -10 16 0 14 7 11 14 -7z m40 -80 c3 -8 2 -12 -4 -9 -6 3 -10 10 -10 16
0 14 7 11 14 -7z m60 -120 c3 -8 2 -12 -4 -9 -6 3 -10 10 -10 16 0 14 7 11 14
-7z m20 -40 c3 -8 2 -12 -4 -9 -6 3 -10 10 -10 16 0 14 7 11 14 -7z m26 -59
c0 -5 -5 -3 -10 5 -5 8 -10 20 -10 25 0 6 5 3 10 -5 5 -8 10 -19 10 -25z m18
-40 c-3 -3 -9 2 -12 12 -6 14 -5 15 5 6 7 -7 10 -15 7 -18z m22 -50 c0 -5 -5
-3 -10 5 -5 8 -10 20 -10 25 0 6 5 3 10 -5 5 -8 10 -19 10 -25z m40 -90 c0 -5
-5 -3 -10 5 -5 8 -10 20 -10 25 0 6 5 3 10 -5 5 -8 10 -19 10 -25z m18 -50
c-3 -3 -9 2 -12 12 -6 14 -5 15 5 6 7 -7 10 -15 7 -18z m16 -31 c3 -8 2 -12
-4 -9 -6 3 -10 10 -10 16 0 14 7 11 14 -7z m13 -46 c-3 -8 -6 -5 -6 6 -1 11 2
17 5 13 3 -3 4 -12 1 -19z m103 -243 c0 -5 -5 -3 -10 5 -5 8 -10 20 -10 25 0
6 5 3 10 -5 5 -8 10 -19 10 -25z"/>
</g>
</svg>
