<?xml version="1.0" standalone="no"?>
<!DOCTYPE svg PUBLIC "-//W3C//DTD SVG 20010904//EN"
 "http://www.w3.org/TR/2001/REC-SVG-20010904/DTD/svg10.dtd">
<svg version="1.0" xmlns="http://www.w3.org/2000/svg"
 width="888.000000pt" height="888.000000pt" viewBox="0 0 888.000000 888.000000"
 preserveAspectRatio="xMidYMid meet">
<metadata>
Created by potrace 1.11, written by Peter Selinger 2001-2013
</metadata>
<g transform="translate(0.000000,888.000000) scale(0.100000,-0.100000)"
fill="#000000" stroke="none">
<path d="M1356 8363 c-5 -5 -42 -11 -101 -17 -99 -10 -253 -48 -360 -91 -231
-91 -368 -213 -472 -420 -34 -67 -88 -215 -104 -284 -6 -25 -13 -55 -15 -66
-9 -37 -13 -60 -18 -95 -3 -19 -7 -44 -10 -56 -20 -92 -37 -342 -37 -549 0
-209 22 -610 37 -688 2 -12 6 -51 10 -87 3 -36 7 -76 9 -90 2 -14 7 -47 10
-75 3 -27 8 -61 10 -75 5 -29 16 -111 21 -155 1 -16 3 -30 4 -30 1 0 3 -11 5
-25 2 -14 11 -70 20 -125 9 -55 19 -116 21 -135 3 -19 8 -42 11 -50 3 -8 7
-28 9 -45 7 -46 63 -335 74 -380 5 -22 26 -114 46 -205 19 -91 37 -172 39
-180 4 -16 24 -103 31 -132 2 -10 6 -28 9 -40 9 -43 67 -273 73 -288 3 -8 6
-22 8 -31 5 -21 56 -208 90 -324 8 -27 16 -54 17 -60 2 -5 11 -37 21 -70 9
-33 20 -67 23 -75 3 -8 7 -20 9 -27 3 -18 44 -145 54 -168 4 -11 15 -42 23
-70 19 -63 105 -313 117 -340 4 -11 18 -47 30 -80 13 -33 29 -72 37 -87 8 -16
12 -28 9 -28 -4 0 7 -30 44 -115 5 -11 41 -96 80 -190 207 -490 468 -946 695
-1213 39 -46 201 -210 240 -243 39 -33 143 -101 175 -116 73 -32 119 -50 155
-59 104 -27 241 -36 309 -22 107 23 205 99 283 220 24 36 43 69 43 72 0 3 11
29 24 58 22 50 61 162 71 204 2 10 16 62 29 114 14 52 28 111 31 130 3 19 8
43 11 52 3 9 7 27 9 40 4 23 23 105 50 223 8 33 17 78 21 100 3 22 11 46 16
53 6 6 8 12 5 12 -3 0 -1 15 4 33 6 17 12 43 15 57 3 14 17 61 32 105 14 44
27 82 27 85 2 17 51 110 58 110 5 0 5 5 2 10 -7 12 83 150 102 157 7 3 10 9 7
14 -3 5 -1 9 5 9 6 0 24 13 40 29 40 39 118 84 131 76 5 -3 10 -1 10 6 0 7 3
9 7 6 3 -4 12 -2 18 3 7 5 32 11 56 13 24 1 50 6 56 10 12 8 17 2 14 -16 -1
-4 9 -1 22 8 13 8 26 12 30 9 3 -3 25 -8 49 -9 118 -8 261 -109 335 -235 14
-25 29 -47 32 -50 8 -7 26 -45 51 -110 12 -30 26 -64 32 -75 5 -12 10 -27 12
-35 1 -8 13 -46 25 -85 12 -38 24 -79 26 -89 3 -10 9 -33 15 -51 6 -18 13 -43
15 -56 3 -13 12 -49 21 -79 8 -30 20 -71 25 -90 5 -19 25 -91 44 -160 20 -69
37 -132 39 -141 16 -64 69 -215 79 -226 4 -3 7 -12 7 -20 0 -21 93 -204 137
-268 74 -109 184 -195 278 -219 33 -8 85 -15 146 -20 25 -2 52 -7 59 -11 9 -6
11 -4 5 6 -8 12 -6 12 8 0 13 -10 17 -10 17 -1 0 8 4 9 13 3 14 -11 32 -10
120 7 37 7 67 16 67 21 0 5 3 8 8 7 14 -4 82 24 82 33 0 6 4 8 9 4 5 -3 16 2
24 10 9 8 18 15 21 15 12 0 96 62 96 71 0 6 5 7 10 4 11 -7 300 277 300 294 0
6 11 22 25 36 14 14 22 25 18 25 -4 0 -1 6 7 13 30 24 71 87 64 99 -4 6 -3 8
3 5 11 -7 146 188 146 210 0 7 3 13 7 13 7 0 70 96 70 106 0 2 12 22 26 44 15
22 24 43 21 46 -3 3 -8 -4 -12 -15 -3 -12 -11 -18 -17 -15 -7 4 -8 2 -4 -4 3
-6 -3 -16 -14 -22 -11 -6 -18 -15 -16 -19 3 -4 -1 -17 -9 -27 -8 -10 -15 -14
-15 -8 0 5 5 15 12 22 9 9 9 12 -2 12 -10 1 -7 7 9 20 13 11 20 20 15 20 -4 0
2 9 15 21 12 12 20 27 17 35 -7 17 5 18 24 2 12 -11 12 -10 1 4 -7 9 -9 23 -5
29 5 9 10 7 16 -7 8 -18 8 -18 5 1 -1 11 5 29 15 39 10 11 16 21 14 23 -2 3
-25 -17 -50 -44 -25 -26 -46 -43 -46 -37 0 5 5 15 11 21 8 8 8 13 0 17 -6 4
-11 12 -11 18 0 6 6 5 16 -2 13 -11 19 -10 36 7 22 22 17 46 -7 36 -8 -3 -15
0 -15 6 0 13 36 15 45 2 6 -11 45 -11 45 0 0 4 -7 9 -15 13 -8 3 -15 11 -15
17 0 8 6 7 18 -2 15 -13 16 -12 3 4 -13 17 -12 18 15 11 16 -4 26 -3 21 1 -4
5 -30 9 -59 9 -31 1 -53 6 -56 14 -2 6 1 12 8 12 6 0 8 -5 4 -11 -4 -8 -1 -8
12 -2 11 5 30 8 44 7 31 -2 67 20 49 31 -9 6 -7 12 6 22 11 7 14 13 8 13 -6 0
-16 -7 -23 -15 -11 -13 -15 -13 -21 -3 -12 18 -11 30 1 23 5 -3 16 -2 24 2 11
6 12 11 3 23 -7 8 -19 16 -27 18 -10 1 -9 -2 4 -13 11 -8 17 -18 13 -21 -4 -4
-15 -1 -24 7 -10 7 -15 9 -11 5 4 -5 3 -15 -3 -23 -9 -10 -8 -13 1 -13 8 0 10
-3 6 -7 -7 -8 -11 -9 -38 -12 -10 -1 -10 -3 1 -10 9 -6 10 -11 2 -15 -22 -14
-33 5 -15 25 9 10 13 19 8 19 -5 0 -1 7 10 15 10 8 15 19 10 26 -4 8 -3 10 4
5 8 -5 12 2 12 20 0 22 3 25 12 16 15 -15 28 -15 28 -1 0 5 -4 8 -9 5 -16 -10
-21 23 -5 38 8 9 15 19 14 23 0 18 12 43 22 43 6 0 3 -11 -6 -25 -9 -14 -12
-25 -7 -25 5 0 12 6 14 13 3 7 6 5 6 -5 1 -10 -11 -24 -26 -32 -16 -8 -23 -15
-18 -16 6 0 21 7 34 16 17 12 21 22 17 40 -5 19 -3 22 11 17 11 -4 9 1 -7 14
-14 12 -21 25 -17 29 4 5 12 2 17 -6 6 -8 10 -10 10 -4 0 5 -5 15 -11 21 -8 8
-4 17 13 33 12 13 16 20 8 16 -9 -5 -8 -2 3 7 18 15 24 33 8 23 -5 -4 2 18 16
46 14 29 28 47 30 40 3 -7 -3 -22 -13 -33 -13 -15 -15 -22 -6 -31 9 -9 17 -7
32 10 12 12 16 22 11 22 -6 0 -14 -8 -20 -17 -5 -10 -13 -14 -18 -10 -4 5 2
17 14 27 19 15 20 20 8 36 -16 22 -5 48 34 81 14 12 20 22 14 23 -7 0 -13 -4
-13 -10 0 -5 -4 -10 -10 -10 -16 0 23 90 40 91 9 0 10 2 3 5 -9 4 -6 15 7 40
11 19 19 36 19 39 0 3 4 19 10 36 10 30 31 35 39 11 2 -8 -3 -10 -15 -6 -15 6
-16 5 -5 -7 11 -12 15 -11 26 3 7 10 17 14 21 10 4 -4 -3 12 -16 36 l-24 43
25 20 c14 11 19 18 12 14 -8 -4 -11 0 -9 12 3 21 63 83 72 75 3 -4 3 2 -1 12
-7 17 -8 17 -19 -3 -6 -12 -14 -19 -18 -15 -3 4 -2 14 2 23 5 9 10 19 10 23 8
47 15 68 23 68 6 0 8 -7 4 -15 -3 -8 -1 -15 4 -15 14 0 12 23 -2 39 -11 11
-10 13 5 7 10 -3 21 -6 23 -6 3 0 2 -4 -1 -10 -4 -6 1 -7 12 -3 17 6 17 5 1
-14 -10 -11 -18 -24 -18 -29 0 -4 7 2 16 14 15 21 34 22 34 1 0 -6 -4 -8 -9
-4 -17 10 -24 -16 -9 -31 13 -13 16 -13 29 3 12 16 12 17 -2 6 -16 -13 -29 -8
-29 9 0 5 4 7 9 3 5 -3 13 0 17 6 4 7 -4 22 -19 35 -14 12 -23 25 -19 30 4 4
2 5 -3 1 -6 -3 -17 -2 -25 3 -11 7 -11 12 -2 23 7 7 9 17 5 20 -3 4 -1 7 6 7
7 0 9 5 5 12 -4 7 -3 8 5 4 8 -5 10 0 7 19 -4 20 -2 25 9 21 8 -3 14 -2 14 2
-3 21 3 32 19 33 12 0 10 3 -8 11 -15 6 -20 12 -12 15 6 3 10 9 6 14 -3 5 3 9
13 9 15 0 16 2 3 10 -13 8 -13 11 -1 19 7 5 10 14 7 20 -4 6 -3 11 3 11 5 0 8
9 6 20 -5 25 12 27 18 3 4 -16 5 -16 6 -1 0 9 -4 20 -10 24 -8 5 -4 13 12 26
16 14 18 18 7 14 -10 -3 -18 -1 -18 4 0 15 21 23 33 11 15 -15 27 -14 27 2 0
7 9 13 20 13 11 0 20 -6 20 -13 0 -7 5 -13 10 -13 7 0 7 6 1 18 -11 21 -48 23
-60 3 -6 -9 -10 -9 -18 1 -12 15 -13 48 -1 48 4 0 8 -8 8 -17 0 -9 3 -14 6
-10 4 3 3 14 -1 24 -5 10 -7 23 -6 28 2 6 4 15 5 20 15 63 28 95 39 88 7 -4 5
2 -3 12 -12 15 -12 17 -1 10 11 -6 13 -4 8 10 -5 11 -1 23 10 32 10 8 13 12 7
9 -6 -3 -11 1 -11 9 0 18 9 19 27 2 12 -10 12 -9 1 5 -9 13 -11 83 -1 83 1 0
3 9 5 19 2 10 7 22 12 25 5 3 8 16 7 29 -1 12 3 22 8 22 6 0 7 -8 3 -18 -5
-13 -4 -14 6 -5 10 10 9 15 -1 28 -8 10 -9 19 -3 28 6 6 11 20 12 30 3 40 5
47 13 47 5 0 7 10 4 23 -4 23 16 50 30 39 5 -4 3 0 -3 8 -18 23 6 97 29 92 20
-4 33 14 17 24 -8 4 -9 3 -5 -4 4 -7 1 -12 -8 -12 -21 0 -29 17 -11 24 8 3 15
11 15 18 0 9 -3 8 -10 -2 -6 -9 -10 -10 -10 -3 0 6 4 14 10 18 5 3 7 12 4 19
-3 8 5 24 18 36 20 19 21 20 3 14 -16 -6 -18 -5 -9 7 5 8 9 24 8 37 -1 18 3
21 20 17 19 -5 19 -5 3 5 -18 11 -18 12 0 33 10 11 12 17 6 13 -7 -4 -13 -2
-13 3 0 6 4 11 9 11 5 0 9 10 10 23 2 66 7 82 23 82 9 0 20 4 25 9 4 5 3 6 -4
2 -7 -4 -13 -2 -13 4 0 6 -5 8 -12 4 -7 -4 -8 -3 -4 4 9 15 18 52 18 74 -1 10
3 20 8 23 4 3 6 14 3 25 -3 12 0 20 6 20 7 0 10 -4 7 -9 -3 -4 1 -16 8 -26 10
-14 15 -15 21 -5 5 9 4 11 -3 6 -12 -7 -16 5 -13 32 1 6 -6 12 -16 13 -11 0
-13 3 -5 6 6 2 9 9 6 15 -3 5 2 8 12 6 14 -2 20 4 21 22 l2 25 -7 -25 c-10
-32 -21 -14 -15 25 2 17 5 35 5 42 1 7 5 10 10 7 4 -3 8 0 8 5 0 6 -5 11 -11
11 -5 0 -7 5 -4 10 4 6 9 8 13 6 4 -2 16 2 27 10 10 8 14 14 9 14 -6 0 -16 -6
-23 -12 -11 -11 -12 -5 -7 32 7 43 13 86 15 103 1 5 5 5 11 2 5 -3 10 -1 10 4
0 6 -6 11 -12 11 -9 0 -8 4 2 10 13 9 13 10 0 10 -10 0 -11 3 -4 8 6 4 10 15
8 25 -1 11 4 17 17 17 10 0 18 -5 17 -12 -2 -6 5 -14 15 -16 9 -2 17 1 17 7 0
6 -7 7 -17 4 -11 -4 -14 -3 -9 6 5 8 1 14 -13 18 -22 6 -30 33 -9 33 9 0 9 3
0 12 -8 8 -8 17 -1 30 6 11 8 26 5 33 -2 8 4 15 17 19 32 8 37 7 34 -6 -1 -8
8 -13 21 -13 12 0 22 4 21 9 0 5 5 13 13 18 10 8 10 9 -2 5 -8 -2 -14 -10 -13
-16 2 -6 -6 -11 -17 -11 -11 0 -19 6 -17 13 1 7 -8 11 -24 10 -25 -1 -39 26
-15 28 6 1 18 2 26 3 8 0 14 7 12 15 -2 9 3 11 13 7 9 -3 13 -2 10 4 -3 6 -1
10 6 10 7 0 10 3 7 6 -10 9 -49 -16 -43 -27 7 -11 -3 -11 -30 1 -11 5 -15 9
-10 9 6 1 12 10 13 21 1 11 2 28 3 38 1 9 7 20 13 24 8 5 7 8 -1 8 -7 0 -10 7
-7 15 4 8 10 15 16 15 5 0 7 -4 4 -9 -3 -5 2 -17 12 -28 9 -10 13 -13 9 -6 -5
6 -6 17 -3 22 4 5 -4 17 -16 25 -22 16 -22 16 -3 32 11 8 15 13 8 10 -8 -4
-11 5 -9 30 1 28 8 39 29 50 29 16 34 28 15 40 -8 5 -9 2 -5 -10 6 -14 3 -17
-8 -12 -9 3 -13 2 -10 -4 3 -6 -1 -10 -10 -10 -9 0 -13 4 -10 10 10 15 25 120
28 186 1 12 10 27 20 34 17 10 19 10 14 -3 -6 -16 21 -47 41 -47 6 0 16 -8 22
-17 9 -15 11 -15 7 -2 -3 9 -2 20 1 25 4 5 3 6 -2 2 -12 -9 -68 20 -61 32 10
17 -5 32 -19 21 -10 -8 -13 -4 -14 18 l-1 29 31 -28 c20 -18 28 -33 22 -41 -4
-7 6 -3 23 9 17 12 34 18 38 14 5 -4 5 -1 1 5 -5 10 -11 10 -27 0 -17 -10 -23
-9 -38 10 -10 12 -22 19 -26 15 -5 -4 -5 1 -2 10 4 10 0 18 -8 20 -9 2 -11 8
-7 16 7 10 13 8 30 -6 12 -11 19 -22 15 -26 -3 -3 -1 -6 5 -6 21 0 13 19 -17
41 -32 23 -31 16 -15 179 7 68 11 127 13 163 0 16 5 26 9 23 5 -3 9 1 9 9 0 8
-4 12 -9 9 -4 -3 -7 6 -6 20 1 15 3 26 5 26 17 0 53 -23 48 -30 -4 -6 1 -22
10 -36 9 -14 13 -29 9 -32 -4 -4 -9 -1 -11 6 -3 6 -9 12 -15 12 -6 0 -4 -7 3
-17 12 -15 12 -16 -3 -11 -9 4 -24 0 -35 -7 -10 -8 -13 -15 -8 -15 6 0 17 6
23 12 10 10 12 8 9 -11 -2 -13 -11 -30 -21 -37 -16 -11 -16 -13 3 -19 12 -3
25 -4 30 -1 12 8 34 -21 26 -34 -3 -5 -1 -10 5 -10 6 0 8 -5 5 -10 -4 -6 -11
-8 -16 -4 -6 3 -25 -10 -44 -30 -39 -41 -36 -47 6 -12 15 13 25 27 21 30 -4 4
5 5 19 3 23 -5 26 -2 25 21 -1 15 -7 32 -15 38 -12 9 -11 13 5 22 10 6 14 12
8 12 -5 0 -15 -5 -22 -12 -16 -16 -15 3 2 25 14 18 32 24 21 7 -3 -5 -1 -10 4
-10 14 0 14 17 1 25 -10 6 -39 -5 -39 -15 0 -18 -15 -40 -28 -40 -12 0 -12 2
1 16 9 8 14 19 11 24 -8 13 35 39 54 33 14 -4 14 -3 1 6 -14 10 -7 16 14 12 5
-1 4 4 -2 12 -9 10 -9 16 0 25 9 9 9 12 0 12 -11 0 -16 -13 -13 -32 2 -17 -19
-7 -29 13 -14 24 -4 40 11 19 9 -12 10 -11 5 4 -5 14 -2 17 9 12 9 -3 13 -2
10 4 -3 6 -1 10 6 10 7 0 10 3 7 6 -4 3 -16 0 -29 -6 -18 -10 -24 -10 -33 2
-6 8 -17 13 -24 11 -7 -3 -10 1 -6 11 3 9 9 14 13 12 4 -3 7 4 7 14 0 10 -4
16 -8 14 -4 -3 -8 -1 -8 5 0 5 -7 17 -16 25 -12 12 -12 16 -2 16 10 0 9 3 -2
11 -13 9 -13 10 0 6 8 -2 14 -8 13 -13 0 -5 4 -14 11 -20 10 -9 12 4 11 60 -2
39 -3 74 -4 79 -2 13 -18 7 -18 -8 0 -8 4 -12 8 -9 4 2 7 -5 6 -16 -1 -11 -5
-20 -9 -20 -4 0 -8 -5 -8 -11 0 -5 4 -8 9 -5 5 3 9 -5 9 -18 0 -21 -3 -23 -19
-13 -10 6 -15 14 -11 17 10 7 9 382 -1 398 -5 6 -4 12 2 12 9 0 7 37 -3 47 -3
3 -1 16 4 28 5 13 6 25 2 28 -4 2 -1 2 6 1 6 -2 12 1 12 6 0 6 -8 10 -17 10
-15 0 -16 2 -3 10 12 8 12 10 1 10 -8 0 -12 3 -9 6 4 3 2 19 -2 35 -5 18 -5
27 1 24 12 -8 11 2 -2 27 -8 15 -8 19 0 14 6 -4 11 -2 11 4 0 6 5 8 10 5 8 -5
7 -12 -2 -23 -12 -15 -11 -16 5 -3 10 8 17 9 17 3 0 -6 -4 -13 -10 -17 -5 -3
-7 -13 -4 -23 5 -14 4 -15 -5 -2 -7 9 -11 11 -11 3 0 -7 8 -17 18 -23 15 -10
15 -11 -3 -6 -19 6 -19 5 -3 -7 10 -8 14 -18 10 -22 -4 -5 -2 -5 4 -2 7 4 11
-5 11 -24 0 -16 -4 -25 -7 -18 -6 8 -9 8 -14 0 -4 -6 -2 -11 3 -11 6 0 11 -5
11 -11 0 -5 -4 -7 -10 -4 -5 3 -10 1 -10 -5 0 -7 6 -10 14 -7 10 4 14 0 13
-14 -1 -10 -8 -19 -15 -19 -9 0 -5 -7 9 -20 13 -10 19 -19 14 -20 -6 0 -16 5
-21 10 -7 7 -11 6 -11 -4 0 -8 3 -13 7 -11 14 8 29 -11 20 -25 -7 -10 -10 -11
-10 -2 0 6 -5 12 -11 12 -8 0 -7 -5 1 -15 10 -12 10 -19 2 -27 -9 -9 -7 -18
10 -35 21 -22 13 -34 -8 -13 -7 7 -11 6 -11 -4 0 -9 9 -13 24 -11 13 1 26 -2
29 -6 5 -9 -9 -13 -36 -9 -11 1 -9 -3 5 -15 20 -16 19 -16 -5 -9 -24 6 -24 5
-6 -9 19 -14 19 -14 0 -25 -12 -7 -14 -12 -5 -12 11 0 11 -3 0 -17 -11 -15
-11 -16 1 -5 8 6 19 12 25 12 5 -1 -1 -10 -14 -20 -13 -11 -18 -20 -11 -20 10
0 10 -3 0 -15 -9 -10 -9 -15 -1 -15 10 0 15 13 12 33 -1 9 13 9 22 0 4 -3 2
-12 -4 -19 -7 -9 -7 -18 0 -31 6 -10 11 -12 11 -5 0 20 16 14 17 -7 1 -14 -3
-18 -13 -14 -8 3 -14 0 -14 -7 0 -6 4 -8 10 -5 6 3 10 1 10 -4 0 -6 -4 -11
-10 -11 -5 0 -10 -5 -10 -11 0 -5 4 -8 9 -4 5 3 17 -5 27 -17 12 -17 15 -18
10 -5 -3 10 1 28 9 40 8 12 15 26 15 32 -1 5 -8 -2 -16 -17 -8 -16 -20 -28
-25 -28 -7 0 -4 10 5 25 10 15 12 25 6 25 -6 0 -8 5 -5 10 4 6 10 8 15 5 5 -3
11 -1 15 4 3 6 -4 8 -15 6 -14 -3 -20 0 -17 8 2 7 11 11 21 9 9 -2 16 1 16 6
0 17 -35 9 -52 -12 -9 -12 -17 -16 -18 -11 0 6 5 16 11 22 8 8 8 13 0 17 -6 4
-11 12 -11 18 0 7 4 7 13 0 11 -9 22 -10 56 -3 2 1 -2 7 -8 14 -6 8 -9 16 -7
18 8 7 14 68 8 68 -19 -3 -25 2 -13 10 8 5 16 16 17 25 2 12 -2 14 -15 7 -10
-6 -23 -6 -31 -1 -8 5 -17 7 -20 5 -4 -2 -7 8 -7 23 0 20 5 28 19 28 20 0 24
-11 7 -22 -8 -4 -7 -9 2 -14 28 -18 59 20 38 46 -8 10 -8 14 0 14 6 0 11 5 11
11 0 5 -5 7 -12 3 -7 -5 -9 -2 -5 8 3 9 0 21 -6 28 -9 10 -8 12 6 7 14 -5 16
-3 8 12 -6 10 -7 21 -4 25 3 3 1 6 -5 6 -7 0 -12 5 -12 11 0 5 4 8 8 5 4 -2 9
6 10 20 1 13 -3 24 -8 24 -6 0 -10 5 -10 11 0 5 4 8 8 5 4 -2 8 4 8 14 0 10
-6 16 -16 15 -8 -2 -22 -4 -30 -4 -13 -1 -13 -2 0 -12 13 -8 12 -10 -4 -7 -11
2 -21 13 -23 27 -3 20 -1 22 11 11 9 -7 21 -8 28 -4 7 5 16 9 21 10 4 1 10 2
13 3 4 0 2 7 -3 14 -5 6 -9 28 -8 49 1 30 -2 36 -18 33 -11 -3 -17 1 -14 8 2
7 13 11 23 10 10 -1 13 0 6 3 -6 3 -10 9 -7 14 3 5 -3 11 -13 14 -26 8 -27 46
-1 41 13 -3 17 0 12 8 -4 7 -8 23 -8 37 0 14 -6 24 -13 22 -7 -1 -12 2 -12 8
0 5 5 10 10 10 6 0 10 5 10 11 0 8 -4 8 -14 0 -9 -8 -16 -8 -20 -2 -4 5 3 13
15 16 20 7 20 7 2 22 -17 14 -17 14 1 9 15 -5 17 -4 8 7 -7 8 -8 17 -4 22 4 4
-3 3 -15 -4 -28 -14 -30 -14 -30 4 0 8 7 14 16 13 12 -2 16 6 16 34 0 20 -2
35 -6 32 -3 -2 -7 9 -7 24 -1 15 -4 36 -6 47 -3 11 -5 22 -5 24 -1 2 -7 -2
-15 -9 -12 -9 -15 -8 -13 9 1 13 6 19 14 17 7 -3 10 1 6 9 -3 8 -9 12 -14 9
-5 -3 -9 -1 -9 5 0 5 5 13 10 16 8 5 8 11 1 19 -6 7 -7 17 -3 21 4 5 2 5 -5 1
-17 -9 -28 14 -12 25 12 7 12 9 0 9 -8 0 -11 6 -7 16 3 8 2 13 -3 10 -5 -3
-15 2 -22 11 -12 15 -12 16 3 10 15 -5 16 -3 6 18 -6 14 -15 25 -20 25 -4 0
-8 5 -8 11 0 5 5 7 12 3 7 -4 8 -3 4 4 -4 6 -13 9 -21 6 -8 -4 -12 -11 -8 -18
4 -6 8 -18 8 -26 0 -8 3 -19 6 -25 4 -5 5 -18 4 -28 -2 -9 1 -15 5 -12 5 3 7
-8 5 -25 -3 -26 -1 -29 11 -19 9 7 14 8 14 1 0 -6 -4 -13 -9 -16 -7 -5 -8
-101 -1 -101 1 0 3 -19 4 -42 2 -49 10 -61 30 -44 12 10 15 9 13 -8 -1 -16 -7
-20 -26 -16 -17 3 -21 1 -13 -7 6 -6 8 -17 5 -24 -3 -8 1 -14 8 -14 11 0 11
-3 -1 -10 -12 -8 -12 -10 -1 -10 11 0 11 -3 0 -17 -10 -11 -10 -14 -1 -9 6 4
12 3 12 -3 0 -5 -5 -13 -10 -16 -6 -4 -8 -11 -4 -16 9 -15 34 10 27 27 -4 10
0 12 11 8 21 -8 16 -26 -14 -46 -14 -10 -20 -18 -15 -18 6 0 3 -5 -5 -10 -9
-6 -10 -10 -3 -10 7 0 11 -15 10 -40 -3 -53 -17 -51 -19 3 -1 41 -3 57 -8 67
-2 3 -4 19 -5 35 -1 17 -4 39 -8 50 -3 11 -8 36 -11 55 -3 20 -12 65 -21 100
-9 36 -17 72 -19 81 -29 119 -115 319 -181 419 -52 78 -163 200 -182 200 -7 0
-13 4 -13 8 0 12 -147 87 -215 110 -125 41 -200 58 -286 67 -30 3 -65 7 -79
10 -27 6 -305 7 -355 1 -16 -2 -61 -6 -100 -10 -38 -4 -77 -9 -85 -11 -8 -2
-35 -6 -60 -9 -25 -3 -56 -8 -70 -11 -14 -3 -37 -7 -52 -10 -15 -2 -35 -6 -45
-9 -10 -3 -29 -7 -43 -10 -83 -16 -398 -104 -415 -115 -5 -4 -30 -14 -55 -21
-48 -15 -262 -94 -295 -110 -11 -5 -58 -25 -105 -44 -47 -19 -103 -43 -125
-52 -22 -10 -42 -18 -45 -19 -3 -1 -16 -6 -30 -12 -286 -121 -500 -203 -570
-218 -8 -2 -46 -11 -85 -20 -90 -22 -246 -25 -271 -5 -15 13 -16 13 -9 1 6
-11 4 -13 -9 -8 -10 4 -24 7 -32 7 -9 0 -13 4 -10 9 3 4 -7 6 -22 3 -25 -5
-26 -4 -12 14 14 18 14 18 -3 5 -15 -12 -27 -10 -90 14 -40 15 -76 32 -81 36
-6 5 -18 9 -28 9 -10 0 -18 5 -18 11 0 8 -5 7 -16 -2 -9 -7 -18 -9 -22 -3 -8
11 -120 80 -159 97 -15 7 -80 39 -143 72 -63 32 -117 60 -120 60 -3 1 -43 20
-90 42 -157 75 -328 144 -388 158 -9 2 -35 11 -57 19 -43 15 -218 64 -250 70
-11 2 -31 6 -45 10 -14 3 -36 8 -50 10 -14 2 -41 7 -60 11 -174 32 -177 33
-355 51 -57 6 -484 12 -489 7z m6369 -672 c3 -5 2 -12 -3 -15 -5 -3 -9 1 -9 9
0 17 3 19 12 6z m18 -86 c-3 -9 -8 -14 -10 -11 -3 3 -2 9 2 15 9 16 15 13 8
-4z m32 -44 c7 -12 -12 -24 -25 -16 -11 7 -4 25 10 25 5 0 11 -4 15 -9z m-10
-41 c3 -5 0 -10 -7 -10 -10 0 -10 -2 1 -9 10 -6 10 -10 1 -16 -9 -6 -9 -9 1
-16 7 -4 18 -4 24 1 7 6 11 0 13 -16 1 -14 -2 -22 -8 -19 -6 3 -7 -1 -4 -9 3
-9 9 -14 13 -12 4 3 7 -3 8 -12 1 -9 3 -29 6 -43 3 -19 0 -26 -12 -25 -9 0
-15 -5 -13 -12 1 -8 -3 -12 -9 -10 -18 6 -19 36 -2 34 17 -1 25 27 16 51 -5
13 -7 13 -15 -1 -5 -9 -14 -16 -21 -16 -7 0 -6 4 3 10 13 9 13 11 0 21 -12 9
-11 10 5 5 19 -6 19 -5 3 8 -19 14 -25 32 -8 21 6 -3 10 -2 10 4 0 5 -6 11
-12 13 -7 3 -13 19 -14 36 -1 31 9 42 21 22z m49 -229 c-2 -2 1 -10 8 -18 9
-11 7 -12 -8 -6 -10 4 -24 12 -31 19 -10 9 -7 12 12 10 13 0 21 -3 19 -5z m25
-87 c4 3 7 -8 7 -24 0 -16 -4 -28 -10 -27 -6 1 -10 -9 -10 -23 2 -39 3 -42 14
-35 6 3 10 2 10 -4 0 -5 -4 -12 -9 -16 -12 -7 -10 -45 2 -45 4 0 5 -5 2 -10
-4 -6 -11 -8 -16 -5 -5 3 -6 -1 -3 -9 3 -9 10 -16 16 -16 5 0 6 -5 3 -10 -4
-6 -11 -7 -17 -4 -7 4 -8 2 -4 -5 6 -9 11 -9 22 0 9 7 18 8 22 3 4 -5 5 -8 3
-7 -2 2 -10 -2 -17 -8 -10 -8 -19 -7 -34 4 -14 9 -17 17 -11 22 6 3 11 10 11
15 0 16 -30 39 -45 34 -9 -4 -12 1 -11 13 2 10 -1 23 -6 29 -9 12 20 30 30 19
3 -3 0 -5 -6 -5 -7 0 -12 -5 -12 -11 0 -8 5 -7 16 2 14 12 14 14 -2 26 -10 7
-14 16 -10 20 4 5 16 -3 27 -16 19 -24 26 -46 10 -37 -4 3 -16 -1 -26 -8 -17
-12 -17 -13 -1 -19 9 -4 14 -3 11 2 -3 5 -1 12 5 16 9 6 14 -8 11 -28 -1 -5 2
-6 7 -3 8 4 8 27 0 83 -1 7 -4 12 -7 11 -21 -2 -22 4 -5 18 18 15 18 15 -3 5
-28 -14 -33 -14 -27 2 3 8 11 14 19 15 8 1 22 3 30 4 20 2 19 3 -12 24 -27 17
-28 17 -13 -1 12 -15 12 -17 1 -10 -10 5 -12 4 -7 -3 5 -8 2 -10 -8 -6 -12 5
-13 10 -5 25 5 11 14 17 20 14 5 -4 9 0 9 7 0 8 5 6 11 -5 6 -9 14 -15 18 -13z
m26 -164 c3 -5 1 -10 -4 -10 -6 0 -11 5 -11 10 0 6 2 10 4 10 3 0 8 -4 11 -10z
m2 -35 c0 -8 -4 -15 -8 -15 -11 0 -20 16 -12 24 11 11 20 7 20 -9z m-1 -91
c-4 -9 -1 -23 5 -30 9 -11 8 -18 0 -28 -9 -11 -10 -20 -1 -35 6 -12 7 -22 3
-23 -4 0 -12 -2 -18 -3 -5 -2 -14 -3 -19 -4 -5 0 -2 -8 5 -18 12 -14 12 -16
-1 -11 -17 5 -23 48 -7 48 6 0 6 4 0 13 -16 19 -10 60 12 84 25 26 29 28 21 7z
m9 -166 c-1 -13 2 -29 8 -35 9 -13 -10 -49 -21 -38 -3 2 1 11 8 20 13 15 5 20
-27 16 -6 -1 -11 7 -10 18 0 11 4 18 8 15 13 -7 18 23 6 36 -10 10 -8 10 9 2
13 -7 20 -19 19 -34z m-55 -68 c0 -5 -5 -10 -11 -10 -5 0 -7 5 -4 10 3 6 8 10
11 10 2 0 4 -4 4 -10z m60 -43 c9 2 7 -1 -4 -8 -14 -9 -21 -8 -35 6 -15 16
-15 17 4 8 11 -6 27 -8 35 -6z m0 -42 c7 -8 8 -15 3 -15 -10 0 -11 -40 -1 -56
10 -16 -22 -12 -49 5 -19 14 -20 16 -6 38 8 13 11 23 7 23 -10 0 17 20 27 20
4 0 12 -7 19 -15z m-86 -320 c6 -18 -2 -45 -15 -45 -11 0 -7 23 6 32 6 5 5 8
-2 8 -7 0 -13 5 -13 10 0 15 17 12 24 -5z m-6082 -2530 c-6 -34 -13 -32 -10 4
1 16 5 28 9 26 3 -3 4 -16 1 -30z m2 -205 c-1 -94 -4 -174 -8 -177 -7 -7 -7 1
-8 167 0 168 1 180 10 180 4 0 6 -77 6 -170z m-2 -225 c-2 -19 -6 -35 -8 -35
-2 0 -4 16 -4 35 0 19 4 35 8 35 4 0 6 -16 4 -35z m1 -70 c-7 -21 -12 -19 -10
4 0 11 5 18 9 15 4 -3 5 -11 1 -19z m5430 -100 c-3 -9 -8 -14 -10 -11 -3 3 -2
9 2 15 9 16 15 13 8 -4z m-93 -289 c0 -3 -4 -8 -10 -11 -5 -3 -10 -1 -10 4 0
6 5 11 10 11 6 0 10 -2 10 -4z m-40 -167 c0 -5 -9 -4 -19 3 -11 7 -17 16 -14
20 5 10 33 -10 33 -23z m-283 -752 c-5 -15 -54 -17 -54 -3 0 7 13 12 29 12 16
0 27 -4 25 -9z m-50 -74 c6 -13 7 -23 2 -23 -5 0 -12 7 -15 15 -4 8 -10 12
-15 9 -6 -3 -15 -1 -22 4 -9 8 -12 1 -12 -28 0 -37 1 -38 17 -23 10 9 18 11
18 6 0 -16 -28 -36 -40 -28 -6 3 -8 11 -5 16 4 5 2 9 -2 9 -5 0 -14 -9 -20
-19 -10 -16 -9 -20 4 -25 12 -5 13 -9 3 -21 -6 -8 -9 -19 -6 -24 4 -5 2 -12
-4 -16 -5 -3 -10 -1 -10 4 0 15 -13 14 -36 -4 -17 -14 -17 -15 -1 -9 17 6 18
5 6 -15 -12 -19 -28 -24 -32 -11 -3 14 39 90 50 90 7 0 10 6 7 15 -4 8 -2 15
3 15 5 0 10 10 10 22 1 13 10 28 19 35 10 7 14 13 10 13 -4 0 -5 4 -2 8 3 5
18 9 34 9 20 0 31 -7 39 -24z m-98 -183 c-20 -25 -34 -54 -35 -73 -3 -45 -3
-47 -12 -47 -11 0 -9 41 2 60 9 13 8 13 -7 1 -19 -15 -23 -1 -5 17 9 9 9 12 1
12 -7 0 -15 -9 -18 -20 -4 -11 -10 -18 -15 -15 -5 3 -12 0 -16 -6 -4 -8 -3 -9
4 -5 7 4 12 2 12 -3 0 -6 -6 -11 -14 -11 -7 0 -18 -6 -24 -12 -8 -10 -4 -13
15 -15 16 0 21 2 14 7 -10 5 -9 9 2 13 9 3 18 -1 21 -9 3 -8 0 -17 -8 -20 -7
-3 -13 -12 -13 -20 0 -12 5 -10 17 6 11 15 19 19 24 11 4 -6 2 -11 -4 -11 -6
0 -8 -5 -4 -12 4 -7 3 -8 -4 -4 -8 4 -16 -3 -22 -19 -10 -25 -30 -27 -30 -2 0
7 4 6 10 -3 6 -9 10 -10 10 -3 0 6 -5 15 -10 18 -6 4 -8 11 -5 16 9 14 -4 29
-20 23 -8 -4 -13 -10 -10 -14 3 -5 -2 -16 -11 -24 -8 -9 -12 -16 -8 -16 5 0 3
-5 -3 -11 -6 -6 -9 -18 -6 -25 5 -14 -12 -20 -20 -6 -2 4 -2 1 0 -6 1 -8 -2
-10 -9 -6 -7 4 -8 3 -4 -4 5 -9 13 -9 27 -2 16 9 19 7 19 -9 0 -10 -7 -22 -16
-25 -15 -6 -15 -4 -3 11 13 16 12 17 -3 4 -14 -10 -18 -10 -18 -1 0 10 -3 10
-14 1 -8 -7 -13 -21 -11 -32 5 -24 -8 -25 -26 -2 -12 14 -12 16 0 8 11 -6 13
-4 8 7 -3 9 2 23 13 33 11 10 22 26 25 36 4 11 10 17 15 14 5 -3 11 -1 15 5 3
5 0 10 -7 10 -8 1 -5 7 8 18 11 10 19 22 17 28 -2 5 6 20 17 32 11 11 20 26
20 32 0 6 6 13 14 16 8 3 17 13 20 21 6 14 4 14 -11 2 -16 -13 -17 -12 -4 4 8
10 21 15 32 12 17 -6 47 29 41 48 -1 5 2 5 8 2 6 -4 9 -14 6 -24 -3 -9 3 -3
15 12 12 15 24 26 26 23 3 -3 -10 -23 -28 -46z m-59 -105 c0 -5 -5 -3 -10 5
-5 8 -10 20 -10 25 0 6 5 3 10 -5 5 -8 10 -19 10 -25z m-63 -57 c0 -18 1 -40
4 -48 2 -10 -2 -14 -14 -14 -14 2 -15 -1 -6 -12 6 -8 7 -14 2 -14 -5 0 -15 11
-21 25 -9 19 -8 26 3 32 7 4 14 13 14 18 2 14 12 45 15 45 2 0 3 -15 3 -32z
m-65 -122 c16 -12 16 -14 -7 -24 -17 -8 -23 -17 -20 -32 4 -19 2 -20 -11 -9
-18 15 -56 20 -48 7 4 -5 12 -7 19 -4 7 2 16 -2 19 -10 4 -10 0 -14 -11 -12
-10 2 -18 -3 -19 -9 -1 -7 -2 -18 -3 -24 0 -5 -5 -7 -11 -4 -5 3 -10 2 -10 -3
0 -14 -53 -67 -63 -64 -5 2 -7 -5 -3 -15 5 -15 4 -15 -10 2 -16 20 -16 20 -11
-2 3 -15 1 -23 -8 -23 -8 0 -17 -9 -20 -21 -4 -11 -9 -18 -13 -15 -3 4 -16 -4
-29 -16 -30 -28 -30 -18 1 15 13 14 27 23 30 20 3 -4 6 1 6 10 0 10 5 17 11
17 5 0 8 4 5 8 -3 5 5 20 17 33 12 13 21 27 20 31 -2 4 4 5 13 1 8 -3 14 -2
12 3 -1 5 3 18 9 29 6 11 11 24 11 30 0 5 8 12 17 15 9 3 15 8 14 10 -2 3 3
14 9 25 11 19 13 19 26 2 10 -13 16 -15 23 -5 6 7 9 21 8 31 -4 20 4 21 27 3z
m-182 -299 c0 -2 -10 -12 -22 -23 l-23 -19 19 23 c18 21 26 27 26 19z m-367
-272 c-3 -9 -8 -14 -10 -11 -3 3 -2 9 2 15 9 16 15 13 8 -4z"/>
<path d="M7854 6882 c4 -7 2 -12 -5 -12 -7 0 -9 -3 -6 -7 4 -3 1 -13 -6 -21
-9 -13 -9 -14 0 -8 22 12 34 44 21 52 -7 4 -8 3 -4 -4z"/>
<path d="M7850 6821 c0 -6 4 -13 10 -16 6 -3 7 1 4 9 -7 18 -14 21 -14 7z"/>
<path d="M7849 6588 c-1 -7 -1 -19 0 -27 2 -7 -2 -10 -9 -6 -9 6 -9 2 -1 -14
15 -27 17 -27 16 7 0 15 3 30 8 33 5 4 4 10 -2 13 -6 4 -12 1 -12 -6z"/>
<path d="M6570 1760 c0 -5 -5 -9 -11 -7 -6 1 -14 -5 -16 -13 -4 -12 -3 -12 5
-2 5 8 13 13 18 12 5 -1 10 3 12 9 2 6 1 11 -2 11 -3 0 -6 -4 -6 -10z"/>
<path d="M6540 1660 c-9 -6 -10 -10 -3 -10 6 0 15 5 18 10 8 12 4 12 -15 0z"/>
<path d="M6349 1423 c-13 -16 -12 -17 4 -4 16 13 21 21 13 21 -2 0 -10 -8 -17
-17z"/>
<path d="M6295 1321 c-3 -6 -10 -9 -15 -6 -4 3 -7 -3 -6 -12 2 -10 -2 -21 -8
-25 -6 -4 -11 -11 -11 -17 0 -5 -11 -18 -24 -28 -19 -15 -20 -20 -8 -20 10 0
15 2 12 5 -2 2 6 13 18 23 12 10 18 19 12 19 -5 0 4 9 20 20 17 11 23 20 15
20 -13 0 -13 1 0 10 8 5 12 12 8 15 -3 4 -9 1 -13 -4z"/>
<path d="M7656 7847 c3 -10 9 -15 12 -12 3 3 0 11 -7 18 -10 9 -11 8 -5 -6z"/>
<path d="M7674 7809 c1 -8 8 -24 14 -36 10 -18 10 -23 1 -23 -7 0 -10 -3 -6
-6 15 -15 26 8 15 34 -14 33 -27 50 -24 31z"/>
<path d="M3750 7721 c0 -6 4 -12 8 -15 5 -3 9 1 9 9 0 8 -4 15 -9 15 -4 0 -8
-4 -8 -9z"/>
<path d="M7850 7119 c0 -5 5 -7 10 -4 6 3 10 8 10 11 0 2 -4 4 -10 4 -5 0 -10
-5 -10 -11z"/>
<path d="M7830 6350 c0 -6 5 -8 10 -5 6 3 10 2 10 -4 0 -5 -6 -12 -12 -15 -10
-5 -10 -7 0 -12 6 -3 12 -10 12 -15 0 -6 -4 -7 -10 -4 -5 3 -10 1 -10 -5 0 -7
6 -10 13 -7 6 2 12 19 12 37 0 18 -6 35 -12 38 -7 2 -13 -1 -13 -8z"/>
<path d="M7870 6320 c0 -5 5 -10 10 -10 6 0 10 5 10 10 0 6 -4 10 -10 10 -5 0
-10 -4 -10 -10z"/>
<path d="M7862 6280 c-7 -12 -17 -18 -22 -15 -6 3 -10 2 -10 -3 0 -5 15 -9 33
-9 17 0 26 2 20 5 -7 2 -13 8 -13 13 0 6 4 8 8 5 5 -3 9 1 9 9 0 21 -10 19
-25 -5z"/>
<path d="M7850 6240 c0 -6 -4 -8 -10 -5 -5 3 -10 1 -10 -4 0 -13 10 -14 29 -2
9 6 10 11 2 15 -6 4 -11 2 -11 -4z"/>
<path d="M7788 6193 c7 -3 16 -2 19 1 4 3 -2 6 -13 5 -11 0 -14 -3 -6 -6z"/>
<path d="M7800 6165 c0 -8 4 -15 10 -15 5 0 7 7 4 15 -4 8 -8 15 -10 15 -2 0
-4 -7 -4 -15z"/>
<path d="M7793 6002 c0 -12 5 -22 9 -22 11 0 10 12 -2 30 -7 12 -9 10 -7 -8z"/>
<path d="M7816 6005 c4 -8 8 -15 10 -15 2 0 4 7 4 15 0 8 -4 15 -10 15 -5 0
-7 -7 -4 -15z"/>
<path d="M7766 5983 c-6 -14 -5 -15 5 -6 7 7 10 15 7 18 -3 3 -9 -2 -12 -12z"/>
<path d="M7770 5950 c-6 -11 -9 -20 -8 -20 2 0 11 9 21 20 9 11 13 20 7 20 -5
0 -14 -9 -20 -20z"/>
<path d="M7850 5939 c0 -5 -4 -8 -9 -5 -13 9 -64 -40 -58 -55 4 -9 6 -7 6 5 1
11 4 16 8 13 3 -4 13 2 21 14 11 16 17 18 28 8 8 -6 17 -9 21 -5 3 3 1 6 -7 6
-10 0 -10 3 0 15 9 10 9 15 1 15 -6 0 -11 -5 -11 -11z"/>
<path d="M7790 5862 c-25 -25 -39 -42 -32 -38 6 4 12 2 12 -3 0 -6 5 -11 11
-11 8 0 8 4 0 13 -8 11 -5 14 19 14 l30 0 -22 -24 c-12 -12 -18 -23 -13 -23 4
0 15 8 24 18 9 11 23 21 31 25 12 4 11 6 -3 6 -10 1 -15 6 -12 11 4 6 10 8 15
5 5 -3 11 -1 14 4 8 12 -13 8 -41 -7 -35 -20 -40 -14 -10 14 16 15 32 22 40
18 8 -5 7 -2 -2 9 -7 9 -14 16 -15 15 0 0 -21 -21 -46 -46z"/>
<path d="M7753 5865 c0 -8 4 -12 9 -9 4 3 8 9 8 15 0 5 -4 9 -8 9 -5 0 -9 -7
-9 -15z"/>
<path d="M7822 5788 c-7 -7 -12 -19 -12 -27 1 -12 4 -11 12 4 6 11 16 23 22
27 7 5 8 8 1 8 -6 0 -16 -5 -23 -12z"/>
<path d="M7830 5750 c0 -5 5 -10 11 -10 5 0 7 5 4 10 -3 6 -8 10 -11 10 -2 0
-4 -4 -4 -10z"/>
<path d="M7798 5733 c7 -3 16 -2 19 1 4 3 -2 6 -13 5 -11 0 -14 -3 -6 -6z"/>
<path d="M7805 5680 c-3 -5 -1 -10 4 -10 6 0 11 5 11 10 0 6 -2 10 -4 10 -3 0
-8 -4 -11 -10z"/>
<path d="M7737 5635 c-9 -21 10 -28 33 -12 18 13 19 15 5 21 -25 9 -32 7 -38
-9z m28 -5 c-3 -5 -11 -10 -16 -10 -6 0 -7 5 -4 10 3 6 11 10 16 10 6 0 7 -4
4 -10z"/>
<path d="M7797 5623 c-4 -3 -7 -16 -6 -27 0 -19 1 -19 10 3 10 24 8 36 -4 24z"/>
<path d="M7730 5590 c-9 -6 -10 -10 -3 -10 6 0 15 5 18 10 8 12 4 12 -15 0z"/>
<path d="M7813 5578 c3 -9 -1 -19 -9 -22 -22 -8 -24 -8 -21 6 1 6 -6 14 -15
16 -10 2 -18 -1 -18 -7 0 -6 7 -8 15 -4 9 3 15 2 13 -3 -2 -5 7 -19 20 -31 12
-13 22 -19 22 -14 0 6 -5 13 -11 16 -6 5 -5 11 5 18 12 9 13 16 5 27 -9 13
-10 13 -6 -2z"/>
<path d="M7724 5529 c-19 -22 -19 -22 4 -8 12 8 22 17 22 21 0 12 -6 9 -26
-13z"/>
<path d="M7757 5527 c-3 -8 -2 -20 3 -26 5 -9 8 -4 8 13 0 29 -3 32 -11 13z"/>
<path d="M7780 5521 c0 -6 5 -13 11 -16 6 -5 4 -12 -8 -20 -15 -12 -16 -16 -4
-27 11 -11 13 -10 9 2 -3 8 2 20 12 25 15 9 15 11 -2 28 -10 9 -18 13 -18 8z"/>
<path d="M7750 5467 c0 -5 5 -18 11 -29 10 -18 9 -20 -5 -15 -16 6 -44 -29
-32 -41 3 -3 6 0 6 7 0 7 4 9 10 6 5 -3 7 0 5 7 -4 9 2 14 15 14 11 0 20 -3
20 -7 0 -13 -52 -49 -61 -43 -5 3 -9 0 -9 -5 0 -18 17 -13 49 15 18 15 31 20
31 13 0 -7 3 -10 6 -6 3 3 -6 25 -20 49 -14 24 -26 39 -26 35z"/>
<path d="M7716 5434 c-9 -24 -2 -26 12 -4 7 11 8 20 3 20 -5 0 -12 -7 -15 -16z"/>
<path d="M7770 5366 c0 -2 7 -7 16 -10 8 -3 12 -2 9 4 -6 10 -25 14 -25 6z"/>
<path d="M7739 5348 c-6 -28 -6 -44 1 -53 5 -6 6 -15 2 -20 -10 -15 -43 -18
-40 -4 2 6 -4 14 -12 16 -12 4 -12 3 -2 -5 8 -5 13 -13 13 -18 -1 -5 8 -10 19
-10 22 -1 44 28 32 41 -4 4 4 4 18 1 21 -6 22 -5 7 4 -9 6 -21 8 -26 5 -6 -3
-9 4 -8 15 1 12 8 20 20 20 10 0 16 -4 12 -9 -3 -5 -1 -12 4 -15 5 -4 8 2 7
11 -2 15 -44 33 -47 21z"/>
<path d="M7756 5254 c-3 -9 -1 -23 4 -32 9 -14 10 -12 4 7 -4 16 -3 21 5 17 7
-5 9 -1 5 8 -8 20 -10 20 -18 0z"/>
<path d="M7675 5240 c3 -5 8 -10 11 -10 2 0 4 5 4 10 0 6 -5 10 -11 10 -5 0
-7 -4 -4 -10z"/>
<path d="M7740 5208 c0 -9 7 -19 16 -22 15 -6 15 -4 3 11 -7 10 -15 20 -16 22
-2 2 -3 -3 -3 -11z"/>
<path d="M7710 5180 c0 -5 5 -10 10 -10 6 0 10 5 10 10 0 6 -4 10 -10 10 -5 0
-10 -4 -10 -10z"/>
<path d="M7670 5131 c0 -5 5 -13 10 -16 6 -3 10 -2 10 4 0 5 -4 13 -10 16 -5
3 -10 2 -10 -4z"/>
<path d="M7750 5119 c0 -5 5 -7 10 -4 6 3 10 8 10 11 0 2 -4 4 -10 4 -5 0 -10
-5 -10 -11z"/>
<path d="M7655 5100 c3 -5 8 -10 11 -10 2 0 4 5 4 10 0 6 -5 10 -11 10 -5 0
-7 -4 -4 -10z"/>
<path d="M7699 5103 c-1 -5 -1 -11 0 -15 0 -5 -6 -8 -14 -8 -8 0 -15 -5 -15
-10 0 -7 7 -7 20 0 11 6 18 15 15 20 -3 5 5 11 17 13 l23 4 -22 2 c-13 0 -24
-2 -24 -6z"/>
<path d="M7720 5075 c-19 -22 -8 -25 13 -3 9 10 13 18 8 18 -5 0 -14 -7 -21
-15z"/>
<path d="M7735 5059 c-4 -6 -5 -12 -2 -15 2 -3 7 2 10 11 7 17 1 20 -8 4z"/>
<path d="M7659 5041 c8 -5 20 -7 28 -4 8 3 13 0 11 -7 -2 -6 7 -16 19 -20 17
-7 21 -6 17 5 -3 8 -12 11 -20 8 -9 -3 -14 0 -12 8 2 8 -8 14 -27 15 -20 2
-25 0 -16 -5z"/>
<path d="M7699 4983 c-1 -5 -1 -12 0 -16 1 -5 -9 -6 -21 -2 -20 5 -21 4 -5 -5
20 -13 41 -4 31 12 -5 7 -1 9 9 5 10 -3 17 -2 17 3 0 12 -29 14 -31 3z"/>
<path d="M7641 4953 c-1 -17 16 -25 25 -12 4 7 3 9 -4 5 -5 -3 -13 0 -15 6 -4
9 -6 10 -6 1z"/>
<path d="M7710 4939 c0 -5 5 -7 10 -4 6 3 10 8 10 11 0 2 -4 4 -10 4 -5 0 -10
-5 -10 -11z"/>
<path d="M7670 4920 c0 -5 7 -7 15 -4 8 4 15 8 15 10 0 2 -7 4 -15 4 -8 0 -15
-4 -15 -10z"/>
<path d="M7621 4916 c2 -2 15 -9 29 -15 24 -11 24 -11 6 3 -16 13 -49 24 -35
12z"/>
<path d="M7675 4880 c-13 -6 -15 -9 -5 -9 8 0 22 4 30 9 18 12 2 12 -25 0z"/>
<path d="M7616 4863 c-6 -14 -5 -15 5 -6 7 7 10 15 7 18 -3 3 -9 -2 -12 -12z"/>
<path d="M7637 4857 c-3 -8 -2 -20 3 -26 5 -9 8 -4 8 13 0 29 -3 32 -11 13z"/>
<path d="M7695 4860 c-3 -6 1 -7 9 -4 18 7 21 14 7 14 -6 0 -13 -4 -16 -10z"/>
<path d="M7670 4830 c0 -5 5 -10 11 -10 5 0 7 5 4 10 -3 6 -8 10 -11 10 -2 0
-4 -4 -4 -10z"/>
<path d="M7645 4800 c-3 -6 1 -7 9 -4 18 7 21 14 7 14 -6 0 -13 -4 -16 -10z"/>
<path d="M7614 4778 c-4 -7 -3 -8 4 -4 12 7 16 -4 13 -34 -2 -13 0 -13 8 -1 6
10 6 21 0 33 -11 21 -15 22 -25 6z"/>
<path d="M7655 4781 c-3 -5 0 -13 6 -17 8 -5 9 -3 4 6 -6 10 -3 12 13 8 12 -4
20 -2 16 3 -7 12 -31 12 -39 0z"/>
<path d="M7655 4742 c-9 -9 -5 -32 5 -32 5 0 6 7 3 17 -4 10 -2 14 5 9 6 -3
13 -3 16 2 5 9 -20 12 -29 4z"/>
<path d="M7590 4725 c0 -8 4 -15 10 -15 5 0 7 7 4 15 -4 8 -8 15 -10 15 -2 0
-4 -7 -4 -15z"/>
<path d="M7613 4694 c-3 -8 -3 -18 1 -21 3 -4 6 1 6 9 0 11 6 14 20 11 11 -3
20 -3 20 0 0 13 -42 14 -47 1z"/>
<path d="M7630 4660 c0 -5 7 -7 15 -4 8 4 15 8 15 10 0 2 -7 4 -15 4 -8 0 -15
-4 -15 -10z"/>
<path d="M7610 4649 c0 -5 -4 -8 -9 -4 -5 3 -12 2 -15 -3 -2 -4 4 -9 15 -9 10
-1 19 5 19 13 0 8 -2 14 -5 14 -3 0 -5 -5 -5 -11z"/>
<path d="M7630 4620 c0 -5 5 -10 10 -10 6 0 10 5 10 10 0 6 -4 10 -10 10 -5 0
-10 -4 -10 -10z"/>
<path d="M7588 4603 c6 -2 18 -2 25 0 6 3 1 5 -13 5 -14 0 -19 -2 -12 -5z"/>
<path d="M7630 4590 c0 -5 5 -10 11 -10 5 0 7 5 4 10 -3 6 -8 10 -11 10 -2 0
-4 -4 -4 -10z"/>
<path d="M7590 4561 c0 -10 19 -25 25 -20 1 2 -3 10 -11 17 -8 7 -14 8 -14 3z"/>
<path d="M7561 4544 c11 -3 15 -12 12 -23 -3 -10 -1 -21 4 -24 5 -3 8 7 7 21
0 19 -7 28 -20 29 -14 1 -15 1 -3 -3z"/>
<path d="M7537 4511 c-4 -17 -3 -21 5 -13 5 5 8 16 6 23 -3 8 -7 3 -11 -10z"/>
<path d="M7615 4520 c3 -5 8 -10 11 -10 2 0 4 5 4 10 0 6 -5 10 -11 10 -5 0
-7 -4 -4 -10z"/>
<path d="M7610 4490 c-11 -7 -11 -10 -2 -10 7 0 11 -4 7 -9 -3 -5 -2 -12 3
-15 4 -2 8 6 8 20 0 13 0 24 0 24 -1 0 -8 -5 -16 -10z"/>
<path d="M7555 4480 c3 -5 11 -10 16 -10 6 0 7 5 4 10 -3 6 -11 10 -16 10 -6
0 -7 -4 -4 -10z"/>
<path d="M7590 4461 c0 -6 4 -13 10 -16 6 -3 7 1 4 9 -7 18 -14 21 -14 7z"/>
<path d="M7539 4440 c-6 -4 1 -7 15 -7 14 0 26 3 26 7 0 3 -7 7 -15 7 -8 0
-19 -4 -26 -7z"/>
<path d="M7590 4421 c0 -6 4 -12 8 -15 5 -3 9 1 9 9 0 8 -4 15 -9 15 -4 0 -8
-4 -8 -9z"/>
<path d="M7517 4406 c-4 -10 -3 -15 2 -11 5 3 11 0 13 -7 2 -6 12 -12 21 -14
9 -1 14 2 11 8 -3 5 -9 7 -12 3 -3 -3 -11 4 -17 16 -11 19 -13 19 -18 5z"/>
<path d="M7565 4400 c3 -5 11 -10 16 -10 6 0 7 5 4 10 -3 6 -11 10 -16 10 -6
0 -7 -4 -4 -10z"/>
<path d="M7590 4380 c-9 -6 -10 -10 -3 -10 6 0 15 5 18 10 8 12 4 12 -15 0z"/>
<path d="M7525 4356 c10 -14 19 -26 22 -26 7 0 -17 39 -28 46 -6 3 -3 -5 6
-20z"/>
<path d="M7556 4323 c-6 -14 -5 -15 5 -6 7 7 10 15 7 18 -3 3 -9 -2 -12 -12z"/>
<path d="M7527 4310 c10 -11 19 -20 21 -20 1 0 -2 9 -8 20 -6 11 -15 20 -20
20 -6 0 -2 -9 7 -20z"/>
<path d="M7575 4311 c-3 -5 -2 -12 3 -15 5 -3 9 1 9 9 0 17 -3 19 -12 6z"/>
<path d="M7514 4286 c3 -16 8 -31 11 -35 3 -3 4 7 1 23 -3 16 -8 31 -11 35 -3
3 -4 -7 -1 -23z"/>
<path d="M7550 4280 c-12 -7 -10 -9 7 -7 12 0 19 5 17 9 -6 10 -6 10 -24 -2z"/>
<path d="M7476 4259 c3 -5 10 -7 16 -3 6 4 8 -3 6 -17 -2 -19 2 -24 22 -26 21
-2 22 -1 5 5 -11 4 -20 16 -20 26 0 11 -8 20 -18 22 -9 1 -15 -2 -11 -7z"/>
<path d="M7464 4196 c-13 -10 -14 -15 -4 -21 9 -5 11 -4 6 3 -7 12 5 16 32 13
16 -2 15 6 -2 12 -8 3 -22 0 -32 -7z"/>
<path d="M7515 4180 c-4 -6 1 -7 11 -3 13 5 15 3 9 -7 -5 -9 -4 -11 4 -6 6 4
9 12 6 17 -8 12 -22 12 -30 -1z"/>
<path d="M7510 4151 c13 -10 13 -12 0 -22 -13 -9 -13 -10 0 -6 8 2 15 10 15
17 0 7 -7 15 -15 17 -13 4 -13 3 0 -6z"/>
<path d="M7477 4137 c-3 -8 -2 -20 3 -26 5 -9 8 -4 8 13 0 29 -3 32 -11 13z"/>
<path d="M7460 4080 c-9 -6 -10 -10 -3 -10 6 0 15 5 18 10 8 12 4 12 -15 0z"/>
<path d="M7490 4078 c0 -11 12 -10 30 2 12 7 10 9 -8 7 -12 0 -22 -5 -22 -9z"/>
<path d="M7515 4059 c-4 -6 -5 -12 -2 -15 2 -3 7 2 10 11 7 17 1 20 -8 4z"/>
<path d="M7427 4040 c-15 -14 -16 -20 -5 -26 7 -4 10 -4 6 1 -4 4 0 14 10 21
9 7 15 14 12 17 -3 2 -13 -4 -23 -13z"/>
<path d="M7470 4045 c0 -8 4 -15 10 -15 5 0 7 7 4 15 -4 8 -8 15 -10 15 -2 0
-4 -7 -4 -15z"/>
<path d="M7454 4022 c4 -7 1 -12 -6 -12 -8 0 -6 -5 5 -11 10 -6 21 -8 24 -5 4
3 1 6 -6 6 -7 0 -10 4 -6 9 3 5 0 13 -6 17 -8 4 -9 3 -5 -4z"/>
<path d="M7430 3980 c0 -5 5 -10 10 -10 6 0 10 5 10 10 0 6 -4 10 -10 10 -5 0
-10 -4 -10 -10z"/>
<path d="M7395 3960 c-3 -6 1 -7 9 -4 18 7 21 14 7 14 -6 0 -13 -4 -16 -10z"/>
<path d="M7460 3966 c0 -2 9 -6 20 -9 11 -3 18 -1 14 4 -5 9 -34 13 -34 5z"/>
<path d="M7436 3947 c3 -10 9 -15 12 -12 3 3 0 11 -7 18 -10 9 -11 8 -5 -6z"/>
<path d="M7414 3942 c4 -7 2 -12 -4 -12 -7 0 -8 -6 -1 -19 11 -19 50 -24 53
-6 0 6 8 16 17 23 14 11 13 11 -7 2 -12 -6 -20 -15 -17 -20 3 -5 -4 -8 -15 -7
-15 1 -20 7 -17 19 3 10 0 21 -5 25 -7 3 -8 1 -4 -5z"/>
<path d="M7393 3884 c0 -17 2 -22 7 -13 5 6 6 18 3 26 -8 19 -10 16 -10 -13z"/>
<path d="M7415 3871 c-9 -15 13 -23 32 -11 15 9 14 10 -6 4 -16 -4 -21 -3 -17
5 4 6 5 11 2 11 -3 0 -7 -4 -11 -9z"/>
<path d="M7370 3840 c0 -5 5 -10 10 -10 6 0 10 5 10 10 0 6 -4 10 -10 10 -5 0
-10 -4 -10 -10z"/>
<path d="M7450 3839 c0 -5 5 -7 10 -4 6 3 10 8 10 11 0 2 -4 4 -10 4 -5 0 -10
-5 -10 -11z"/>
<path d="M7419 3828 c-6 -21 -5 -37 2 -32 5 3 6 10 3 16 -5 8 -1 9 10 5 10 -4
15 -3 11 3 -5 9 -24 14 -26 8z"/>
<path d="M7439 3798 c-5 -9 -5 -48 -1 -43 6 6 11 45 5 45 -2 0 -4 -1 -4 -2z"/>
<path d="M7344 3754 c-18 -14 -18 -14 6 -3 31 14 36 19 24 19 -6 0 -19 -7 -30
-16z"/>
<path d="M7377 3737 c3 -4 12 -7 21 -5 10 2 23 -3 30 -12 12 -13 12 -12 4 4
-6 11 -21 20 -35 20 -14 1 -23 -2 -20 -7z"/>
<path d="M7340 3726 c0 -2 7 -6 15 -10 8 -3 15 -1 15 4 0 6 -7 10 -15 10 -8 0
-15 -2 -15 -4z"/>
<path d="M7330 3700 c-9 -6 -10 -10 -3 -10 6 0 15 5 18 10 8 12 4 12 -15 0z"/>
<path d="M7379 3703 c-1 -5 -1 -12 0 -17 1 -5 -6 -5 -16 -2 -9 4 -14 4 -10 0
4 -4 -1 -13 -11 -21 -12 -10 -7 -9 16 2 19 9 30 20 26 27 -5 8 -2 9 9 5 10 -3
17 -2 17 3 0 12 -29 14 -31 3z"/>
<path d="M7393 3643 c-1 -24 -1 -25 7 -8 11 26 12 35 2 35 -4 0 -8 -12 -9 -27z"/>
<path d="M7356 3637 c4 -12 2 -17 -7 -15 -18 4 -20 -42 -3 -49 8 -3 11 -10 7
-16 -3 -6 -1 -7 5 -3 16 10 15 26 -1 26 -7 0 -13 9 -14 20 -1 11 2 18 7 15 14
-9 23 16 11 28 -9 9 -11 8 -5 -6z"/>
<path d="M7305 3600 c-3 -5 -1 -10 4 -10 6 0 11 5 11 10 0 6 -2 10 -4 10 -3 0
-8 -4 -11 -10z"/>
<path d="M7370 3600 c0 -5 5 -10 10 -10 6 0 10 5 10 10 0 6 -4 10 -10 10 -5 0
-10 -4 -10 -10z"/>
<path d="M7308 3563 c7 -3 16 -2 19 1 4 3 -2 6 -13 5 -11 0 -14 -3 -6 -6z"/>
<path d="M7294 3538 c-3 -5 -3 -12 0 -15 3 -4 6 -2 6 3 0 5 9 10 20 11 11 1
18 -2 15 -7 -3 -5 4 -14 16 -20 12 -7 19 -8 15 -2 -3 6 0 13 6 16 7 3 3 3 -10
0 -15 -4 -22 -1 -20 7 3 15 -40 21 -48 7z"/>
<path d="M7316 3507 c3 -10 9 -15 12 -12 3 3 0 11 -7 18 -10 9 -11 8 -5 -6z"/>
<path d="M7284 3499 c-4 -7 -3 -9 4 -5 7 4 10 -1 9 -14 -1 -21 -12 -27 -20
-10 -3 6 -4 5 -3 -2 4 -22 29 -15 32 9 4 25 -11 39 -22 22z"/>
<path d="M7250 3440 c0 -5 5 -10 10 -10 6 0 10 5 10 10 0 6 -4 10 -10 10 -5 0
-10 -4 -10 -10z"/>
<path d="M7298 3439 c-6 -4 4 -6 21 -5 17 0 31 4 31 8 0 8 -37 6 -52 -3z"/>
<path d="M7270 3410 c0 -5 5 -10 10 -10 6 0 10 5 10 10 0 6 -4 10 -10 10 -5 0
-10 -4 -10 -10z"/>
<path d="M7310 3405 c0 -8 4 -15 10 -15 5 0 7 7 4 15 -4 8 -8 15 -10 15 -2 0
-4 -7 -4 -15z"/>
<path d="M7270 3340 c0 -5 5 -10 10 -10 6 0 10 5 10 10 0 6 -4 10 -10 10 -5 0
-10 -4 -10 -10z"/>
<path d="M7220 3320 c-18 -12 -2 -12 25 0 13 6 15 9 5 9 -8 0 -22 -4 -30 -9z"/>
<path d="M7295 3319 c-11 -16 -1 -19 13 -3 7 8 8 14 3 14 -5 0 -13 -5 -16 -11z"/>
<path d="M7234 3294 c-18 -14 -18 -15 3 -5 18 9 22 8 26 -7 4 -15 5 -15 6 0 2
24 -13 30 -35 12z"/>
<path d="M7240 3272 c0 -7 -6 -11 -12 -9 -8 1 -13 -8 -13 -23 0 -15 5 -24 13
-22 14 2 16 -14 2 -21 -6 -3 -5 -4 2 -3 7 2 13 9 13 17 0 8 -6 13 -12 12 -7
-2 -13 6 -13 18 0 11 4 18 9 14 11 -6 26 13 17 22 -3 4 -6 1 -6 -5z"/>
<path d="M7273 3258 c-13 -6 -23 -15 -23 -20 0 -13 9 -10 32 12 24 22 23 23
-9 8z"/>
<path d="M7193 3217 c4 -11 1 -20 -8 -23 -8 -4 -15 -11 -15 -16 0 -6 7 -5 15
2 14 12 15 9 10 -21 -3 -22 -2 -29 4 -20 10 16 8 78 -4 89 -5 4 -5 -1 -2 -11z"/>
<path d="M7220 3166 c0 -2 7 -6 15 -10 8 -3 15 -1 15 4 0 6 -7 10 -15 10 -8 0
-15 -2 -15 -4z"/>
<path d="M7215 3140 c-10 -17 12 -37 25 -24 8 8 6 15 -4 23 -10 9 -16 9 -21 1z
m20 -10 c3 -5 1 -10 -4 -10 -6 0 -11 5 -11 10 0 6 2 10 4 10 3 0 8 -4 11 -10z"/>
<path d="M7170 3123 c5 -2 10 -9 10 -14 0 -6 -4 -8 -8 -5 -4 2 -14 0 -22 -5
-11 -7 -8 -8 10 -6 26 4 35 28 12 33 -7 1 -8 0 -2 -3z"/>
<path d="M7196 3095 c-9 -26 -7 -32 5 -12 6 10 9 21 6 23 -2 3 -7 -2 -11 -11z"/>
<path d="M7215 3079 c-11 -16 -1 -19 13 -3 7 8 8 14 3 14 -5 0 -13 -5 -16 -11z"/>
<path d="M7148 3069 c-11 -6 -15 -16 -11 -26 4 -9 2 -14 -3 -10 -6 3 -16 1
-24 -5 -12 -8 -12 -9 2 -4 10 3 20 1 23 -4 10 -17 50 -4 53 17 4 27 -18 44
-40 32z m32 -27 c0 -10 -8 -18 -19 -19 -12 -1 -18 5 -17 15 2 34 36 37 36 4z"/>
<path d="M7162 2986 c7 -8 15 -12 17 -11 5 6 -10 25 -20 25 -5 0 -4 -6 3 -14z"/>
<path d="M7066 2921 c-4 -5 3 -7 14 -4 16 4 19 2 14 -13 -6 -15 -4 -16 6 -7 7
6 9 16 6 22 -9 13 -33 14 -40 2z"/>
<path d="M7116 2895 c-3 -9 3 -19 16 -26 12 -7 18 -7 14 -1 -3 6 0 13 6 16 7
3 3 3 -9 0 -18 -4 -22 -2 -17 10 3 9 4 16 1 16 -3 0 -7 -7 -11 -15z"/>
<path d="M7075 2846 c-19 -15 -24 -25 -17 -30 15 -9 32 1 32 19 0 7 6 15 13
18 6 2 10 7 7 10 -3 3 -19 -4 -35 -17z m5 -16 c0 -5 -5 -10 -11 -10 -5 0 -7 5
-4 10 3 6 8 10 11 10 2 0 4 -4 4 -10z"/>
<path d="M7135 2840 c-3 -5 -1 -10 4 -10 6 0 11 5 11 10 0 6 -2 10 -4 10 -3 0
-8 -4 -11 -10z"/>
<path d="M7110 2831 c0 -6 4 -13 10 -16 6 -3 7 1 4 9 -7 18 -14 21 -14 7z"/>
<path d="M7027 2809 c7 -7 15 -10 18 -7 3 3 -2 9 -12 12 -14 6 -15 5 -6 -5z"/>
<path d="M7080 2800 c-8 -5 -10 -10 -5 -10 6 0 17 5 25 10 8 5 11 10 5 10 -5
0 -17 -5 -25 -10z"/>
<path d="M7050 2780 c13 -8 8 -14 -11 -12 -3 0 -10 -8 -17 -19 -7 -11 -8 -19
-2 -19 5 0 10 5 10 10 0 6 7 10 15 10 8 0 15 5 15 11 0 5 4 8 10 4 5 -3 7 -13
4 -23 -5 -14 -4 -15 5 -2 11 16 -12 50 -33 50 -6 0 -4 -5 4 -10z"/>
<path d="M7095 2781 c-3 -5 0 -13 6 -17 7 -4 9 -3 5 4 -3 5 0 13 6 15 9 4 10
6 1 6 -6 1 -14 -3 -18 -8z"/>
<path d="M7090 2730 c-6 -11 -7 -20 -2 -20 6 0 12 9 15 20 3 11 3 20 1 20 -2
0 -8 -9 -14 -20z"/>
<path d="M7030 2719 c-13 -9 -12 -10 2 -5 10 3 20 1 23 -4 4 -6 -2 -10 -11
-10 -10 0 -15 -3 -11 -6 12 -12 37 5 31 21 -7 18 -14 19 -34 4z"/>
<path d="M7044 2667 l-31 -22 26 -19 c26 -20 26 -20 8 0 -16 20 -14 34 5 34 5
0 7 -4 3 -9 -3 -5 -1 -12 4 -16 6 -3 8 3 6 15 -2 11 3 24 13 30 9 5 13 9 7 9
-5 0 -24 -10 -41 -22z"/>
<path d="M6965 2640 c3 -6 1 -10 -6 -10 -7 0 -10 -3 -6 -6 3 -3 13 -2 22 4 16
8 16 9 1 15 -10 4 -15 3 -11 -3z"/>
<path d="M6994 2615 c-4 -8 -10 -12 -16 -9 -5 3 -4 -3 3 -14 13 -21 13 -21 27
-1 12 17 16 18 30 7 12 -9 11 -6 -2 10 -22 26 -34 28 -42 7z m26 1 c0 -2 -7
-9 -15 -16 -13 -11 -14 -10 -9 4 5 14 24 23 24 12z"/>
<path d="M6940 2596 c0 -2 7 -7 16 -10 8 -3 12 -2 9 4 -6 10 -25 14 -25 6z"/>
<path d="M7010 2571 c-7 -13 -7 -22 0 -26 5 -3 10 -5 11 -3 11 48 7 61 -11 29z"/>
<path d="M6936 2571 c-3 -4 1 -17 10 -27 14 -18 15 -18 5 2 -6 12 -7 24 -4 28
3 3 4 6 0 6 -3 0 -8 -4 -11 -9z"/>
<path d="M6960 2559 c0 -5 5 -7 10 -4 6 3 10 8 10 11 0 2 -4 4 -10 4 -5 0 -10
-5 -10 -11z"/>
<path d="M6975 2540 c-3 -5 -3 -14 0 -20 8 -13 35 -13 35 0 0 5 -7 7 -15 4
-11 -5 -13 -2 -9 10 7 18 -1 22 -11 6z"/>
<path d="M3715 2529 c-4 -6 -5 -12 -2 -15 2 -3 7 2 10 11 7 17 1 20 -8 4z"/>
<path d="M6902 2503 c-12 -28 -12 -28 4 -5 16 21 42 32 29 12 -3 -5 -1 -10 5
-10 17 0 6 24 -12 28 -8 2 -19 -9 -26 -25z"/>
<path d="M6968 2485 c5 -30 18 -40 28 -24 4 8 3 9 -4 5 -8 -5 -12 0 -12 13 0
11 -4 22 -9 25 -4 3 -6 -6 -3 -19z"/>
<path d="M6920 2481 c0 -5 6 -16 13 -23 7 -7 19 -22 25 -33 l12 -20 -2 20 c-2
11 -11 26 -21 33 -9 7 -15 18 -12 23 4 5 1 9 -4 9 -6 0 -11 -4 -11 -9z"/>
<path d="M6890 2433 c-18 -9 -20 -13 -8 -13 9 0 19 4 23 10 3 5 12 7 20 3 8
-3 15 -3 15 0 0 12 -27 12 -50 0z"/>
<path d="M6913 2406 c3 -8 -3 -26 -14 -40 -16 -20 -17 -24 -5 -20 9 3 16 11
16 17 0 7 4 7 12 -1 7 -7 17 -12 23 -12 5 0 3 5 -5 10 -10 6 -11 10 -2 10 6 0
12 5 12 11 0 8 -5 7 -15 -1 -14 -12 -15 -10 -11 13 3 15 0 27 -6 27 -5 0 -8
-6 -5 -14z"/>
<path d="M6866 2398 c3 -4 12 -8 20 -8 8 0 14 4 14 8 0 4 -9 8 -19 8 -11 0
-17 -4 -15 -8z"/>
<path d="M6870 2369 c0 -5 5 -7 10 -4 6 3 10 8 10 11 0 2 -4 4 -10 4 -5 0 -10
-5 -10 -11z"/>
<path d="M6900 2330 c-8 -5 -10 -10 -5 -11 6 0 1 -4 -10 -9 -16 -7 -17 -9 -3
-9 9 -1 21 5 25 13 4 7 15 16 23 19 13 5 13 5 0 6 -8 0 -22 -4 -30 -9z"/>
<path d="M6860 2278 c0 -6 3 -8 6 -5 4 3 15 2 25 -4 14 -7 17 -6 14 4 -7 16
-45 20 -45 5z"/>
<path d="M6830 2262 c-8 -9 -14 -20 -12 -24 1 -5 -2 -8 -6 -8 -5 0 -17 -7 -28
-15 -16 -14 -14 -14 14 0 19 9 31 19 28 22 -3 3 2 12 12 19 9 7 15 15 12 17
-3 3 -12 -2 -20 -11z"/>
<path d="M6850 2240 c-6 -11 -23 -26 -38 -34 -15 -9 -21 -15 -13 -16 17 0 72
46 64 54 -10 9 6 7 30 -5 21 -10 21 -10 3 5 -26 21 -33 20 -46 -4z"/>
<path d="M6848 2201 c-28 -21 -34 -31 -26 -39 9 -9 9 -12 0 -12 -6 0 -16 8
-21 18 -6 9 -11 12 -11 5 0 -6 5 -15 10 -18 16 -10 12 -25 -7 -25 -15 0 -15
-2 -4 -9 10 -7 20 -2 34 15 10 13 23 21 29 18 7 -4 8 -2 4 5 -4 6 -12 9 -17 6
-5 -4 -9 -2 -9 3 0 16 13 22 27 11 9 -9 13 -8 13 0 0 6 -5 11 -11 11 -6 0 -1
9 12 20 36 29 19 23 -23 -9z"/>
<path d="M6763 2083 c-26 -27 -31 -42 -8 -23 16 14 18 10 9 -14 -3 -9 -10 -13
-15 -10 -5 3 -4 -6 3 -20 6 -14 16 -26 22 -26 6 0 5 5 -2 12 -17 17 -15 33 3
18 10 -9 15 -9 15 -1 0 6 -4 11 -10 11 -5 0 -10 5 -10 11 0 6 9 8 23 4 l22 -7
-23 17 c-21 16 -22 35 -1 35 6 0 7 -5 3 -12 -4 -7 -3 -8 4 -4 16 9 15 23 0 28
-7 2 -23 -6 -35 -19z"/>
</g>
</svg>
