<?xml version="1.0" encoding="utf-8"?>
<!-- Generator: Adobe Illustrator 24.0.3, SVG Export Plug-In . SVG Version: 6.00 Build 0)  -->
<svg version="1.1" id="Layer_1" xmlns="http://www.w3.org/2000/svg" xmlns:xlink="http://www.w3.org/1999/xlink" x="0px" y="0px"
	 viewBox="0 0 99.1 80.5" style="enable-background:new 0 0 99.1 80.5;" xml:space="preserve">
<style type="text/css">
	
		.st0{opacity:0.15;fill:none;stroke:#000000;stroke-width:0.869;stroke-linecap:round;stroke-miterlimit:8;enable-background:new    ;}
	.st1{fill:#00CEA6;}
	.st2{fill:#024B6D;}
	.st3{opacity:0;}
	.st4{fill:#FFFFFF;}
	.st5{opacity:0.75;fill:#FFFFFF;enable-background:new    ;}
	.st6{font-family:'ArialMT';}
	.st7{font-size:9.3808px;}
</style>
<title>awardImg</title>
<path class="st0" d="M7.9,19.4c-8.7,22.1,2.3,47.1,24.4,55.7c0.8,0.3,1.7,0.6,2.5,0.9 M91.3,19.4c8.7,22.1-2.3,47.1-24.4,55.7
	c-0.8,0.3-1.7,0.6-2.5,0.9"/>
<path class="st1" d="M8.3,17.4l3-3.8l-0.4-4.9l-3,3.8L8.3,17.4z M4.9,23l1.3-4.3l-2-2.7c-0.6,1.3-1,2.7-1.5,4L4.9,23z M9.6,19.8
	L8.3,24l2.9-1c0.4-1.5,0.9-3,1.4-4.3L9.6,19.8z M3,32.2l0.6-4.5l-2.5-2.3c-0.3,1.4-0.5,2.8-0.7,4.3L3,32.2z M7.2,28.2l-0.6,4.5
	l3.3-1.8c0.1-1.5,0.3-3,0.5-4.5L7.2,28.2z M3.1,36.3l-3.1-2.2c0,0.6-0.1,1.1-0.1,1.7c0,0.9,0.1,1.9,0.1,2.8l3.1,2.2V36.3z M6.8,36.3
	l0.1,4.5l3.3-2.4c-0.2-1.4-0.3-2.9-0.3-4.3L6.8,36.3L6.8,36.3z M5.1,49.4L4.2,45l-3.6-1.6c0.2,1.5,0.5,3,0.9,4.4L5.1,49.4z
	 M7.8,44.2l0.9,4.4l3-3.2c-0.4-1.4-0.8-2.8-1-4.2L7.8,44.2L7.8,44.2z M8.9,57.2l-1.8-4.1l-4.2-0.9c0.5,1.4,1,2.7,1.6,4.1L8.9,57.2z
	 M10.4,51.7l1.8,4.1l2.2-3.8c-0.7-1.3-1.3-2.7-1.9-4.1L10.4,51.7z M14.1,64.5l-2.5-3.7l-4.8-0.1c0.8,1.3,1.5,2.5,2.4,3.7L14.1,64.5z
	 M14.5,58.7l2.5,3.7l1.4-4.1c-0.9-1.2-1.8-2.4-2.6-3.7L14.5,58.7z M15.8,72l5.2-1l-3.3-3.1l-5,1C13.7,70,14.7,71,15.8,72L15.8,72z
	 M20.7,60.8l-0.5,4.4l3.3,3.1L24,64C22.8,63,21.7,61.9,20.7,60.8L20.7,60.8z M25.6,74.1l-4.3,2.3c0.9,0.6,1.7,1.2,2.7,1.7l1,0.5
	l4.8-2.5L25.6,74.1L25.6,74.1z M27.1,70.8l4.1,2l-0.8-4.4c-1.4-0.8-2.8-1.7-4.2-2.7L27.1,70.8L27.1,70.8z M91.3,12.6l-3-3.8
	l-0.4,4.9l3,3.8L91.3,12.6z M93.1,18.7l1.3,4.3l2.3-3c-0.5-1.3-1-2.7-1.5-4L93.1,18.7L93.1,18.7z M90.9,24.1l-1.3-4.3l-3.1-1
	c0.6,1.4,1.1,2.9,1.4,4.3L90.9,24.1z M98.8,29.7c-0.2-1.4-0.4-2.9-0.7-4.3l-2.5,2.3l0.6,4.5L98.8,29.7z M92.5,32.7L92,28.2l-3.2-1.7
	c0.3,1.5,0.5,3,0.5,4.5L92.5,32.7L92.5,32.7z M96,40.8l3.1-2.2c0.1-0.9,0.1-1.9,0.1-2.8c0-0.6,0-1.1-0.1-1.7L96,36.3V40.8z
	 M92.4,40.7l0.1-4.5L89.3,34c0,1.4-0.1,2.9-0.3,4.3L92.4,40.7z M95,45l-0.9,4.4l3.7-1.6c0.3-1.4,0.6-2.9,0.9-4.4L95,45z M90.5,48.6
	l0.9-4.4l-2.8-3.1c-0.3,1.4-0.6,2.8-1,4.2L90.5,48.6z M92.2,53.1l-1.8,4.1l4.4-0.9c0.6-1.3,1.2-2.7,1.6-4.1L92.2,53.1z M87,55.7
	l1.8-4.1l-2.1-3.7c-0.5,1.4-1.1,2.7-1.9,4.1L87,55.7z M87.6,60.8l-2.5,3.7l5-0.1c0.9-1.2,1.6-2.4,2.4-3.7L87.6,60.8L87.6,60.8z
	 M82,62.5l2.5-3.7l-1.4-4c-0.8,1.3-1.7,2.5-2.6,3.7L82,62.5z M86.5,68.9l-5-1l-3.3,3.1l5.2,1C84.5,71,85.5,70,86.5,68.9L86.5,68.9z
	 M75.2,64l0.5,4.3l3.3-3.1l-0.5-4.4C77.5,61.9,76.4,63,75.2,64z M73.6,74.1l-4.1,2l4.8,2.6l1-0.5c0.9-0.5,1.8-1.2,2.7-1.7L73.6,74.1
	L73.6,74.1z M68,72.8l4.1-2l0.9-5.1c-1.3,1-2.7,1.9-4.2,2.7L68,72.8z"/>
<path class="st2" d="M58.1,24h-1.4v1.6h-1v1.3h1v2.7c0,1.5,0.5,2.3,2.2,2.3h0.6v-1.5H59c-0.7,0-0.9-0.3-0.9-0.9v-2.6h1.6v-1.3h-1.6
	V24z M61,23.2h1.6v1.4H61L61,23.2z M61,25.6h1.6v6.3H61L61,25.6z M67.3,28.2c-1.6-0.5-1.9-0.6-1.9-0.9c0-0.3,0.3-0.6,1-0.6
	c0.6-0.1,1.2,0.4,1.3,1l1.3-0.4c-0.3-1.2-1.4-2-2.7-1.9c-1.6,0-2.4,0.9-2.4,1.9s0.8,1.4,2.1,1.9c1.3,0.3,1.7,0.5,1.7,0.9
	s-0.5,0.7-1.3,0.7c-0.7,0.1-1.3-0.5-1.4-1.2c0,0,0-0.1,0-0.1l-1.4,0.3c0.2,1.4,1.4,2.4,2.8,2.3c1.8,0,2.6-1.1,2.6-2
	C69.2,29.3,68.8,28.6,67.3,28.2L67.3,28.2z M72.8,25.4c-1.6,0-2.9,1.3-2.9,3.3c-0.2,1.6,1,3.1,2.7,3.3c0.1,0,0.2,0,0.3,0
	c1.1,0,2-0.5,2.6-1.4l-1.1-0.9c-0.3,0.6-0.9,1-1.6,1c-0.9,0-1.3-0.5-1.4-1.5h4.2v-0.5C75.7,26.7,74.5,25.4,72.8,25.4L72.8,25.4z
	 M71.4,28c0-0.7,0.6-1.3,1.3-1.3c0.7-0.1,1.3,0.5,1.4,1.2c0,0,0,0.1,0,0.1H71.4z M24.5,31.9h5.3v-1.5h-3.7v-2h3.4v-1.4h-3.4v-1.9
	h3.7v-1.5h-5.3V31.9z M36.7,25.6h-1.6l-1.4,2.1l-1.4-2.1h-1.6l2,3.1l-2.1,3.2h1.6l1.5-2.3l1.5,2.3h1.7l-2.2-3.2L36.7,25.6z M41,25.4
	c-0.7,0-1.3,0.3-1.7,0.8v-0.6h-1.4v8.9h1.6v-3.3c0.4,0.5,1,0.8,1.6,0.8c1.4,0,2.8-1.2,2.8-3.3C43.7,26.6,42.4,25.4,41,25.4L41,25.4z
	 M40.7,30.7c-0.9,0-1.5-0.6-1.5-1.9c0-1.3,0.6-1.9,1.5-1.9s1.5,0.6,1.5,1.9S41.5,30.7,40.7,30.7z M47.4,25.4c-1.6,0-2.9,1.3-2.9,3.3
	c-0.2,1.6,1,3.1,2.7,3.3c0.1,0,0.2,0,0.3,0c1.1,0,2-0.5,2.6-1.4L49,29.7c-0.3,0.6-0.9,1-1.6,1c-0.9,0-1.3-0.5-1.4-1.5h4.2v-0.5
	c0.2-1.6-0.9-3.1-2.5-3.3C47.6,25.4,47.5,25.4,47.4,25.4z M46.1,28c0-0.7,0.6-1.3,1.3-1.3c0.7-0.1,1.3,0.5,1.4,1.2c0,0,0,0.1,0,0.1
	H46.1z M54.1,25.5c-0.5,0-1,0.3-1.3,0.8v-0.6h-1.5V32h1.6v-3.5c0-1,0.4-1.4,1.1-1.4c0.2,0,0.3,0,0.5,0.1l0.2-1.5
	C54.5,25.6,54.3,25.5,54.1,25.5z"/>
<g class="st3">
	<path class="st4" d="M48.8,3l7.3,7.3l-2.5,2.5l1.5,1.4l3.9-3.9L48.8,0l-3.9,3.9l1.4,1.5L48.8,3z"/>
	<path class="st5" d="M53.7,3.9l1.5,1.5L57.6,3l7.3,7.3l-7.3,7.2l-7.3-7.2l2.5-2.5l-1.4-1.4l-2.5,2.4L40.1,0L29.8,10.3l10.3,10.2
		l3.9-3.9L42.6,15l-2.5,2.5l-7.3-7.2L40.1,3l7.3,7.3l-2.5,2.5l1.4,1.4l2.5-2.5l8.7,8.7l10.3-10.2L57.6,0L53.7,3.9z"/>
	<path class="st4" d="M48.8,17.5l-7.2-7.2L44,7.8l-1.4-1.4l-3.9,3.9l10.2,10.2l3.9-3.9L51.3,15L48.8,17.5z"/>
</g>
<path class="st1" d="M67.9,10.3L57.6,0l-4.3,4.4l1.4,1.4l2.9-2.9l7.3,7.3l-7.3,7.3l-2.9-3l-1.4-1.4l-3-2.9l3-2.9l-1.5-1.5l-2.9,2.9
	l-2.9-2.9l-1.5-1.4L40.1,0L29.8,10.3l10.3,10.2l4.3-4.3L43,14.6l-2.9,3l-7.3-7.3L40.1,3L43,5.9l1.4,1.5l3,2.9l-3,2.9l1.5,1.4
	l2.9-2.9l2.9,2.9l1.5,1.5l4.3,4.3L67.9,10.3z"/>
<path class="st2" d="M48.8,3l2.9,2.9l1.5,1.5l2.9,2.9l-2.9,2.9l1.4,1.4l4.4-4.3l-4.4-4.4l-1.4-1.4L48.9,0l-4.4,4.4L46,5.9L48.8,3z
	 M51.7,14.6l-2.9,3l-2.9-3l-1.5-1.4l-2.9-2.9l2.9-2.9L43,5.8l-4.3,4.4l4.3,4.3l1.4,1.5l4.4,4.3l4.4-4.3L51.7,14.6z"/>
<path class="st0" d="M18.4,39.1h62.8"/>
<path class="st1" d="M22,49.6v-4.9h1.8c0.3,0,0.6,0,0.9,0.1c0.2,0.1,0.4,0.3,0.5,0.5c0.1,0.2,0.2,0.4,0.2,0.6c0,0.2-0.1,0.4-0.2,0.6
	C25.2,46.8,25,47,24.8,47c0.3,0.1,0.5,0.2,0.7,0.4c0.2,0.2,0.2,0.5,0.2,0.7c0,0.2,0,0.4-0.1,0.6c-0.1,0.2-0.2,0.3-0.4,0.5
	c-0.2,0.1-0.3,0.2-0.5,0.2c-0.3,0.1-0.5,0.1-0.8,0.1L22,49.6z M22.7,46.8h1.1c0.2,0,0.4,0,0.6-0.1c0.1,0,0.3-0.1,0.4-0.2
	c0.1-0.1,0.1-0.3,0.1-0.4c0-0.2,0-0.3-0.1-0.4c-0.1-0.1-0.2-0.2-0.3-0.3c-0.2-0.1-0.5-0.1-0.7-0.1h-1L22.7,46.8z M22.7,49.1h1.2
	c0.1,0,0.3,0,0.4,0c0.1,0,0.3-0.1,0.4-0.1c0.1-0.1,0.2-0.2,0.2-0.3c0.1-0.1,0.1-0.3,0.1-0.4c0-0.2,0-0.3-0.1-0.5
	c-0.1-0.1-0.2-0.2-0.4-0.3c-0.2-0.1-0.5-0.1-0.7-0.1h-1.1L22.7,49.1z"/>
<path class="st1" d="M28.9,48.5l0.6,0.1c-0.1,0.3-0.3,0.6-0.5,0.8c-0.3,0.2-0.7,0.3-1,0.3c-0.5,0-0.9-0.2-1.2-0.5
	c-0.3-0.4-0.5-0.9-0.5-1.3c0-0.5,0.1-1,0.5-1.4c0.3-0.3,0.7-0.5,1.2-0.5c0.4,0,0.9,0.2,1.2,0.5c0.3,0.4,0.5,0.9,0.5,1.4
	c0,0,0,0.1,0,0.2H27c0,0.3,0.1,0.6,0.3,0.9c0.2,0.2,0.5,0.3,0.7,0.3c0.2,0,0.4-0.1,0.6-0.2C28.8,48.9,28.9,48.7,28.9,48.5z M27,47.5
	h2c0-0.2-0.1-0.5-0.2-0.7c-0.2-0.2-0.5-0.4-0.7-0.3c-0.3,0-0.5,0.1-0.7,0.3C27.1,47,27,47.3,27,47.5z"/>
<path class="st1" d="M30.1,48.6l0.6-0.1c0,0.2,0.1,0.4,0.3,0.5c0.2,0.1,0.4,0.2,0.6,0.2c0.2,0,0.4,0,0.6-0.2
	c0.1-0.1,0.2-0.2,0.2-0.4c0-0.1-0.1-0.3-0.2-0.3c-0.2-0.1-0.4-0.2-0.6-0.2c-0.3-0.1-0.6-0.2-0.9-0.3c-0.3-0.1-0.5-0.5-0.5-0.8
	c0-0.2,0-0.3,0.1-0.4c0.1-0.1,0.2-0.2,0.3-0.3c0.1-0.1,0.2-0.1,0.4-0.2c0.2,0,0.3-0.1,0.5-0.1c0.2,0,0.5,0,0.7,0.1
	c0.2,0.1,0.3,0.2,0.5,0.3c0.1,0.2,0.2,0.4,0.2,0.5l-0.6,0.1c0-0.2-0.1-0.3-0.2-0.4c-0.2-0.1-0.3-0.2-0.5-0.2c-0.2,0-0.4,0-0.6,0.1
	c-0.1,0.1-0.2,0.2-0.2,0.3c0,0.1,0,0.2,0.1,0.2c0.1,0.1,0.1,0.1,0.2,0.2c0.1,0,0.2,0.1,0.5,0.2c0.3,0.1,0.6,0.2,0.9,0.3
	c0.2,0.1,0.3,0.2,0.4,0.3c0.1,0.2,0.1,0.3,0.1,0.5c0,0.2-0.1,0.4-0.2,0.6c-0.1,0.2-0.3,0.3-0.5,0.4c-0.2,0.1-0.5,0.1-0.7,0.1
	c-0.4,0-0.7-0.1-1.1-0.3C30.3,49.2,30.1,48.9,30.1,48.6z"/>
<path class="st1" d="M35,49.1l0.1,0.5c-0.1,0-0.3,0.1-0.5,0.1c-0.2,0-0.3,0-0.5-0.1c-0.1-0.1-0.2-0.2-0.3-0.3
	c-0.1-0.2-0.1-0.5-0.1-0.7v-2h-0.4v-0.5h0.4v-0.9l0.6-0.4v1.2H35v0.5h-0.6v2.1c0,0.1,0,0.2,0,0.3c0,0,0.1,0.1,0.1,0.1
	c0.1,0,0.1,0,0.2,0C34.9,49.1,35,49.1,35,49.1z"/>
<path class="st1" d="M37.4,47.3c0-0.7,0.2-1.4,0.7-1.9c0.4-0.5,1.1-0.7,1.7-0.7c0.4,0,0.9,0.1,1.2,0.3c0.4,0.2,0.6,0.5,0.8,0.9
	c0.2,0.4,0.3,0.9,0.3,1.3c0,0.5-0.1,0.9-0.3,1.3c-0.2,0.4-0.5,0.7-0.8,0.9c-0.4,0.2-0.8,0.3-1.2,0.3c-0.4,0-0.9-0.1-1.2-0.3
	c-0.4-0.2-0.6-0.5-0.8-0.9C37.5,48.1,37.4,47.7,37.4,47.3z M38.1,47.3c0,0.5,0.1,1,0.5,1.4c0.6,0.7,1.7,0.7,2.3,0c0,0,0,0,0.1-0.1
	c0.3-0.4,0.5-0.9,0.5-1.5c0-0.4-0.1-0.7-0.2-1c-0.1-0.3-0.3-0.5-0.6-0.7c-0.3-0.2-0.6-0.2-0.9-0.2c-0.4,0-0.9,0.2-1.2,0.5
	C38.2,46.1,38,46.7,38.1,47.3z"/>
<path class="st1" d="M42.6,49.6v-3.5h0.5v0.5c0.1-0.2,0.2-0.4,0.4-0.5c0.1-0.1,0.2-0.1,0.4-0.1c0.2,0,0.4,0.1,0.6,0.2l-0.2,0.6
	c-0.1-0.1-0.3-0.1-0.4-0.1c-0.1,0-0.3,0-0.4,0.1c-0.1,0.1-0.2,0.2-0.2,0.3c-0.1,0.2-0.1,0.5-0.1,0.7v1.9H42.6z"/>
<path class="st1" d="M46.7,49.1l0.1,0.5c-0.1,0-0.3,0.1-0.5,0.1c-0.2,0-0.3,0-0.5-0.1c-0.1-0.1-0.2-0.2-0.3-0.3
	c-0.1-0.2-0.1-0.5-0.1-0.7v-2H45v-0.5h0.4v-0.9l0.6-0.4v1.2h0.6v0.5h-0.6v2.1c0,0.1,0,0.2,0,0.3c0,0,0.1,0.1,0.1,0.1
	c0.1,0,0.1,0,0.2,0C46.5,49.1,46.6,49.1,46.7,49.1z"/>
<path class="st1" d="M47.3,49.6v-4.9h0.6v1.8c0.3-0.3,0.7-0.5,1.1-0.5c0.2,0,0.5,0,0.7,0.2c0.2,0.1,0.3,0.2,0.4,0.4
	c0.1,0.3,0.1,0.5,0.1,0.8v2.2h-0.6v-2.2c0-0.2-0.1-0.5-0.2-0.7c-0.1-0.1-0.3-0.2-0.6-0.2c-0.2,0-0.3,0-0.5,0.1
	c-0.1,0.1-0.3,0.2-0.3,0.4c-0.1,0.2-0.1,0.4-0.1,0.7v1.9H47.3z"/>
<path class="st1" d="M50.9,47.9c0-0.5,0.2-1.1,0.5-1.5c0.3-0.3,0.7-0.4,1.1-0.4c0.4,0,0.9,0.2,1.2,0.5c0.3,0.4,0.5,0.8,0.5,1.3
	c0,0.4-0.1,0.7-0.2,1.1c-0.1,0.3-0.3,0.5-0.6,0.6c-0.3,0.1-0.6,0.2-0.9,0.2c-0.4,0-0.9-0.2-1.2-0.5C51,48.9,50.8,48.4,50.9,47.9z
	 M51.5,47.9c0,0.4,0.1,0.7,0.3,1c0.4,0.4,1,0.5,1.4,0.1c0,0,0.1-0.1,0.1-0.1c0.2-0.3,0.3-0.7,0.3-1c0-0.4-0.1-0.7-0.3-1
	c-0.4-0.4-1-0.5-1.4-0.1c0,0-0.1,0.1-0.1,0.1C51.6,47.2,51.5,47.5,51.5,47.9z"/>
<path class="st1" d="M57.2,49.6v-0.4c-0.2,0.3-0.6,0.5-1,0.5c-0.3,0-0.5-0.1-0.8-0.2c-0.2-0.2-0.4-0.4-0.5-0.7
	c-0.1-0.3-0.2-0.6-0.2-1c0-0.3,0.1-0.7,0.2-1c0.1-0.3,0.3-0.5,0.5-0.7c0.2-0.2,0.5-0.2,0.8-0.2c0.2,0,0.4,0,0.6,0.1
	c0.2,0.1,0.3,0.2,0.4,0.4v-1.8h0.6v4.9H57.2z M55.3,47.9c0,0.4,0.1,0.7,0.3,1c0.2,0.2,0.4,0.3,0.7,0.3c0.3,0,0.5-0.1,0.7-0.3
	c0.2-0.3,0.3-0.6,0.3-1c0-0.4-0.1-0.8-0.3-1.1c-0.2-0.2-0.4-0.3-0.7-0.3c-0.3,0-0.5,0.1-0.7,0.3C55.4,47.2,55.3,47.5,55.3,47.9
	L55.3,47.9z"/>
<path class="st1" d="M58.5,47.9c0-0.5,0.2-1.1,0.5-1.5c0.3-0.3,0.7-0.4,1.1-0.4c0.4,0,0.9,0.2,1.2,0.5c0.3,0.4,0.5,0.8,0.5,1.3
	c0,0.4-0.1,0.7-0.2,1.1c-0.1,0.3-0.3,0.5-0.6,0.6c-0.3,0.1-0.6,0.2-0.9,0.2c-0.4,0-0.9-0.2-1.2-0.5C58.6,48.9,58.4,48.4,58.5,47.9z
	 M59.1,47.9c0,0.4,0.1,0.7,0.3,1c0.4,0.4,1,0.5,1.4,0.1c0,0,0.1-0.1,0.1-0.1c0.2-0.3,0.3-0.7,0.3-1c0-0.4-0.1-0.7-0.3-1
	c-0.4-0.4-1-0.5-1.4-0.1c0,0-0.1,0.1-0.1,0.1C59.2,47.2,59.1,47.5,59.1,47.9z"/>
<path class="st1" d="M62.5,49.6v-3.5H63v0.5c0.2-0.4,0.7-0.6,1.1-0.6c0.2,0,0.4,0,0.6,0.1c0.2,0.1,0.3,0.2,0.4,0.3
	c0.1,0.1,0.2,0.3,0.2,0.4c0,0.2,0,0.4,0,0.6v2.2h-0.6v-2.2c0-0.2,0-0.4-0.1-0.5c0-0.1-0.1-0.2-0.2-0.3c-0.1-0.1-0.3-0.1-0.4-0.1
	c-0.2,0-0.5,0.1-0.7,0.2c-0.2,0.3-0.3,0.6-0.3,0.9v1.9H62.5z"/>
<path class="st1" d="M67.6,49.1l0.1,0.5c-0.1,0-0.3,0.1-0.5,0.1c-0.2,0-0.3,0-0.5-0.1c-0.1-0.1-0.2-0.2-0.3-0.3
	c-0.1-0.2-0.1-0.5-0.1-0.7v-2h-0.4v-0.5h0.4v-0.9l0.6-0.4v1.2h0.6v0.5H67v2.1c0,0.1,0,0.2,0,0.3c0,0,0.1,0.1,0.1,0.1
	c0.1,0,0.1,0,0.2,0C67.4,49.1,67.5,49.1,67.6,49.1z"/>
<path class="st1" d="M68.2,45.5v-0.7h0.6v0.7H68.2z M68.2,49.7v-3.5h0.6v3.5L68.2,49.7z"/>
<path class="st1" d="M69.5,48.6l0.6-0.1c0,0.2,0.1,0.4,0.3,0.5c0.2,0.1,0.4,0.2,0.6,0.2c0.2,0,0.4,0,0.6-0.2
	c0.1-0.1,0.2-0.2,0.2-0.4c0-0.1-0.1-0.3-0.2-0.3c-0.2-0.1-0.4-0.2-0.6-0.2c-0.3-0.1-0.6-0.2-0.9-0.3c-0.3-0.1-0.5-0.5-0.5-0.8
	c0-0.2,0-0.3,0.1-0.4c0.1-0.1,0.2-0.2,0.3-0.3c0.1-0.1,0.2-0.1,0.4-0.2c0.2,0,0.3-0.1,0.5-0.1c0.2,0,0.5,0,0.7,0.1
	c0.2,0.1,0.3,0.2,0.5,0.3c0.1,0.2,0.2,0.4,0.2,0.5l-0.6,0.1c0-0.2-0.1-0.3-0.2-0.4c-0.2-0.1-0.3-0.2-0.5-0.2c-0.2,0-0.4,0-0.6,0.1
	c-0.1,0.1-0.2,0.2-0.2,0.3c0,0.1,0,0.2,0.1,0.2c0.1,0.1,0.1,0.1,0.2,0.2c0.1,0,0.2,0.1,0.5,0.2c0.3,0.1,0.6,0.2,0.9,0.3
	c0.2,0.1,0.3,0.2,0.4,0.3c0.1,0.2,0.2,0.3,0.1,0.5c0,0.2-0.1,0.4-0.2,0.6c-0.1,0.2-0.3,0.3-0.5,0.4c-0.2,0.1-0.5,0.1-0.7,0.1
	c-0.4,0-0.7-0.1-1.1-0.3C69.7,49.2,69.5,48.9,69.5,48.6z"/>
<path class="st1" d="M74.4,49.1l0.1,0.5c-0.1,0-0.3,0.1-0.5,0.1c-0.2,0-0.3,0-0.5-0.1c-0.1-0.1-0.2-0.2-0.3-0.3
	c-0.1-0.2-0.1-0.5-0.1-0.7v-2h-0.4v-0.5h0.4v-0.9l0.6-0.4v1.2h0.6v0.5h-0.6v2.1c0,0.1,0,0.2,0,0.3c0,0,0.1,0.1,0.1,0.1
	c0.1,0,0.1,0,0.2,0C74.2,49.1,74.3,49.1,74.4,49.1z"/>
<path class="st1" d="M74.8,48.6l0.6-0.1c0,0.2,0.1,0.4,0.3,0.5c0.2,0.1,0.4,0.2,0.6,0.2c0.2,0,0.4,0,0.6-0.2
	c0.1-0.1,0.2-0.2,0.2-0.4c0-0.1-0.1-0.3-0.2-0.3c-0.2-0.1-0.4-0.2-0.6-0.2c-0.3-0.1-0.6-0.2-0.9-0.3c-0.3-0.1-0.5-0.5-0.5-0.8
	c0-0.2,0-0.3,0.1-0.4c0.1-0.1,0.2-0.2,0.3-0.3c0.1-0.1,0.2-0.1,0.4-0.2c0.2,0,0.3-0.1,0.5-0.1c0.2,0,0.5,0,0.7,0.1
	c0.2,0.1,0.3,0.2,0.5,0.3c0.1,0.2,0.2,0.4,0.2,0.5L77,47.1c0-0.2-0.1-0.3-0.2-0.4c-0.2-0.1-0.3-0.2-0.5-0.2c-0.2,0-0.4,0-0.6,0.1
	c-0.1,0.1-0.2,0.2-0.2,0.3c0,0.1,0,0.2,0.1,0.2c0.1,0.1,0.1,0.1,0.2,0.2c0.1,0,0.2,0.1,0.5,0.2c0.3,0.1,0.6,0.2,0.9,0.3
	c0.2,0.1,0.3,0.2,0.4,0.3c0.1,0.2,0.1,0.3,0.1,0.5c0,0.2-0.1,0.4-0.2,0.6c-0.1,0.2-0.3,0.3-0.5,0.4c-0.2,0.1-0.5,0.1-0.7,0.1
	c-0.4,0-0.7-0.1-1.1-0.3C75,49.2,74.8,48.9,74.8,48.6z"/>
<g>
	<path class="st1" d="M33.9,54.1v-0.7h0.6v0.7H33.9z M33.9,58.3v-3.5h0.6v3.5L33.9,58.3z"/>
	<path class="st1" d="M35.4,58.3v-3.5H36v0.5c0.2-0.4,0.7-0.6,1.1-0.6c0.2,0,0.4,0,0.6,0.1c0.2,0.1,0.3,0.2,0.4,0.3
		c0.1,0.1,0.2,0.3,0.2,0.4c0,0.2,0,0.4,0,0.6v2.2h-0.6v-2.1c0-0.2,0-0.4-0.1-0.5c0-0.1-0.1-0.2-0.2-0.3c-0.1-0.1-0.3-0.1-0.4-0.1
		c-0.2,0-0.5,0.1-0.7,0.2c-0.2,0.3-0.3,0.6-0.3,0.9v1.9L35.4,58.3z"/>
	<path class="st1" d="M44.7,56.6l0.6,0.2c-0.1,0.5-0.4,0.9-0.7,1.2c-0.4,0.3-0.8,0.4-1.3,0.4c-0.5,0-0.9-0.1-1.3-0.3
		c-0.3-0.2-0.6-0.6-0.8-0.9c-0.2-0.4-0.3-0.9-0.3-1.3c0-0.5,0.1-0.9,0.3-1.3c0.2-0.4,0.5-0.7,0.8-0.9c0.4-0.2,0.8-0.3,1.2-0.3
		c0.4,0,0.9,0.1,1.2,0.4c0.3,0.3,0.6,0.6,0.7,1.1l-0.6,0.1c-0.1-0.3-0.3-0.6-0.5-0.8c-0.2-0.2-0.5-0.3-0.8-0.2
		c-0.3,0-0.7,0.1-0.9,0.3c-0.3,0.2-0.4,0.4-0.5,0.7c-0.1,0.3-0.2,0.6-0.2,0.9c0,0.4,0.1,0.7,0.2,1.1c0.1,0.3,0.3,0.5,0.6,0.7
		c0.2,0.2,0.5,0.2,0.8,0.2c0.3,0,0.7-0.1,0.9-0.3C44.5,57.3,44.6,57,44.7,56.6z"/>
	<path class="st1" d="M46.1,58.3v-4.9h0.6v1.8c0.3-0.3,0.7-0.5,1.1-0.5c0.2,0,0.5,0,0.7,0.2c0.2,0.1,0.3,0.2,0.4,0.4
		c0.1,0.3,0.1,0.5,0.1,0.8v2.2h-0.6v-2.2c0-0.2-0.1-0.5-0.2-0.7c-0.1-0.1-0.3-0.2-0.6-0.2c-0.2,0-0.3,0-0.5,0.1
		c-0.1,0.1-0.3,0.2-0.3,0.4c-0.1,0.2-0.1,0.4-0.1,0.7v1.9L46.1,58.3z"/>
	<path class="st1" d="M49.9,54.1v-0.7h0.6v0.7H49.9z M49.9,58.3v-3.5h0.6v3.5L49.9,58.3z"/>
	<path class="st1" d="M53.7,57l0.6,0.1c0,0.4-0.2,0.7-0.5,1c-0.3,0.2-0.6,0.4-1,0.3c-0.4,0-0.9-0.2-1.2-0.5
		c-0.3-0.4-0.5-0.9-0.4-1.4c0-0.3,0.1-0.7,0.2-1c0.1-0.3,0.3-0.5,0.6-0.6c0.3-0.1,0.5-0.2,0.8-0.2c0.3,0,0.7,0.1,0.9,0.3
		c0.3,0.2,0.4,0.5,0.5,0.8l-0.6,0.1c0-0.2-0.1-0.4-0.3-0.5c-0.1-0.1-0.3-0.2-0.5-0.2c-0.3,0-0.6,0.1-0.7,0.3c-0.2,0.3-0.3,0.7-0.3,1
		c0,0.4,0.1,0.7,0.3,1c0.2,0.2,0.4,0.3,0.7,0.3c0.2,0,0.4-0.1,0.6-0.2C53.6,57.5,53.7,57.3,53.7,57z"/>
	<path class="st1" d="M57.1,57.9c-0.2,0.2-0.4,0.3-0.6,0.4c-0.2,0.1-0.4,0.1-0.7,0.1c-0.3,0-0.6-0.1-0.9-0.3
		c-0.2-0.2-0.3-0.5-0.3-0.7c0-0.3,0.2-0.6,0.4-0.8c0.1-0.1,0.3-0.2,0.4-0.2c0.2,0,0.4-0.1,0.5-0.1c0.4,0,0.7-0.1,1.1-0.2
		c0-0.1,0-0.1,0-0.2c0-0.2,0-0.4-0.2-0.5c-0.2-0.1-0.4-0.2-0.7-0.2c-0.2,0-0.4,0-0.6,0.1c-0.2,0.1-0.3,0.3-0.3,0.5l-0.6-0.1
		c0-0.2,0.1-0.4,0.3-0.6c0.1-0.2,0.3-0.3,0.5-0.4c0.3-0.1,0.5-0.1,0.8-0.1c0.2,0,0.5,0,0.7,0.1c0.2,0.1,0.3,0.1,0.4,0.3
		c0.1,0.1,0.2,0.3,0.2,0.4c0,0.2,0,0.4,0,0.6v0.8c0,0.4,0,0.7,0,1.1c0,0.1,0.1,0.3,0.2,0.4h-0.6C57.1,58.2,57.1,58,57.1,57.9z
		 M57,56.6c-0.3,0.1-0.6,0.2-1,0.2c-0.2,0-0.4,0.1-0.5,0.1c-0.2,0.1-0.3,0.3-0.3,0.5c0,0.2,0.1,0.3,0.2,0.4c0.2,0.1,0.3,0.2,0.5,0.2
		c0.2,0,0.4,0,0.6-0.2c0.2-0.1,0.3-0.2,0.4-0.4c0.1-0.2,0.1-0.4,0.1-0.6L57,56.6z"/>
	<path class="st1" d="M58.5,58.6l0.6,0.1c0,0.2,0.1,0.3,0.2,0.4c0.2,0.1,0.4,0.2,0.6,0.2c0.2,0,0.5,0,0.6-0.2
		c0.2-0.1,0.3-0.3,0.3-0.5c0-0.3,0.1-0.5,0-0.8c-0.2,0.3-0.6,0.5-1,0.5c-0.4,0-0.9-0.2-1.1-0.5c-0.3-0.4-0.4-0.8-0.4-1.3
		c0-0.3,0.1-0.6,0.2-0.9c0.1-0.3,0.3-0.5,0.5-0.7c0.2-0.2,0.5-0.2,0.8-0.2c0.4,0,0.8,0.2,1,0.5v-0.4h0.6v3.1c0,0.4,0,0.8-0.2,1.2
		c-0.1,0.2-0.3,0.4-0.5,0.5c-0.3,0.1-0.6,0.2-0.9,0.2c-0.4,0-0.7-0.1-1-0.3C58.6,59.3,58.4,59,58.5,58.6z M59,56.5
		c0,0.4,0.1,0.7,0.3,1c0.3,0.4,0.9,0.4,1.3,0.1c0,0,0.1-0.1,0.1-0.1c0.2-0.3,0.3-0.6,0.3-1c0-0.4-0.1-0.7-0.3-1
		c-0.2-0.2-0.4-0.3-0.7-0.3c-0.3,0-0.5,0.1-0.7,0.3C59,55.8,58.9,56.2,59,56.5z"/>
	<path class="st1" d="M62.2,56.6c0-0.5,0.2-1.1,0.5-1.5c0.3-0.3,0.7-0.4,1.1-0.4c0.4,0,0.9,0.2,1.2,0.5c0.3,0.4,0.5,0.8,0.5,1.3
		c0,0.4,0,0.7-0.2,1.1c-0.1,0.3-0.3,0.5-0.6,0.6c-0.3,0.1-0.6,0.2-0.9,0.2c-0.4,0-0.9-0.2-1.2-0.5C62.3,57.6,62.1,57.1,62.2,56.6z
		 M62.8,56.6c0,0.4,0.1,0.7,0.3,1c0.4,0.4,1,0.5,1.4,0.1c0,0,0.1-0.1,0.1-0.1c0.2-0.3,0.3-0.7,0.3-1c0-0.4-0.1-0.7-0.3-1
		c-0.4-0.4-1-0.5-1.4-0.1c0,0-0.1,0.1-0.1,0.1C62.9,55.8,62.7,56.2,62.8,56.6L62.8,56.6z"/>
</g>
<text transform="matrix(1 0 0 1 39.254 80.301)" class="st2 st6 st7">2020</text>
</svg>
