<svg id="Layer_1" data-name="Layer 1" xmlns="http://www.w3.org/2000/svg" viewBox="0 0 99.14 80.479"><defs><style>.cls-1{fill:none;stroke:#000;stroke-linecap:round;stroke-miterlimit:8;stroke-width:0.869px;opacity:0.15;}.cls-1,.cls-6,.cls-7{isolation:isolate;}.cls-2{fill:#00cea6;}.cls-3{fill:#024b6d;}.cls-4{opacity:0;}.cls-5,.cls-6{fill:#fff;}.cls-6{opacity:0.75;}</style></defs><title>awardImg</title><path class="cls-1" d="M8.368,27.722a43.008,43.008,0,0,0,26.886,56.61M91.69,27.722A43.008,43.008,0,0,1,64.8,84.332" transform="translate(-0.43 -8.312)"/><path class="cls-2" d="M8.716,25.752l3.013-3.766-.406-4.867L8.31,20.943ZM5.3,31.315l1.275-4.288L4.544,24.362c-.579,1.275-1.043,2.665-1.506,4Zm4.752-3.245L8.774,32.358l2.9-.985c.406-1.507.927-2.955,1.449-4.346ZM3.443,40.528l.58-4.462L1.531,33.749c-.29,1.448-.521,2.839-.695,4.345Zm4.23-4-.579,4.461,3.3-1.8c.116-1.506.29-2.955.522-4.461ZM3.559,44.584l-3.071-2.2c0,.579-.058,1.1-.058,1.68,0,.927.058,1.854.058,2.782l3.071,2.2V44.584Zm3.65,0L7.267,49.1l3.3-2.433a34.715,34.715,0,0,1-.29-4.288l-3.071,2.2Zm-1.68,13.1-.927-4.4L1.01,51.653c.231,1.506.521,2.955.869,4.4Zm2.665-5.157.928,4.4,2.955-3.187c-.406-1.391-.754-2.782-1.043-4.23l-2.84,3.013ZM9.3,65.559,7.5,61.445l-4.172-.869C3.791,61.967,4.37,63.3,4.95,64.632ZM10.8,60l1.8,4.114,2.2-3.766c-.7-1.333-1.275-2.723-1.854-4.114ZM14.568,72.86l-2.549-3.709-4.81-.058c.754,1.275,1.507,2.492,2.376,3.709Zm.406-5.8,2.549,3.709,1.449-4.056a41.708,41.708,0,0,1-2.608-3.651Zm1.217,13.269,5.214-1.043L18.1,76.22,13.12,77.263C14.105,78.306,15.148,79.349,16.191,80.334Zm4.925-11.183-.522,4.4,3.3,3.071.521-4.288C23.26,71.3,22.159,70.252,21.116,69.151ZM25.983,82.42l-4.346,2.318c.869.579,1.738,1.217,2.665,1.738l.986.464L30.1,84.39l-4.114-1.97Zm1.564-3.3,4.056,1.97-.753-4.4a39.111,39.111,0,0,1-4.172-2.665l.869,5.1Zm64.2-58.175-3.013-3.824-.406,4.867,3.013,3.766Zm1.738,6.084,1.275,4.288L97.02,28.36c-.463-1.333-.985-2.665-1.506-4l-2.028,2.665Zm-2.2,5.389-1.275-4.288-3.071-1.043a38.177,38.177,0,0,1,1.449,4.346Zm7.938,5.62q-.261-2.172-.695-4.345l-2.492,2.317.58,4.462Zm-6.258,2.955-.579-4.461L89.14,34.791a28.423,28.423,0,0,1,.522,4.462l3.3,1.738ZM96.441,49.1l3.071-2.2c.058-.927.058-1.854.058-2.781a15.709,15.709,0,0,0-.058-1.68l-3.071,2.2V49.1Zm-3.65-.058.058-4.519-3.071-2.26a34.715,34.715,0,0,1-.29,4.288Zm2.665,4.23-.927,4.4,3.65-1.623c.348-1.448.638-2.9.869-4.4Zm-4.52,3.651.927-4.4-2.781-3.071c-.289,1.449-.637,2.839-1.043,4.23Zm1.681,4.519-1.8,4.114,4.4-.927c.58-1.333,1.159-2.665,1.623-4.056ZM87.46,64.052l1.8-4.113L87.112,56.23a32.146,32.146,0,0,1-1.854,4.056Zm.579,5.1L85.49,72.86l4.983-.058c.869-1.217,1.622-2.434,2.376-3.709l-4.81.058Zm-5.562,1.623,2.549-3.709-1.39-4a41.708,41.708,0,0,1-2.608,3.651Zm4.461,6.431-4.983-1.043-3.3,3.071,5.214,1.043A38.349,38.349,0,0,0,86.938,77.205ZM75.64,72.28l.521,4.288,3.3-3.071-.522-4.4A34.271,34.271,0,0,1,75.64,72.28ZM74.075,82.42l-4.056,1.97,4.809,2.55.985-.464c.927-.521,1.8-1.159,2.666-1.738l-4.4-2.318Zm-5.62-1.332,4.056-1.97.869-5.1a39.111,39.111,0,0,1-4.172,2.665Z" transform="translate(-0.43 -8.312)"/><path class="cls-3" d="M58.547,32.358H57.1v1.564h-.985v1.333H57.1v2.723c0,1.507.463,2.26,2.2,2.26h.637V38.732h-.521c-.7,0-.869-.29-.869-.927V35.2h1.564V33.864H58.547V32.358Zm2.9-.811h1.564v1.448H61.444Zm0,2.375h1.564v6.316H61.444ZM67.7,36.53c-1.622-.464-1.912-.58-1.912-.927,0-.29.348-.58.985-.58a1.246,1.246,0,0,1,1.333.985l1.275-.405a2.5,2.5,0,0,0-2.666-1.854c-1.564,0-2.375.927-2.375,1.912s.753,1.448,2.086,1.854c1.274.347,1.68.463,1.68.869s-.464.7-1.275.7a1.291,1.291,0,0,1-1.39-1.332l-1.391.347a2.63,2.63,0,0,0,2.839,2.26c1.8,0,2.55-1.1,2.55-1.97.174-.811-.174-1.449-1.739-1.854Zm5.563-2.781c-1.622,0-2.9,1.274-2.9,3.3a3,3,0,0,0,2.955,3.3,2.955,2.955,0,0,0,2.607-1.391l-1.1-.927a1.814,1.814,0,0,1-1.564.985c-.869,0-1.333-.521-1.391-1.506H76.1v-.464c.058-2.028-1.159-3.3-2.839-3.3Zm-1.391,2.607a1.338,1.338,0,0,1,1.333-1.275A1.28,1.28,0,0,1,74.6,36.356ZM24.94,40.238h5.273V38.732H26.5V36.7h3.361V35.255H26.5V33.4h3.709V31.894H24.94Zm12.226-6.316H35.6l-1.448,2.144-1.391-2.144H31.14l2.028,3.071-2.144,3.245h1.622l1.507-2.26,1.506,2.26H37.34l-2.2-3.245Zm4.23-.173a1.914,1.914,0,0,0-1.681.811v-.58H38.267V42.9h1.564V39.6a1.866,1.866,0,0,0,1.622.811c1.449,0,2.782-1.159,2.782-3.3C44.177,34.907,42.786,33.749,41.4,33.749Zm-.29,5.272c-.869,0-1.507-.637-1.507-1.912,0-1.332.638-1.912,1.507-1.912s1.506.637,1.506,1.912S41.975,39.021,41.106,39.021Zm6.721-5.272c-1.622,0-2.9,1.274-2.9,3.3a3,3,0,0,0,2.955,3.3,2.958,2.958,0,0,0,2.608-1.391l-1.1-.927a1.817,1.817,0,0,1-1.565.985c-.869,0-1.333-.521-1.39-1.506h4.229v-.464A2.912,2.912,0,0,0,47.827,33.749Zm-1.333,2.607a1.338,1.338,0,0,1,1.333-1.275,1.28,1.28,0,0,1,1.391,1.275Zm8.054-2.55a1.425,1.425,0,0,0-1.274.812V33.98H51.767V40.3h1.565V36.819c0-.985.405-1.448,1.1-1.448a1.092,1.092,0,0,1,.463.116l.232-1.507A1.3,1.3,0,0,0,54.548,33.806Z" transform="translate(-0.43 -8.312)"/><g class="cls-4"><path class="cls-5" d="M49.276,11.267l7.3,7.3-2.491,2.491,1.506,1.449,3.941-3.94L49.276,8.312l-3.94,3.94,1.448,1.506Z" transform="translate(-0.43 -8.312)"/><path class="cls-6" d="M54.085,12.252l1.506,1.506,2.434-2.491,7.3,7.3-7.3,7.242-7.3-7.242,2.492-2.492-1.449-1.449-2.491,2.434-8.75-8.749L30.271,18.568l10.255,10.2,3.94-3.94-1.448-1.506L40.526,25.81l-7.3-7.242,7.3-7.3,7.3,7.3-2.491,2.491,1.448,1.449,2.492-2.492,8.749,8.749,10.256-10.2L58.025,8.312Z" transform="translate(-0.43 -8.312)"/><path class="cls-5" d="M49.276,25.81l-7.243-7.242,2.433-2.492-1.448-1.449-3.94,3.941,10.2,10.2,3.94-3.94-1.449-1.506Z" transform="translate(-0.43 -8.312)"/></g><path class="cls-2" d="M68.281,18.568,58.025,8.312l-4.346,4.4,1.449,1.449,2.9-2.9,7.3,7.3-7.3,7.3-2.9-2.955-1.449-1.448-2.955-2.9,2.955-2.9-1.506-1.506-2.9,2.9-2.9-2.9-1.507-1.449-4.346-4.4L30.271,18.568l10.255,10.2,4.346-4.345-1.448-1.507-2.9,2.955-7.3-7.3,7.3-7.3,2.9,2.9,1.448,1.506,2.955,2.9-2.955,2.9,1.507,1.448,2.9-2.9,2.9,2.9,1.506,1.507,4.346,4.345Z" transform="translate(-0.43 -8.312)"/><path class="cls-3" d="M49.276,11.267l2.9,2.9,1.506,1.506,2.9,2.9-2.9,2.9,1.449,1.448,4.4-4.345-4.4-4.4-1.449-1.449-4.4-4.4-4.4,4.4,1.507,1.449Zm2.9,11.646-2.9,2.955-2.9-2.955-1.507-1.448-2.9-2.9,2.9-2.9-1.448-1.506-4.346,4.4,4.346,4.345,1.448,1.507,4.4,4.345,4.4-4.345Z" transform="translate(-0.43 -8.312)"/><path class="cls-1" d="M18.8,47.365H81.55" transform="translate(-0.43 -8.312)"/><path class="cls-2" d="M22.453,57.96V53.074h1.833a2.262,2.262,0,0,1,.9.148,1.155,1.155,0,0,1,.531.457,1.207,1.207,0,0,1,.191.645,1.1,1.1,0,0,1-.17.59,1.21,1.21,0,0,1-.513.446,1.279,1.279,0,0,1,.681.444,1.183,1.183,0,0,1,.239.739,1.426,1.426,0,0,1-.145.639,1.241,1.241,0,0,1-.359.455,1.5,1.5,0,0,1-.534.241,3.234,3.234,0,0,1-.789.082Zm.647-2.833h1.056a2.343,2.343,0,0,0,.617-.057.693.693,0,0,0,.372-.243.7.7,0,0,0,.125-.427.783.783,0,0,0-.117-.428.589.589,0,0,0-.334-.253,2.764,2.764,0,0,0-.743-.068H23.1Zm0,2.256h1.216a2.752,2.752,0,0,0,.44-.023,1.068,1.068,0,0,0,.374-.133.717.717,0,0,0,.246-.272.845.845,0,0,0,.1-.412.816.816,0,0,0-.14-.475.742.742,0,0,0-.389-.283,2.411,2.411,0,0,0-.714-.082H23.1Z" transform="translate(-0.43 -8.312)"/><path class="cls-2" d="M29.379,56.82,30,56.9a1.516,1.516,0,0,1-.543.843,1.636,1.636,0,0,1-1.013.3,1.619,1.619,0,0,1-1.232-.478,1.871,1.871,0,0,1-.455-1.342,1.952,1.952,0,0,1,.46-1.386,1.555,1.555,0,0,1,1.193-.494,1.515,1.515,0,0,1,1.16.484,1.919,1.919,0,0,1,.45,1.36q0,.053,0,.159h-2.64a1.36,1.36,0,0,0,.33.894.984.984,0,0,0,.74.31.921.921,0,0,0,.563-.173A1.153,1.153,0,0,0,29.379,56.82Zm-1.97-.97h1.977a1.2,1.2,0,0,0-.227-.67.919.919,0,0,0-.743-.346.954.954,0,0,0-.7.276A1.1,1.1,0,0,0,27.409,55.85Z" transform="translate(-0.43 -8.312)"/><path class="cls-2" d="M30.512,56.9l.594-.094a.83.83,0,0,0,.278.547.973.973,0,0,0,.638.19.936.936,0,0,0,.614-.169.5.5,0,0,0,.2-.4.364.364,0,0,0-.176-.32,2.616,2.616,0,0,0-.613-.2,5.6,5.6,0,0,1-.915-.288.872.872,0,0,1-.518-.812.9.9,0,0,1,.108-.438.968.968,0,0,1,.295-.335,1.232,1.232,0,0,1,.381-.175,1.808,1.808,0,0,1,.519-.072,2.044,2.044,0,0,1,.731.12,1,1,0,0,1,.465.325,1.277,1.277,0,0,1,.207.549l-.587.08a.642.642,0,0,0-.231-.427.851.851,0,0,0-.542-.153.982.982,0,0,0-.59.136.4.4,0,0,0-.177.32.33.33,0,0,0,.074.21.514.514,0,0,0,.23.16c.06.022.236.073.53.153a7.547,7.547,0,0,1,.888.279.9.9,0,0,1,.395.315.884.884,0,0,1,.143.513,1.006,1.006,0,0,1-.175.565,1.127,1.127,0,0,1-.505.41,1.832,1.832,0,0,1-.746.145,1.665,1.665,0,0,1-1.052-.287A1.334,1.334,0,0,1,30.512,56.9Z" transform="translate(-0.43 -8.312)"/><path class="cls-2" d="M35.475,57.423l.087.53a2.2,2.2,0,0,1-.454.054,1.024,1.024,0,0,1-.506-.1.574.574,0,0,1-.253-.271,2.139,2.139,0,0,1-.074-.709V54.887h-.44V54.42h.44v-.876l.6-.36V54.42h.6v.467h-.6v2.07a1.016,1.016,0,0,0,.032.33.248.248,0,0,0,.1.117.409.409,0,0,0,.205.043A1.892,1.892,0,0,0,35.475,57.423Z" transform="translate(-0.43 -8.312)"/><path class="cls-2" d="M37.838,55.58a2.654,2.654,0,0,1,.654-1.905,2.223,2.223,0,0,1,1.686-.688,2.345,2.345,0,0,1,1.22.323,2.127,2.127,0,0,1,.829.9,2.94,2.94,0,0,1,.284,1.311,2.894,2.894,0,0,1-.3,1.331,2.051,2.051,0,0,1-.85.888,2.433,2.433,0,0,1-1.187.3,2.311,2.311,0,0,1-1.233-.333,2.139,2.139,0,0,1-.824-.91A2.765,2.765,0,0,1,37.838,55.58Zm.667.01a1.957,1.957,0,0,0,.475,1.392,1.657,1.657,0,0,0,2.393-.005,2.073,2.073,0,0,0,.472-1.457,2.492,2.492,0,0,0-.2-1.041,1.543,1.543,0,0,0-.59-.69,1.592,1.592,0,0,0-.871-.245A1.652,1.652,0,0,0,39,54.016,2.1,2.1,0,0,0,38.505,55.59Z" transform="translate(-0.43 -8.312)"/><path class="cls-2" d="M43.052,57.96V54.42h.54v.537a1.466,1.466,0,0,1,.382-.5.667.667,0,0,1,.385-.12,1.167,1.167,0,0,1,.616.194l-.206.556a.858.858,0,0,0-.44-.13.575.575,0,0,0-.354.119.642.642,0,0,0-.223.328,2.327,2.327,0,0,0-.1.7V57.96Z" transform="translate(-0.43 -8.312)"/><path class="cls-2" d="M47.087,57.423l.087.53a2.2,2.2,0,0,1-.454.054,1.021,1.021,0,0,1-.506-.1.581.581,0,0,1-.254-.271,2.148,2.148,0,0,1-.073-.709V54.887h-.44V54.42h.44v-.876l.6-.36V54.42h.6v.467h-.6v2.07a1.057,1.057,0,0,0,.031.33.254.254,0,0,0,.1.117.411.411,0,0,0,.206.043A1.9,1.9,0,0,0,47.087,57.423Z" transform="translate(-0.43 -8.312)"/><path class="cls-2" d="M47.727,57.96V53.074h.6v1.753a1.342,1.342,0,0,1,1.06-.487,1.432,1.432,0,0,1,.683.155.906.906,0,0,1,.415.429,1.959,1.959,0,0,1,.125.793V57.96h-.6V55.717a.927.927,0,0,0-.2-.655.72.72,0,0,0-.551-.2.976.976,0,0,0-.5.138.793.793,0,0,0-.335.375,1.737,1.737,0,0,0-.1.653V57.96Z" transform="translate(-0.43 -8.312)"/><path class="cls-2" d="M51.3,56.19a1.821,1.821,0,0,1,.547-1.456,1.647,1.647,0,0,1,1.113-.394,1.587,1.587,0,0,1,1.193.479,1.819,1.819,0,0,1,.464,1.321,2.335,2.335,0,0,1-.206,1.075,1.444,1.444,0,0,1-.6.608,1.731,1.731,0,0,1-.855.217,1.591,1.591,0,0,1-1.2-.477A1.9,1.9,0,0,1,51.3,56.19Zm.617,0a1.509,1.509,0,0,0,.3,1.018.987.987,0,0,0,1.49,0A1.543,1.543,0,0,0,54,56.17a1.469,1.469,0,0,0-.3-1,.99.99,0,0,0-1.489,0A1.5,1.5,0,0,0,51.917,56.19Z" transform="translate(-0.43 -8.312)"/><path class="cls-2" d="M57.616,57.96v-.447a1.1,1.1,0,0,1-.99.527,1.392,1.392,0,0,1-.778-.233,1.535,1.535,0,0,1-.55-.652,2.252,2.252,0,0,1-.2-.962,2.511,2.511,0,0,1,.177-.961,1.389,1.389,0,0,1,.53-.662,1.416,1.416,0,0,1,.79-.23,1.182,1.182,0,0,1,.57.135,1.2,1.2,0,0,1,.406.352V53.074h.6V57.96Zm-1.9-1.767a1.537,1.537,0,0,0,.286,1.017.865.865,0,0,0,.677.337.849.849,0,0,0,.668-.322,1.478,1.478,0,0,0,.275-.981,1.663,1.663,0,0,0-.28-1.067.861.861,0,0,0-.69-.34.831.831,0,0,0-.668.327A1.609,1.609,0,0,0,55.72,56.193Z" transform="translate(-0.43 -8.312)"/><path class="cls-2" d="M58.893,56.19a1.821,1.821,0,0,1,.547-1.456,1.647,1.647,0,0,1,1.113-.394,1.589,1.589,0,0,1,1.193.479,1.818,1.818,0,0,1,.463,1.321A2.336,2.336,0,0,1,62,57.215a1.444,1.444,0,0,1-.6.608,1.731,1.731,0,0,1-.855.217,1.591,1.591,0,0,1-1.2-.477A1.9,1.9,0,0,1,58.893,56.19Zm.617,0a1.5,1.5,0,0,0,.3,1.018.987.987,0,0,0,1.49,0,1.543,1.543,0,0,0,.3-1.037,1.464,1.464,0,0,0-.3-1,.989.989,0,0,0-1.488,0A1.5,1.5,0,0,0,59.51,56.19Z" transform="translate(-0.43 -8.312)"/><path class="cls-2" d="M62.912,57.96V54.42h.541v.5a1.272,1.272,0,0,1,1.126-.584,1.49,1.49,0,0,1,.588.115.933.933,0,0,1,.4.3,1.166,1.166,0,0,1,.187.443,3.471,3.471,0,0,1,.033.583V57.96h-.6V55.807a1.607,1.607,0,0,0-.07-.548.577.577,0,0,0-.248-.29.8.8,0,0,0-.419-.109.972.972,0,0,0-.661.244,1.2,1.2,0,0,0-.279.923V57.96Z" transform="translate(-0.43 -8.312)"/><path class="cls-2" d="M68.019,57.423l.086.53a2.192,2.192,0,0,1-.453.054,1.018,1.018,0,0,1-.506-.1.581.581,0,0,1-.254-.271,2.148,2.148,0,0,1-.073-.709V54.887h-.44V54.42h.44v-.876l.6-.36V54.42h.6v.467h-.6v2.07a1.047,1.047,0,0,0,.032.33.254.254,0,0,0,.1.117.409.409,0,0,0,.2.043A1.9,1.9,0,0,0,68.019,57.423Z" transform="translate(-0.43 -8.312)"/><path class="cls-2" d="M68.608,53.764v-.69h.6v.69Zm0,4.2V54.42h.6v3.54Z" transform="translate(-0.43 -8.312)"/><path class="cls-2" d="M69.882,56.9l.593-.094a.83.83,0,0,0,.279.547.973.973,0,0,0,.638.19.933.933,0,0,0,.613-.169.5.5,0,0,0,.2-.4.365.365,0,0,0-.177-.32,2.6,2.6,0,0,0-.613-.2,5.6,5.6,0,0,1-.915-.288.876.876,0,0,1-.518-.812.911.911,0,0,1,.108-.438.989.989,0,0,1,.3-.335,1.25,1.25,0,0,1,.382-.175,1.806,1.806,0,0,1,.518-.072,2.05,2.05,0,0,1,.732.12,1,1,0,0,1,.465.325,1.277,1.277,0,0,1,.207.549l-.587.08a.643.643,0,0,0-.232-.427.848.848,0,0,0-.541-.153.98.98,0,0,0-.59.136.4.4,0,0,0-.177.32.329.329,0,0,0,.073.21.526.526,0,0,0,.23.16q.09.033.53.153a7.421,7.421,0,0,1,.888.279.894.894,0,0,1,.395.315.877.877,0,0,1,.144.513,1.013,1.013,0,0,1-.175.565,1.133,1.133,0,0,1-.505.41,1.834,1.834,0,0,1-.747.145,1.662,1.662,0,0,1-1.051-.287A1.334,1.334,0,0,1,69.882,56.9Z" transform="translate(-0.43 -8.312)"/><path class="cls-2" d="M74.845,57.423l.087.53a2.2,2.2,0,0,1-.454.054,1.021,1.021,0,0,1-.506-.1.581.581,0,0,1-.254-.271,2.148,2.148,0,0,1-.073-.709V54.887h-.44V54.42h.44v-.876l.6-.36V54.42h.6v.467h-.6v2.07a1.047,1.047,0,0,0,.032.33.254.254,0,0,0,.1.117.411.411,0,0,0,.206.043A1.9,1.9,0,0,0,74.845,57.423Z" transform="translate(-0.43 -8.312)"/><path class="cls-2" d="M75.191,56.9l.594-.094a.83.83,0,0,0,.278.547.973.973,0,0,0,.638.19.936.936,0,0,0,.614-.169.5.5,0,0,0,.2-.4.366.366,0,0,0-.176-.32,2.631,2.631,0,0,0-.614-.2,5.551,5.551,0,0,1-.914-.288.875.875,0,0,1-.519-.812.911.911,0,0,1,.108-.438.982.982,0,0,1,.3-.335,1.232,1.232,0,0,1,.381-.175,1.808,1.808,0,0,1,.519-.072,2.048,2.048,0,0,1,.731.12,1,1,0,0,1,.465.325,1.277,1.277,0,0,1,.207.549l-.587.08a.643.643,0,0,0-.232-.427.846.846,0,0,0-.541-.153.982.982,0,0,0-.59.136.4.4,0,0,0-.177.32.33.33,0,0,0,.074.21.517.517,0,0,0,.229.16c.061.022.237.073.531.153a7.547,7.547,0,0,1,.888.279.905.905,0,0,1,.395.315.884.884,0,0,1,.143.513,1.006,1.006,0,0,1-.175.565,1.133,1.133,0,0,1-.505.41,1.832,1.832,0,0,1-.746.145,1.665,1.665,0,0,1-1.052-.287A1.334,1.334,0,0,1,75.191,56.9Z" transform="translate(-0.43 -8.312)"/><g class="cls-7"><path class="cls-2" d="M34.355,62.446v-.689h.6v.689Zm0,4.2V63.1h.6v3.54Z" transform="translate(-0.43 -8.312)"/><path class="cls-2" d="M35.869,66.643V63.1h.54v.5a1.275,1.275,0,0,1,1.127-.584,1.49,1.49,0,0,1,.588.116.922.922,0,0,1,.4.3,1.171,1.171,0,0,1,.187.444,3.462,3.462,0,0,1,.033.583v2.177h-.6V64.489a1.6,1.6,0,0,0-.071-.548.576.576,0,0,0-.248-.29.791.791,0,0,0-.418-.108.974.974,0,0,0-.662.243,1.2,1.2,0,0,0-.278.923v1.934Z" transform="translate(-0.43 -8.312)"/><path class="cls-2" d="M45.125,64.93l.646.163a2.178,2.178,0,0,1-.731,1.215,2.015,2.015,0,0,1-1.292.418,2.318,2.318,0,0,1-1.285-.322,2.011,2.011,0,0,1-.753-.931,3.328,3.328,0,0,1-.258-1.31,2.874,2.874,0,0,1,.292-1.332,1.993,1.993,0,0,1,.829-.863,2.422,2.422,0,0,1,1.185-.3,2.012,2.012,0,0,1,1.234.373,1.942,1.942,0,0,1,.7,1.051l-.637.149a1.511,1.511,0,0,0-.493-.776,1.313,1.313,0,0,0-.813-.243,1.581,1.581,0,0,0-.942.269,1.432,1.432,0,0,0-.532.726,2.912,2.912,0,0,0-.153.937,2.986,2.986,0,0,0,.182,1.089,1.347,1.347,0,0,0,.565.694,1.58,1.58,0,0,0,.83.231,1.391,1.391,0,0,0,.92-.314A1.6,1.6,0,0,0,45.125,64.93Z" transform="translate(-0.43 -8.312)"/><path class="cls-2" d="M46.491,66.643V61.757h.6V63.51a1.343,1.343,0,0,1,1.06-.488,1.42,1.42,0,0,1,.683.156.909.909,0,0,1,.415.428,1.963,1.963,0,0,1,.125.793v2.244h-.6V64.4a.929.929,0,0,0-.2-.655.724.724,0,0,0-.552-.2.976.976,0,0,0-.5.139.788.788,0,0,0-.335.375,1.717,1.717,0,0,0-.1.653v1.937Z" transform="translate(-0.43 -8.312)"/><path class="cls-2" d="M50.291,62.446v-.689h.6v.689Zm0,4.2V63.1h.6v3.54Z" transform="translate(-0.43 -8.312)"/><path class="cls-2" d="M54.114,65.346l.59.077a1.53,1.53,0,0,1-.495.955,1.448,1.448,0,0,1-.978.345,1.524,1.524,0,0,1-1.169-.475,1.934,1.934,0,0,1-.441-1.362,2.459,2.459,0,0,1,.191-1,1.318,1.318,0,0,1,.578-.645,1.715,1.715,0,0,1,.844-.216,1.472,1.472,0,0,1,.944.292,1.337,1.337,0,0,1,.469.829l-.583.089a.972.972,0,0,0-.294-.536.765.765,0,0,0-.512-.179.932.932,0,0,0-.737.324,1.542,1.542,0,0,0-.284,1.028,1.6,1.6,0,0,0,.274,1.037.891.891,0,0,0,.714.323.841.841,0,0,0,.589-.216A1.075,1.075,0,0,0,54.114,65.346Z" transform="translate(-0.43 -8.312)"/><path class="cls-2" d="M57.526,66.206a2.212,2.212,0,0,1-.641.4,1.83,1.83,0,0,1-.662.118,1.288,1.288,0,0,1-.9-.285.94.94,0,0,1-.312-.729.984.984,0,0,1,.427-.819,1.47,1.47,0,0,1,.432-.2,4.607,4.607,0,0,1,.533-.089,5.443,5.443,0,0,0,1.071-.207c0-.083,0-.134,0-.157a.663.663,0,0,0-.169-.516,1,1,0,0,0-.684-.2,1.055,1.055,0,0,0-.624.148.9.9,0,0,0-.3.524l-.587-.079a1.456,1.456,0,0,1,.264-.608,1.164,1.164,0,0,1,.53-.358,2.367,2.367,0,0,1,.8-.125,2.115,2.115,0,0,1,.736.108.971.971,0,0,1,.417.267.947.947,0,0,1,.187.41,3.354,3.354,0,0,1,.03.552v.8a8.651,8.651,0,0,0,.038,1.059,1.322,1.322,0,0,0,.152.425h-.627A1.279,1.279,0,0,1,57.526,66.206Zm-.049-1.34a4.445,4.445,0,0,1-.981.227,2.187,2.187,0,0,0-.522.12.508.508,0,0,0-.321.479.513.513,0,0,0,.182.4.784.784,0,0,0,.531.16,1.238,1.238,0,0,0,.617-.152.94.94,0,0,0,.4-.415,1.452,1.452,0,0,0,.1-.6Z" transform="translate(-0.43 -8.312)"/><path class="cls-2" d="M58.9,66.936l.583.086a.56.56,0,0,0,.2.394,1,1,0,0,0,.61.166,1.07,1.07,0,0,0,.643-.166.82.82,0,0,0,.307-.467,3.783,3.783,0,0,0,.043-.769,1.236,1.236,0,0,1-.98.463,1.335,1.335,0,0,1-1.129-.527,2.026,2.026,0,0,1-.4-1.263,2.353,2.353,0,0,1,.184-.935,1.478,1.478,0,0,1,.531-.662,1.439,1.439,0,0,1,.818-.234,1.27,1.27,0,0,1,1.034.507V63.1H61.9v3.06a2.883,2.883,0,0,1-.169,1.171,1.219,1.219,0,0,1-.533.545,1.836,1.836,0,0,1-.9.2,1.7,1.7,0,0,1-1.024-.285A.968.968,0,0,1,58.9,66.936Zm.5-2.126a1.534,1.534,0,0,0,.277,1.016.912.912,0,0,0,1.386,0,1.488,1.488,0,0,0,.28-1,1.449,1.449,0,0,0-.288-.979.893.893,0,0,0-.7-.33.865.865,0,0,0-.68.325A1.441,1.441,0,0,0,59.4,64.81Z" transform="translate(-0.43 -8.312)"/><path class="cls-2" d="M62.586,64.873a1.826,1.826,0,0,1,.547-1.457,1.649,1.649,0,0,1,1.113-.394,1.593,1.593,0,0,1,1.193.479,1.82,1.82,0,0,1,.463,1.321,2.333,2.333,0,0,1-.2,1.075,1.446,1.446,0,0,1-.6.609,1.742,1.742,0,0,1-.855.217,1.6,1.6,0,0,1-1.2-.477A1.9,1.9,0,0,1,62.586,64.873Zm.616,0a1.512,1.512,0,0,0,.3,1.018.989.989,0,0,0,1.49,0,1.545,1.545,0,0,0,.3-1.037,1.46,1.46,0,0,0-.3-1,.991.991,0,0,0-1.488,0A1.508,1.508,0,0,0,63.2,64.873Z" transform="translate(-0.43 -8.312)"/></g><path class="cls-3" d="M44.384,87.9v.783H40a1.429,1.429,0,0,1,.094-.566,3,3,0,0,1,.537-.883,8.283,8.283,0,0,1,1.066-1,9.02,9.02,0,0,0,1.462-1.407,1.677,1.677,0,0,0,.381-.979,1.091,1.091,0,0,0-.347-.818,1.253,1.253,0,0,0-.9-.333,1.277,1.277,0,0,0-.942.354,1.338,1.338,0,0,0-.357.978l-.838-.086a2.055,2.055,0,0,1,.648-1.428,2.2,2.2,0,0,1,1.507-.491,2.1,2.1,0,0,1,1.512.529,1.74,1.74,0,0,1,.557,1.312,2,2,0,0,1-.163.784,3.044,3.044,0,0,1-.541.81,13.329,13.329,0,0,1-1.256,1.168q-.733.615-.942.835a2.72,2.72,0,0,0-.344.442Z" transform="translate(-0.43 -8.312)"/><path class="cls-3" d="M45.257,85.405a6.047,6.047,0,0,1,.243-1.894,2.358,2.358,0,0,1,.719-1.108,1.849,1.849,0,0,1,1.2-.388,1.966,1.966,0,0,1,.937.214,1.78,1.78,0,0,1,.665.621,3.3,3.3,0,0,1,.413.986,6.6,6.6,0,0,1,.149,1.569,6.082,6.082,0,0,1-.24,1.885,2.345,2.345,0,0,1-.718,1.109,1.838,1.838,0,0,1-1.206.392,1.819,1.819,0,0,1-1.507-.688A4.37,4.37,0,0,1,45.257,85.405Zm.838,0a4.149,4.149,0,0,0,.383,2.175,1.092,1.092,0,0,0,1.887,0,6.367,6.367,0,0,0,0-4.35,1.135,1.135,0,0,0-.953-.54,1.046,1.046,0,0,0-.9.476A4.2,4.2,0,0,0,46.1,85.405Z" transform="translate(-0.43 -8.312)"/><path class="cls-3" d="M53.482,88.678h-.814V83.485a4.153,4.153,0,0,1-.772.562,5.565,5.565,0,0,1-.857.421v-.787a4.9,4.9,0,0,0,1.193-.78,3.032,3.032,0,0,0,.725-.886h.525Z" transform="translate(-0.43 -8.312)"/><path class="cls-3" d="M55.691,87.144l.784-.074a1.367,1.367,0,0,0,.379.8,1.048,1.048,0,0,0,.72.249,1.247,1.247,0,0,0,.659-.172,1.407,1.407,0,0,0,.464-.46,2.7,2.7,0,0,0,.3-.776,4.109,4.109,0,0,0,.122-1c0-.036,0-.09,0-.162a1.886,1.886,0,0,1-.668.631,1.806,1.806,0,0,1-.916.242,1.85,1.85,0,0,1-1.394-.6,2.187,2.187,0,0,1-.571-1.575,2.238,2.238,0,0,1,.6-1.625,1.99,1.99,0,0,1,1.491-.615,2.131,2.131,0,0,1,1.184.348,2.183,2.183,0,0,1,.814.993,4.865,4.865,0,0,1,.28,1.868,6.047,6.047,0,0,1-.277,2.026,2.369,2.369,0,0,1-.822,1.147,2.126,2.126,0,0,1-1.278.394,1.754,1.754,0,0,1-1.866-1.647Zm3.336-2.93a1.594,1.594,0,0,0-.373-1.113,1.171,1.171,0,0,0-.9-.413,1.24,1.24,0,0,0-.946.445,1.642,1.642,0,0,0-.4,1.149,1.42,1.42,0,0,0,.382,1.03,1.261,1.261,0,0,0,.944.4,1.207,1.207,0,0,0,.93-.4A1.558,1.558,0,0,0,59.027,84.214Z" transform="translate(-0.43 -8.312)"/></svg>