<?xml version="1.0" encoding="utf-8"?>
<!-- Generator: Adobe Illustrator 24.0.3, SVG Export Plug-In . SVG Version: 6.00 Build 0)  -->
<svg version="1.1" id="Layer_1" xmlns="http://www.w3.org/2000/svg" xmlns:xlink="http://www.w3.org/1999/xlink" x="0px" y="0px"
	 viewBox="0 0 200 100" style="enable-background:new 0 0 200 100;" xml:space="preserve">
<style type="text/css">
	.st0{fill:#F9C0B2;}
	.st1{fill:#58595B;}
	.st2{fill:#FFFFFF;}
	.st3{opacity:0.5;}
	.st4{fill:#E6E7E8;}
	.st5{fill:#D0D2D3;}
	.st6{fill:#BBBDBF;}
	.st7{fill:#77787B;}
	.st8{opacity:0.9;}
	.st9{opacity:0.5;fill:#FFFFFF;}
	.st10{fill:#999999;}
	.st11{fill:#A6A8AB;}
</style>
<g>
	<g>
		<g>
			<path class="st0" d="M180.4,36c-0.3-7.7-1.5-15.5-1.5-15.5C125.5-2.4,100,18.6,100,18.6l0,0c0,0-25.5-21-78.9,1.9
				c0,0-1.2,7.8-1.5,15.5c-0.3,7.7,4.2,8.6,4.4,10.8l12.7,14.6h24.1c0.3-1.1,0.6-1.9,0.6-2.2c0.2-0.8,5.7-15.8,5.7-15.8
				s1.2,11.2,4.2,7.8c3-3.4,18.6-5.5,19-4.9c0.5,0.5,6.4,3.1,6.4,3.1s1.4,3.3,3.3,3.7v8.2h66.1l9.9-14.6
				C176.2,44.5,180.7,43.6,180.4,36z"/>
		</g>
		<g>
			<path class="st1" d="M166.1,62.3H100c-0.5,0-0.9-0.4-0.9-0.9v-7.6c-1.5-0.8-2.6-2.8-3-3.6c-0.5-0.2-1.6-0.7-2.7-1.2
				c-2.3-1-3.1-1.5-3.4-1.7c-0.9,0-4.5,0.3-8.5,1.2c-4.9,1-8.4,2.3-9.4,3.5c-0.9,1-1.8,1-2.3,0.9c-1.2-0.4-2.1-2-2.8-5.1
				c0-0.2-0.1-0.4-0.1-0.6c-2,5.5-4.3,11.8-4.5,12.4c-0.1,0.2-0.3,0.9-0.6,2.1l0,0.1c-0.1,0.4-0.5,0.7-0.9,0.7H36.7
				c-0.3,0-0.5-0.1-0.7-0.3L23.3,47.3c-0.1-0.1-0.2-0.3-0.2-0.5c0-0.4-0.5-0.9-1.1-1.5c-1.4-1.5-3.6-3.9-3.3-9.4
				c0.3-7.6,1.5-15.5,1.6-15.6c0-0.3,0.3-0.6,0.5-0.7c12.2-5.2,24-8.6,35.1-10c8.8-1.1,17.2-1,24.9,0.4c11.1,2,17.4,6.1,19.3,7.4
				c1.9-1.3,8.2-5.4,19.3-7.4c7.7-1.4,16-1.5,24.9-0.4c11,1.4,22.8,4.7,35,10c0.3,0.1,0.5,0.4,0.5,0.7c0,0.1,1.2,8,1.6,15.6
				c0.2,5.5-1.9,7.8-3.3,9.4c-0.6,0.6-1,1.1-1.1,1.5c0,0.2-0.1,0.3-0.2,0.4l-9.9,14.6C166.7,62.1,166.4,62.3,166.1,62.3z
				 M100.9,60.4h64.7l9.5-14c0.2-0.9,0.8-1.6,1.5-2.3c1.3-1.4,3.1-3.3,2.9-8.1c-0.3-6.4-1.2-13-1.5-14.9
				c-27-11.5-46.6-11.4-58.3-9.3c-12.7,2.3-19.1,7.4-19.2,7.5c-0.3,0.3-0.8,0.3-1.2,0c-0.1,0-6.4-5.2-19.2-7.5
				C68.6,9.7,49,9.6,21.9,21.1c-0.3,1.8-1.2,8.5-1.5,14.9c-0.2,4.7,1.6,6.7,2.9,8.1c0.7,0.7,1.3,1.4,1.5,2.3l12.3,14.1h23
				c0.2-0.7,0.4-1.3,0.4-1.4c0.2-0.8,4.8-13.4,5.8-15.9c0.1-0.4,0.5-0.6,1-0.6c0.4,0.1,0.8,0.4,0.8,0.8c0,0,0.2,1.9,0.7,3.9
				c0.7,3.2,1.5,3.7,1.5,3.7c0,0,0.2-0.1,0.4-0.3c1.3-1.5,4.5-2.8,9.6-3.9c3.9-0.9,7.9-1.4,9.5-1.4c0.5,0,1,0,1.3,0.3
				c0.5,0.4,3.5,1.7,6.1,2.9c0.2,0.1,0.4,0.3,0.5,0.5c0.4,0.9,1.6,2.9,2.6,3.2c0.4,0.1,0.7,0.5,0.7,0.9V60.4z M176,46.7L176,46.7
				L176,46.7z M91,45.7C91,45.7,91,45.7,91,45.7C91,45.7,91,45.7,91,45.7z"/>
		</g>
	</g>
	<g>
		<g>
			<g>
				<g>
					<path class="st2" d="M165.6,52.7c0,0,4.5-5.2,7.5-7.5c3-2.3,3.3,0.8,2.8,3.8c-0.5,3-1.6,9.2-2.9,14.7s-4.5,9.8-8.8,5.7
						C159.8,65.3,158.6,59.7,165.6,52.7z"/>
				</g>
			</g>
			<g>
				<g>
					<path class="st1" d="M167.4,71.9c-1.3,0-2.6-0.6-3.9-1.9c-2.4-2.3-3.7-4.9-3.7-7.6c-0.1-3.3,1.7-6.8,5.2-10.4
						c0.4-0.4,4.6-5.3,7.6-7.6c0.9-0.7,1.6-1,2.3-1c0.6,0,1.1,0.2,1.4,0.7c0.9,1.1,0.8,3.3,0.5,5l-0.1,0.8c-0.5,3.1-1.5,8.9-2.8,14
						C172.5,69,170.2,71.9,167.4,71.9z M174.8,45.3c-0.1,0-0.4,0-1.2,0.6c-2.9,2.3-7.3,7.3-7.3,7.4c0,0,0,0,0,0
						c-3.2,3.2-4.7,6.3-4.7,9.1c0,2.2,1.1,4.4,3.2,6.3c0.9,0.9,1.8,1.4,2.6,1.4c1.9,0,3.6-2.5,4.7-6.6c1.2-5,2.2-10.8,2.8-13.9
						l0.1-0.8C175.3,46.4,175,45.4,174.8,45.3C174.8,45.3,174.8,45.3,174.8,45.3z"/>
				</g>
			</g>
		</g>
		<g>
			<g>
				<g>
					<path class="st2" d="M147.9,50.2c0,0,5.9-8.5,8.5-11.3s7-4.4,8.6-1.2c1.6,3.2,0.9,18.9-1.1,24.3c-2.1,5.4-6.3,9.6-10.8,6.1
						S141.9,59.6,147.9,50.2z"/>
				</g>
			</g>
			<g>
				<g>
					<path class="st1" d="M156.4,70.3c-1.3,0-2.7-0.5-3.9-1.4c-2.2-1.6-5.2-3.9-6.8-7c-1.8-3.6-1.3-7.7,1.5-12.1c0,0,0,0,0,0
						c0.2-0.3,5.9-8.6,8.6-11.4c1.8-2,4.4-3.3,6.4-3.3c1.6,0,3,0.8,3.7,2.3c1.7,3.5,1.1,19.4-1.1,25
						C162.8,67.3,159.7,70.3,156.4,70.3z M148.7,50.7c-5.2,8.1-0.7,12.6,4.9,16.7c0.9,0.7,1.9,1.1,2.8,1.1c3,0,5.4-3.5,6.6-6.8
						c2.1-5.5,2.6-20.8,1.2-23.6c-0.4-0.8-1.1-1.2-2.1-1.2c-1.5,0-3.6,1.1-5.1,2.7C154.6,42.2,148.9,50.3,148.7,50.7z"/>
				</g>
			</g>
		</g>
		<g>
			<g>
				<g>
					<path class="st2" d="M148.6,60.9c0,6.6-21.1,6.6-21.1,0c0-11.3,4.2-25.5,10.5-25.5C146.9,35.4,148.6,49.5,148.6,60.9z"/>
				</g>
			</g>
			<g>
				<g>
					<path class="st1" d="M138,66.7c-5.7,0-11.4-1.8-11.4-5.8c0-5.9,1.1-12.3,2.9-17.3c2.2-5.9,5.1-9.1,8.5-9.1
						c4.4,0,7.6,3.1,9.4,9.1c1.3,4.3,2,10.1,2,17.3C149.5,64.9,143.7,66.7,138,66.7z M138,36.3c-5.4,0-9.6,13.2-9.6,24.6
						c0,2.6,5,4,9.6,4c4.7,0,9.6-1.4,9.6-4C147.6,49.7,146,36.3,138,36.3z"/>
				</g>
			</g>
		</g>
		<g>
			<g>
				<g>
					<path class="st2" d="M34.4,52.7c0,0-4.5-5.2-7.5-7.5c-3-2.3-3.3,0.8-2.8,3.8c0.5,3,1.6,9.2,2.9,14.7c1.4,5.5,4.5,9.8,8.8,5.7
						C40.2,65.3,41.4,59.7,34.4,52.7z"/>
				</g>
			</g>
			<g>
				<g>
					<path class="st1" d="M32.6,71.9C32.6,71.9,32.6,71.9,32.6,71.9c-2.8,0-5.2-2.9-6.4-8c-1.3-5.1-2.3-10.9-2.8-14l-0.1-0.8
						c-0.3-1.7-0.4-3.9,0.5-5c0.4-0.4,0.9-0.7,1.4-0.7c0.7,0,1.4,0.3,2.3,1c3,2.3,7.2,7.2,7.6,7.6c3.5,3.6,5.2,7.1,5.2,10.4
						c-0.1,2.7-1.3,5.3-3.7,7.6C35.2,71.3,33.9,71.9,32.6,71.9z M25.2,45.3C25.2,45.3,25.2,45.3,25.2,45.3c-0.2,0.1-0.6,1.1-0.1,3.5
						l0.1,0.8c0.5,3.1,1.5,8.9,2.8,13.9c1,4.1,2.8,6.6,4.7,6.6c0.8,0,1.7-0.5,2.6-1.4c2.1-2,3.1-4.1,3.2-6.3
						c0.1-2.8-1.5-5.9-4.7-9.1c0,0,0,0,0,0c0-0.1-4.5-5.1-7.3-7.4C25.7,45.3,25.3,45.3,25.2,45.3z"/>
				</g>
			</g>
		</g>
		<g>
			<g>
				<g>
					<g>
						<path class="st2" d="M49.5,50.2c0,0-4.3-8.5-6.4-11.3c-2.1-2.8-6.2-4.4-8.4-1.2c-2.2,3.2-4.4,18.9-3.3,24.3
							c1.1,5.4,4.5,9.6,9.7,6.1C46.3,64.7,53.8,59.6,49.5,50.2z"/>
					</g>
				</g>
			</g>
			<g>
				<g>
					<g>
						<path class="st1" d="M37.5,70.3C37.5,70.3,37.5,70.3,37.5,70.3c-3.3,0-6-3.1-7-8.1c-1.1-5.6,1.1-21.5,3.5-25
							c1-1.4,2.3-2.2,3.9-2.2c2.1,0,4.4,1.3,5.9,3.3c2.1,2.8,6.3,11.1,6.5,11.4c0,0,0,0,0,0c4.7,10.3-3.7,15.8-8.7,19.1
							C40.2,69.8,38.8,70.3,37.5,70.3z M37.9,36.9c-1,0-1.8,0.5-2.4,1.4c-1.9,2.8-4.3,18.1-3.2,23.6c0.6,3.2,2.3,6.6,5.2,6.6
							c0,0,0,0,0,0c1,0,2-0.4,3.1-1.1c4.8-3.2,12.1-8,8.1-16.8c-0.2-0.4-4.3-8.5-6.3-11.1C41.2,37.9,39.4,36.9,37.9,36.9z"/>
					</g>
				</g>
			</g>
		</g>
		<g>
			<g>
				<g>
					<path class="st2" d="M45.8,58.1c-1.5,6.4,18.9,11.3,20.5,4.9C69,52,68.2,37.3,62,35.8C53.5,33.7,48.5,47.1,45.8,58.1z"/>
				</g>
			</g>
			<g>
				<g>
					<path class="st1" d="M60.1,66.9C60.1,66.9,60.1,66.9,60.1,66.9c-4.8,0-11.6-2-14.2-5.4c-0.9-1.2-1.3-2.5-1-3.7
						c3.7-15.4,8.9-23.2,15.4-23.2c0.6,0,1.3,0.1,2,0.2c3.3,0.8,5.4,4.5,6.1,10.8c0.6,5.3,0.2,11.8-1.2,17.5
						C66.6,65.6,64.1,66.9,60.1,66.9z M60.3,36.5c-6.9,0-11.2,11.9-13.6,21.8c-0.2,0.7,0,1.4,0.6,2.1c2,2.5,7.8,4.7,12.8,4.7
						c0,0,0,0,0,0c1.4,0,4.8-0.2,5.3-2.3c2.7-11,1.7-24.9-3.6-26.1C61.3,36.6,60.8,36.5,60.3,36.5z"/>
				</g>
			</g>
		</g>
		<g>
			<g>
				<g>
					<g>
						<path class="st2" d="M127.5,63.2c0,6.6-27.5,6.6-27.5,0c0-11.4,2.2-29.3,13.8-29.3C125.3,33.9,127.5,51.8,127.5,63.2z"/>
					</g>
				</g>
			</g>
			<g>
				<g>
					<g>
						<path class="st1" d="M113.8,69.1c-6.8,0-14.7-1.5-14.7-5.9c0-9.1,1.4-30.2,14.7-30.2c13.2,0,14.7,21.1,14.7,30.2
							C128.4,67.5,120.5,69.1,113.8,69.1z M113.8,34.8c-4.7,0-8.1,3.3-10.3,9.7c-2.2,6.4-2.5,14.4-2.5,18.6c0,2.3,5.6,4,12.8,4
							c7.2,0,12.8-1.8,12.8-4c0-4.2-0.3-12.2-2.5-18.6C121.9,38.1,118.4,34.8,113.8,34.8z"/>
					</g>
				</g>
			</g>
		</g>
		<g>
			<g>
				<g>
					<g>
						<path class="st2" d="M99.6,60.6c1.1,6.5-25.9,11.3-27.1,4.8c-2-11.3-2.9-29.2,8.5-31.2C92.3,32.2,97.6,49.4,99.6,60.6z"/>
					</g>
				</g>
			</g>
			<g>
				<g>
					<g>
						<path class="st1" d="M71.6,65.5c-1.6-8.9-3.8-30,9.2-32.3c13-2.3,18.1,18.3,19.7,27.2c0.8,4.3-6.8,7.2-13.4,8.3
							C80.4,70,72.3,69.8,71.6,65.5z M72.6,46.4c-1,6.7,0,14.7,0.8,18.8c0.4,2.2,6.3,3,13.3,1.8c7.1-1.2,12.3-4,11.9-6.2
							c-0.7-4.1-2.4-12-5.7-17.9c-3.3-6-7.3-8.6-11.9-7.8C76.5,35.9,73.6,39.7,72.6,46.4z"/>
					</g>
				</g>
			</g>
		</g>
	</g>
	<g>
		<path class="st1" d="M163.2,56.4l-6.2-1.1l0,0l-14-1.8l0,0l-8.4-0.3l0,0L100,53.4l0,1.8l34.6-0.2l8.3,0.2l13.9,1.8l6,1.1l10.5,3.9
			c0.1-0.6,0.3-1.2,0.4-1.8L163.2,56.4z"/>
		<g>
			<g class="st3">
				<path class="st4" d="M111.5,48.9L111.5,48.9c0,0.6,0.5,1.1,1.1,1.1h2.5c0.6,0,1.1-0.5,1.1-1.1l0,0c0-0.1,0.1-0.2,0.2-0.2h1.3
					c0.5,0,0.9,0.4,0.9,0.9v2.3c0,0.5-0.4,0.9-0.9,0.9h-1.3c-0.1,0-0.2-0.1-0.2-0.2v0c0-0.6-0.5-1.1-1.1-1.1h-2.5
					c-0.6,0-1.1,0.5-1.1,1.1v0c0,0.1-0.1,0.2-0.2,0.2H110c-0.5,0-0.9-0.4-0.9-0.9v-2.3c0-0.5,0.4-0.9,0.9-0.9h1.3
					C111.4,48.8,111.5,48.8,111.5,48.9z"/>
				<path class="st5" d="M109.4,55.6c-0.4,0-0.8,0.4-0.8,0.8v1.3c0,0.4,0.4,0.8,0.8,0.8h2.1v-2.9H109.4z"/>
				<path class="st5" d="M118.2,55.6h-2.1v2.9h2.1c0.4,0,0.8-0.4,0.8-0.8v-1.3C119,56,118.6,55.6,118.2,55.6z"/>
				
					<rect x="109.1" y="52.8" transform="matrix(-1 -1.224647e-16 1.224647e-16 -1 227.5258 108.4938)" class="st2" width="9.2" height="2.8"/>
				<polygon class="st6" points="111.5,52.8 116.1,52.8 116.1,57.6 116.1,58.5 116.1,58.5 111.5,58.5 111.5,58.5 				"/>
			</g>
			<path class="st7" d="M118.7,55.4v-2.6c0-0.1-0.1-0.2-0.2-0.3c0.1-0.2,0.2-0.4,0.2-0.6v-2.3c0-0.7-0.6-1.3-1.3-1.3h-1.3
				c-0.3,0-0.5,0.2-0.5,0.5c0,0.4-0.3,0.7-0.7,0.7h-2.5c-0.4,0-0.7-0.3-0.7-0.7c0-0.3-0.2-0.5-0.5-0.5H110c-0.7,0-1.3,0.6-1.3,1.3
				v2.3c0,0.2,0.1,0.4,0.2,0.6c-0.1,0.1-0.2,0.2-0.2,0.3v2.6c-0.3,0.2-0.6,0.6-0.6,1v1.3c0,0.6,0.5,1.2,1.2,1.2h2.1h4.6h2.1
				c0.6,0,1.2-0.5,1.2-1.2v-1.3C119.3,56,119.1,55.7,118.7,55.4z M109.5,53.2h0.5h1.1v2.1h-1.6V53.2z M116.4,53.2h1.1h0.5v2.1h-1.6
				V53.2z M109.5,49.7c0-0.3,0.2-0.5,0.5-0.5h1.1c0.1,0.7,0.7,1.2,1.4,1.2h2.5c0.7,0,1.3-0.5,1.4-1.2h1.1c0.3,0,0.5,0.2,0.5,0.5v2.3
				c0,0.3-0.2,0.6-0.5,0.6h-1.1c-0.1-0.7-0.7-1.2-1.4-1.2h-2.5c-0.7,0-1.3,0.5-1.4,1.2H110c-0.3,0-0.5-0.2-0.5-0.6V49.7z
				 M115.7,52.5h-3.8c0.1-0.3,0.4-0.5,0.7-0.5h2.5C115.3,52,115.6,52.2,115.7,52.5z M108.9,57.7v-1.3c0-0.2,0.2-0.4,0.4-0.4h1.7v2.2
				h-1.7C109.1,58.2,108.9,58,108.9,57.7z M111.8,55.6v-2.4h3.9v2.4v2.5h-3.9V55.6z M118.6,57.7c0,0.2-0.2,0.4-0.4,0.4h-1.7V56h1.7
				c0.2,0,0.4,0.2,0.4,0.4V57.7z"/>
		</g>
		<g class="st8">
			<g>
				<polygon class="st9" points="136.5,52.8 134.6,52.7 134.6,55.4 135.5,55.4 142.7,55.6 142.8,53 				"/>
				<g class="st3">
					<path class="st10" d="M139.7,51.9c-0.1-0.1-0.3-0.2-0.4-0.2l-1.1,0c-0.5,0-0.8,0.4-0.9,1v0c0,0.1-0.1,0.1-0.1,0.1l2.8,0.1
						l0-0.1c0,0,0,0,0,0v0C140.1,52.4,140,52.1,139.7,51.9z"/>
					<path class="st4" d="M142.2,49.1l-0.9,0c0,0,0,0,0,0l-1,0c-0.1,0-0.1,0.1-0.1,0.1v0c0,0.5-0.4,1-0.9,1l-1.1,0
						c-0.5,0-0.8-0.5-0.8-1c0-0.1-0.1-0.1-0.1-0.2l-0.9,0h0l-1,0c-0.4,0-0.7,0.4-0.7,0.8l-0.1,2.1c0,0.5,0.3,0.9,0.7,0.9l1,0
						c0,0,0,0,0,0l0.9,0c0.1,0,0.1-0.1,0.1-0.1v0c0-0.5,0.4-1,0.9-1l1.1,0c0.5,0,0.8,0.5,0.8,1l0,0c0,0.1,0.1,0.1,0.1,0.2l0.9,0l0,0
						l1,0c0.4,0,0.7-0.4,0.7-0.8l0.1-2.1C142.9,49.5,142.6,49.1,142.2,49.1z"/>
					<path class="st5" d="M136.4,55.4L136.4,55.4l-1.6,0c-0.4,0-0.7,0.3-0.7,0.7l0,1.3c0,0.4,0.3,0.7,0.7,0.7l0.9,0l0,0l1.6,0
						l0.1-2.7L136.4,55.4z"/>
					<path class="st11" d="M141,52.8L141,52.8c0-0.5-0.3-1-0.8-1l-2-0.1c-0.5,0-0.8,0.4-0.9,1l0,0.1l3.6,0.1L141,52.8L141,52.8
						L141,52.8z"/>
					<path class="st5" d="M142.5,55.6l-1.6,0l-0.1,2.7l1.6,0c0.4,0,0.7-0.3,0.7-0.7l0-1.3C143.2,55.9,142.9,55.6,142.5,55.6z"/>
					<polygon class="st6" points="141,52.9 137.4,52.8 137.2,57.3 137.2,58.2 137.2,58.2 140.8,58.3 140.8,58.3 					"/>
				</g>
			</g>
			<path class="st7" d="M143.1,55.5l0.1-2.5c0-0.1,0-0.2-0.1-0.2c0,0,0,0,0,0c0.1-0.2,0.1-0.4,0.2-0.6l0.1-2.1
				c0-0.3-0.1-0.6-0.3-0.8c-0.2-0.2-0.5-0.4-0.8-0.4l-0.9,0c0,0,0,0,0,0l-1,0c0,0,0,0,0,0c-0.2,0-0.5,0.2-0.5,0.5
				c0,0.2-0.1,0.4-0.2,0.5c-0.1,0.1-0.2,0.2-0.3,0.2c0,0,0,0,0,0l-1.1,0c-0.2,0-0.3-0.1-0.3-0.2c-0.1-0.1-0.2-0.3-0.1-0.5
				c0-0.1,0-0.2-0.1-0.3c-0.1-0.1-0.2-0.2-0.3-0.2l-0.9,0c0,0,0,0,0,0l-1,0c-0.3,0-0.6,0.1-0.8,0.3c-0.2,0.2-0.3,0.5-0.3,0.8
				l-0.1,2.1c0,0.2,0,0.4,0.1,0.6c-0.1,0.1-0.1,0.2-0.1,0.3l-0.1,2.5c-0.1,0-0.1,0.1-0.2,0.1c-0.2,0.2-0.3,0.4-0.3,0.7l0,1.3
				c0,0.3,0.1,0.5,0.3,0.7c0.2,0.2,0.4,0.3,0.7,0.3l0.9,0c0,0,0,0,0,0l1.6,0c0,0,0,0,0,0l3.6,0.1l1.6,0c0,0,0,0,0,0c0.6,0,1-0.4,1-1
				l0-1.3C143.5,56,143.3,55.7,143.1,55.5z M136.1,57.8l-0.5,0c-0.1,0-0.2,0-0.2-0.1c-0.1-0.1-0.1-0.2-0.1-0.3l0-1.3
				c0-0.1,0-0.2,0.1-0.2c0.1-0.1,0.2-0.1,0.2-0.1c0,0,0,0,0,0l0.7,0l0.6,0l-0.1,2L136.1,57.8z M135.8,55.1l0.1-2l1.1,0l-0.1,2
				l-0.9,0L135.8,55.1z M135.2,53.1l-0.1,2l-0.2,0l0.1-2L135.2,53.1z M137.7,52.5C137.8,52.5,137.8,52.4,137.7,52.5
				C137.8,52.4,137.8,52.4,137.7,52.5c0-0.1,0.1-0.2,0.1-0.2c0,0,0,0,0,0c0,0,0,0,0-0.1c0,0,0,0,0,0c0,0,0,0,0-0.1c0,0,0,0,0,0
				c0,0,0,0,0,0c0,0,0,0,0,0c0,0,0,0,0,0c0,0,0,0,0,0c0,0,0,0,0.1,0c0,0,0,0,0,0c0,0,0,0,0.1,0c0,0,0,0,0,0l1.1,0
				c0.2,0,0.4,0.2,0.5,0.5l-0.7,0L137.7,52.5z M140.4,52.1C140.4,52.2,140.4,52.2,140.4,52.1C140.4,52.2,140.4,52.2,140.4,52.1
				c0.1,0.1,0.1,0.1,0.1,0.1c0,0,0,0,0,0c0,0,0,0,0,0.1c0,0,0,0,0,0c0,0,0,0,0,0.1c0,0,0,0,0,0c0,0,0,0.1,0,0.1c0,0,0,0,0,0
				c0,0,0,0.1,0,0.1l-0.2,0C140.4,52.4,140.4,52.3,140.4,52.1C140.3,52.1,140.3,52.1,140.4,52.1C140.3,52.1,140.3,52.1,140.4,52.1z
				 M142.4,55.3l-1.1,0l0.1-2l1.1,0L142.4,55.3z M140.7,49.4c0,0.1-0.1,0.2-0.1,0.3c0,0-0.1,0.1-0.2,0.1c0.1-0.1,0.1-0.3,0.1-0.4
				L140.7,49.4z M137.4,50c0.2,0.3,0.5,0.4,0.8,0.4l2,0.1c0.3,0,0.6-0.1,0.9-0.4c0.2-0.2,0.3-0.4,0.3-0.7l0.8,0
				c0.1,0,0.2,0.1,0.2,0.1c0.1,0.1,0.1,0.2,0.1,0.4l-0.1,2.1c0,0.3-0.2,0.5-0.4,0.5c0,0,0,0,0,0l-0.8,0c0,0,0,0,0,0c0,0,0,0,0-0.1
				c0,0,0-0.1,0-0.1c0,0,0,0,0,0c0,0,0-0.1,0-0.1c0,0,0,0,0,0c0,0,0-0.1,0-0.1c0,0,0,0,0,0c0,0,0-0.1-0.1-0.1c0,0,0,0,0,0
				c0,0,0-0.1-0.1-0.1c0,0,0,0,0,0c0,0,0,0,0-0.1c0,0,0,0,0,0c0,0,0,0,0-0.1c0,0,0,0,0,0c0,0,0,0-0.1,0c0,0,0,0,0,0c0,0,0,0-0.1,0
				c0,0,0,0,0,0c0,0,0,0-0.1,0c0,0,0,0,0,0c0,0,0,0-0.1,0c0,0,0,0,0,0c0,0,0,0-0.1,0c0,0,0,0,0,0c0,0,0,0-0.1,0c0,0,0,0,0,0
				c0,0-0.1,0-0.1,0l-0.9,0c0,0,0,0,0,0c0,0,0,0,0,0l-1.1,0c0,0,0,0,0,0c0,0-0.1,0-0.1,0c0,0,0,0,0,0c0,0,0,0-0.1,0c0,0,0,0,0,0
				c0,0,0,0-0.1,0c0,0,0,0,0,0c0,0,0,0-0.1,0c0,0,0,0,0,0c0,0,0,0-0.1,0c0,0,0,0,0,0c0,0,0,0-0.1,0c0,0,0,0,0,0c0,0,0,0-0.1,0
				c0,0,0,0,0,0c0,0,0,0-0.1,0.1c0,0,0,0,0,0c0,0,0,0-0.1,0.1c0,0,0,0,0,0c0,0.1-0.1,0.1-0.1,0.2c0,0,0,0,0,0c0,0,0,0.1,0,0.1
				c0,0,0,0,0,0c0,0,0,0,0,0.1c0,0,0,0,0,0c0,0,0,0,0,0.1c0,0,0,0,0,0c0,0,0,0,0,0l-0.2,0l-0.4,0c0,0,0,0,0,0l-0.2,0
				c-0.2,0-0.4-0.2-0.4-0.5l0.1-2.1c0-0.1,0.1-0.3,0.1-0.4c0,0,0.1-0.1,0.2-0.1l0.8,0C137.2,49.6,137.3,49.8,137.4,50z M135.1,49.8
				c0-0.1,0.1-0.3,0.1-0.4c0,0,0.1-0.1,0.2-0.1c-0.1,0.2-0.1,0.3-0.1,0.5l-0.1,2.1c0,0.2,0,0.4,0.1,0.5c-0.2,0-0.3-0.3-0.3-0.5
				L135.1,49.8z M134.4,57.4l0-1.3c0-0.1,0-0.2,0.1-0.2c0.1,0,0.1-0.1,0.2-0.1c0,0.1-0.1,0.2-0.1,0.3l0,1.3c0,0.1,0,0.2,0,0.3
				c-0.1,0-0.1-0.1-0.2-0.1C134.4,57.6,134.4,57.5,134.4,57.4z M137.7,53.2l1.4,0l1.5,0l-0.1,4.7l-2.9-0.1L137.7,53.2z M142.8,57.7
				c0,0.2-0.2,0.3-0.4,0.3l-1.2,0l0.1-2l1.2,0c0,0,0,0,0,0c0.2,0,0.3,0.2,0.3,0.4L142.8,57.7z"/>
		</g>
		<g class="st8">
			<polygon class="st9" points="162.7,56 162.7,56 159,55.3 159,55.3 158,55.1 157.5,57.5 158.6,57.7 162.3,58.5 162.3,58.5 
				163.5,58.7 164,56.2 			"/>
			<g class="st3">
				<polygon class="st6" points="162.7,56 160.3,55.5 159.5,59.7 159.3,60.6 159.3,60.6 161.8,61 161.8,61 				"/>
				<path class="st4" d="M164.2,52.5l-0.7-0.1c0,0-0.1,0-0.1,0.1l0,0c0,0,0,0,0,0.1c-0.1-0.1-0.2-0.2-0.3-0.2l-0.7-0.1
					c0,0-0.1,0-0.1,0.1v0c-0.1,0.5-0.4,0.9-0.7,0.8l-0.3-0.1c-0.3-0.1-0.5-0.5-0.4-1c0-0.1,0-0.1-0.1-0.2l-0.7-0.1
					c-0.1,0-0.2,0-0.3,0.1c0,0,0,0,0,0c0-0.1,0-0.1-0.1-0.2l-0.7-0.1c-0.3-0.1-0.6,0.3-0.6,0.7l-0.4,2c-0.1,0.4,0.1,0.9,0.3,0.9
					l0.7,0.1c0,0,0.1,0,0.1-0.1l0,0c0,0,0,0,0-0.1c0.1,0.1,0.2,0.2,0.3,0.2l0.7,0.1c0,0,0.1,0,0.1-0.1l0,0c0.1-0.5,0.4-0.9,0.7-0.8
					l0.3,0.1c0.3,0.1,0.5,0.5,0.4,1l0,0c0,0.1,0,0.1,0.1,0.2l0.7,0.1c0.1,0,0.2,0,0.3-0.1c0,0,0,0,0,0v0c0,0.1,0,0.1,0.1,0.2
					l0.7,0.1c0.3,0.1,0.6-0.3,0.6-0.7l0.4-2C164.6,52.9,164.5,52.5,164.2,52.5z"/>
				<path class="st5" d="M158.8,57.8C158.8,57.8,158.8,57.8,158.8,57.8L158.8,57.8l-1.1-0.2c-0.3-0.1-0.6,0.1-0.7,0.4l-0.3,1.5
					c-0.1,0.3,0.1,0.6,0.4,0.7l1,0.2l0,0c0,0,0,0,0.1,0l1,0.2l0.5-2.6L158.8,57.8z"/>
				<path class="st11" d="M162.4,54.8l-1.3-0.3c-0.3-0.1-0.6,0.3-0.7,0.8l0,0.1l2.5,0.5l0-0.1v0C162.9,55.3,162.7,54.8,162.4,54.8z"
					/>
				<path class="st5" d="M163.3,58.6l-1-0.2l-0.5,2.6l1,0.2c0.3,0.1,0.6-0.1,0.7-0.4l0.3-1.5C163.8,59,163.6,58.7,163.3,58.6z"/>
			</g>
			<path class="st7" d="M164.3,52.2l-0.7-0.1c0,0,0,0,0,0l-1.1-0.2c-0.2,0-0.4,0.1-0.5,0.4c0,0,0,0,0,0c0,0.2-0.1,0.4-0.2,0.5
				c-0.1,0.1-0.1,0.1-0.1,0.1l-0.3-0.1c0,0-0.1,0-0.1-0.1c-0.1-0.1-0.1-0.3,0-0.5c0-0.1,0-0.2,0-0.3c-0.1-0.1-0.2-0.2-0.3-0.3
				l-0.7-0.1c0,0,0,0,0,0l-1.1-0.2c-0.5-0.1-0.9,0.3-1,1l-0.4,2c0,0.2,0,0.4,0,0.6c0,0,0,0,0,0c-0.1,0-0.1,0.1-0.1,0.2l-0.5,2.4
				c-0.2,0.1-0.4,0.3-0.4,0.6l-0.3,1.5c-0.1,0.5,0.2,0.9,0.7,1l1,0.2c0,0,0,0,0.1,0c0,0,0,0,0,0c0,0,0,0,0,0l1,0.2c0,0,0,0,0,0
				l2.5,0.5c0,0,0,0,0,0l1,0.2c0.1,0,0.1,0,0.2,0c0.2,0,0.3-0.1,0.5-0.2c0.2-0.1,0.3-0.3,0.4-0.6l0.3-1.5c0.1-0.3,0-0.5-0.2-0.7
				l0.5-2.4c0-0.1,0-0.2-0.1-0.3c0.1-0.2,0.2-0.3,0.2-0.6l0.4-2C165,52.8,164.7,52.2,164.3,52.2z M162.6,52.5l0.4,0.1
				c-0.1,0.3-0.3,0.4-0.3,0.4l-0.3-0.1C162.5,52.8,162.6,52.7,162.6,52.5z M161.3,53.4l0.2,0c0,0,0,0,0.1,0c0,0,0.1,0,0.1,0l1,0.2
				c0.5,0.1,0.9-0.3,1.1-0.9l0.4,0.1c0,0,0.1,0.2,0.1,0.5l-0.4,2c-0.1,0.3-0.2,0.5-0.3,0.5l-0.4-0.1c0,0,0,0,0,0c0,0,0-0.1,0-0.1
				c0,0,0,0,0,0c0,0,0-0.1,0-0.1c0,0,0,0,0-0.1c0,0,0,0,0-0.1c0-0.1,0-0.1-0.1-0.2c0-0.1-0.1-0.2-0.2-0.3c0,0,0,0,0,0
				c0,0,0,0-0.1-0.1c0,0,0,0,0,0c0,0,0,0-0.1,0c0,0,0,0,0,0c0,0,0,0,0,0c0,0,0,0-0.1,0c0,0,0,0,0,0c0,0-0.1,0-0.1,0c0,0,0,0,0,0
				l-1.1-0.2l-0.3,0c0,0,0,0,0,0c0,0-0.1,0-0.1,0c0,0,0,0,0,0c0,0,0,0-0.1,0c0,0,0,0-0.1,0c0,0,0,0,0,0c0,0-0.1,0-0.1,0c0,0,0,0,0,0
				c-0.1,0-0.3,0.1-0.4,0.3c0,0.1-0.1,0.1-0.1,0.2c0,0,0,0,0,0.1c0,0,0,0,0,0.1c0,0,0,0.1-0.1,0.1c0,0,0,0,0,0c0,0,0,0.1,0,0.1
				c0,0,0,0,0,0l-0.4-0.1c0,0-0.1-0.2-0.1-0.5l0.4-2c0.1-0.3,0.2-0.4,0.3-0.5l0.1,0l0.3,0.1c0,0.2,0,0.5,0.1,0.7
				C160.8,53.1,161,53.3,161.3,53.4z M161.5,60.6l-1.8-0.3l0.4-2.3l0.4-2.2l1.1,0.2c0,0,0,0,0.1,0c0,0,0,0,0.1,0c0,0,0,0,0,0
				l0.6,0.1l-0.4,2.2c0,0,0,0,0,0l-0.1,0.7L161.5,60.6z M158.4,60c-0.1,0-0.1,0-0.2-0.1c0-0.1,0-0.1,0-0.2l0.3-1.5
				c0-0.1,0.1-0.2,0.2-0.2c0,0,0,0,0,0l0.7,0.1l-0.4,1.9L158.4,60z M158.4,55.5C158.4,55.5,158.4,55.5,158.4,55.5l0.1,0l0.2,0
				l-0.4,1.8l-0.4-0.1l0.4-1.8L158.4,55.5z M160.7,55.2c0.1-0.2,0.2-0.3,0.2-0.3c0,0,0,0,0,0c0,0,0,0,0,0c0,0,0,0,0,0l0.2,0
				c0,0,0,0,0.1,0c0.1,0,0.2,0.2,0.1,0.5L160.7,55.2C160.7,55.2,160.7,55.2,160.7,55.2C160.7,55.2,160.7,55.2,160.7,55.2z
				 M162.5,55.4C162.5,55.4,162.5,55.4,162.5,55.4c0,0.1,0,0.2,0,0.2l-0.4-0.1c0-0.2,0-0.3,0-0.5l0.3,0.1c0,0,0.1,0,0.1,0.1
				c0,0,0,0,0,0C162.4,55.3,162.4,55.3,162.5,55.4z M159.5,55.7l0.1,0l0.3,0.1l-0.4,1.8l-0.6-0.1l0.4-1.8L159.5,55.7
				C159.5,55.7,159.5,55.7,159.5,55.7z M163.3,58.3l-0.6-0.1l0.4-1.8l0.4,0.1c0,0,0,0,0,0l0.2,0L163.3,58.3z M158.4,54.3l0.4-2
				c0.1-0.3,0.2-0.5,0.3-0.5l0.3,0.1c-0.1,0.1-0.1,0.3-0.2,0.5l-0.4,2c0,0.2,0,0.4,0,0.5l-0.3-0.1C158.5,54.8,158.4,54.6,158.4,54.3
				z M157.1,59.6l0.3-1.5c0-0.1,0-0.1,0.1-0.2c0.1,0,0.1,0,0.2,0l0.2,0c0,0.1-0.1,0.1-0.1,0.2l-0.3,1.5c0,0.1,0,0.2,0,0.2l-0.2,0
				C157.2,59.8,157.1,59.7,157.1,59.6z M163.4,59.2l-0.3,1.5c0,0.1,0,0.1-0.1,0.2c-0.1,0-0.1,0-0.2,0l-0.7-0.1l0.3-1.4l0.1-0.5
				l0.7,0.1c0.1,0,0.1,0,0.2,0.1C163.4,59.1,163.4,59.2,163.4,59.2z"/>
		</g>
		<g class="st8">
			<polygon class="st9" points="175,60.4 175,60.4 170.5,59.5 170,61.6 174.2,62.5 174.2,62.5 175.2,62.7 175.6,60.6 			"/>
			<g class="st3">
				<path class="st4" d="M176,57.4l-0.5-0.1l0.1,0l-1.5-0.3l-1.9-0.4l-0.5-0.1c-0.2,0-0.4,0.2-0.5,0.6l-0.4,1.7
					c-0.1,0.4,0,0.7,0.2,0.8l0.5,0.1l3.4,0.8l0.5,0.1c0.2,0,0.4-0.2,0.5-0.6l0.4-1.7C176.3,57.8,176.2,57.4,176,57.4z"/>
				<polygon class="st6" points="174.7,60.4 172.9,60 172.1,63.6 171.9,64.3 171.9,64.3 173.8,64.7 173.8,64.7 				"/>
				<path class="st5" d="M172.4,62.1l-0.7-0.2c0,0,0,0,0,0l-1.5-0.3c-0.2-0.1-0.5,0.1-0.5,0.3l-0.3,1.3c-0.1,0.2,0.1,0.5,0.3,0.5
					l1.6,0.4v0l0.5,0.1L172.4,62.1z"/>
				<path class="st5" d="M175,62.7l-0.7-0.2l-0.5,2.2l0.7,0.2c0.2,0.1,0.5-0.1,0.5-0.3l0.3-1.3C175.4,63,175.2,62.7,175,62.7z"/>
				<path class="st11" d="M174.5,59.4l-1-0.2c-0.2-0.1-0.5,0.3-0.6,0.7l0,0.1l1.8,0.4l0-0.1C174.8,59.8,174.7,59.4,174.5,59.4z"/>
			</g>
			<g>
				<path class="st7" d="M176,57.1l-0.4-0.1c0,0,0,0,0,0l-1.5-0.3c-0.1,0-0.2,0-0.3,0.1c0-0.1-0.1-0.1-0.2-0.2l-0.5-0.1l-1.5-0.3
					c-0.2,0-0.4,0-0.6,0.2c-0.1,0.2-0.2,0.4-0.3,0.6l-0.4,1.7c0,0.2,0,0.4,0,0.5c0,0,0,0,0,0c-0.1,0-0.1,0.1-0.1,0.2l-0.5,2.1
					c-0.2,0.1-0.3,0.3-0.3,0.5l-0.3,1.3c-0.1,0.4,0.2,0.8,0.6,0.9l1.5,0.3c0,0,0,0,0,0l0.2,0.1l0,0c0,0,0,0,0,0l0.4,0.1c0,0,0,0,0,0
					l1.8,0.4c0,0,0,0,0,0l0.7,0.2c0.1,0,0.1,0,0.2,0c0.3,0,0.6-0.2,0.7-0.6l0.3-1.3c0-0.2,0-0.4-0.1-0.6c0,0,0,0,0,0l0.5-2.1
					c0-0.1,0-0.2,0-0.2c0.1-0.1,0.2-0.3,0.2-0.5l0.4-1.7C176.6,57.7,176.4,57.2,176,57.1z M174.1,57.3l0.9,0.2c0,0,0,0,0,0
					c0,0,0,0,0,0c0,0,0,0,0,0.1c0,0,0,0,0,0c0,0,0,0,0,0.1c0,0,0,0,0,0c0,0,0,0,0,0c0,0,0,0,0,0c0,0,0,0,0,0c0,0,0,0,0,0
					c0,0,0,0,0,0c0,0,0,0,0,0c0,0,0,0,0,0l-0.8-0.2C174.1,57.5,174.1,57.4,174.1,57.3z M170.9,58.8l0.4-1.7c0.1-0.2,0.2-0.4,0.2-0.4
					l0.9,0.2c-0.1,0.1-0.1,0.3-0.2,0.4l-0.4,1.7c0,0.2,0,0.3,0,0.4l-0.4-0.1c0,0,0,0,0,0l-0.5-0.1C170.9,59.2,170.9,59.1,170.9,58.8
					z M173.3,59.7C173.3,59.7,173.3,59.7,173.3,59.7C173.3,59.6,173.3,59.6,173.3,59.7c0-0.1,0.1-0.1,0.1-0.1c0,0,0,0,0,0
					c0,0,0,0,0,0c0,0,0,0,0,0c0,0,0,0,0,0c0,0,0,0,0,0c0,0,0,0,0,0c0,0,0,0,0,0c0,0,0,0,0,0l1,0.2c0,0,0,0,0,0c0,0,0,0,0,0
					c0,0,0,0,0,0c0,0,0,0,0,0c0,0,0,0,0,0c0,0,0,0,0,0c0,0,0,0,0,0.1c0,0,0,0,0,0c0,0,0,0,0,0.1c0,0,0,0,0,0c0,0,0,0,0,0.1
					c0,0,0,0,0,0c0,0,0,0,0,0L173.3,59.7C173.2,59.8,173.2,59.7,173.3,59.7C173.3,59.7,173.3,59.7,173.3,59.7z M171.6,64l-0.3-0.1
					c-0.1,0-0.1-0.1-0.1-0.2l0.3-1.3c0-0.1,0.1-0.1,0.2-0.1c0,0,0,0,0,0l0.4,0.1l-0.4,1.7L171.6,64C171.6,64,171.6,64,171.6,64z
					 M170.8,59.8C170.8,59.8,170.8,59.8,170.8,59.8l0.5,0.1l0.4,0.1l-0.4,1.6l-0.9-0.2L170.8,59.8L170.8,59.8z M172.3,60.1
					C172.3,60.1,172.3,60.1,172.3,60.1l0.3,0.1l-0.4,1.6l-0.3-0.1c0,0,0,0,0,0l0,0L172.3,60.1L172.3,60.1z M175,60.7l0.4,0.1
					l-0.4,1.6l-0.4-0.1L175,60.7L175,60.7z M169.7,63.4L170,62c0-0.1,0.1-0.2,0.2-0.1l0.8,0.2c0,0.1,0,0.1-0.1,0.2l-0.3,1.3
					c0,0.1,0,0.1,0,0.2l-0.8-0.2C169.7,63.6,169.7,63.5,169.7,63.4z M172.5,63.3l0.2-1.1l0.4-1.9l1.3,0.3l-0.1,0.3l-0.3,1.6
					l-0.4,1.9l-1.3-0.3L172.5,63.3z M175,63.2l-0.3,1.3c0,0,0,0.1-0.1,0.1c0,0-0.1,0-0.1,0l-0.4-0.1l0.4-1.7l0.4,0.1l0.1,0
					c0,0,0,0,0,0c0,0,0.1,0,0.1,0.1C175,63.1,175,63.1,175,63.2z M175.9,58.1l-0.4,1.7c-0.1,0.2-0.2,0.4-0.2,0.4l-0.3-0.1
					c0,0,0,0,0,0c0,0,0-0.1,0-0.1c0,0,0,0,0,0c0,0,0-0.1,0-0.1c0,0,0,0,0,0c0,0,0-0.1,0-0.1c0,0,0,0,0-0.1c0,0,0,0,0,0
					c0,0,0,0,0-0.1c0-0.1-0.1-0.2-0.1-0.3c0,0,0,0,0,0c0,0,0,0,0,0c0,0,0,0,0,0c0,0,0,0,0,0c0,0,0,0,0,0c0,0,0,0,0,0c0,0,0,0,0,0
					c0,0,0,0,0,0c0,0,0,0-0.1,0c0,0,0,0,0,0l-1-0.2c0,0,0,0-0.1,0c0,0,0,0,0,0c0,0,0,0,0,0c0,0,0,0,0,0c0,0,0,0,0,0c0,0,0,0,0,0
					c0,0,0,0,0,0c0,0,0,0,0,0c0,0,0,0,0,0c0,0,0,0,0,0c0,0,0,0,0,0c0,0,0,0,0,0c0,0,0,0,0,0c0,0,0,0,0,0c0,0,0,0,0,0c0,0,0,0,0,0
					c0,0,0,0,0,0.1c0,0,0,0,0,0c-0.1,0.1-0.1,0.1-0.2,0.2c0,0,0,0,0,0c0,0,0,0,0,0.1c0,0,0,0,0,0c0,0,0,0,0,0.1c0,0,0,0,0,0
					c0,0,0,0,0,0l-0.3-0.1c0,0-0.1-0.2,0-0.4l0.4-1.7c0.1-0.2,0.2-0.4,0.2-0.4l0.3,0.1c0,0.2,0,0.4,0,0.6c0,0,0,0.1,0,0.1
					c0,0,0,0,0,0c0,0,0,0,0,0c0,0,0,0,0,0.1c0,0,0,0,0,0c0,0,0,0,0,0c0,0,0,0,0,0c0,0,0,0,0.1,0.1c0,0,0,0,0,0c0,0,0,0,0,0
					c0,0,0,0,0,0c0,0,0,0,0,0c0,0,0,0,0,0c0,0,0,0,0,0c0,0,0,0,0.1,0l1,0.2c0,0,0.1,0,0.1,0c0,0,0,0,0,0c0,0,0,0,0,0c0,0,0,0,0,0
					c0,0,0,0,0,0c0,0,0,0,0,0c0,0,0,0,0.1,0c0,0,0,0,0,0c0,0,0,0,0.1,0c0,0,0,0,0,0c0,0,0,0,0.1,0c0,0,0,0,0,0
					c0.1-0.1,0.2-0.2,0.3-0.3c0,0,0,0,0,0c0,0,0,0,0-0.1c0,0,0,0,0,0c0,0,0,0,0-0.1c0,0,0,0,0,0c0,0,0,0,0-0.1c0,0,0,0,0,0
					c0,0,0,0,0-0.1c0,0,0,0,0,0c0,0,0,0,0-0.1c0,0,0,0,0,0l0.3,0.1C175.9,57.7,176,57.9,175.9,58.1z"/>
			</g>
		</g>
	</g>
</g>
<path class="st1" d="M100.9,98.4h-1.8v-3.1h1.8V98.4z M100.9,92.1h-1.8V89h1.8V92.1z M100.9,85.9h-1.8v-3.1h1.8V85.9z M100.9,79.7
	h-1.8v-3.1h1.8V79.7z M100.9,73.4h-1.8v-3.1h1.8V73.4z M100.9,67.2h-1.8V64h1.8V67.2z M100.9,60.9h-1.8v-3.1h1.8V60.9z M100.9,54.7
	h-1.8v-3.1h1.8V54.7z M100.9,48.4h-1.8v-3.1h1.8V48.4z M100.9,42.2h-1.8v-3.1h1.8V42.2z M100.9,36h-1.8v-3.1h1.8V36z M100.9,29.7
	h-1.8v-3.1h1.8V29.7z M100.9,23.5h-1.8v-3.1h1.8V23.5z M100.9,18.4h-1.8v-4.3h1.8V18.4z M100.9,11h-1.8V7.9h1.8V11z M100.9,4.7h-1.8
	V1.6h1.8V4.7z"/>
<g>
	<path class="st2" d="M129.8,92.7l-0.4,2.2h-1.8l2.1-9.8h2.3l1.9,9.8H132l-0.4-2.2H129.8z M131.4,91.2l-0.3-2.1
		c-0.1-0.6-0.2-1.6-0.3-2.2h0c-0.1,0.7-0.2,1.7-0.3,2.2l-0.4,2H131.4z"/>
</g>
<g>
	<path class="st2" d="M135,94.9v-5.8h-1v-1.4h1v-0.3c0-0.8,0.2-1.5,0.7-2.1c0.4-0.4,1-0.7,1.7-0.7c0.5,0,0.9,0.1,1.1,0.2l-0.2,1.5
		c-0.1-0.1-0.3-0.1-0.6-0.1c-0.6,0-0.9,0.6-0.9,1.2v0.3h1.2v1.4h-1.2v5.8H135z"/>
</g>
<g>
	<path class="st2" d="M141.7,85.9v1.9h1.4v1.4h-1.4v3.2c0,0.8,0.3,1,0.7,1c0.2,0,0.3,0,0.5,0l0,1.5c-0.3,0.1-0.7,0.1-1.2,0.1
		c-0.6,0-1-0.1-1.4-0.5c-0.4-0.4-0.6-0.9-0.6-2v-3.4h-0.8v-1.4h0.8v-1.5L141.7,85.9z"/>
</g>
<g>
	<path class="st2" d="M145.5,92c0,1.1,0.7,1.5,1.5,1.5c0.5,0,1-0.1,1.4-0.2l0.3,1.4c-0.5,0.2-1.2,0.3-2,0.3c-1.9,0-3-1.3-3-3.5
		c0-2.4,1.2-3.8,2.9-3.8c1.5,0,2.4,1.2,2.4,3.4c0,0.5,0,0.8-0.1,1H145.5z M147.2,90.7c0-0.9-0.2-1.6-0.8-1.6c-0.6,0-0.9,0.9-0.9,1.6
		H147.2z"/>
</g>
<g>
	<path class="st2" d="M150,89.9c0-0.7,0-1.5-0.1-2.1h1.7l0.1,1h0c0.3-0.8,0.9-1.1,1.4-1.1c0.2,0,0.3,0,0.4,0v1.9c-0.1,0-0.2,0-0.4,0
		c-0.4,0-0.9,0.3-1.2,1c0,0.2-0.1,0.4-0.1,0.7v3.6H150V89.9z"/>
</g>
<g>
	<g>
		<path class="st2" d="M43.7,85.4c0.6-0.1,1.3-0.2,2.2-0.2c0.9,0,1.8,0.1,2.5,0.7c0.5,0.4,0.7,1.1,0.7,1.8c0,0.9-0.5,1.7-1.4,2.1
			v0.1c1.1,0.3,1.7,1.3,1.7,2.3c0,0.8-0.3,1.4-0.7,1.9c-0.6,0.6-1.6,1-3.2,1c-0.7,0-1.3,0-1.8-0.1V85.4z M45.6,89.3h0.4
			c0.7,0,1.2-0.6,1.2-1.4c0-0.7-0.3-1.3-1.1-1.3c-0.2,0-0.4,0-0.5,0.1V89.3z M45.6,93.6c0.1,0,0.2,0,0.4,0c0.8,0,1.4-0.5,1.4-1.5
			c0-1-0.7-1.5-1.4-1.5h-0.4V93.6z"/>
	</g>
	<g>
		<path class="st2" d="M52.2,92.2c0,1.1,0.7,1.5,1.5,1.5c0.5,0,1-0.1,1.4-0.2l0.3,1.4c-0.5,0.2-1.2,0.3-2,0.3c-1.9,0-3-1.3-3-3.5
			c0-2.4,1.2-3.8,2.9-3.8c1.5,0,2.4,1.2,2.4,3.4c0,0.5,0,0.8-0.1,1H52.2z M53.9,90.8c0-0.9-0.2-1.6-0.8-1.6c-0.6,0-0.9,0.9-0.9,1.6
			H53.9z"/>
	</g>
	<g>
		<path class="st2" d="M57,95.1v-5.8h-1v-1.4h1v-0.3c0-0.8,0.2-1.5,0.7-2.1c0.4-0.4,1-0.7,1.7-0.7c0.5,0,0.9,0.1,1.1,0.2l-0.2,1.5
			c-0.1-0.1-0.3-0.1-0.6-0.1c-0.6,0-0.9,0.6-0.9,1.2v0.3h1.2v1.4h-1.2v5.8H57z"/>
	</g>
	<g>
		<path class="st2" d="M65.9,91.5c0,3-1.6,3.7-2.7,3.7c-1.7,0-2.7-1.3-2.7-3.7c0-2.6,1.3-3.7,2.8-3.7C64.9,87.8,65.9,89.2,65.9,91.5
			z M62.4,91.5c0,1.2,0.2,2.2,0.9,2.2c0.6,0,0.8-1.2,0.8-2.2c0-1-0.2-2.2-0.8-2.2C62.5,89.3,62.4,90.5,62.4,91.5z"/>
	</g>
	<g>
		<path class="st2" d="M67,90.1c0-0.7,0-1.5-0.1-2.1h1.7l0.1,1h0c0.3-0.8,0.9-1.1,1.4-1.1c0.2,0,0.3,0,0.4,0v1.9c-0.1,0-0.2,0-0.4,0
			c-0.4,0-0.9,0.3-1.2,1c0,0.2-0.1,0.4-0.1,0.7v3.6H67V90.1z"/>
	</g>
	<g>
		<path class="st2" d="M72.8,92.2c0,1.1,0.7,1.5,1.5,1.5c0.5,0,1-0.1,1.4-0.2l0.3,1.4c-0.5,0.2-1.2,0.3-2,0.3c-1.9,0-3-1.3-3-3.5
			c0-2.4,1.2-3.8,2.9-3.8c1.5,0,2.4,1.2,2.4,3.4c0,0.5,0,0.8-0.1,1H72.8z M74.5,90.8c0-0.9-0.2-1.6-0.8-1.6c-0.6,0-0.9,0.9-0.9,1.6
			H74.5z"/>
	</g>
</g>
</svg>
