<?xml version="1.0" encoding="utf-8"?>
<!-- Generator: Adobe Illustrator 24.0.3, SVG Export Plug-In . SVG Version: 6.00 Build 0)  -->
<svg version="1.1" id="Layer_1" xmlns="http://www.w3.org/2000/svg" xmlns:xlink="http://www.w3.org/1999/xlink" x="0px" y="0px"
	 viewBox="0 0 200 100" style="enable-background:new 0 0 200 100;" xml:space="preserve">
<style type="text/css">
	.st0{fill:#58595B;}
	.st1{fill:#F9C0B2;}
	.st2{fill:#747678;}
	.st3{fill:#7F8388;}
	.st4{fill:#FFFFFF;}
	.st5{fill:#77787B;}
	.st6{fill:#828487;}
	.st7{fill:#848689;}
	.st8{fill:#747578;}
	.st9{fill:#737477;}
	.st10{fill:#A6938F;}
	.st11{fill:#A4A7A9;}
	.st12{fill:#848688;}
	.st13{fill:#EBECEC;}
	.st14{fill:#949699;}
	.st15{fill:#EEEFEF;}
	.st16{fill:#9B9DA0;}
	.st17{fill:#E6E7E8;}
	.st18{fill:#DCDDDE;}
	.st19{fill:#929497;}
	.st20{fill:#B9BBBD;}
	.st21{fill:#F0F0F1;}
	.st22{fill:#838587;}
	.st23{fill:#DADBDD;}
	.st24{fill:#8A8C8E;}
	.st25{fill:#DFE0E1;}
	.st26{fill:#E2E3E4;}
	.st27{fill:#A1A3A5;}
	.st28{fill:#FCFCFC;}
	.st29{fill:#DDDFE0;}
	.st30{fill:#A5A7AA;}
	.st31{fill:#E0E1E2;}
	.st32{fill:#9C9EA1;}
	.st33{fill:#9EA0A3;}
	.st34{fill:#D4D6D7;}
	.st35{fill:#BDBFC1;}
	.st36{fill:#BABCBE;}
	.st37{fill:#A6A8AB;}
	.st38{fill:#757779;}
	.st39{fill:#D9DBDC;}
	.st40{fill:#999B9D;}
	.st41{fill:#96999B;}
	.st42{fill:#B5B7B9;}
	.st43{fill:#AAACAF;}
	.st44{fill:#C0C1C3;}
	.st45{fill:#DDDEDF;}
	.st46{fill:#D4D5D6;}
	.st47{fill:#5A5C5F;}
</style>
<g>
	<path class="st0" d="M189.8,36.3c-0.3-3.8-0.8-7.6-1.2-11.4c-0.1-1-0.4-1.5-1.4-1.9c-5.4-2.3-10.9-4.3-16.5-6
		c-8.8-2.7-17.8-4.6-27-5.3c-4.1-0.3-8.1-0.4-12.2-0.2c-4.5,0.3-9,0.8-13.5,1.9c-5,1.2-9.9,2.8-14.5,5.3c-0.7,0.4-1.4,0.9-2.3,1.2
		v-2.5c0-0.2-0.2-0.4-0.4-0.4h-0.3c-0.1,0-0.2,0-0.3,0h-1c-0.2,0-0.4,0.2-0.4,0.4V20c-0.4-0.2-0.7-0.4-0.9-0.5
		c-1.7-1-3.4-1.8-5.1-2.6C83.9,13,74.6,11.5,65,11.3c-3.5-0.1-7,0.1-10.4,0.5c-5.4,0.5-10.8,1.4-16.1,2.7c-8.8,2.1-17.3,5-25.6,8.5
		c-0.9,0.4-1.3,1-1.4,1.9c-0.2,2.2-0.5,4.3-0.8,6.5c-0.4,3.8-0.8,7.5-0.8,11.3c0,3.1,0.9,6.1,3.1,8.4c1.1,1.2,1.8,2.4,1.9,4.1
		c0.3,3.4,1.1,6.7,1.7,10c0.6,3,1.1,6,2.1,8.9c0.7,2.1,1.6,4.2,3.3,5.7c1.7,1.6,3.9,1.9,6,0.7c0.4-0.3,0.9-0.5,1.3-0.8
		c0.3-0.2,0.5-0.3,0.9-0.3c1.9,0.3,3.5-0.4,5-1.3c2.5-1.6,5-3.3,7.1-5.4c0.4-0.4,0.6-0.5,1.2-0.2c3.1,1.8,6.5,2.7,10,3.1
		c2.1,0.3,4.2,0.2,6.3-0.3c1.9-0.5,3.5-1.5,4-3.7c0.6-2.4,1-4.7,1.2-7.1c0.2-1.6,0.2-3.3,0.5-4.9c0.4,0.2,0.8,0.3,1.2,0.4
		c0.3,0.1,0.4,0.3,0.4,0.6c0,0.8,0.1,1.6,0.1,2.3c0.1,3.8,0.6,7.5,1.2,11.2c0.2,1.1,0.7,2,1.7,2.6c0.6,0.4,1.1,0.7,1.8,0.9
		c1.5,0.5,3.1,0.8,4.7,0.8c5,0.2,9.8-0.5,14.6-2c2.4-0.7,4.6-1.6,6.7-3c0.3-0.2,0.4-0.6,0.9-0.5v2.7c0,0,0,0,0,0.1
		c0,0.1,0,0.1,0.1,0.2c0.1,0.1,0.2,0.1,0.3,0.1h1.6c0.2,0,0.4-0.2,0.4-0.4v0c0,0,0,0,0-0.1c0.1-0.3,0.3-0.1,0.4,0
		c2.3,1.3,4.7,1.8,7.3,2.2c0.3,0.1,0.7,0.1,1,0.1l3.6,0.4c0,0,0.2,0,0.5,0c0.8,0.1,1.6,0,2.4,0c1.3,0,2.9-0.1,4.3-0.3
		c0.2,0,0.4-0.1,0.5-0.1c1.3-0.2,2.3-0.5,3.9-0.9c1.7-0.5,3.3-1.1,4.8-2.2c0.7-0.5,1-1.3,1.6-1.9c1.2,0.7,2.3,1.4,3.6,1.7
		c2.8,0.7,5.7,1,8.6,0.8c2.9-0.2,5.7-0.6,8.3-2.1c0.4-0.2,0.6-0.1,0.9,0.2c1.5,1.8,3.4,3.1,5.2,4.5c1.7,1.3,3.7,1.8,5.9,1.3
		c1.3-0.3,2.4-1.1,3.5-1.9c0.6-0.5,0.6-0.5,1.1,0.1c1,1.2,2,2.3,3.4,3.1c2.1,1.2,4.3,0.9,6-0.7c1.7-1.6,2.7-3.6,3.2-5.9
		c-0.1-0.9-0.4-1-1.8-0.9c-0.2,0.1-0.4,0.3-0.6,0.5c-0.3,0.5-0.5,1.1-0.8,1.7c-0.4,0.9-0.9,1.8-1.7,2.5c-1.1,1.1-2.2,1.2-3.5,0.4
		c-0.9-0.5-1.5-1.3-2.2-2.1c-0.6-0.7-0.7-1.3-0.2-2.1c0.8-1.5,1.6-3.1,2.1-4.9c0.3-1.4,0.4-1.4,1.7-0.9c1,0.3,2,1,3.1,0.9
		c0.1-0.1,0.2-0.1,0.3-0.2c0.2-0.7,0.5-1.3,0.2-2c-0.4-0.5-1-0.7-1.5-0.9c-2.8-1-2.8-1-2.5-4c0.1-0.9,0.3-1.8,1-2.5
		c2-2.1,3.8-4.3,6.1-6.1c0.5-0.4,1-1.2,1.5-0.9c0.6,0.3,0.3,1.2,0.3,1.8c-0.4,2.6-0.9,5.3-1.4,7.9c-0.1,0.6-0.3,1.2,0,1.8
		c0.5,0.6,1.2,0.8,1.9,0.5c0.3-0.1,0.2-0.4,0.3-0.7c0.2-1.1,0.4-2.2,0.6-3.3c0.3-2,0.8-3.9,1-5.9c0.1-1.2,0.4-2.2,1.3-3
		c2.7-2.6,3.8-5.9,3.7-9.6C190.1,40.2,190,38.3,189.8,36.3z"/>
	<path class="st1" d="M188,41.4c-0.1-2.6-0.4-5.1-0.6-7.7c-0.2-2.5-0.6-5-0.9-7.6c-0.1-0.9-0.5-1.3-1.2-1.6
		c-5.7-2.3-11.5-4.4-17.4-6.1c-5.5-1.6-11-2.8-16.6-3.7c-3.5-0.5-7.1-0.9-10.6-1.1c-3.5-0.1-7-0.2-10.5,0c-4,0.3-7.9,0.8-11.8,1.8
		c-6.2,1.5-12.2,3.7-17.5,7.4c-0.8,0.5-1,0.5-1.8,0c-2.7-1.9-5.6-3.4-8.6-4.6c-7-2.8-14.3-4.3-21.8-4.6c-5.3-0.3-10.6-0.1-15.8,0.5
		c-6.6,0.8-13.1,2.1-19.6,3.9c-6.5,1.8-12.7,4.1-18.9,6.6c-0.5,0.2-0.8,0.5-0.9,1.1c-0.2,1.7-0.4,3.3-0.6,5c-0.2,2-0.5,4-0.6,6.1
		c-0.1,2.4-0.5,4.7-0.2,7.1c0.3,2.4,1.2,4.3,2.8,6.1c0.3,0.4,0.6,0.4,1,0.1c0.8-0.7,1.7-0.6,2.5-0.2c0.5,0.2,0.9,0.5,1.3,0.8
		c1.1,0.8,2.1,1.8,3.1,2.7c0.2,0.2,0.4,0.6,0.8,0.6c0.3-1.7,0.6-3.4,1-5c0.4-2,0.9-4,1.9-5.8c1-1.8,2.5-2.8,4.5-2.8
		c2.5,0,4.5,1.1,6.1,3c1.8,2.1,3.1,4.6,4.4,7c0.4,0.7,0.8,1.5,1.3,2.2c0.4-0.4,0.5-0.7,0.7-1.1c1-2.2,2.1-4.4,3.6-6.3
		c1.5-2,3.2-3.7,5.5-4.6c3.7-1.4,8-0.7,10.2,3.7c0.9,1.8,1.5,3.7,1.8,5.7c0.4,2.2,0.6,4.3,1.4,6.4c0.2,0.5,0.4,1.1,0.9,1.5
		c0.3-0.3,0.3-0.6,0.3-0.9c0-1.2,0.1-2.3,0.3-3.5c0.4-3,1.1-6,2.6-8.7c2.3-4.3,6-6.5,10.8-6.6c3.4-0.1,6.2,1.4,8.6,3.7
		c2.1,2,3.6,4.4,5,7c1.1,2.1,2,4.3,2.7,6.5c0.4,1.1,1,2.1,1.7,3c0.2,0.2,0.4,0.4,0.7,0.3c0.3-0.1,0.4-0.3,0.4-0.6
		c0.1-0.5,0.2-1.1,0.3-1.6h-1c-0.2,0-0.4-0.2-0.4-0.4V53c0-0.2,0.2-0.4,0.4-0.4h1.6c0.1,0,0.1,0,0.2,0.1c0.1-0.3,0.2-0.6,0.3-1
		c0.4-1.2,0.8-2.3,1.2-3.5c0.5-1.2,1-2.4,1.7-3.5c2.7-4.4,6.4-7,11.8-6.7c2.9,0.2,5.3,1.2,7.4,3.2c2.5,2.3,3.9,5.3,5.1,8.5
		c0.9,2.4,1.4,4.9,1.9,7.4c0.1,0.1,0.1,0.1,0.2,0c0.6-2.6,1.2-5.1,2.1-7.6c1.1-2.9,2.5-5.7,4.7-7.9c1.8-1.7,3.8-2.2,6.1-1.9
		c2.7,0.4,4.7,1.9,6.2,4.1c1.8,2.5,2.7,5.4,3.4,8.3c0.2,0.6,0.1,1.3,0.5,1.9c0.3-0.1,0.4-0.3,0.5-0.5c1.9-2.6,3.7-5.2,5.7-7.6
		c1.1-1.3,2.1-2.6,3.5-3.6c1.6-1.1,3.4-2,5.4-2c2.1,0,3.7,1.3,4.3,3.3c0.4,1.4,0.5,2.8,0.7,4.3c0.2,2.4,0,4.8,0.1,7.2
		c0,0.5-0.2,1,0,1.5c1.3-1.3,2.6-2.6,3.9-3.9c1.1-1.1,2.2-2.2,3.7-2.9c0.9-0.4,1.8-0.5,2.5,0.2c0.5,0.4,0.7,0.2,1.1-0.1
		C187.5,47.5,188.2,44.6,188,41.4z"/>
	<path class="st2" d="M177.5,68.9c-0.1-0.7,0.3-1.3,0.2-2c0.1-0.1,0.2-0.1,0.3-0.1c0.3,0,0.6,0.2,0.9,0.2c0.2,0,0.4,0.1,0.6,0.1
		c0.3,0.1,0.6,0.3,0.9,0c0.2-0.2,0.4-0.4,0.7-0.5c0.7-0.2,1.4-0.2,2,0.4c0.1,0.1,0.1,0.2,0.2,0.3c-0.1,1,0,2.1-0.8,2.9
		c-0.2-0.1-0.3-0.2-0.4-0.4c-0.1-0.2-0.1-0.5,0-0.7c0-0.1,0.1-0.1,0.2-0.2c-0.1,0-0.1-0.1-0.2,0c-1.1,0.1-0.9,1.1-1.1,1.7
		c0,0.5-0.4,1,0,1.6c0.6-0.4,0.5-1,0.7-1.5c0.1-0.3,0.2-0.6,0.5-0.7c0.1,0,0.2,0,0.3,0.2c0.2,1.3,0,2.4-0.8,3.4
		c-0.1,0.1-0.1,0.2-0.2,0.3c-0.4-0.8-1.2-0.6-1.8-0.7c-0.3-0.1-0.3-0.4-0.4-0.6c0-0.7,0.2-1.3,0.4-2c0.1-0.3,0.4-0.6,0.4-0.9
		c0-0.1,0.1-0.3,0.1-0.4c-0.1,0.3-0.1,0.6-0.4,0.7c-0.5-0.1-0.6-0.4-0.7-0.8c0-0.2,0-0.4-0.1-0.5c-0.3,0.2-0.2,0.5-0.5,0.7
		c-0.1,0.1-0.2,0.1-0.3,0.1C177.6,69.3,177.3,69.2,177.5,68.9z"/>
	<path class="st3" d="M182.2,70.1c0.5-0.9,0.5-1.9,0.7-2.9c0.1-0.1,0.2,0,0.3,0.1c0,0,0.1,0,0.1,0s0-0.1,0-0.1
		c-0.1-0.3,0.6-0.8-0.2-1c-0.1-0.1-0.2-0.1-0.2-0.3c0-0.5,0-1.1,0.4-1.5c0-0.2,0.1-0.3,0.2-0.5c0.1,0.3,0,0.6,0.4,0.7
		c0.8,0.4,0.9,0.7,0.7,1.5c-0.2,0.8-0.4,1.7-0.6,2.5c-0.3,1.1-0.3,2.2-0.5,3.3c-0.3,1.9-0.3,1.9-2.1,1.7
		C181.8,72.5,182.1,71.3,182.2,70.1L182.2,70.1z"/>
	<path class="st4" d="M78.6,76.3c-2,0-3.7-0.1-5.4-0.6c-0.6-0.2-1.1-0.3-1.6-0.7c-0.6-0.4-1-0.9-1.1-1.7c-0.4-2.4-0.7-4.8-0.9-7.2
		c-0.2-2.3-0.4-4.5-0.3-6.8c0.1-3.9,0.4-7.8,1.8-11.5c0.9-2.3,2.1-4.4,4.2-5.8c3.8-2.7,8.9-2.3,12.4,1c2.3,2.1,3.9,4.6,5.3,7.4
		c2.2,4.5,3.6,9.3,4.8,14.2c0.3,1.1,0.5,2.2,0.7,3.3c0.3,1.3-0.1,2.3-1.1,3.2c-1.7,1.4-3.7,2.2-5.7,2.9c-3.5,1.2-7.1,1.9-10.8,2.1
		C79.9,76.3,79.1,76.4,78.6,76.3z"/>
	<path class="st4" d="M63.2,57.9c-0.1,4.3-0.6,8.6-1.5,12.8c-0.2,1.1-0.9,1.8-1.9,2.2c-1.4,0.6-2.9,0.8-4.4,0.7
		c-3.4-0.1-6.7-0.9-9.8-2.3c-1.4-0.7-2.8-1.5-3.8-2.6c-0.7-0.8-1.1-1.7-0.8-2.8c1.3-5.2,2.9-10.4,5.3-15.3c1.2-2.4,2.6-4.6,4.5-6.4
		c1.6-1.4,3.3-2.3,5.5-2.2c1.5,0.1,2.8,0.7,3.7,1.9c1.4,1.9,2,4.1,2.4,6.3C63,52.8,63.3,55.3,63.2,57.9z"/>
	<path class="st4" d="M31,77.3c-1.7,0-2.8-0.7-3.6-1.8c-1.6-2.1-2.4-4.6-2.6-7.2c-0.4-7.4,0.7-14.6,2.6-21.8
		c0.2-0.8,0.5-1.6,0.9-2.4c0.9-1.5,2.3-2.1,4-1.5c1.7,0.5,3,1.7,4,3.1c1.6,2.4,2.9,4.9,4.4,7.4c1,1.6,1.1,2.9,0.4,4.7
		c-1,2.5-1.6,5.1-2.2,7.8c-0.4,1.7,0.1,3.1,1.2,4.3c0.1,0.2,0.3,0.3,0.5,0.5c0.3,0.3,0.3,0.5,0,0.8c-0.6,0.5-1.1,1-1.7,1.5
		c-1.7,1.4-3.5,2.6-5.4,3.8C32.7,77,31.7,77.3,31,77.3z"/>
	<path class="st4" d="M101.8,59.5c0.5-2.6,0.9-5.2,1.7-7.8c0.9-2.9,2.2-5.7,4.2-8.1c3.7-4.4,10.2-4.7,14.3-0.7c2,2,3.3,4.4,4.3,7.1
		c0.6,1.6,1.1,3.3,1.5,5.1c0.4,1.7,0.6,3.4,0.9,5.3c-2.4,0-4.9,0.1-7.3,0.1c-0.9,0.2-1-0.3-1.1-1c-0.1-0.9,0-1.8-0.1-2.7
		c0-0.5-0.1-1.1-0.7-1.2c-0.6-0.2-1.3-0.3-1.9,0.3c-1.4,1.4-3.5,1.4-5,0c-0.6-0.6-1.2-0.5-1.9-0.3c-0.6,0.1-0.8,0.7-0.8,1.3
		c0,0.9,0,1.7-0.1,2.6c-0.1,0.7-0.3,1.1-1.2,1.1c-2.1,0-4.2,0-6.2,0C101.8,60.6,101.6,60.2,101.8,59.5z"/>
	<path class="st4" d="M125.9,62.6c0.8,0,1.6,0,2.4,0c0.5,0,0.7,0.1,0.7,0.6c0.2,2.5,0.3,5.1,0.4,7.6c0,1.2-0.5,2-1.4,2.6
		c-1.6,1-3.4,1.5-5.2,1.8c-2.7,0.5-5.4,0.8-8.2,0.7c-3.3-0.1-6.6-0.4-9.8-1.4c-0.9-0.3-1.8-0.7-2.6-1.3c-0.7-0.5-1.1-1.1-1.1-2
		c0-2.7,0-5.3,0.3-8c0-0.2,0-0.4,0.2-0.5c2.5-0.2,5,0,7.5-0.1c0.5,0,0.6,0.3,0.5,0.7c0,0.2-0.1,0.4-0.2,0.6
		c-0.4,1.9,0.2,2.6,2.1,2.5c2.5,0,5,0,7.5,0c1.7,0,2-0.2,1.9-2c0-1.8,0-1.8,1.8-1.8C123.8,62.7,124.9,62.8,125.9,62.6z"/>
	<path class="st4" d="M137.9,60.4c-1.9,0-3.8,0-5.7,0c0.2-1.7,0.6-3.4,1-5.1c0.8-3.2,1.9-6.4,3.6-9.3c0.5-0.9,1.2-1.7,1.9-2.5
		c2.1-2.1,4.4-2.1,6.8-0.8c1.4,0.8,2.3,1.9,3.1,3.3c1,1.5,1.6,3.2,2.1,5c0.9,3.3,1.5,6.7,1.6,10.2c-1.2,0.1-2.4-0.3-3.6-0.3
		c-0.3-0.3-0.8,0-1.1-0.3c-0.5-0.9-0.2-1.9-0.2-2.9c0-0.7,0.2-1.4-0.6-1.7c-0.8-0.3-1.7-0.3-2.5,0.2c-1.5,1.1-1.5,1.1-3-0.2
		c-0.6-0.5-1.5-0.5-2.3-0.3c-0.7,0.2-0.8,0.9-0.9,1.5C138.2,58.3,138.6,59.4,137.9,60.4z"/>
	<path class="st4" d="M163.6,62.8c-2.3-0.3-4.6-0.7-7-0.9c-2-0.2-1.9-0.2-2.2-2.3c-0.3-1.6,0.2-2.8,1.1-4.1
		c2.5-3.4,4.9-6.9,7.7-10.1c1.3-1.5,2.9-2.6,4.9-2.9c1.6-0.3,2.5,0.3,3.1,1.8c0.4,1.2,0.5,2.4,0.6,3.7c0.2,3,0.1,6,0,9
		c0,0.7-0.1,1.5-0.2,2.2c-0.3,0.3-0.7,0.3-1.1,0.3c-0.7-0.1-1.3-0.3-1.9,0.3c-0.3,0.4-0.8,0.1-1-0.3c-0.4-1.1-1.4-0.8-2.2-0.9
		c-0.6-0.1-0.6,0.5-0.7,0.9c-0.3,1-0.2,2.2-0.8,3.2C163.8,62.9,163.7,62.9,163.6,62.8z"/>
	<path class="st4" d="M148.5,63c1.1,0.1,2.2,0.3,3.4,0.4c0.4,0.1,0.7,0.2,0.7,0.7c0.1,1.5,0.2,3,0.1,4.4c0,1-0.4,1.7-1.1,2.3
		c-0.6,0.5-1.3,0.9-2,1.2c-5.1,1.7-10.2,1.7-15.3-0.1c-0.5-0.2-1-0.5-1.4-0.8c-0.9-0.7-1.5-1.5-1.4-2.8c0.1-1.8,0.2-3.5,0.3-5.3
		c0-0.4,0.1-0.6,0.5-0.6c1.8,0,3.7-0.1,5.5,0.1c0.2,0.6-0.3,1.1-0.3,1.7c0,1.1,0.3,1.5,1.3,1.5c2.5,0,5.1,0.2,7.6,0.3
		c0.8,0,1.2-0.4,1.3-1.2c0-0.5,0-0.9,0-1.4C147.9,63.2,147.9,62.8,148.5,63z"/>
	<path class="st4" d="M169.7,69.9c-0.8,2-1.8,3.8-3.2,5.4c-1.1,1.2-2.4,2.1-4.2,2c-1,0-1.8-0.4-2.6-0.9c-1.8-1.2-3.4-2.6-4.9-4.1
		c-0.4-0.4-0.8-0.8-0.3-1.5c0.4-0.5,0.4-1.2,0.4-1.9c-0.1-1.6,0.1-3.3-0.2-5c3,0.3,5.8,0.7,8.6,1.1c0,0.1,0,0.1,0.1,0.2
		c0,0.1,0,0.2,0,0.3c-0.7,2.6-0.7,2.6,1.9,3.1c1.5,0.3,3,0.3,4.4,0.9C169.8,69.6,169.8,69.8,169.7,69.9z"/>
	<path class="st4" d="M27.2,78.4c-1.7,1.3-3.3,0.6-4.3-0.7c-1.3-1.7-2.1-3.6-2.6-5.6c-1.2-4.6-2-9.3-2.9-14
		c-0.3-1.6-0.7-3.2-0.6-4.9c0-0.5,0-0.9,0.3-1.4c0.9,0.2,1.5,0.8,2.2,1.4c1.1,1,2.2,2.1,3.3,3.2c0.5,0.4,0.5,0.9,0.5,1.5
		c-0.3,1.9-0.4,3.8-0.5,5.7c-0.1,1.6-0.1,3.2,0,4.8c0.2,2.8,0.9,5.4,2.4,7.7C25.6,77,26.4,77.7,27.2,78.4z"/>
	<path class="st4" d="M177.9,66.7c-0.1,0-0.2,0-0.2,0.1c-1.4-0.5-2.8-1.1-4.2-1.6c-0.4-0.1-0.5-0.3-0.4-0.7c0.2-0.7,0.3-1.4,0.3-2.1
		c0-1.3,0.4-2.4,1.4-3.4c2.1-2.2,4.2-4.4,6.5-6.4c0.4-0.3,0.8-0.7,1.5-0.8c0.5,0.9,0.4,2,0.2,2.9c-0.5,2.8-1,5.7-1.5,8.5
		c0,0.2,0,0.5-0.1,0.7c-0.1,0.1-0.1,0.2-0.2,0.2c-0.1,0.1-0.3,0.1-0.5,0.1c-1.9-0.1-1.9-0.1-2.4,1.7
		C178.3,66.2,178.3,66.6,177.9,66.7z"/>
	<path class="st5" d="M125.9,62.6c-0.5,0.3-1.1,0.1-1.7,0.1c-1.1,0-2.1,0-3.3,0c0.7,0.9,0.6,1.8,0.6,2.7c0,1-0.5,1.4-1.5,1.4
		c-3.2,0-6.4,0-9.5,0c-0.9,0-1.4-0.5-1.5-1.4c-0.1-0.9-0.1-1.8,0.6-2.6c-2.7,0-5.4,0-8,0c0.3-0.4,0.8-0.2,1.2-0.2c1.9,0,3.8,0,5.8,0
		c1,0,1.1-0.1,1.1-1.1c0-0.6-0.2-0.8-0.8-0.8c-1.8,0-3.6,0-5.4,0c-0.3,0-0.6,0-0.9,0c-1,0-1.1-0.1-0.7-1.2c0.1,1,0.1,1,1,1
		c2,0,3.9,0,5.9,0c0.9,0,0.9,0,1-1c0-0.9,0-1.9,0-2.8c0-1.1,0.5-1.5,1.6-1.6c0.4,0,0.7,0,1.1,0c0.4,0,0.8,0.1,0.8,0.6
		c0.1,0.6,0.5,0.7,1,0.7c0.6,0,1.2,0,1.8,0c0.7,0,1.3-0.1,1.4-0.9c0-0.2,0.1-0.3,0.3-0.3c0.8-0.1,1.7-0.3,2.5,0.1
		c0.4,0.2,0.6,0.7,0.6,1.2c0,1.1,0,2.2,0,3.3c0,0.5,0.2,0.7,0.7,0.7c-0.2,0.3-0.7,0.2-0.7,0.8c0,1.1,0,1.2,1.1,1.2
		C123.2,62.5,124.6,62.6,125.9,62.6z"/>
	<path class="st4" d="M179.2,73.6c-0.5,1.4-1.1,2.8-2,3.9c-1.4,1.7-2.8,2-4.6,0.7c-1-0.7-1.8-1.7-2.6-2.7c-0.3-0.4-0.3-0.8,0-1.3
		c1.3-2.2,2.3-4.5,2.7-7c1.6,0.4,3.1,1.2,4.6,1.6c0.5,0.7-0.1,1.3-0.2,1.9c-0.2,1.1-0.2,1.3,0.9,1.7
		C178.6,72.7,179.4,72.6,179.2,73.6z"/>
	<path class="st6" d="M148.5,63c-0.2,0-0.6,0-0.4,0.4c0.2,0.7,0.2,1.3,0.1,2c0,0.9-0.5,1.3-1.4,1.2c-2.8-0.1-5.6-0.2-8.4-0.2
		c-0.5,0-1-0.3-1.1-0.8c-0.1-1-0.5-2.1,0.5-2.9c0,0,0-0.1,0-0.1c0.6-0.7,0.6-1.3,0-2l0-0.1l0.1-0.1c0-1,0-2,0-3.1
		c0-1.7,0.5-2.2,2.2-2.1c0.4,0,0.8,0.1,1.2,0.1c0.4,0,0.6,0.2,0.6,0.6c0.1,0.6,0.5,0.7,1,0.7c0.5,0,1,0,1.1-0.6
		c0.1-0.5,0.4-0.6,0.9-0.6c0.4,0,0.9,0,1.3,0c1.4,0,2,0.7,1.8,2c-0.2,1.1-0.1,2.1-0.1,3.2c-0.3,0.3-0.4,0.6-0.4,1c0,0.4,0,0.8-0.4,1
		c-0.5-0.1-0.4-0.5-0.5-0.8c-0.1-0.5-0.4-0.7-0.9-0.7c-0.3,0-0.6-0.1-0.8-0.1c-1-0.2-2-0.2-3-0.1c-0.3,0-0.6,0-0.9-0.1
		c-1,0-0.6,1.1-1.1,1.4c-0.5,0.2-0.4-0.2-0.6-0.4c0,0.4,0.1,0.7,0.6,0.4c0.4-0.3,0.8-0.1,1.2,0c0.3,0,0.5,0.1,0.7,0.3
		c0.1,0.1,0.1,0.2,0.2,0.3c0.1,0.4,0.1,0.8,0.1,1.2c0,0.7,0.1,1.3,1,1.3c0.9,0,1.3-0.3,1.3-1.2c0-0.4,0-0.8,0.3-1.1
		c0.1-0.1,0.1-0.2,0.2-0.3c0.2-0.2,0.5-0.2,0.8-0.3c0.4,0,0.8,0,1.1,0.2c0.3,0.1,0.7-0.1,1,0.1C148.1,62.8,148.4,62.7,148.5,63z"/>
	<path class="st6" d="M163.7,62.7c0.2-1.1,0.4-2.2,0.6-3.2c0.2-1.1,0.6-1.4,1.7-1.2c0.3,0,0.6,0.1,0.9,0.2c0.5,0.1,1,0.2,0.9,0.9
		c0,0.2,0.1,0.4,0.3,0.4c0.1,0,0.3-0.1,0.4-0.3c0.2-0.7,0.7-0.6,1.2-0.5c0.6,0.1,1.2,0.3,1.9,0.3c0.4,1,0,2-0.1,3
		c-0.1,0.7-0.2,1.3-0.4,2c-0.3,0.2-0.4,0.8-0.9,0.8c-0.3-0.2-0.3-0.5-0.6-0.6c-0.2-0.1-0.5-0.2-0.7-0.2c-0.7-0.1-1.3-0.2-2-0.1
		c-0.3-0.1-0.4-0.4-0.7-0.4c-0.3,0.1-0.4,0.4-0.7,0.4c-0.2-0.1-0.4-0.3-0.6-0.4c-0.2-0.1-0.4,0.3-0.6,0.1
		C163.9,63.5,163.9,63.1,163.7,62.7z"/>
	<path class="st7" d="M179.2,73.6c0-0.4-0.1-0.6-0.5-0.7c-0.4-0.1-0.8-0.2-1.3-0.3c-0.9-0.2-1-0.5-0.9-1.3c0.1-0.6,0.1-1.2,0.6-1.8
		c0.2-0.2,0.2-0.4,0.1-0.7c0.1,0,0.2,0,0.2-0.1c0.1,0.2,0.3,0.3,0.5,0.3c0.2,0.2,0.4,0.1,0.6-0.1c0.2-0.1,0.3-0.3,0.5-0.2
		c0,0.4,0.1,0.8,0.5,1c0.1-0.1,0.2-0.4,0.4-0.2c0,0.4,0.1,0.7-0.3,1c-0.5,0.5-0.8,1.1-0.4,1.8c0,0.3,0.1,0.5,0.1,0.8
		C179.4,73.4,179.3,73.5,179.2,73.6z"/>
	<path class="st8" d="M170.2,64.9c0.2-0.3,0.3-0.8,0.9-0.7c-0.3,1.4-0.1,2.8-0.4,4.2c-0.1,0.7-0.4,1.2-1,1.5c-0.1,0-0.1-0.1-0.1-0.2
		c-0.2-0.3-0.1-0.6,0-0.9c0-0.1,0.1-0.2,0.1-0.3c0.4-0.8,0.5-1.6,0-2.5C169.7,65.6,169.8,65.2,170.2,64.9z"/>
	<path class="st2" d="M181.3,64c0-0.1,0.1-0.1,0.2-0.1c0.5,0.5,1.2,0.6,1.9,0.5c0.1,0.6,0,1.1-0.2,1.6c-1.2,0.7-1.9,0.4-2.2-1
		C180.9,64.7,181,64.3,181.3,64z"/>
	<path class="st9" d="M146.9,62.6c0.3-0.3,0.2-0.8,0.2-1.2c0-0.6,0.3-0.7,0.8-0.7c0.3,0.2,0.7,0,0.9,0.3c-0.9,0.2-0.9,0.2-1,1
		c0,0.3,0,0.5,0,0.8c-0.3,0.3-0.6-0.1-1,0C146.8,62.7,146.8,62.7,146.9,62.6C146.8,62.6,146.9,62.6,146.9,62.6z"/>
	<path class="st9" d="M163.7,62.7c0.4,0.2,0.6,0.6,0.6,1c0.2,0.2,0.2,0.4,0.2,0.6c-0.2,0.6-0.5,1-1.2,0.7l0,0c0-0.7,0.4-1.4,0.3-2.2
		C163.6,62.7,163.7,62.7,163.7,62.7z"/>
	<path class="st8" d="M137.9,60.5c0.2,0,0.5-0.1,0.6,0.1c0.2,0.6,0.2,1.1,0,1.7c-0.1,0.3-0.4,0.2-0.6,0.2
		C137.9,61.8,137.9,61.2,137.9,60.5z"/>
	<path class="st10" d="M130.4,57.1c0.1,0,0.1,0,0.2,0c0,0.1,0.1,0.3-0.1,0.3C130.4,57.3,130.4,57.2,130.4,57.1z"/>
	<path class="st7" d="M181.3,64c0,0.3,0,0.6,0,0.9c-0.1,0.1-0.1,0.2-0.2,0.2c-0.1,0.8-0.6,1.5-0.5,2.3c-0.5,0.5-0.8,0-1.2-0.2
		c-0.4-0.7,0.1-1.3,0-2c-0.5,0.6-0.2,1.4-0.7,2c-0.3,0-0.6-0.2-0.8-0.5c-0.1-0.8,0.2-1.5,0.4-2.3c0.2-0.7,0.4-0.9,1.2-0.8
		C180.1,63.8,180.7,63.9,181.3,64z"/>
	<path class="st11" d="M182.2,68.9c0,0.2,0,0.4-0.1,0.7c-0.1,0.2-0.1,0.4-0.2,0.5c0,0.2,0,0.5-0.3,0.7c-0.5,0.3-0.8,0.1-1.1-0.3
		c0-0.4,0.1-0.7,0.2-1c0.3-1.1,0.3-1.1,1.4-0.8C182.3,68.7,182.3,68.8,182.2,68.9C182.3,68.9,182.3,68.9,182.2,68.9z"/>
	<path class="st12" d="M180.6,70.5c0.4,0.1,0.8,0.2,1.1,0.3c0.1,0.5-0.1,0.9-0.2,1.4c-0.1,0.5-0.5,0.6-0.9,0.5
		c-0.4-0.1-0.5-0.4-0.4-0.8C180.4,71.4,180.5,71,180.6,70.5z"/>
	<path class="st13" d="M178.8,67.2c-0.3-0.8,0.1-1.5,0.3-2.3c0-0.3,0.2-0.5,0.6-0.5c0.4,0.1,0.4,0.3,0.3,0.6
		c-0.2,0.7-0.3,1.4-0.5,2.2C179.2,67.3,179,67.2,178.8,67.2z"/>
	<path class="st14" d="M181.1,64.9c0.1,0,0.1,0,0.2,0c0.1,1,0.2,1.1,1.1,1.2c0.3,0,0.5,0,0.8,0c0,0,0,0.1,0.1,0.1
		c0.2,0.4,0.1,0.7-0.3,0.9c-0.7-0.3-1.3-0.3-2-0.2C180.5,66.1,180.8,65.5,181.1,64.9z"/>
	<path class="st15" d="M182.9,67c0.1-0.3,0.2-0.6,0.3-0.9c0.4-0.1,0.3-0.6,0.8-0.6c0,0.7-0.2,1.3-0.4,2c-0.2,0.1-0.3,0.1-0.5,0
		c-0.1-0.1-0.2-0.2-0.2-0.3C182.9,67.2,182.9,67.1,182.9,67z"/>
	<path class="st16" d="M179.1,68.9c-0.2,0.1-0.2,0.3-0.2,0.5c-0.3,0-0.7,0.4-0.7-0.3c0-0.2,0-0.4,0-0.6c0-0.3,0-0.7,0.5-0.6
		c0.4,0,0.5,0.3,0.5,0.6C179.1,68.7,179.1,68.8,179.1,68.9z"/>
	<path class="st17" d="M181.1,64.9c0,0.6-0.1,1.3-0.2,1.9c-0.1,0.2-0.2,0.4-0.3,0.6c-0.1-0.1-0.2-0.2-0.2-0.2
		C180.4,66.4,180.2,65.5,181.1,64.9z"/>
	<path class="st18" d="M179.4,72.4c-0.7-0.7-0.5-1.6,0.4-1.8C179.6,71.2,179.5,71.8,179.4,72.4z"/>
	<path class="st19" d="M180.1,69.6c-0.1,0.1-0.3,0.2-0.4,0.2c0.1-0.5,0.2-1,0.4-1.8C180.3,68.8,180,69.2,180.1,69.6z"/>
	<path class="st20" d="M178.2,69.1c0.2,0.3,0.4,0.3,0.7,0.3c-0.5,0.3-0.7,0.3-0.9-0.2C178.1,69.2,178.1,69.1,178.2,69.1z"/>
	<path class="st3" d="M182,70.1c0-0.2,0-0.4,0.2-0.5c0,0.2,0,0.3,0,0.5c0,0,0,0,0,0C182.1,70.1,182.1,70.1,182,70.1z"/>
	<path class="st3" d="M182.2,68.9c0-0.1,0-0.2-0.1-0.2C182.2,68.7,182.3,68.8,182.2,68.9C182.3,68.9,182.3,68.9,182.2,68.9z"/>
	<path class="st15" d="M182.7,71.2c0.4,0.8,0.1,1.2-0.2,1.8C182.2,72.3,182.2,72.3,182.7,71.2z"/>
	<path class="st21" d="M182.8,70.7c-0.2-0.8,0.1-1.2,0.3-1.7C183.2,69.5,183.2,70,182.8,70.7z"/>
	<path class="st15" d="M183.2,67.5c0.2,0,0.3,0,0.5,0c0,0.2,0,0.5-0.3,0.5C183,68,183.2,67.7,183.2,67.5z"/>
	<path class="st22" d="M163.3,65c0.6,0,0.8-0.4,1-0.8c0.2,0.1,0.3,0.3,0.5,0.4c0.3,0.1,0.4-0.2,0.6-0.2c0.3,0.1,0.4,0.4,0.7,0.6
		c0.2,0.2,0.5,0.3,0.7,0.6c0.1,0.1,0.1,0.2,0.1,0.3c0.1,0.5-0.1,0.9-0.2,1.4c0,0.4-0.1,0.7,0.4,0.8c0.5,0.1,0.7-0.2,0.8-0.6
		c0.1-0.5,0.2-1.1,0.3-1.6c0.1-0.2,0.2-0.4,0.4-0.5c0.4-0.1,0.6,0.3,0.9,0.3c0.2,0.1,0.3,0.2,0.5,0.4c0.5,0.3,0.7,0.8,0.5,1.4
		c-0.1,0.4-0.2,0.9-0.5,1.3c-0.4-0.3-0.2-0.7-0.3-1c-0.3,0.5-0.1,0.8,0.3,1c0.1,0.4-0.1,0.7-0.3,1c-2.2-0.2-4.2-0.8-6.4-1.1
		c-0.5-0.1-0.9-0.5-0.8-1C162.6,66.7,162.6,65.7,163.3,65z"/>
	<path class="st21" d="M119.8,57.9c0,0.2,0,0.5,0,0.7c0,0.4,0.1,0.9-0.4,0.9c-0.5,0.1-1,0.2-1.3-0.4c-0.3-0.6-0.9-0.9-1.7-0.9
		c-0.8,0.1-1.6,0-2.5,0c-0.7,0-1.2,0.2-1.5,0.9c-0.3,0.7-0.8,0.5-1.3,0.4c-0.5-0.1-0.5-0.5-0.5-0.9c0-0.6,0-1.3,0-1.9
		c0-0.5,0.3-0.8,0.7-0.8c0.4,0,0.8-0.3,1.1,0.3c0.3,0.8,1.1,1.1,1.9,1c0.7,0,1.4,0,2.1,0c0.8,0,1.4-0.2,1.7-1
		c0.2-0.6,0.7-0.4,1.1-0.4c0.4,0,0.7,0.3,0.7,0.8C119.8,57.2,119.8,57.6,119.8,57.9C119.8,57.9,119.8,57.9,119.8,57.9z"/>
	<path class="st23" d="M117.4,62.8c0,1,0,2,0,3c-1.3,0.4-2.6,0.1-3.8,0.2c-0.3,0-0.5-0.2-0.5-0.5c0.1-1-0.2-1.9,0.2-2.9l0,0
		C114.5,61.8,116.6,61.9,117.4,62.8z"/>
	<path class="st24" d="M117.4,62.8c-0.5-0.3-1.1-0.2-1.7-0.2c-0.8,0-1.6,0-2.5,0c-0.2-2.4,0-1.9,1.8-1.9c0.6,0,1.2,0,1.8,0
		c0.4,0,0.7,0.2,0.7,0.6C117.4,61.8,117.4,62.3,117.4,62.8z"/>
	<path class="st25" d="M118.2,64.8c0-1.2,0-1.2,1.1-1.2c1.2,0,1.3,0.1,1.3,1.2c0,1-0.2,1.2-1.4,1.2C118.2,66,118.2,66,118.2,64.8z"
		/>
	<path class="st26" d="M112.2,64.8c0,1.2,0,1.2-1,1.2c-1.1,0-1.3-0.2-1.3-1.3c0-1,0.1-1.1,1.2-1.1C112.2,63.6,112.2,63.6,112.2,64.8
		z"/>
	<path class="st27" d="M119.8,61.7c-0.1,0.4,0.3,1-0.6,1.1c-0.8,0.1-1.1-0.1-1.1-0.9c0-0.2,0-0.4,0-0.6c0.1-0.6,0.2-0.8,0.9-0.8
		c0.5,0,0.8,0.2,0.8,0.8C119.8,61.3,119.8,61.5,119.8,61.7z"/>
	<path class="st27" d="M110.6,61.6c0-1,0.1-1.1,0.9-1.1c0.5,0,0.8,0.3,0.8,0.8c0,0.2,0,0.5,0,0.7c-0.1,0.6-0.2,0.8-0.9,0.8
		c-0.6,0-0.7-0.1-0.8-0.8C110.6,61.8,110.6,61.7,110.6,61.6z"/>
	<path class="st28" d="M113.3,59.3c1.3-0.3,2.5-0.3,3.8,0C116.2,59.7,114.3,59.7,113.3,59.3z"/>
	<path class="st24" d="M113.2,62.6c0,0.9,0,1.8-0.1,2.7c0,0.4,0.2,0.7,0.6,0.6c1.2,0,2.4,0.1,3.6-0.1c-0.1,0.1-0.1,0.2-0.2,0.2
		c-1.2,0.2-2.5,0.1-3.7,0c-0.2,0-0.4-0.1-0.4-0.3C113,64.7,112.7,63.6,113.2,62.6z"/>
	<path class="st21" d="M147.1,58c0,0.4,0,0.7,0,1.1c0,0.3-0.2,0.6-0.6,0.6c-0.3,0-0.6,0-0.8-0.4c-0.3-0.8-0.9-1-1.7-0.9
		c-0.4,0-0.9,0-1.3,0c-0.7-0.1-1.2,0.1-1.6,0.7c-0.2,0.3-0.4,0.6-0.8,0.5c-0.4-0.1-0.5-0.4-0.5-0.8c0-0.6,0-1.2,0-1.8
		c0-0.4,0.1-0.7,0.5-0.8c0.4,0,0.7,0,0.9,0.4c0.3,0.7,0.8,0.9,1.5,0.9c0.3,0,0.7,0,1.1,0c0.9,0.2,1.6,0.1,2.1-0.9
		c0.2-0.4,0.4-0.4,0.8-0.3c0.3,0.1,0.4,0.3,0.4,0.6C147.1,57.3,147.1,57.7,147.1,58C147.1,58,147.1,58,147.1,58z"/>
	<path class="st29" d="M144.9,62.8c-0.2,0.7-0.1,1.5-0.1,2.2c0,0.4-0.2,0.6-0.6,0.6c-0.6,0-1.2,0-1.9,0c-0.5,0-0.7-0.2-0.7-0.7
		c0-0.7,0.1-1.4,0.1-2.1C142.5,61.9,143.7,61.9,144.9,62.8z"/>
	<path class="st30" d="M144.9,62.8c-0.7,0-1.4-0.3-2.1-0.2c-0.4,0-0.8,0-1.1,0.2c0-0.1,0-0.2-0.1-0.3c-0.5-0.6-0.5-1.2,0-1.9
		c1.1-0.4,2.2-0.3,3.3,0c0.5,0.7,0.5,1.4,0.1,2.1C145,62.8,144.9,62.8,144.9,62.8z"/>
	<path class="st26" d="M145.7,64.8c0-0.3,0-0.4,0-0.5c0-0.4-0.1-0.8,0.6-0.8c0.8,0,1.1,0.2,1.1,0.9c0,0.2,0,0.4-0.1,0.6
		c-0.1,0.7-0.8,1.1-1.4,0.8C145.5,65.5,145.7,65,145.7,64.8z"/>
	<path class="st31" d="M140.8,64.5c0,1-0.1,1.1-0.8,1.1c-0.8,0-0.9-0.2-0.9-1.2c0-0.9,0.1-1,0.9-1C140.7,63.3,140.8,63.4,140.8,64.5
		z"/>
	<path class="st32" d="M146.9,62.6c0,0.1,0,0.1,0,0.2c-0.4,0-0.8,0-1.1-0.3c-0.5-0.5-0.5-1.1,0-1.6c1-0.4,1.1-0.3,1.1,0.6
		C146.9,61.9,146.9,62.2,146.9,62.6z"/>
	<path class="st33" d="M139.8,62.3c0-0.2,0-0.5,0-0.7c0-1.1,0-1.1,1.1-1.2c0.5,0.7,0.6,1.4,0,2.1C140.6,62.5,140.2,62.3,139.8,62.3
		L139.8,62.3z"/>
	<path class="st8" d="M145.7,60.9c0,0.5,0,1.1,0,1.6c-0.2,0.3-0.4,0.3-0.7,0.3c-0.1-0.7,0-1.4-0.1-2.1
		C145.3,60.7,145.5,60.7,145.7,60.9z"/>
	<path class="st8" d="M140.9,62.6c0-0.7,0-1.4,0-2.1c0.2,0.1,0.5,0.2,0.7,0.2c0,0.6,0,1.2,0,1.9C141.4,62.6,141.2,62.6,140.9,62.6z"
		/>
	<path class="st8" d="M139.8,62.3c-0.8,0.3-1,0.2-0.8-0.5c0.1-0.4,0-0.9,0.3-1.3C139.9,61,139.3,61.9,139.8,62.3
		C139.8,62.3,139.8,62.3,139.8,62.3z"/>
	<path class="st34" d="M142.2,59.4c0.5-0.1,1-0.2,1.6,0.1C142.9,59.7,142.9,59.7,142.2,59.4z"/>
	<path class="st35" d="M139,56.7c0.1,0.5,0.1,1,0,1.4C138.8,57.6,138.9,57.1,139,56.7z"/>
	<path class="st36" d="M138.3,64.9c-0.3-0.4-0.1-0.8-0.1-1.1C138.5,64.1,138.4,64.4,138.3,64.9z"/>
	<path class="st15" d="M166.2,62.5c-0.3-1.1,0.1-2,0.3-3c0-0.1,0.2-0.2,0.3-0.1c0.1,0,0.2,0.1,0.2,0.2c0.1,0.4,0.1,0.9,0.6,1.1
		c0.6,0.2,1.2,0.3,1.8,0.4c0.5,0,0.8-0.3,1-0.7c0.1-0.1,0.2-0.2,0.4-0.1c0.1,0.1,0.3,0.2,0.2,0.4c-0.2,0.8-0.3,1.6-0.5,2.4
		c0,0.1-0.1,0.3-0.3,0.3c-0.1,0-0.2-0.1-0.2-0.2c-0.1-1.1-1-1.2-1.8-1.4C167.3,61.4,166.7,61.7,166.2,62.5z"/>
	<path class="st37" d="M168.8,65.4c-0.2,0.1-0.2,0.3-0.2,0.5c-0.7,0.4-1.3,0.2-1.8-0.2c0,0-0.1,0-0.1,0c-0.2-0.6-0.2-1.1,0.4-1.6
		c0.2-0.3,0.4-0.6,0.8-0.4c0.4,0.2,0.9,0.1,1.2,0.4c0.1,0.1,0.1,0.1,0.1,0.3c0,0.3,0,0.5-0.1,0.8C169,65.2,168.9,65.3,168.8,65.4z"
		/>
	<path class="st38" d="M166.9,64c0,0.6-0.1,1.1-0.4,1.6c-0.2-0.2-0.5-0.2-0.6-0.5c-0.4-0.7,0-1.3,0.3-1.9
		C166.8,63.2,166.9,63.5,166.9,64z"/>
	<path class="st38" d="M169,64.2c0-0.1,0-0.1,0-0.2c0.4-0.4,0.6-0.3,0.8,0.2c0.4,0.6,0.2,1.1-0.2,1.6c-0.5,0.3-0.7-0.1-0.7-0.5
		c0-0.1,0-0.3,0-0.4C169,64.7,168.8,64.4,169,64.2z"/>
	<path class="st2" d="M165.5,64.4c-0.1,0.1-0.2,0.2-0.2,0.3c-0.1,0.7-0.4,0.6-0.8,0.2c-0.2-0.5,0-1,0.3-1.4c0.2-0.1,0.2-0.5,0.5-0.3
		c0.3,0.2,0.1,0.5,0.2,0.8C165.6,64.1,165.6,64.3,165.5,64.4z"/>
	<path class="st39" d="M164.9,62c0-1,0.1-2,0.6-2.9C165.5,60.1,165.4,61.1,164.9,62z"/>
	<path class="st40" d="M169.5,65.9c0.1-0.5,0.2-1.1,0.2-1.6c0.8-0.2,0.3,0.5,0.5,0.7c-0.1,0.4-0.2,0.8-0.3,1.1
		C169.8,66.1,169.6,66,169.5,65.9z"/>
	<path class="st40" d="M165.5,64.4c0-0.2,0-0.3,0-0.5c0.3-0.2,0.2-0.7,0.7-0.7c0.1,0.6-0.2,1.2-0.3,1.9
		C165.5,65.1,165.5,64.8,165.5,64.4z"/>
	<path class="st41" d="M164.8,63.5c-0.1,0.5-0.2,0.9-0.3,1.4c-0.3-0.2-0.2-0.5-0.2-0.7c0-0.2,0-0.3,0-0.5c0.1-0.1,0.1-0.2,0.2-0.3
		c0.1-0.1,0.1-0.2,0.2-0.2C164.7,63.3,164.8,63.4,164.8,63.5z"/>
	<path class="st42" d="M167.5,62.6c0.1,0,0.1-0.1,0.2-0.1c0.1,0,0.2,0.1,0.1,0.2c0,0-0.1,0.1-0.2,0.1
		C167.5,62.7,167.5,62.6,167.5,62.6z"/>
	<path class="st43" d="M169.6,59.9c0,0.1-0.1,0.1-0.1,0.2c-0.1,0.1-0.2,0-0.2-0.1c0-0.1,0-0.2,0.1-0.2
		C169.5,59.8,169.5,59.8,169.6,59.9z"/>
	<path class="st44" d="M169,62.8c0,0.1,0,0.1-0.1,0.2c0,0-0.1-0.1-0.1-0.1C168.8,62.8,168.9,62.8,169,62.8
		C168.9,62.7,169,62.8,169,62.8z"/>
	<path class="st25" d="M177.8,72c-0.3,0-0.5-0.2-0.5-0.4c0-0.4,0.1-0.8,0.3-1.1c0.1-0.3,0.7-0.2,0.8,0c0.1,0.1-0.2,1.3-0.3,1.4
		C178,71.9,177.9,72,177.8,72z"/>
	<path class="st14" d="M182.7,65.3c-0.1,0-0.1,0.1-0.2,0.1c-0.1,0-0.1-0.1-0.2-0.1c0.1,0,0.1-0.1,0.2-0.1
		C182.6,65.2,182.7,65.2,182.7,65.3z"/>
	<path class="st45" d="M166.7,65.6c0.6-0.1,1.2,0.1,1.8,0.2c0.1,0.6-0.2,1.2-0.3,1.8c-0.1,0.9-0.2,0.9-1.2,0.7
		c-0.9-0.2-0.9-0.2-0.7-1.1C166.5,66.8,166.6,66.2,166.7,65.6z"/>
	<path class="st25" d="M170,68.7c-0.9,0.3-1,0.2-0.9-0.5c0-0.3,0.1-0.7,0.2-1c0.1-0.2,0.2-0.3,0.4-0.3c0.2,0.1,0.5,0.2,0.4,0.4
		C170,67.8,169.9,68.2,170,68.7C169.9,68.7,170,68.7,170,68.7z"/>
	<path class="st31" d="M164.5,67.4c0.1-0.4,0.2-0.8,0.3-1.1c0.1-0.3,0.3-0.3,0.6-0.2c0.2,0.1,0.3,0.2,0.3,0.4
		c-0.1,0.4-0.1,0.8-0.2,1.1c-0.1,0.3-0.2,0.5-0.5,0.4C164.6,67.9,164.5,67.7,164.5,67.4z"/>
	<path class="st46" d="M163.4,67.8c-0.1-0.8,0.1-1.3,0.4-1.8C163.9,66.5,163.9,67.1,163.4,67.8z"/>
	<path class="st6" d="M169,64.2c0,0.3,0,0.5-0.2,0.7C168.8,64.7,168.8,64.4,169,64.2z"/>
	<path class="st47" d="M100.9,96.8H99c-0.1,0-0.2-0.1-0.2-0.2v-3.3c0-0.1,0.1-0.2,0.2-0.2h1.9c0.1,0,0.2,0.1,0.2,0.2v3.3
		C101.1,96.7,101,96.8,100.9,96.8z"/>
	<path class="st47" d="M100.9,89.8H99c-0.1,0-0.2-0.1-0.2-0.2v-3.3c0-0.1,0.1-0.2,0.2-0.2h1.9c0.1,0,0.2,0.1,0.2,0.2v3.3
		C101.1,89.8,101,89.8,100.9,89.8z"/>
	<path class="st47" d="M100.9,82.9H99c-0.1,0-0.2-0.1-0.2-0.2v-3.3c0-0.1,0.1-0.2,0.2-0.2h1.9c0.1,0,0.2,0.1,0.2,0.2v3.3
		C101.1,82.8,101,82.9,100.9,82.9z"/>
	<path class="st47" d="M100.9,6.9H99c-0.1,0-0.2-0.1-0.2-0.2V3.4c0-0.1,0.1-0.2,0.2-0.2h1.9c0.1,0,0.2,0.1,0.2,0.2v3.3
		C101.1,6.8,101,6.9,100.9,6.9z"/>
	<path class="st47" d="M100.9,13.8H99c-0.1,0-0.2-0.1-0.2-0.2v-3.3c0-0.1,0.1-0.2,0.2-0.2h1.9c0.1,0,0.2,0.1,0.2,0.2v3.3
		C101.1,13.7,101,13.8,100.9,13.8z"/>
	<path class="st47" d="M100.9,34.5H99c-0.1,0-0.2-0.1-0.2-0.2V31c0-0.1,0.1-0.2,0.2-0.2h1.9c0.1,0,0.2,0.1,0.2,0.2v3.3
		C101.1,34.4,101,34.5,100.9,34.5z"/>
	<path class="st47" d="M100.9,27.7H99c-0.1,0-0.2-0.1-0.2-0.2v-3.3c0-0.1,0.1-0.2,0.2-0.2h1.9c0.1,0,0.2,0.1,0.2,0.2v3.3
		C101.1,27.6,101,27.7,100.9,27.7z"/>
	<path class="st47" d="M100.9,41.5H99c-0.1,0-0.2-0.1-0.2-0.2V38c0-0.1,0.1-0.2,0.2-0.2h1.9c0.1,0,0.2,0.1,0.2,0.2v3.3
		C101.1,41.4,101,41.5,100.9,41.5z"/>
	<path class="st47" d="M100.9,48.4H99c-0.1,0-0.2-0.1-0.2-0.2V45c0-0.1,0.1-0.2,0.2-0.2h1.9c0.1,0,0.2,0.1,0.2,0.2v3.3
		C101.1,48.3,101,48.4,100.9,48.4z"/>
</g>
</svg>
