<svg id="Layer_1" data-name="Layer 1" xmlns="http://www.w3.org/2000/svg" viewBox="0 0 86.4 88.89"><defs><style>.cls-1{fill:#dcdcdc;}</style></defs><title>clockIconnew</title><path class="cls-1" d="M77.85,39.08l-.51-.66-.13,0a.46.46,0,0,1-.23-.12l-.11-.1h-.72L71.08,39.5l-.38.19v.14l-.09,0-.17.25a1.62,1.62,0,0,0,.28,1.95,5,5,0,0,0,.68.45l.18,0h.37l.35-.09c4-1,5-1.31,5.24-1.53l.07-.07A2.13,2.13,0,0,0,78,39.6Z" transform="translate(-2 -2.03)"/><path class="cls-1" d="M74.94,54.55a9.75,9.75,0,0,0-3.4-1.09h-.12a1.69,1.69,0,0,0-1.37,1.44,1.53,1.53,0,0,0,1,1.62c.85.27,1.69.5,2.49.71a1.45,1.45,0,0,0,.35,0,1.58,1.58,0,0,0,1.41-.85A1.52,1.52,0,0,0,75,54.61Z" transform="translate(-2 -2.03)"/><polygon class="cls-1" points="34.02 49.27 33.35 48.94 33.33 48.97 34.02 49.27"/><polygon class="cls-1" points="40.41 54.37 40.41 55.12 40.42 55.12 40.41 54.37"/><polygon class="cls-1" points="39.48 54.45 39.48 54.45 39.99 53.9 39.48 54.45"/><polygon class="cls-1" points="45.33 45.65 46.08 45.65 46.08 45.64 45.33 45.65"/><polygon class="cls-1" points="46.27 54.6 47.02 54.59 46.27 54.59 46.27 54.6"/><polygon class="cls-1" points="46.14 54.94 46.14 54.95 46.89 54.94 46.14 54.94"/><polygon class="cls-1" points="46.2 56.14 46.2 55.39 46.19 55.39 46.2 56.14"/><polygon class="cls-1" points="46.59 53.76 46.59 53.77 47.34 53.76 46.59 53.76"/><path class="cls-1" d="M54.73,78.21c-.17-.72-.94-3.75-1.17-4.55a1.55,1.55,0,0,0-1.9-1.1,1.57,1.57,0,0,0-1.11,1.88c.37,1.54.76,3.07,1.17,4.58a1.53,1.53,0,0,0,1.5,1.24,1.36,1.36,0,0,0,.29,0l.11,0a1.57,1.57,0,0,0,1.14-1.89A.39.39,0,0,0,54.73,78.21Z" transform="translate(-2 -2.03)"/><path class="cls-1" d="M39,16.27a1.58,1.58,0,0,0-.63-1,1.59,1.59,0,0,0-2.2.34,1.6,1.6,0,0,0-.29,1.18c0,.07,0,.14,0,.19.35,1.47.75,3,1.17,4.61a1.58,1.58,0,0,0,.71,1,1.53,1.53,0,0,0,.82.23,1.41,1.41,0,0,0,.4-.05A1.55,1.55,0,0,0,40,22a1.61,1.61,0,0,0,.14-1.24C40,20,39.2,17,39,16.27Z" transform="translate(-2 -2.03)"/><path class="cls-1" d="M20.19,53.41a1.73,1.73,0,0,0-1.65-.58l-1.57.4L13.91,54a1.43,1.43,0,0,0-1.12,1,1.57,1.57,0,0,0,1,2,1.54,1.54,0,0,0,.52.09A1.47,1.47,0,0,0,14.7,57c.64-.15,1.27-.31,1.9-.48s1.49-.38,2.24-.55a1.88,1.88,0,0,0,1.66-1.45v-.09A2.58,2.58,0,0,0,20.19,53.41Z" transform="translate(-2 -2.03)"/><path class="cls-1" d="M27.7,27.36A11.18,11.18,0,0,0,25.39,25a1.43,1.43,0,0,0-1.92.31,1.54,1.54,0,0,0-.1,1.95,17.18,17.18,0,0,0,2,2v0a1.57,1.57,0,0,0,1,.33,1.6,1.6,0,0,0,.89-.27,1.68,1.68,0,0,0,.64-1.76A1.11,1.11,0,0,0,27.7,27.36Z" transform="translate(-2 -2.03)"/><path class="cls-1" d="M38.34,72.37a1.58,1.58,0,0,0-1.87,1,16.28,16.28,0,0,0-.73,2.7,1.55,1.55,0,0,0,1.33,1.75h.21a1.57,1.57,0,0,0,1.45-1c.31-.94.56-1.84.75-2.67A1.53,1.53,0,0,0,38.34,72.37Z" transform="translate(-2 -2.03)"/><path class="cls-1" d="M53.68,16.11a1.59,1.59,0,0,0-1.85,1,15.53,15.53,0,0,0-.66,2.73,1.57,1.57,0,0,0,1.43,1.69h.14a1.44,1.44,0,0,0,.41-.05h0a1.59,1.59,0,0,0,1-1,26.4,26.4,0,0,0,.68-2.68A1.54,1.54,0,0,0,53.68,16.11Z" transform="translate(-2 -2.03)"/><path class="cls-1" d="M67.13,67.76c-.39-.44-.82-.87-1.26-1.32l-.33-.33h0a1.66,1.66,0,0,0-1.63-.43,1.59,1.59,0,0,0-1,2,1.7,1.7,0,0,0,.36.61A19.34,19.34,0,0,0,64.91,70a1.57,1.57,0,0,0,1.1.45,1.56,1.56,0,0,0,1.12-2.65Z" transform="translate(-2 -2.03)"/><path class="cls-1" d="M19.67,38.76A26.89,26.89,0,0,0,17.06,38a1.57,1.57,0,0,0-.82,3,22.19,22.19,0,0,0,2.57.72l.29,0a1.55,1.55,0,0,0,1.52-1.26,1.64,1.64,0,0,0-.95-1.78Z" transform="translate(-2 -2.03)"/><path class="cls-1" d="M25.58,65a1.52,1.52,0,0,0-.9.49c-.44.4-.86.81-1.29,1.23l-.37.36a1.57,1.57,0,0,0-.15,2.21l.07.08a1.56,1.56,0,0,0,1.15.5,1.71,1.71,0,0,0,1.16-.48c.57-.52,1.12-1.06,1.67-1.6a1.42,1.42,0,0,0,.44-1.51A1.55,1.55,0,0,0,25.58,65Z" transform="translate(-2 -2.03)"/><path class="cls-1" d="M71.72,27.59a1.56,1.56,0,0,0-1.86-1.16,1.62,1.62,0,0,0-.73.39l-1,.87-.71.64a1.58,1.58,0,0,0,.89,2.88,1.59,1.59,0,0,0,.88-.27,1.3,1.3,0,0,0,.29-.27c.37-.31.74-.64,1.11-1l.63-.57A1.49,1.49,0,0,0,71.72,27.59Z" transform="translate(-2 -2.03)"/><path class="cls-1" d="M70.46,12.76l.74-1.92q1.06-2.71,2.11-5.45A2.31,2.31,0,0,0,73,2.86,2.29,2.29,0,0,0,71.05,2a2.68,2.68,0,0,0-2,1.45L65.5,9.67A43.16,43.16,0,0,0,3.6,59.34,43.25,43.25,0,0,0,45.11,90.93a43.62,43.62,0,0,0,11.67-1.61A43.16,43.16,0,0,0,70.46,12.76ZM48.07,57.52l-.18.37s-11.13-8.12-14.51-11c1.85.58,11.23,4.2,11.23,4.2a2.66,2.66,0,0,0,2.94-.58l.18-.26c.26-.5,6.74-12,11.18-19.78C55.27,39.93,48.85,55.64,48.07,57.52ZM44.58,46.24,27.06,40.76a2.23,2.23,0,0,0-2.67,1.12,2.3,2.3,0,0,0,.42,2.79c.12.13,1.47,1.26,8.45,7.1C39,56.6,46.24,62.62,47,63.3a2.73,2.73,0,0,0,2.53.8,2.7,2.7,0,0,0,1.82-1.86c.49-1.4,17-44,17-44a37.53,37.53,0,0,1,7.11,51.66,37.64,37.64,0,0,1-30.3,15.39h0a37.55,37.55,0,0,1,0-75.1h0a37.7,37.7,0,0,1,17.56,4.36C61.94,15.87,46.11,43.54,44.58,46.24Z" transform="translate(-2 -2.03)"/></svg>