<?xml version="1.0" encoding="utf-8"?>
<!-- Generator: Adobe Illustrator 24.0.3, SVG Export Plug-In . SVG Version: 6.00 Build 0)  -->
<svg version="1.1" id="Layer_1" xmlns="http://www.w3.org/2000/svg" xmlns:xlink="http://www.w3.org/1999/xlink" x="0px" y="0px"
	 viewBox="0 0 100 100" style="enable-background:new 0 0 100 100;" xml:space="preserve">
<style type="text/css">
	.st0{clip-path:url(#SVGID_2_);fill:url(#SVGID_3_);}
	.st1{clip-path:url(#SVGID_5_);fill:url(#SVGID_6_);}
	.st2{clip-path:url(#SVGID_8_);fill:url(#SVGID_9_);}
	.st3{filter:url(#Adobe_OpacityMaskFilter);}
	.st4{fill:url(#SVGID_11_);}
	.st5{mask:url(#SVGID_10_);fill-rule:evenodd;clip-rule:evenodd;fill:#0064FF;}
	.st6{filter:url(#Adobe_OpacityMaskFilter_1_);}
	.st7{fill:url(#SVGID_13_);}
	.st8{mask:url(#SVGID_12_);fill-rule:evenodd;clip-rule:evenodd;fill:#0091EA;}
	.st9{filter:url(#Adobe_OpacityMaskFilter_2_);}
	.st10{fill:url(#SVGID_15_);}
	.st11{mask:url(#SVGID_14_);fill-rule:evenodd;clip-rule:evenodd;fill:#0064FF;}
	.st12{filter:url(#Adobe_OpacityMaskFilter_3_);}
	.st13{fill:url(#SVGID_17_);}
	.st14{mask:url(#SVGID_16_);fill-rule:evenodd;clip-rule:evenodd;fill:#00FFFF;}
	.st15{filter:url(#Adobe_OpacityMaskFilter_4_);}
	.st16{fill:url(#SVGID_19_);}
	.st17{mask:url(#SVGID_18_);fill-rule:evenodd;clip-rule:evenodd;fill:#00FFFF;}
	.st18{filter:url(#Adobe_OpacityMaskFilter_5_);}
	.st19{fill:url(#SVGID_21_);}
	.st20{mask:url(#SVGID_20_);fill-rule:evenodd;clip-rule:evenodd;fill:#324BC8;}
	.st21{filter:url(#Adobe_OpacityMaskFilter_6_);}
	.st22{fill:url(#SVGID_23_);}
	.st23{mask:url(#SVGID_22_);fill-rule:evenodd;clip-rule:evenodd;fill:#23348C;}
	.st24{filter:url(#Adobe_OpacityMaskFilter_7_);}
	.st25{fill:url(#SVGID_25_);}
	.st26{mask:url(#SVGID_24_);fill-rule:evenodd;clip-rule:evenodd;fill:#1A008C;}
	.st27{filter:url(#Adobe_OpacityMaskFilter_8_);}
	.st28{fill:url(#SVGID_27_);}
	.st29{mask:url(#SVGID_26_);fill-rule:evenodd;clip-rule:evenodd;fill:#1A008C;}
	.st30{filter:url(#Adobe_OpacityMaskFilter_9_);}
	.st31{fill:url(#SVGID_29_);}
	.st32{mask:url(#SVGID_28_);fill-rule:evenodd;clip-rule:evenodd;fill:#00FFFF;}
	.st33{filter:url(#Adobe_OpacityMaskFilter_10_);}
	.st34{fill:url(#SVGID_31_);}
	.st35{mask:url(#SVGID_30_);fill-rule:evenodd;clip-rule:evenodd;fill:#FFFFFF;}
	.st36{filter:url(#Adobe_OpacityMaskFilter_11_);}
	.st37{fill:url(#SVGID_33_);}
	.st38{mask:url(#SVGID_32_);fill-rule:evenodd;clip-rule:evenodd;fill:#5EFAF7;}
</style>
<g>
	<g>
		<defs>
			<path id="SVGID_1_" d="M50,73.7c-11.2,0-6.1,24.1-15.6,25.8c-1.5,0.3-4.8-0.4-6-1.3c-5.5-13.1-9.5-30.8-7.6-42
				c0.9-5.6,4.1-10.9,10-11.1c12.4-0.3,22.7,25.4,25.7,33.7C55.2,75.8,53.3,73.7,50,73.7"/>
		</defs>
		<clipPath id="SVGID_2_">
			<use xlink:href="#SVGID_1_"  style="overflow:visible;"/>
		</clipPath>
		<linearGradient id="SVGID_3_" gradientUnits="userSpaceOnUse" x1="44.1374" y1="48.0836" x2="27.5021" y2="110.2384">
			<stop  offset="0" style="stop-color:#0046C8"/>
			<stop  offset="0.51" style="stop-color:#0091EA"/>
			<stop  offset="1" style="stop-color:#00E5FF"/>
		</linearGradient>
		<rect x="18.9" y="44.8" class="st0" width="37.6" height="55"/>
	</g>
	<g>
		<defs>
			<path id="SVGID_4_" d="M42.9,7.3c2.7,1.4,5,2.4,7.1,2.4c4,0,9.3-2.9,16-5.5c6.6-2.6,17.9-5.6,25.3-1.8
				c5.7,14.7-1.6,33.7-11.9,35.9C67.9,40.7,53,13.4,42.9,7.3"/>
		</defs>
		<clipPath id="SVGID_5_">
			<use xlink:href="#SVGID_4_"  style="overflow:visible;"/>
		</clipPath>
		<linearGradient id="SVGID_6_" gradientUnits="userSpaceOnUse" x1="62.9315" y1="31.6666" x2="88.3453" y2="-12.0244">
			<stop  offset="0" style="stop-color:#0046C8"/>
			<stop  offset="0.6" style="stop-color:#00AFFE"/>
			<stop  offset="1" style="stop-color:#00E5FF"/>
		</linearGradient>
		<rect x="42.9" y="-1.4" class="st1" width="54.1" height="42.1"/>
	</g>
	<g>
		<defs>
			<path id="SVGID_7_" d="M28.3,98.3C19,92.8,10.5,72,5.7,51.2C3.5,41.3-3.2,10.8,6.9,3.5C14-1.8,27.5,0.6,34.7,3.4
				c3.1,1.2,5.8,2.7,8.2,3.9c15.7,9.4,26.4,31.6,36.7,29.5c6.8-1.4,13.6-20.2,11.7-34.4c19.8,10.1-5.1,100.8-24.7,97.2
				c-6.5-1.2-7.5-14.3-10.1-20.7C53.3,70,41.5,40.8,27.8,45.7c-3.7,1.4-6.2,5.1-7.1,10.5C18.9,67.5,22.8,85.2,28.3,98.3"/>
		</defs>
		<clipPath id="SVGID_8_">
			<use xlink:href="#SVGID_7_"  style="overflow:visible;"/>
		</clipPath>
		<linearGradient id="SVGID_9_" gradientUnits="userSpaceOnUse" x1="122.7095" y1="69.1197" x2="-60.5342" y2="20.019">
			<stop  offset="0" style="stop-color:#2A62FF"/>
			<stop  offset="0.22" style="stop-color:#009AEA"/>
			<stop  offset="0.53" style="stop-color:#00AEEE"/>
			<stop  offset="1" style="stop-color:#00FFFF"/>
		</linearGradient>
		<rect x="-3.2" y="-1.8" class="st2" width="114.2" height="104.9"/>
	</g>
	<defs>
		<filter id="Adobe_OpacityMaskFilter" filterUnits="userSpaceOnUse" x="68.3" y="2.4" width="30.2" height="97.2">
			<feColorMatrix  type="matrix" values="1 0 0 0 0  0 1 0 0 0  0 0 1 0 0  0 0 0 1 0"/>
		</filter>
	</defs>
	<mask maskUnits="userSpaceOnUse" x="68.3" y="2.4" width="30.2" height="97.2" id="SVGID_10_">
		<g class="st3">
			
				<linearGradient id="SVGID_11_" gradientUnits="userSpaceOnUse" x1="-339.5529" y1="313.2563" x2="-266.1751" y2="293.5955" gradientTransform="matrix(1 0 0 1 362.1045 -245.9521)">
				<stop  offset="0" style="stop-color:#FFFFFF"/>
				<stop  offset="1" style="stop-color:#000000"/>
			</linearGradient>
			<rect x="68.3" y="2.4" class="st4" width="30.2" height="97.2"/>
		</g>
	</mask>
	<path class="st5" d="M68.3,31.6c3.9,3.7,7.6,5.9,11.2,5.1c6.8-1.4,13.6-20.2,11.7-34.4c19.2,9.8-3.7,95.6-23,97.2
		C85.9,91.7,82.8,51.1,68.3,31.6"/>
	<defs>
		<filter id="Adobe_OpacityMaskFilter_1_" filterUnits="userSpaceOnUse" x="36.6" y="45.7" width="45.9" height="53.9">
			<feColorMatrix  type="matrix" values="1 0 0 0 0  0 1 0 0 0  0 0 1 0 0  0 0 0 1 0"/>
		</filter>
	</defs>
	<mask maskUnits="userSpaceOnUse" x="36.6" y="45.7" width="45.9" height="53.9" id="SVGID_12_">
		<g class="st6">
			
				<linearGradient id="SVGID_13_" gradientUnits="userSpaceOnUse" x1="-178.4646" y1="365.0667" x2="-207.0343" y2="258.4379" gradientTransform="matrix(1 0 0 1 250.5146 -245.8379)">
				<stop  offset="0" style="stop-color:#FFFFFF"/>
				<stop  offset="1" style="stop-color:#000000"/>
			</linearGradient>
			<rect x="36.6" y="45.7" class="st7" width="45.9" height="53.9"/>
		</g>
	</mask>
	<path class="st8" d="M82.5,85.4c-5.1,9.2-10.7,15.1-15.9,14.1c-6.5-1.2-7.5-14.3-10.1-20.7c-9.7-26.8-15.7-29.6-19.8-33.2
		c21.3,13.5,24.3,45.2,32.1,49.4C72.8,97.2,77.6,92.7,82.5,85.4"/>
	<defs>
		<filter id="Adobe_OpacityMaskFilter_2_" filterUnits="userSpaceOnUse" x="60.4" y="6.1" width="38.1" height="89.5">
			<feColorMatrix  type="matrix" values="1 0 0 0 0  0 1 0 0 0  0 0 1 0 0  0 0 0 1 0"/>
		</filter>
	</defs>
	<mask maskUnits="userSpaceOnUse" x="60.4" y="6.1" width="38.1" height="89.5" id="SVGID_14_">
		<g class="st9">
			
				<linearGradient id="SVGID_15_" gradientUnits="userSpaceOnUse" x1="-208.3544" y1="144.163" x2="-273.2855" y2="377.6625" gradientTransform="matrix(1 0 0 1 334.1465 -260.1035)">
				<stop  offset="0" style="stop-color:#FFFFFF"/>
				<stop  offset="1" style="stop-color:#000000"/>
			</linearGradient>
			<rect x="60.4" y="6.1" class="st10" width="38.1" height="89.5"/>
		</g>
	</mask>
	<path class="st11" d="M95.1,6.1c9.6,15.5-2.5,66.6-16.8,85.6l0,0l0,0c-0.1,0.1-0.2,0.2-0.3,0.3l0,0c0,0-0.1,0.1-0.1,0.1l0,0
		c-0.1,0.1-0.2,0.2-0.3,0.3l0,0c0,0-0.1,0.1-0.1,0.1l0,0c-0.1,0.1-0.2,0.2-0.3,0.3l0,0c0,0-0.1,0.1-0.1,0.1l0,0
		c-0.1,0.1-0.2,0.2-0.3,0.2l0,0c0,0-0.1,0.1-0.1,0.1l0,0c-0.1,0.1-0.2,0.1-0.2,0.2l0,0c0,0-0.1,0.1-0.1,0.1l0,0
		c-0.1,0.1-0.1,0.1-0.2,0.2l-0.1,0c0,0-0.1,0.1-0.1,0.1l-0.1,0c-0.1,0.1-0.1,0.1-0.2,0.2l0,0c0,0-0.1,0.1-0.1,0.1l-0.1,0
		c-0.1,0-0.1,0.1-0.2,0.1l-0.1,0.1c0,0-0.1,0-0.1,0.1l-0.1,0.1c-0.1,0-0.1,0.1-0.2,0.1l-0.1,0c0,0-0.1,0-0.1,0.1l-0.1,0
		c0,0-0.1,0.1-0.1,0.1L74,95c0,0-0.1,0-0.1,0c0,0-0.1,0-0.1,0c0,0-0.1,0-0.1,0.1c0,0-0.1,0-0.1,0c0,0-0.1,0-0.1,0c0,0-0.1,0-0.1,0
		l-0.1,0c0,0-0.1,0-0.1,0l-0.1,0c0,0-0.1,0-0.1,0l-0.1,0c0,0-0.1,0-0.1,0l-0.1,0c0,0-0.1,0-0.1,0l-0.1,0c0,0-0.1,0-0.1,0l-0.1,0
		c0,0-0.1,0-0.1,0l-0.1,0c0,0-0.1,0-0.1,0l-0.1,0c-0.1,0-0.1,0-0.2,0l0,0c-0.1,0-0.1,0-0.2,0l-0.1,0c-0.1,0-0.1,0-0.2,0l0,0
		c-0.1,0-0.1,0-0.2,0l-0.1,0c-0.1,0-0.1,0-0.2,0l0,0h0l0,0c-0.1,0-0.1,0-0.2,0l0,0c-0.1,0-0.1,0-0.2,0l0,0h0l0,0c-0.1,0-0.1,0-0.2,0
		l0,0c-0.1,0-0.1,0-0.2,0l0,0h0l0,0c-0.1,0-0.1,0-0.2-0.1l0,0c-0.1,0-0.1,0-0.2-0.1l0,0l0,0l0,0c-0.1,0-0.1,0-0.2-0.1l0,0
		c-0.1,0-0.1-0.1-0.2-0.1c-0.1-0.1-0.2-0.1-0.3-0.2c0,0-0.1-0.1-0.1-0.1c0,0-0.1-0.1-0.1-0.1c-0.2-0.1-0.4-0.3-0.6-0.5
		c-2.7-2.5-5-8.5-7.8-15.5l0,0c2.7,4.5,6.2,6.5,9.2,6.6C86.3,86.1,101.5,22.9,95.1,6.1"/>
	<defs>
		<filter id="Adobe_OpacityMaskFilter_3_" filterUnits="userSpaceOnUse" x="2.6" y="1.4" width="65.8" height="98">
			<feColorMatrix  type="matrix" values="1 0 0 0 0  0 1 0 0 0  0 0 1 0 0  0 0 0 1 0"/>
		</filter>
	</defs>
	<mask maskUnits="userSpaceOnUse" x="2.6" y="1.4" width="65.8" height="98" id="SVGID_16_">
		<g class="st12">
			
				<linearGradient id="SVGID_17_" gradientUnits="userSpaceOnUse" x1="5.7492" y1="297.2775" x2="-105.4048" y2="297.2775" gradientTransform="matrix(1 0 0 1 130.5381 -246.9219)">
				<stop  offset="0" style="stop-color:#FFFFFF"/>
				<stop  offset="6.669313e-02" style="stop-color:#E1E1E1"/>
				<stop  offset="0.2123" style="stop-color:#A7A7A7"/>
				<stop  offset="0.3577" style="stop-color:#747474"/>
				<stop  offset="0.4995" style="stop-color:#4A4A4A"/>
				<stop  offset="0.6369" style="stop-color:#2A2A2A"/>
				<stop  offset="0.7686" style="stop-color:#131313"/>
				<stop  offset="0.8923" style="stop-color:#050505"/>
				<stop  offset="1" style="stop-color:#000000"/>
			</linearGradient>
			<rect x="2.6" y="1.4" class="st13" width="65.8" height="98"/>
		</g>
	</mask>
	<path class="st14" d="M28.3,98.3c-14.5-9.1-23.4-48-25.1-66C2.5,25.1,1.3,9.9,7.5,4.7c2.5-2.2,6-3,9.2-3.3
		c37.1-3.1,61.7,107.4,47.8,97.2c-4.6-3.4-5.8-14.5-8.1-19.9c-3.2-8.9-14.9-38-28.6-33c-8.8,3.2-8.7,17.8-6,31.2
		C23.6,85.9,26.4,93.7,28.3,98.3"/>
	<defs>
		<filter id="Adobe_OpacityMaskFilter_4_" filterUnits="userSpaceOnUse" x="1.5" y="1.1" width="60.4" height="93.9">
			<feColorMatrix  type="matrix" values="1 0 0 0 0  0 1 0 0 0  0 0 1 0 0  0 0 0 1 0"/>
		</filter>
	</defs>
	<mask maskUnits="userSpaceOnUse" x="1.5" y="1.1" width="60.4" height="93.9" id="SVGID_18_">
		<g class="st15">
			
				<linearGradient id="SVGID_19_" gradientUnits="userSpaceOnUse" x1="-154.8055" y1="345.0443" x2="-43.8331" y2="280.9726" gradientTransform="matrix(1 0 0 1 126.5293 -262.3828)">
				<stop  offset="0" style="stop-color:#FFFFFF"/>
				<stop  offset="5.342138e-02" style="stop-color:#E0E0E0"/>
				<stop  offset="0.155" style="stop-color:#ACACAC"/>
				<stop  offset="0.2611" style="stop-color:#7E7E7E"/>
				<stop  offset="0.3695" style="stop-color:#575757"/>
				<stop  offset="0.4808" style="stop-color:#383838"/>
				<stop  offset="0.5958" style="stop-color:#1F1F1F"/>
				<stop  offset="0.7163" style="stop-color:#0E0E0E"/>
				<stop  offset="0.8457" style="stop-color:#030303"/>
				<stop  offset="1" style="stop-color:#000000"/>
			</linearGradient>
			<rect x="1.5" y="1.1" class="st16" width="60.4" height="93.9"/>
		</g>
	</mask>
	<path class="st17" d="M24.3,95C12.5,83.3,1.9,43.2,1.5,24.3C1.2,12,3.6,0.3,18.9,1.1c10,0.5,21.5,7.8,26.6,12.5
		c6,5.5,11.1,12.2,16.5,18.3c-11-7.2-26.7-13.5-38.7-5.9c-7.9,5-12.1,15.8-10.5,30.7C14.1,69.1,18.1,82.6,24.3,95"/>
	<defs>
		<filter id="Adobe_OpacityMaskFilter_5_" filterUnits="userSpaceOnUse" x="42.9" y="0.6" width="39.6" height="26.1">
			<feColorMatrix  type="matrix" values="1 0 0 0 0  0 1 0 0 0  0 0 1 0 0  0 0 0 1 0"/>
		</filter>
	</defs>
	<mask maskUnits="userSpaceOnUse" x="42.9" y="0.6" width="39.6" height="26.1" id="SVGID_20_">
		<g class="st18">
			
				<linearGradient id="SVGID_21_" gradientUnits="userSpaceOnUse" x1="-209.8157" y1="547.0418" x2="-209.8157" y2="503.0104" gradientTransform="matrix(1 0 0 1 272.4761 -503.313)">
				<stop  offset="0" style="stop-color:#FFFFFF"/>
				<stop  offset="1" style="stop-color:#000000"/>
			</linearGradient>
			<rect x="42.9" y="0.6" class="st19" width="39.6" height="26.1"/>
		</g>
	</mask>
	<path class="st20" d="M42.9,7.3c2.7,1.4,5,2.4,7.1,2.4c4,0,9.3-2.9,16-5.5c4.3-1.7,10.6-3.5,16.5-3.6c-0.3,5.6-2.4,25-19,26.1
		C57.5,20.1,50.8,12.1,42.9,7.3z"/>
	<defs>
		<filter id="Adobe_OpacityMaskFilter_6_" filterUnits="userSpaceOnUse" x="42.9" y="3.3" width="25.6" height="17.2">
			<feColorMatrix  type="matrix" values="1 0 0 0 0  0 1 0 0 0  0 0 1 0 0  0 0 0 1 0"/>
		</filter>
	</defs>
	<mask maskUnits="userSpaceOnUse" x="42.9" y="3.3" width="25.6" height="17.2" id="SVGID_22_">
		<g class="st21">
			
				<linearGradient id="SVGID_23_" gradientUnits="userSpaceOnUse" x1="-205.0994" y1="580.7664" x2="-218.3293" y2="531.3964" gradientTransform="matrix(1 0 0 1 272.4761 -525.1025)">
				<stop  offset="0" style="stop-color:#FFFFFF"/>
				<stop  offset="1" style="stop-color:#000000"/>
			</linearGradient>
			<rect x="42.9" y="3.3" class="st22" width="25.6" height="17.2"/>
		</g>
	</mask>
	<path class="st23" d="M42.9,7.3c2.7,1.4,5,2.4,7.1,2.4c4,0,9.3-2.9,16-5.5c0.7-0.3,1.6-0.6,2.4-0.9c0.2,3.2-0.1,14.2-10.5,17.2
		C53.4,15.6,48.4,10.6,42.9,7.3z"/>
	<defs>
		<filter id="Adobe_OpacityMaskFilter_7_" filterUnits="userSpaceOnUse" x="32.6" y="47.8" width="23.8" height="40.4">
			<feColorMatrix  type="matrix" values="1 0 0 0 0  0 1 0 0 0  0 0 1 0 0  0 0 0 1 0"/>
		</filter>
	</defs>
	<mask maskUnits="userSpaceOnUse" x="32.6" y="47.8" width="23.8" height="40.4" id="SVGID_24_">
		<g class="st24">
			
				<linearGradient id="SVGID_25_" gradientUnits="userSpaceOnUse" x1="-191.8387" y1="248.8568" x2="-191.8387" y2="380.5921" gradientTransform="matrix(1 0 0 1 236.3716 -286.2666)">
				<stop  offset="0" style="stop-color:#FFFFFF"/>
				<stop  offset="1" style="stop-color:#000000"/>
			</linearGradient>
			<rect x="32.6" y="47.8" class="st25" width="23.8" height="40.4"/>
		</g>
	</mask>
	<path class="st26" d="M50,73.7c-6.3,0-7.5,7.5-8.9,14.4C24.2,53.8,37.8,47.9,38,47.8c9.1,6.7,16.1,24.4,18.5,31
		C55.2,75.8,53.3,73.7,50,73.7"/>
	<defs>
		<filter id="Adobe_OpacityMaskFilter_8_" filterUnits="userSpaceOnUse" x="42" y="54.3" width="14.4" height="24.6">
			<feColorMatrix  type="matrix" values="1 0 0 0 0  0 1 0 0 0  0 0 1 0 0  0 0 0 1 0"/>
		</filter>
	</defs>
	<mask maskUnits="userSpaceOnUse" x="42" y="54.3" width="14.4" height="24.6" id="SVGID_26_">
		<g class="st27">
			
				<linearGradient id="SVGID_27_" gradientUnits="userSpaceOnUse" x1="-194.6803" y1="341.3557" x2="-226.4967" y2="396.4651" gradientTransform="matrix(1 0 0 1 269.5498 -319.1875)">
				<stop  offset="0" style="stop-color:#FFFFFF"/>
				<stop  offset="1" style="stop-color:#000000"/>
			</linearGradient>
			<rect x="42" y="54.3" class="st28" width="14.4" height="24.6"/>
		</g>
	</mask>
	<path class="st29" d="M50,73.7c-1.7,0-3,0.6-4.1,1.5c-5.7-13.2-3.9-18.7-1.7-21c6,8.2,10.5,19.6,12.3,24.6
		C55.2,75.8,53.3,73.7,50,73.7"/>
	<defs>
		<filter id="Adobe_OpacityMaskFilter_9_" filterUnits="userSpaceOnUse" x="2.5" y="1.7" width="35.5" height="44.5">
			<feColorMatrix  type="matrix" values="1 0 0 0 0  0 1 0 0 0  0 0 1 0 0  0 0 0 1 0"/>
		</filter>
	</defs>
	<mask maskUnits="userSpaceOnUse" x="2.5" y="1.7" width="35.5" height="44.5" id="SVGID_28_">
		<g class="st30">
			
				<linearGradient id="SVGID_29_" gradientUnits="userSpaceOnUse" x1="-160.5472" y1="487.5281" x2="-72.6519" y2="436.7825" gradientTransform="matrix(1 0 0 1 130.1636 -434.3496)">
				<stop  offset="0" style="stop-color:#FFFFFF"/>
				<stop  offset="0.1715" style="stop-color:#C5C5C5"/>
				<stop  offset="0.3977" style="stop-color:#808080"/>
				<stop  offset="0.6019" style="stop-color:#494949"/>
				<stop  offset="0.7767" style="stop-color:#212121"/>
				<stop  offset="0.9151" style="stop-color:#090909"/>
				<stop  offset="1" style="stop-color:#000000"/>
			</linearGradient>
			<rect x="2.5" y="1.7" class="st31" width="35.5" height="44.5"/>
		</g>
	</mask>
	<path class="st32" d="M3.4,34.2c-0.1-0.6-0.1-1.3-0.2-1.9c-1-11-3.1-30.6,13.4-30.6c7.5,0,16.3,5.2,21.4,10.5
		c-4.9-3-9.7-4.6-14.2-4.6c-14,0-20.8,16-18.3,38.6C4.6,42.1,3.9,38,3.4,34.2"/>
	<defs>
		<filter id="Adobe_OpacityMaskFilter_10_" filterUnits="userSpaceOnUse" x="19.6" y="45.2" width="11.1" height="53.1">
			<feColorMatrix  type="matrix" values="1 0 0 0 0  0 1 0 0 0  0 0 1 0 0  0 0 0 1 0"/>
		</filter>
	</defs>
	<mask maskUnits="userSpaceOnUse" x="19.6" y="45.2" width="11.1" height="53.1" id="SVGID_30_">
		<g class="st33">
			
				<linearGradient id="SVGID_31_" gradientUnits="userSpaceOnUse" x1="-165.2476" y1="230.3432" x2="-165.2476" y2="346.683" gradientTransform="matrix(1 0 0 1 190.3809 -250.7031)">
				<stop  offset="0" style="stop-color:#FFFFFF"/>
				<stop  offset="1" style="stop-color:#000000"/>
			</linearGradient>
			<rect x="19.6" y="45.2" class="st34" width="11.1" height="53.1"/>
		</g>
	</mask>
	<path class="st35" d="M28.3,98.3c-0.3-0.2-0.6-0.4-0.9-0.6c-5.4-13-9.2-30.4-7.4-41.5c0.9-5.3,3.4-9.2,7.2-10.5
		c1.2-0.4,2.3-0.6,3.4-0.5c-0.9,0-2,0.2-2.8,0.5c-4.4,1.7-6.4,6.1-7.1,10.5c-0.4,2.6-0.5,4.9-0.5,7.6c0,3,0.5,7,1,10
		c0.6,3.8,1.5,7.5,2.5,11.2C24.9,89.4,26.5,94.1,28.3,98.3"/>
	<defs>
		<filter id="Adobe_OpacityMaskFilter_11_" filterUnits="userSpaceOnUse" x="57.2" y="2.4" width="34.6" height="35.4">
			<feColorMatrix  type="matrix" values="1 0 0 0 0  0 1 0 0 0  0 0 1 0 0  0 0 0 1 0"/>
		</filter>
	</defs>
	<mask maskUnits="userSpaceOnUse" x="57.2" y="2.4" width="34.6" height="35.4" id="SVGID_32_">
		<g class="st36">
			
				<linearGradient id="SVGID_33_" gradientUnits="userSpaceOnUse" x1="-248.583" y1="459.8247" x2="-248.583" y2="501.9333" gradientTransform="matrix(1 0 0 1 323.1172 -464.0029)">
				<stop  offset="0" style="stop-color:#FFFFFF"/>
				<stop  offset="1" style="stop-color:#000000"/>
			</linearGradient>
			<rect x="57.2" y="2.4" class="st37" width="34.6" height="35.4"/>
		</g>
	</mask>
	<path class="st38" d="M60,22.9c7.2,7.9,13.3,15,19.3,13.9c1.2-0.2,2.2-0.8,3.1-1.6l0,0c0.2-0.2,1.2-1.1,1.2-1.3
		c0,0,1.1-1.4,1.2-1.6c0,0,1.1-1.7,1.1-1.8c0,0,1.3-2.4,1.3-2.6l0.7-1.7c0.6-1.4,1.1-2.9,1.5-4.4c0.5-1.8,0.9-3.6,1.3-5.4
		c0.8-4.5,1.1-9.4,0.5-14c2.7,15.2-4.6,33.8-11.5,35.3c-6.9,1.4-14-8.2-22.6-17.7c0,0,0,0,0,0C58.2,20.9,59.1,21.9,60,22.9"/>
</g>
</svg>
