<?xml version="1.0" encoding="utf-8"?>
<!-- Generator: Adobe Illustrator 23.0.1, SVG Export Plug-In . SVG Version: 6.00 Build 0)  -->
<svg version="1.1" id="Layer_1" xmlns="http://www.w3.org/2000/svg" xmlns:xlink="http://www.w3.org/1999/xlink" x="0px" y="0px"
	 viewBox="0 0 60 60" style="enable-background:new 0 0 60 60;" xml:space="preserve">
<style type="text/css">
	.st0{filter:url(#Adobe_OpacityMaskFilter);}
	.st1{fill:#FFFFFF;}
	.st2{mask:url(#SVGID_1_);}
	.st3{fill:url(#SVGID_2_);}
	.st4{fill:#37E2DE;}
	.st5{fill:#35A3B5;}
	.st6{opacity:0.3;fill:#4DFFF6;}
	.st7{fill:url(#SVGID_3_);}
	.st8{fill:url(#SVGID_4_);}
	.st9{fill:url(#SVGID_5_);}
	.st10{fill:url(#SVGID_6_);}
	.st11{fill:url(#SVGID_7_);}
	.st12{fill:#32CACE;}
	.st13{fill:url(#SVGID_8_);}
	.st14{fill:url(#SVGID_9_);}
	.st15{opacity:0.1;fill:#362F41;}
	.st16{fill:#4DFFF6;}
	.st17{opacity:0.5;fill:#4DFFF6;}
	.st18{fill:url(#SVGID_10_);}
</style>
<g id="Tooth_-_mark">
	<defs>
		<filter id="Adobe_OpacityMaskFilter" filterUnits="userSpaceOnUse" x="0.46" y="0.19" width="59.08" height="59.61">
			
				<feColorMatrix  type="matrix" values="-1 0 0 0 1  0 -1 0 0 1  0 0 -1 0 1  0 0 0 1 0" color-interpolation-filters="sRGB" result="source"/>
			<feFlood  style="flood-color:white;flood-opacity:1" result="back"/>
			<feBlend  in="source" in2="back" mode="normal"/>
		</filter>
	</defs>
	<mask maskUnits="userSpaceOnUse" x="0.46" y="0.19" width="59.08" height="59.61" id="SVGID_1_">
		<g class="st0">
			<path class="st1" d="M63.71,61.78V-1.91c0-0.21-0.09-0.35-0.16-0.43c-0.08-0.08-0.21-0.17-0.42-0.17H-3.71v64.34
				c0,0.56,0.55,0.56,0.84,0.56h66c0.22,0,0.36-0.1,0.44-0.18C63.64,62.13,63.73,61.98,63.71,61.78z M59.46,13.61
				c-0.02,0.73-0.05,1.49-0.12,2.31l-0.01,0.07c-0.23,2.92-0.71,6-1.52,9.69c-0.68,3.1-1.56,6.41-2.69,10.11
				c-1.03,3.39-2.07,6.42-3.16,9.26c-1.02,2.64-2.44,6.06-4.4,9.08c-0.8,1.24-1.75,2.39-2.8,3.42c-1.23,1.19-2.59,1.91-4.06,2.12
				c-0.71,0.1-1.33,0.03-1.85-0.21c-0.51-0.24-0.96-0.66-1.33-1.23c-0.75-1.17-1.12-2.6-1.47-3.98c-0.05-0.2-0.1-0.4-0.15-0.59
				c-0.56-2.13-1.05-3.76-1.59-5.29c-0.05-0.13-0.09-0.26-0.13-0.39c-0.24-0.7-0.48-1.43-0.97-2.05c-0.58-0.74-1.32-1.26-2.14-1.51
				c-0.35-0.11-0.7-0.16-1.06-0.16c-0.52,0-1.04,0.12-1.53,0.35c-0.6,0.28-1.15,0.73-1.63,1.32c-0.92,1.13-1.41,2.56-1.8,3.93
				c-0.27,0.93-0.49,1.88-0.7,2.8c-0.18,0.78-0.36,1.58-0.58,2.36c-0.17,0.62-0.41,1.43-0.74,2.2c-0.3,0.7-0.63,1.23-1.02,1.62
				c-0.47,0.47-1.04,0.75-1.66,0.79c-0.7,0.05-1.5-0.07-2.3-0.35c-1.29-0.45-2.51-1.33-3.74-2.69c-0.9-0.99-1.75-2.2-2.6-3.68
				c-0.75-1.3-1.46-2.72-2.18-4.33c-1.45-3.25-2.61-6.58-3.45-9.12c-1.17-3.53-2.2-7.02-3.05-10.38c-0.42-1.68-0.8-3.32-1.12-4.87
				c-0.31-1.53-0.63-3.18-0.87-4.82C0.46,15.37,0.37,12.14,0.76,9.2c0.47-3.51,1.68-5.99,3.6-7.38c1.24-0.89,2.77-1.2,4.1-1.38
				c1.65-0.22,3.41-0.24,5.21-0.04c1.66,0.18,3.36,0.52,5.21,1.06c1.7,0.5,3.28,1.1,4.7,1.78c0.76,0.37,1.5,0.77,2.2,1.2
				c0.35,0.22,0.7,0.44,1.04,0.68c0.02,0.01,0.04,0.03,0.06,0.05c0.12,0.1,0.28,0.23,0.5,0.28l0.26,0.06
				c0.7,0.15,1.38,0.29,2.09,0.29c0.23,0,0.45-0.02,0.67-0.04c0.91-0.12,1.79-0.44,2.68-0.77c0.52-0.2,1.04-0.42,1.54-0.63
				c0.16-0.07,0.31-0.13,0.47-0.2c0.78-0.33,1.59-0.66,2.42-0.98c1.38-0.53,3.02-1.15,4.73-1.66c2.62-0.79,4.92-1.17,7.05-1.17
				c1.04,0,2.05,0.09,3,0.28c1.58,0.31,2.81,0.85,3.76,1.66c0.81,0.69,1.48,1.57,1.99,2.64c0.56,1.18,0.95,2.57,1.19,4.25
				C59.43,10.52,59.5,11.97,59.46,13.61z"/>
		</g>
	</mask>
	<g class="st2">
		<radialGradient id="SVGID_2_" cx="32.9012" cy="45.8138" r="22.5468" gradientUnits="userSpaceOnUse">
			<stop  offset="0" style="stop-color:#362F41"/>
			<stop  offset="1" style="stop-color:#40CCED;stop-opacity:0"/>
		</radialGradient>
		<path class="st3" d="M30,44.27l0.02,0l0.02,0c1.87,0.13,3.05,1.23,3.88,2.8c-2.32-8.34-8.96-20.52-16.09-19.86
			c-7.63,0.7-5.06,15.17-5.06,15.17c0.41,4.77,2.12,11.06,3.75,16.23c1.16,0.74,2.35,1.1,3.59,1.1c2.57,0,3.35-3.35,4.18-6.9
			C25.25,48.74,26.24,44.53,30,44.27z"/>
		<path class="st4" d="M11.29,0.56c-0.21-0.01-0.41,0.13-0.62,0.13c-1.53,0-2.7,0.07-4.04,0.48c-1.85,0.57-3.55,1.5-4.52,3.33
			c-3.63,6.85-0.43,21.08,2.9,31.81c5.08,16.4,9.6,23.4,15.12,23.4c2.57,0,3.35-3.35,4.18-6.9c0.95-4.07,1.93-8.42,5.7-8.68l0.02,0
			l0.02,0c3.77,0.26,4.75,4.61,5.7,8.68c0.83,3.55,1.61,6.9,4.18,6.9c5.51,0,10.04-7,15.12-23.4c3.32-10.73,6.52-24.96,2.9-31.81
			c-0.97-1.83-2.39-3.04-4.24-3.61c-1.34-0.41-2.79-0.62-4.32-0.62c-4.57,0-9.24,1.84-13,3.31c-1.57,0.62-2.91,1.32-4.17,1.69
			c-2.14,0.75-3.24,0.65-5.1,0.24c-1.07-0.77-2.02-1.14-3.11-1.69c-2.03-0.8-4.28-1.83-6.65-2.51c-1.7-0.38-3.22-0.58-4.44-0.67
			C12.28,0.59,11.74,0.56,11.29,0.56z"/>
		<path class="st5" d="M24.4,46.88"/>
		<path class="st6" d="M44.95,33.23c-13.2-8.97-25.82-17.68-43.57-11.47C2.24,26.69,3.62,31.8,5.01,36.3
			c5.08,16.4,9.6,23.4,15.12,23.4c2.57,0,3.35-3.35,4.18-6.9c0.95-4.07,1.93-8.28,5.7-8.54l0.02,0l0.02,0
			c3.77,0.26,4.75,4.47,5.7,8.54c0.83,3.55,1.61,6.9,4.18,6.9c5.46,0,9.95-6.88,14.98-22.96C52.76,37.2,49.6,36.38,44.95,33.23z"/>
		<g>
			<linearGradient id="SVGID_3_" gradientUnits="userSpaceOnUse" x1="22.4558" y1="28.4667" x2="22.4354" y2="28.4971">
				<stop  offset="0" style="stop-color:#362F41"/>
				<stop  offset="1" style="stop-color:#40CCED;stop-opacity:0"/>
			</linearGradient>
			<path class="st7" d="M22.2,28.32c0.16,0.1,0.33,0.2,0.49,0.31c0,0,0,0,0,0C22.53,28.52,22.37,28.42,22.2,28.32z"/>
			<linearGradient id="SVGID_4_" gradientUnits="userSpaceOnUse" x1="31.7174" y1="32.2875" x2="11.5571" y2="62.4354">
				<stop  offset="0" style="stop-color:#362F41"/>
				<stop  offset="1" style="stop-color:#40CCED;stop-opacity:0"/>
			</linearGradient>
			<path class="st8" d="M30,44.27l0.02,0l0.02,0c1.87,0.13,3.05,1.23,3.88,2.8c-1.78-6.4-6.1-15.05-11.23-18.44
				c0.01,0.01,0.02,0.03,0.03,0.04c-6.2,3.67-1.82,15.86,1.74,23.48C25.37,48.3,26.44,44.51,30,44.27z"/>
		</g>
		<linearGradient id="SVGID_5_" gradientUnits="userSpaceOnUse" x1="18.3433" y1="12.8184" x2="62.8537" y2="-8.6559">
			<stop  offset="0" style="stop-color:#362F41"/>
			<stop  offset="1" style="stop-color:#40CCED;stop-opacity:0"/>
		</linearGradient>
		<path class="st9" d="M37.17,16.27C37.16,16.27,37.16,16.26,37.17,16.27l-0.32-0.59c0,0,11.26,2.37,12.58-15.42
			c-0.02,0-0.03,0-0.05,0c-4.57,0-9.24,1.84-13,3.31c-1.57,0.62-3,1.31-4.25,1.68c-2.14,0.75-3.01,0.51-4.88,0.11
			C26.18,4.6,25.09,3.95,24,3.4c-2.03-0.8-4.29-1.7-6.66-2.37c-0.66-0.15-1.29-0.27-1.89-0.37C22.45,2.78,30.41,9.18,37.17,16.27z"
			/>
		<linearGradient id="SVGID_6_" gradientUnits="userSpaceOnUse" x1="35.374" y1="37.828" x2="4.8573" y2="50.6525">
			<stop  offset="0" style="stop-color:#362F41"/>
			<stop  offset="1" style="stop-color:#40CCED;stop-opacity:0"/>
		</linearGradient>
		<path class="st10" d="M27.72,45.09c0.62-0.47,1.37-0.76,2.28-0.82l0.02,0l0.02,0c1.87,0.13,3.05,1.23,3.88,2.8
			c-1.26-4.54-3.8-10.2-7-14.33C25.14,34.14,23.92,37.42,27.72,45.09z"/>
		<linearGradient id="SVGID_7_" gradientUnits="userSpaceOnUse" x1="26.1846" y1="11.8428" x2="52.0584" y2="11.8428">
			<stop  offset="0" style="stop-color:#362F41"/>
			<stop  offset="1" style="stop-color:#40CCED;stop-opacity:0"/>
		</linearGradient>
		<path class="st11" d="M40.88,20.36c9.08,10.54,12.86-9.51,12.86-9.51c0.62-3.67,0.65-6.96,0.99-9.56
			c-0.33-0.16-0.67-0.3-1.03-0.41c-1.34-0.41-2.79-0.62-4.32-0.62c-4.57,0-9.24,1.84-13,3.31c-1.57,0.62-3,1.31-4.25,1.68
			c-2.14,0.75-3.01,0.51-4.88,0.11C26.18,4.6,25.09,4.66,24,4.1c-2.03-0.8-4.29-2.12-6.66-2.79c-0.65-0.15-1.28-0.13-1.87-0.22
			C23.8,3.62,33.48,11.78,40.88,20.36z"/>
		<path class="st12" d="M17.84,27.21c0.85-0.08,1.69,0.03,2.52,0.29c0.48-0.33,0.78-0.52,0.78-0.52l-2.35-0.85
			c0,0-6.2-0.1-6.31,8.68l0,0C12.82,31.18,14.12,27.55,17.84,27.21z"/>
		<path class="st6" d="M19.73,26.12c3.36,1.84,8.51,6.29,8.51,6.29s4.47,4.94,6.23,15.85c0.54,1.38,0.91,2.97,1.28,4.54
			c0.83,3.55,1.61,6.9,4.18,6.9c3.62,0,6.8-3.01,10-9.71C44.26,42.23,32.11,27.65,19.73,26.12z"/>
		<linearGradient id="SVGID_8_" gradientUnits="userSpaceOnUse" x1="22.1197" y1="37.619" x2="62.0369" y2="-1.4638">
			<stop  offset="0" style="stop-color:#362F41"/>
			<stop  offset="1" style="stop-color:#40CCED;stop-opacity:0"/>
		</linearGradient>
		<path class="st13" d="M53.73,10.85c0.62-3.67,0.65-6.96,0.99-9.56c-0.33-0.16-0.67-0.3-1.03-0.41c-1.32-0.41-2.76-0.61-4.27-0.62
			C48.1,18.05,36.84,15.68,36.84,15.68l0.32,0.58c0.64,0.67,1.27,1.35,1.89,2.03c0.01,0.01,0.02,0.02,0.02,0.02
			c0.29,0.32,0.58,0.65,0.87,0.97c0.02,0.03,0.04,0.05,0.07,0.08c0.29,0.33,0.58,0.66,0.87,1C49.96,30.9,53.73,10.85,53.73,10.85z"
			/>
		<linearGradient id="SVGID_9_" gradientUnits="userSpaceOnUse" x1="24.8807" y1="9.0071" x2="49.1047" y2="-7.6701">
			<stop  offset="0" style="stop-color:#362F41"/>
			<stop  offset="1" style="stop-color:#40CCED;stop-opacity:0"/>
		</linearGradient>
		<path class="st14" d="M20.02,2.57c4.4,2.27,8.98,5.82,13.27,9.85c3.81-0.2,7.47-2.54,7.85-10.6c-1.69,0.56-3.29,1.19-4.76,1.76
			c-1.57,0.62-3,1.31-4.25,1.68c-2.14,0.75-3.01,0.51-4.88,0.11C26.18,4.62,25.09,4.53,24,3.98c-1.4-0.55-2.9-1.42-4.47-1.96
			L20.02,2.57z"/>
		<path class="st15" d="M39.92,59.71c5.51,0,10.04-7,15.12-23.4c3.32-10.73,6.52-24.96,2.9-31.81c-0.54-1.01-1.21-1.84-2.02-2.47
			c0.77,1.86,1.86,8.81-5.47,32.58c-7.53,24.41-13.47,18.42-15.41,15.36c0.26,0.92,0.49,1.89,0.71,2.85
			C36.57,56.36,37.35,59.71,39.92,59.71z"/>
		<path class="st16" d="M9.99,0.29c0,0,8.74-0.31,17.42,7.86C41.92,21.81,45.6,29.02,50.96,19.08c-5.1,9.46-13.23-4.03-21.3-11.72
			C21.37-0.54,9.99,0.29,9.99,0.29z"/>
		<path class="st16" d="M11.29,0.27c-0.21-0.01-0.41-0.01-0.62-0.01c-1.53,0-2.98,0.21-4.32,0.62C4.51,1.45,3.08,2.66,2.11,4.49
			C1.74,5.2,1.43,5.99,1.2,6.85c1.48-1.92,6.62-7.36,15.38-3.89c10.53,4.17,17.09,11.48,18.34,12.64c1.25,1.15,0.57-1.05,0.57-1.05
			L22.69,3.69l-2.82-1.85c-0.83-0.29-1.68-0.56-2.54-0.81c-1.69-0.38-3.22-0.58-4.43-0.67C12.28,0.31,11.74,0.28,11.29,0.27z"/>
		<path class="st17" d="M11.29,0.27c-0.21-0.01-0.41-0.01-0.62-0.01c-1.53,0-2.98,0.21-4.32,0.62C4.51,1.45,3.08,2.66,2.11,4.49
			c-0.92,1.74-1.4,3.96-1.55,6.47C4.62,4.19,15,0.45,41.47,21.72C36.32,16.15,27.67,7.03,18.36,1.34c-0.34-0.11-0.68-0.21-1.02-0.31
			c-1.69-0.38-3.22-0.58-4.43-0.67C12.28,0.31,11.74,0.28,11.29,0.27z"/>
		<path class="st17" d="M11.29,0.27c-0.21-0.01-0.41-0.01-0.62-0.01c-1.53,0-2.98,0.21-4.32,0.62C4.51,1.45,3.08,2.66,2.11,4.49
			c-2.93,5.54-1.4,15.91,1.05,25.35C0.87,9.68,21.08,2.32,21.14,2.3c-1.22-0.45-2.5-0.9-3.81-1.27c-1.69-0.38-3.22-0.58-4.43-0.67
			C12.28,0.31,11.74,0.28,11.29,0.27z"/>
		<path class="st6" d="M11.29,0.27c-0.21-0.01-0.41-0.01-0.62-0.01c-1.53,0-2.98,0.21-4.32,0.62C4.51,1.45,3.08,2.66,2.11,4.49
			c-3.63,6.85-0.43,21.08,2.9,31.81c1.09,3.52,2.15,6.6,3.21,9.27C7.13,38.4,3.86,4.52,42.42,21.89C33.28,12.8,26.42,6.39,20.62,2.1
			c-1.06-0.39-2.16-0.75-3.28-1.07c-1.69-0.38-3.22-0.58-4.43-0.67C12.28,0.31,11.74,0.28,11.29,0.27z"/>
		<linearGradient id="SVGID_10_" gradientUnits="userSpaceOnUse" x1="26.8946" y1="20.2861" x2="10.9303" y2="63.9094">
			<stop  offset="0" style="stop-color:#362F41"/>
			<stop  offset="1" style="stop-color:#40CCED;stop-opacity:0"/>
		</linearGradient>
		<path class="st18" d="M22.72,28.67c-0.01-0.02-0.02-0.03-0.03-0.04c-1.56-1.03-3.19-1.57-4.85-1.42
			c-7.63,0.7-5.06,15.17-5.06,15.17c0.41,4.77,2.12,11.06,3.75,16.23c1.16,0.74,2.35,1.1,3.59,1.1c2.57,0,3.35-3.35,4.18-6.9
			c0.05-0.22,0.1-0.44,0.15-0.66C20.9,44.53,16.52,32.34,22.72,28.67z"/>
		<path class="st12" d="M36.12,54.44c1.03,4.07,2.16,5.99,5.27,5.18c2-0.52,3.09-1.62,4.11-2.71c-2.4,1.12-6.77,2.17-8.03-3.44
			c-1.76-7.87-4.85-15.61-8.61-20.76c-3.76-5.16-8.45-7.36-11.19-6.43c-2.74,0.93,0,0.65,0,0.65l2.7,0.57c0,0,4.48,1.19,8.55,8.86
			c3.96,7.48,5.97,12.98,7.11,17.74C36.05,54.2,36.09,54.32,36.12,54.44z"/>
		<path class="st16" d="M26.75,6.07l-0.1-0.12l-1.5-1.93c0,0-9.32-5.47-18.49-3.33c-9.17,2.15-5.58,19.54-5.15,21.77
			C-0.05,10.32,1.23,1.34,8.2,0.94C15.18,0.54,26.5,5.68,26.75,6.07z"/>
	</g>
	<path class="st16" d="M27.92,6.27l0.64,0.09c0,0-2.96-2.78-8.47-4.5c-5.51-1.72,3.46,3.28,3.46,3.28L27.92,6.27z"/>
</g>
</svg>
