<?xml version="1.0" encoding="utf-8"?>
<!-- Generator: Adobe Illustrator 23.0.1, SVG Export Plug-In . SVG Version: 6.00 Build 0)  -->
<svg version="1.1" id="Layer_1" xmlns="http://www.w3.org/2000/svg" xmlns:xlink="http://www.w3.org/1999/xlink" x="0px" y="0px"
	 viewBox="0 0 100 100" style="enable-background:new 0 0 100 100;" xml:space="preserve">
<style type="text/css">
	.st0{clip-path:url(#SVGID_2_);fill:url(#SVGID_3_);}
	.st1{clip-path:url(#SVGID_5_);fill:url(#SVGID_6_);}
	.st2{clip-path:url(#SVGID_8_);fill:url(#SVGID_9_);}
	.st3{opacity:0.2;fill-rule:evenodd;clip-rule:evenodd;fill:#0064FF;}
	.st4{filter:url(#Adobe_OpacityMaskFilter);}
	.st5{fill:url(#SVGID_11_);}
	.st6{mask:url(#SVGID_10_);fill-rule:evenodd;clip-rule:evenodd;fill:#0091EA;}
	.st7{filter:url(#Adobe_OpacityMaskFilter_1_);}
	.st8{fill:url(#SVGID_13_);}
	.st9{mask:url(#SVGID_12_);fill-rule:evenodd;clip-rule:evenodd;fill:#0064FF;}
	.st10{filter:url(#Adobe_OpacityMaskFilter_2_);}
	.st11{fill:url(#SVGID_15_);}
	.st12{mask:url(#SVGID_14_);fill-rule:evenodd;clip-rule:evenodd;fill:#FFFFFF;}
	.st13{filter:url(#Adobe_OpacityMaskFilter_3_);}
	.st14{fill:url(#SVGID_17_);}
	.st15{mask:url(#SVGID_16_);fill-rule:evenodd;clip-rule:evenodd;fill:#18FFFF;}
	.st16{filter:url(#Adobe_OpacityMaskFilter_4_);}
	.st17{fill:url(#SVGID_19_);}
	.st18{mask:url(#SVGID_18_);fill-rule:evenodd;clip-rule:evenodd;fill:#324BC8;}
	.st19{filter:url(#Adobe_OpacityMaskFilter_5_);}
	.st20{fill:url(#SVGID_21_);}
	.st21{mask:url(#SVGID_20_);fill-rule:evenodd;clip-rule:evenodd;fill:#23348C;}
	.st22{filter:url(#Adobe_OpacityMaskFilter_6_);}
	.st23{fill:url(#SVGID_23_);}
	.st24{mask:url(#SVGID_22_);fill-rule:evenodd;clip-rule:evenodd;fill:#1A008C;}
	.st25{filter:url(#Adobe_OpacityMaskFilter_7_);}
	.st26{fill:url(#SVGID_25_);}
	.st27{mask:url(#SVGID_24_);fill-rule:evenodd;clip-rule:evenodd;fill:#1A008C;}
	.st28{filter:url(#Adobe_OpacityMaskFilter_8_);}
	.st29{fill:url(#SVGID_27_);}
	.st30{mask:url(#SVGID_26_);fill-rule:evenodd;clip-rule:evenodd;fill:#D4FEFF;}
	.st31{filter:url(#Adobe_OpacityMaskFilter_9_);}
	.st32{fill:url(#SVGID_29_);}
	.st33{mask:url(#SVGID_28_);fill-rule:evenodd;clip-rule:evenodd;fill:#FFFFFF;}
	.st34{filter:url(#Adobe_OpacityMaskFilter_10_);}
	.st35{fill:url(#SVGID_31_);}
	.st36{mask:url(#SVGID_30_);fill-rule:evenodd;clip-rule:evenodd;fill:#5EFAF7;}
</style>
<g>
	<g>
		<defs>
			<path id="SVGID_1_" d="M50,73.6c-11.2,0-6.1,23.9-15.5,25.6c-1.5,0.3-4.8-0.4-6-1.3C23,85,19,67.4,20.9,56.2
				c0.9-5.6,4.1-10.8,10-11c12.3-0.3,22.6,25.3,25.5,33.5C55.1,75.7,53.3,73.6,50,73.6"/>
		</defs>
		<clipPath id="SVGID_2_">
			<use xlink:href="#SVGID_1_"  style="overflow:visible;"/>
		</clipPath>
		<linearGradient id="SVGID_3_" gradientUnits="userSpaceOnUse" x1="44.1721" y1="48.0938" x2="27.6362" y2="109.8821">
			<stop  offset="0" style="stop-color:#0046C8"/>
			<stop  offset="0.51" style="stop-color:#0091EA"/>
			<stop  offset="1" style="stop-color:#00E5FF"/>
		</linearGradient>
		<rect x="19" y="44.9" class="st0" width="37.4" height="54.7"/>
	</g>
	<g>
		<defs>
			<path id="SVGID_4_" d="M42.9,7.5c2.7,1.4,4.9,2.4,7,2.4c3.9,0,9.3-2.9,15.9-5.5C72.5,1.8,83.6-1.1,91,2.7
				c5.7,14.6-1.5,33.5-11.8,35.7C67.8,40.8,53,13.6,42.9,7.5"/>
		</defs>
		<clipPath id="SVGID_5_">
			<use xlink:href="#SVGID_4_"  style="overflow:visible;"/>
		</clipPath>
		<linearGradient id="SVGID_6_" gradientUnits="userSpaceOnUse" x1="62.8545" y1="31.7742" x2="88.1209" y2="-11.6585">
			<stop  offset="0" style="stop-color:#0046C8"/>
			<stop  offset="0.6" style="stop-color:#00AFFE"/>
			<stop  offset="1" style="stop-color:#00E5FF"/>
		</linearGradient>
		<rect x="42.9" y="-1.1" class="st1" width="53.8" height="41.9"/>
	</g>
	<g>
		<defs>
			<path id="SVGID_7_" d="M28.5,98C19.2,92.6,10.8,71.8,6,51.2C3.7,41.3-2.8,11,7.1,3.7c7.1-5.2,20.5-2.9,27.6-0.1
				c3.1,1.2,5.8,2.7,8.1,3.9C58.5,16.9,69.1,39,79.4,36.8C86.2,35.4,92.9,16.8,91,2.7c19.7,10-5.1,100.2-24.5,96.6
				C60,98.1,59,85,56.4,78.7c-3.2-8.8-14.8-37.9-28.4-33c-3.7,1.3-6.2,5.1-7.1,10.4C19,67.4,23,85,28.5,98"/>
		</defs>
		<clipPath id="SVGID_8_">
			<use xlink:href="#SVGID_7_"  style="overflow:visible;"/>
		</clipPath>
		<linearGradient id="SVGID_9_" gradientUnits="userSpaceOnUse" x1="89.6955" y1="60.2756" x2="-24.8999" y2="29.5692">
			<stop  offset="0" style="stop-color:#0091EA"/>
			<stop  offset="0.38" style="stop-color:#00C4EB"/>
			<stop  offset="1" style="stop-color:#00FFFF"/>
		</linearGradient>
		<rect x="-2.8" y="-1.5" class="st2" width="113.6" height="104.3"/>
	</g>
	<path class="st3" d="M68.2,31.7c3.9,3.6,7.6,5.9,11.2,5.1C86.2,35.4,92.9,16.8,91,2.7c19.1,9.7-3.7,95-22.9,96.7
		C85.7,91.4,82.6,51,68.2,31.7"/>
	<defs>
		<filter id="Adobe_OpacityMaskFilter" filterUnits="userSpaceOnUse" x="36.7" y="45.8" width="45.6" height="53.6">
			<feColorMatrix  type="matrix" values="1 0 0 0 0  0 1 0 0 0  0 0 1 0 0  0 0 0 1 0"/>
		</filter>
	</defs>
	<mask maskUnits="userSpaceOnUse" x="36.7" y="45.8" width="45.6" height="53.6" id="SVGID_10_">
		<g class="st4">
			
				<linearGradient id="SVGID_11_" gradientUnits="userSpaceOnUse" x1="-185.0676" y1="388.7042" x2="-213.4672" y2="282.7119" gradientTransform="matrix(1 0 0 1 256.9868 -269.8877)">
				<stop  offset="0" style="stop-color:#FFFFFF"/>
				<stop  offset="1" style="stop-color:#000000"/>
			</linearGradient>
			<rect x="36.7" y="45.8" class="st5" width="45.6" height="53.6"/>
		</g>
	</mask>
	<path class="st6" d="M82.3,85.2c-5,9.2-10.6,15-15.8,14C60,98.1,59,85,56.4,78.7c-9.6-26.6-15.6-29.4-19.7-33
		c21.1,13.4,24.1,44.9,32,49.1C72.7,97,77.4,92.5,82.3,85.2"/>
	<defs>
		<filter id="Adobe_OpacityMaskFilter_1_" filterUnits="userSpaceOnUse" x="60.3" y="6.3" width="37.9" height="89">
			<feColorMatrix  type="matrix" values="1 0 0 0 0  0 1 0 0 0  0 0 1 0 0  0 0 0 1 0"/>
		</filter>
	</defs>
	<mask maskUnits="userSpaceOnUse" x="60.3" y="6.3" width="37.9" height="89" id="SVGID_12_">
		<g class="st7">
			
				<linearGradient id="SVGID_13_" gradientUnits="userSpaceOnUse" x1="-203.7868" y1="167.2376" x2="-268.3363" y2="399.3519" gradientTransform="matrix(1 0 0 1 329.1318 -282.1943)">
				<stop  offset="0" style="stop-color:#FFFFFF"/>
				<stop  offset="1" style="stop-color:#000000"/>
			</linearGradient>
			<rect x="60.3" y="6.3" class="st8" width="37.9" height="89"/>
		</g>
	</mask>
	<path class="st9" d="M94.8,6.3c9.5,15.5-2.5,66.2-16.7,85.1v0l0,0c-0.1,0.1-0.2,0.2-0.3,0.3l0,0c0,0-0.1,0.1-0.1,0.1l0,0
		c-0.1,0.1-0.2,0.2-0.3,0.3l0,0c0,0-0.1,0.1-0.1,0.1l0,0c-0.1,0.1-0.2,0.2-0.3,0.3l0,0c0,0-0.1,0.1-0.1,0.1l0,0
		c-0.1,0.1-0.2,0.2-0.3,0.2l0,0c0,0-0.1,0.1-0.1,0.1l0,0c-0.1,0.1-0.2,0.1-0.2,0.2l0,0c0,0-0.1,0.1-0.1,0.1l0,0
		c-0.1,0.1-0.1,0.1-0.2,0.2l-0.1,0c0,0-0.1,0.1-0.1,0.1l-0.1,0c-0.1,0.1-0.1,0.1-0.2,0.2l0,0c0,0-0.1,0.1-0.1,0.1l-0.1,0
		c-0.1,0-0.1,0.1-0.2,0.1l-0.1,0.1c0,0-0.1,0-0.1,0.1l-0.1,0.1c-0.1,0-0.1,0.1-0.2,0.1l-0.1,0c0,0-0.1,0-0.1,0.1l-0.1,0
		c0,0-0.1,0.1-0.1,0.1l-0.1,0c0,0-0.1,0-0.1,0c0,0-0.1,0-0.1,0c0,0-0.1,0-0.1,0.1c0,0-0.1,0-0.1,0c0,0-0.1,0-0.1,0c0,0-0.1,0-0.1,0
		l-0.1,0c0,0-0.1,0-0.1,0l-0.1,0c0,0-0.1,0-0.1,0l-0.1,0c0,0-0.1,0-0.1,0l-0.1,0c0,0-0.1,0-0.1,0l-0.1,0c0,0-0.1,0-0.1,0l-0.1,0
		c0,0-0.1,0-0.1,0l-0.1,0c0,0-0.1,0-0.1,0l-0.1,0c-0.1,0-0.1,0-0.2,0l0,0c-0.1,0-0.1,0-0.2,0l-0.1,0c-0.1,0-0.1,0-0.2,0l0,0
		c-0.1,0-0.1,0-0.2,0l0,0c-0.1,0-0.1,0-0.2,0l0,0h0l0,0c-0.1,0-0.1,0-0.2,0l0,0c-0.1,0-0.1,0-0.2,0l0,0h0l0,0c-0.1,0-0.1,0-0.2,0
		l0,0c-0.1,0-0.1,0-0.2,0l0,0h0l0,0c-0.1,0-0.1,0-0.2-0.1l0,0c-0.1,0-0.1,0-0.2-0.1l0,0l0,0l0,0c-0.1,0-0.1,0-0.2-0.1l0,0
		c-0.1,0-0.1-0.1-0.2-0.1c-0.1-0.1-0.2-0.1-0.3-0.2c0,0-0.1-0.1-0.1-0.1c0,0-0.1-0.1-0.1-0.1c-0.2-0.1-0.4-0.3-0.6-0.5
		c-2.7-2.5-4.9-8.4-7.8-15.4l0,0c2.7,4.5,6.2,6.4,9.2,6.6C86.1,85.9,101.2,23.1,94.8,6.3"/>
	<defs>
		<filter id="Adobe_OpacityMaskFilter_2_" filterUnits="userSpaceOnUse" x="2.9" y="1.7" width="65.4" height="97.4">
			<feColorMatrix  type="matrix" values="1 0 0 0 0  0 1 0 0 0  0 0 1 0 0  0 0 0 1 0"/>
		</filter>
	</defs>
	<mask maskUnits="userSpaceOnUse" x="2.9" y="1.7" width="65.4" height="97.4" id="SVGID_14_">
		<g class="st10">
			
				<linearGradient id="SVGID_15_" gradientUnits="userSpaceOnUse" x1="40.4084" y1="321.1758" x2="-146.2538" y2="321.1758" gradientTransform="matrix(1 0 0 1 153.4878 -270.8223)">
				<stop  offset="0" style="stop-color:#FFFFFF"/>
				<stop  offset="1" style="stop-color:#000000"/>
			</linearGradient>
			<rect x="2.9" y="1.7" class="st11" width="65.4" height="97.4"/>
		</g>
	</mask>
	<path class="st12" d="M28.5,98C14,89,5.2,50.3,3.5,32.4C2.8,25.2,1.6,10.2,7.7,5c2.5-2.2,6-3,9.2-3.2
		c36.9-3.1,61.3,106.8,47.5,96.7c-4.6-3.3-5.8-14.4-8.1-19.8C53.2,69.8,41.6,40.8,28,45.8c-8.7,3.2-8.6,17.7-6,31
		C23.8,85.7,26.5,93.4,28.5,98"/>
	<defs>
		<filter id="Adobe_OpacityMaskFilter_3_" filterUnits="userSpaceOnUse" x="1.8" y="1.4" width="60.1" height="93.3">
			<feColorMatrix  type="matrix" values="1 0 0 0 0  0 1 0 0 0  0 0 1 0 0  0 0 0 1 0"/>
		</filter>
	</defs>
	<mask maskUnits="userSpaceOnUse" x="1.8" y="1.4" width="60.1" height="93.3" id="SVGID_16_">
		<g class="st13">
			
				<linearGradient id="SVGID_17_" gradientUnits="userSpaceOnUse" x1="-298.0178" y1="380.3814" x2="-60.0248" y2="316.6096" gradientTransform="matrix(1 0 0 1 150.0298 -284.1592)">
				<stop  offset="0" style="stop-color:#FFFFFF"/>
				<stop  offset="1" style="stop-color:#000000"/>
			</linearGradient>
			<rect x="1.8" y="1.4" class="st14" width="60.1" height="93.3"/>
		</g>
	</mask>
	<path class="st15" d="M24.4,94.7C12.7,83.1,2.2,43.2,1.8,24.5C1.5,12.2,3.8,0.6,19.1,1.4C29,1.9,40.4,9.2,45.5,13.9
		c5.9,5.5,11.1,12.1,16.4,18.2c-10.9-7.2-26.6-13.4-38.5-5.9c-7.9,5-12,15.7-10.4,30.5C14.3,69,18.3,82.4,24.4,94.7"/>
	<defs>
		<filter id="Adobe_OpacityMaskFilter_4_" filterUnits="userSpaceOnUse" x="42.9" y="0.9" width="39.4" height="25.9">
			<feColorMatrix  type="matrix" values="1 0 0 0 0  0 1 0 0 0  0 0 1 0 0  0 0 0 1 0"/>
		</filter>
	</defs>
	<mask maskUnits="userSpaceOnUse" x="42.9" y="0.9" width="39.4" height="25.9" id="SVGID_18_">
		<g class="st16">
			
				<linearGradient id="SVGID_19_" gradientUnits="userSpaceOnUse" x1="-213.3467" y1="535.7677" x2="-213.3467" y2="491.9949" gradientTransform="matrix(1 0 0 1 275.9321 -492)">
				<stop  offset="0" style="stop-color:#FFFFFF"/>
				<stop  offset="1" style="stop-color:#000000"/>
			</linearGradient>
			<rect x="42.9" y="0.9" class="st17" width="39.4" height="25.9"/>
		</g>
	</mask>
	<path class="st18" d="M42.9,7.5c2.7,1.4,4.9,2.4,7,2.4c3.9,0,9.3-2.9,15.9-5.5c4.3-1.7,10.5-3.5,16.4-3.6
		C82,6.5,79.8,25.7,63.4,26.8C57.4,20.3,50.8,12.3,42.9,7.5z"/>
	<defs>
		<filter id="Adobe_OpacityMaskFilter_5_" filterUnits="userSpaceOnUse" x="42.9" y="3.6" width="25.4" height="17.1">
			<feColorMatrix  type="matrix" values="1 0 0 0 0  0 1 0 0 0  0 0 1 0 0  0 0 0 1 0"/>
		</filter>
	</defs>
	<mask maskUnits="userSpaceOnUse" x="42.9" y="3.6" width="25.4" height="17.1" id="SVGID_20_">
		<g class="st19">
			
				<linearGradient id="SVGID_21_" gradientUnits="userSpaceOnUse" x1="-208.6613" y1="566.4264" x2="-221.8091" y2="517.3511" gradientTransform="matrix(1 0 0 1 275.9321 -510.7969)">
				<stop  offset="0" style="stop-color:#FFFFFF"/>
				<stop  offset="1" style="stop-color:#000000"/>
			</linearGradient>
			<rect x="42.9" y="3.6" class="st20" width="25.4" height="17.1"/>
		</g>
	</mask>
	<path class="st21" d="M42.9,7.5c2.7,1.4,4.9,2.4,7,2.4c3.9,0,9.3-2.9,15.9-5.5c0.7-0.3,1.5-0.6,2.4-0.9c0.2,3.2-0.1,14.1-10.5,17.1
		C53.3,15.8,48.4,10.9,42.9,7.5z"/>
	<defs>
		<filter id="Adobe_OpacityMaskFilter_6_" filterUnits="userSpaceOnUse" x="32.7" y="47.8" width="23.7" height="40.1">
			<feColorMatrix  type="matrix" values="1 0 0 0 0  0 1 0 0 0  0 0 1 0 0  0 0 0 1 0"/>
		</filter>
	</defs>
	<mask maskUnits="userSpaceOnUse" x="32.7" y="47.8" width="23.7" height="40.1" id="SVGID_22_">
		<g class="st22">
			
				<linearGradient id="SVGID_23_" gradientUnits="userSpaceOnUse" x1="-200.2207" y1="267.8725" x2="-200.2207" y2="398.8272" gradientTransform="matrix(1 0 0 1 244.7861 -304.7637)">
				<stop  offset="0" style="stop-color:#FFFFFF"/>
				<stop  offset="1" style="stop-color:#000000"/>
			</linearGradient>
			<rect x="32.7" y="47.8" class="st23" width="23.7" height="40.1"/>
		</g>
	</mask>
	<path class="st24" d="M50,73.6c-6.2,0-7.4,7.5-8.9,14.4c-16.7-34.2-3.2-40.1-3-40.1c9,6.7,16,24.3,18.4,30.9
		C55.1,75.7,53.3,73.6,50,73.6"/>
	<defs>
		<filter id="Adobe_OpacityMaskFilter_7_" filterUnits="userSpaceOnUse" x="42.1" y="54.3" width="14.3" height="24.4">
			<feColorMatrix  type="matrix" values="1 0 0 0 0  0 1 0 0 0  0 0 1 0 0  0 0 0 1 0"/>
		</filter>
	</defs>
	<mask maskUnits="userSpaceOnUse" x="42.1" y="54.3" width="14.3" height="24.4" id="SVGID_24_">
		<g class="st25">
			
				<linearGradient id="SVGID_25_" gradientUnits="userSpaceOnUse" x1="-198.6852" y1="355.4985" x2="-230.313" y2="410.2787" gradientTransform="matrix(1 0 0 1 273.4072 -333.1631)">
				<stop  offset="0" style="stop-color:#FFFFFF"/>
				<stop  offset="1" style="stop-color:#000000"/>
			</linearGradient>
			<rect x="42.1" y="54.3" class="st26" width="14.3" height="24.4"/>
		</g>
	</mask>
	<path class="st27" d="M50,73.6c-1.7,0-3,0.6-4.1,1.5C40.2,62,42,56.5,44.2,54.3c6,8.1,10.4,19.4,12.2,24.4
		C55.1,75.7,53.3,73.6,50,73.6"/>
	<defs>
		<filter id="Adobe_OpacityMaskFilter_8_" filterUnits="userSpaceOnUse" x="2.8" y="2" width="35.3" height="44.2">
			<feColorMatrix  type="matrix" values="1 0 0 0 0  0 1 0 0 0  0 0 1 0 0  0 0 0 1 0"/>
		</filter>
	</defs>
	<mask maskUnits="userSpaceOnUse" x="2.8" y="2" width="35.3" height="44.2" id="SVGID_26_">
		<g class="st28">
			
				<linearGradient id="SVGID_27_" gradientUnits="userSpaceOnUse" x1="-132.7389" y1="318.2747" x2="-132.7389" y2="531.6672" gradientTransform="matrix(1 0 0 1 153.1655 -432.5083)">
				<stop  offset="0" style="stop-color:#FFFFFF"/>
				<stop  offset="1" style="stop-color:#000000"/>
			</linearGradient>
			<rect x="2.8" y="2" class="st29" width="35.3" height="44.2"/>
		</g>
	</mask>
	<path class="st30" d="M3.7,34.3c-0.1-0.6-0.1-1.3-0.2-1.9C2.5,21.4,0.4,2,16.7,2c7.5,0,16.2,5.1,21.3,10.5c-4.8-3-9.6-4.6-14.1-4.6
		C10.1,7.8,3.3,23.8,5.8,46.2C4.9,42.1,4.2,38.1,3.7,34.3"/>
	<defs>
		<filter id="Adobe_OpacityMaskFilter_9_" filterUnits="userSpaceOnUse" x="19.8" y="45.2" width="11" height="52.8">
			<feColorMatrix  type="matrix" values="1 0 0 0 0  0 1 0 0 0  0 0 1 0 0  0 0 0 1 0"/>
		</filter>
	</defs>
	<mask maskUnits="userSpaceOnUse" x="19.8" y="45.2" width="11" height="52.8" id="SVGID_28_">
		<g class="st31">
			
				<linearGradient id="SVGID_29_" gradientUnits="userSpaceOnUse" x1="-179.8309" y1="254.1404" x2="-179.8309" y2="369.7911" gradientTransform="matrix(1 0 0 1 205.1118 -274.084)">
				<stop  offset="0" style="stop-color:#FFFFFF"/>
				<stop  offset="1" style="stop-color:#000000"/>
			</linearGradient>
			<rect x="19.8" y="45.2" class="st32" width="11" height="52.8"/>
		</g>
	</mask>
	<path class="st33" d="M28.5,98c-0.3-0.2-0.6-0.4-0.9-0.6c-5.4-12.9-9.1-30.2-7.3-41.2c0.9-5.3,3.3-9.1,7.2-10.5
		c1.1-0.4,2.3-0.6,3.4-0.5c-0.9,0-2,0.2-2.8,0.5c-4.4,1.6-6.4,6.1-7.1,10.4c-0.4,2.6-0.5,4.9-0.5,7.5c0,3,0.5,7,1,9.9
		c0.6,3.8,1.4,7.4,2.5,11.1C25.1,89.2,26.7,93.8,28.5,98"/>
	<defs>
		<filter id="Adobe_OpacityMaskFilter_10_" filterUnits="userSpaceOnUse" x="57.2" y="2.7" width="34.4" height="35.2">
			<feColorMatrix  type="matrix" values="1 0 0 0 0  0 1 0 0 0  0 0 1 0 0  0 0 0 1 0"/>
		</filter>
	</defs>
	<mask maskUnits="userSpaceOnUse" x="57.2" y="2.7" width="34.4" height="35.2" id="SVGID_30_">
		<g class="st34">
			
				<linearGradient id="SVGID_31_" gradientUnits="userSpaceOnUse" x1="-245.2286" y1="454.2319" x2="-245.2286" y2="496.0898" gradientTransform="matrix(1 0 0 1 319.6172 -458.0889)">
				<stop  offset="0" style="stop-color:#FFFFFF"/>
				<stop  offset="1" style="stop-color:#000000"/>
			</linearGradient>
			<rect x="57.2" y="2.7" class="st35" width="34.4" height="35.2"/>
		</g>
	</mask>
	<path class="st36" d="M60,23c7.1,7.9,13.2,14.9,19.1,13.9c1.2-0.2,2.2-0.8,3.1-1.6v0c0.2-0.2,1.2-1.1,1.2-1.3c0,0,1.1-1.4,1.2-1.6
		c0,0,1.1-1.7,1.1-1.8c0,0,1.3-2.4,1.3-2.6l0.7-1.7c0.6-1.4,1.1-2.9,1.5-4.4c0.5-1.8,0.9-3.6,1.3-5.4c0.8-4.5,1.1-9.4,0.5-13.9
		c2.7,15.2-4.6,33.6-11.4,35.1c-6.8,1.4-13.9-8.2-22.4-17.6c0,0,0,0,0,0C58.1,21.1,59.1,22.1,60,23"/>
</g>
</svg>
