<svg id="Layer_1" data-name="Layer 1" xmlns="http://www.w3.org/2000/svg" xmlns:xlink="http://www.w3.org/1999/xlink" viewBox="0 0 72.67 74.36"><defs><style>.cls-1{fill:url(#linear-gradient);}.cls-2{fill:url(#linear-gradient-2);}.cls-3{fill:url(#linear-gradient-3);}.cls-4{fill:url(#linear-gradient-4);}.cls-5{fill:url(#linear-gradient-5);}.cls-6{fill:url(#linear-gradient-6);}.cls-7{fill:url(#linear-gradient-7);}.cls-8{fill:url(#linear-gradient-8);}.cls-9{fill:url(#linear-gradient-9);}.cls-10{fill:url(#linear-gradient-10);}.cls-11{fill:url(#linear-gradient-11);}.cls-12,.cls-13,.cls-14,.cls-15,.cls-17,.cls-19,.cls-21,.cls-23,.cls-25,.cls-27,.cls-29,.cls-32,.cls-35{fill-rule:evenodd;}.cls-12{fill:url(#linear-gradient-12);}.cls-13{fill:url(#linear-gradient-13);}.cls-14{fill:url(#linear-gradient-14);}.cls-15,.cls-19{fill:#0064ff;}.cls-15{fill-opacity:0.2;}.cls-16{mask:url(#mask);}.cls-17{fill:#0091ea;}.cls-18{mask:url(#mask-2);}.cls-20{mask:url(#mask-3);}.cls-21{fill:#fff;}.cls-22{mask:url(#mask-4);}.cls-23{fill:#18ffff;}.cls-24{mask:url(#mask-5);}.cls-25{fill:#324bc8;}.cls-26{mask:url(#mask-6);}.cls-27{fill:#23348c;}.cls-28{mask:url(#mask-7);}.cls-29{fill:#1a008c;}.cls-30{mask:url(#mask-8);}.cls-31{mask:url(#mask-9);}.cls-32{fill:#d4feff;}.cls-33{mask:url(#mask-10);}.cls-34{mask:url(#mask-11);}.cls-35{fill:#5efaf7;}</style><linearGradient id="linear-gradient" x1="2312.15" y1="-3456.51" x2="1557.36" y2="-639.59" gradientTransform="matrix(0.03, 0, 0, -0.03, 0.97, 3.86)" gradientUnits="userSpaceOnUse"><stop offset="0" stop-color="#fff"/><stop offset="1" stop-color="#fff" stop-opacity="0"/></linearGradient><linearGradient id="linear-gradient-2" x1="3731.93" y1="2756.25" x2="2016.53" y2="-3412.4" xlink:href="#linear-gradient"/><linearGradient id="linear-gradient-3" x1="2377.76" y1="-196.34" x2="2377.76" y2="-1308.74" xlink:href="#linear-gradient"/><linearGradient id="linear-gradient-4" x1="5553.84" y1="-1637" x2="593.08" y2="-1637" xlink:href="#linear-gradient"/><linearGradient id="linear-gradient-5" x1="-3532.14" y1="-2855.98" x2="2792.77" y2="-1161.23" xlink:href="#linear-gradient"/><linearGradient id="linear-gradient-6" x1="2064.07" y1="-1461.95" x2="2064.08" y2="-298.7" xlink:href="#linear-gradient"/><linearGradient id="linear-gradient-7" x1="2188.65" y1="-1777.25" x2="1839.17" y2="-472.99" xlink:href="#linear-gradient"/><linearGradient id="linear-gradient-8" x1="1585.18" y1="681.63" x2="1585.18" y2="-2798.62" xlink:href="#linear-gradient"/><linearGradient id="linear-gradient-9" x1="2386.63" y1="-892.36" x2="1546.07" y2="-2348.24" xlink:href="#linear-gradient"/><linearGradient id="linear-gradient-10" x1="960.03" y1="2756.17" x2="960.04" y2="-2934.42" xlink:href="#linear-gradient"/><linearGradient id="linear-gradient-11" x1="1072.68" y1="231.18" x2="1072.68" y2="-2842.33" xlink:href="#linear-gradient"/><linearGradient id="linear-gradient-12" x1="1564.84" y1="-1574.34" x2="1125.35" y2="-3216.36" gradientTransform="matrix(0.03, 0, 0, -0.03, 0.97, 3.86)" gradientUnits="userSpaceOnUse"><stop offset="0" stop-color="#0046c8"/><stop offset="0.51" stop-color="#0091ea"/><stop offset="1" stop-color="#00e5ff"/></linearGradient><linearGradient id="linear-gradient-13" x1="1982.1" y1="-1091.4" x2="2653.53" y2="62.85" gradientTransform="matrix(0.03, 0, 0, -0.03, 0.97, 3.86)" gradientUnits="userSpaceOnUse"><stop offset="0" stop-color="#0046c8"/><stop offset="0.6" stop-color="#00affe"/><stop offset="1" stop-color="#00e5ff"/></linearGradient><linearGradient id="linear-gradient-14" x1="2797.34" y1="-1853.02" x2="-248.19" y2="-1036.97" gradientTransform="matrix(0.03, 0, 0, -0.03, 0.97, 3.86)" gradientUnits="userSpaceOnUse"><stop offset="0" stop-color="#0091ea"/><stop offset="0.38" stop-color="#00c4eb"/><stop offset="1" stop-color="aqua"/></linearGradient><mask id="mask" x="26.26" y="33.92" width="34.5" height="40.52" maskUnits="userSpaceOnUse"><g transform="translate(-13.67 -12.82)"><g id="id0"><rect class="cls-1" x="39.92" y="46.73" width="34.5" height="40.52"/></g></g></mask><mask id="mask-2" x="44.02" y="4.2" width="28.69" height="67.2" maskUnits="userSpaceOnUse"><g transform="translate(-13.67 -12.82)"><g id="id2"><rect class="cls-2" x="57.68" y="17.02" width="28.69" height="67.2"/></g></g></mask><mask id="mask-3" x="0.78" y="0.69" width="49.44" height="73.51" maskUnits="userSpaceOnUse"><g transform="translate(-13.67 -12.82)"><g id="id4"><rect class="cls-4" x="14.45" y="13.51" width="49.44" height="73.51"/></g></g></mask><mask id="mask-4" x="-0.07" y="0.5" width="45.4" height="70.42" maskUnits="userSpaceOnUse"><g transform="translate(-13.67 -12.82)"><g id="id6"><rect class="cls-5" x="13.6" y="13.31" width="45.4" height="70.42"/></g></g></mask><mask id="mask-5" x="30.92" y="0.11" width="29.79" height="19.66" maskUnits="userSpaceOnUse"><g transform="translate(-13.67 -12.82)"><g id="id8"><rect class="cls-6" x="44.59" y="12.92" width="29.79" height="19.66"/></g></g></mask><mask id="mask-6" x="30.92" y="2.13" width="19.28" height="13.01" maskUnits="userSpaceOnUse"><g transform="translate(-13.67 -12.82)"><g id="id10"><rect class="cls-7" x="44.59" y="14.95" width="19.28" height="13.01"/></g></g></mask><mask id="mask-7" x="23.25" y="35.47" width="17.97" height="30.38" maskUnits="userSpaceOnUse"><g transform="translate(-13.67 -12.82)"><g id="id12"><rect class="cls-8" x="36.92" y="48.29" width="17.97" height="30.38"/></g></g></mask><mask id="mask-8" x="30.3" y="40.32" width="10.92" height="18.54" maskUnits="userSpaceOnUse"><g transform="translate(-13.67 -12.82)"><g id="id14"><rect class="cls-9" x="43.97" y="53.14" width="10.92" height="18.54"/></g></g></mask><mask id="mask-9" x="0.78" y="0.69" width="27.47" height="70.99" maskUnits="userSpaceOnUse"><g transform="translate(-13.67 -12.82)"><g id="id16"><rect class="cls-10" x="14.45" y="13.51" width="27.47" height="70.99"/></g></g></mask><mask id="mask-10" x="13.49" y="33.49" width="8.44" height="39.91" maskUnits="userSpaceOnUse"><g transform="translate(-13.67 -12.82)"><g id="id18"><rect class="cls-11" x="27.16" y="46.31" width="8.44" height="39.91"/></g></g></mask><mask id="mask-11" x="41.67" y="1.45" width="26.06" height="26.65" maskUnits="userSpaceOnUse"><g transform="translate(-13.67 -12.82)"><g id="id20"><rect class="cls-3" x="55.34" y="14.27" width="26.06" height="26.65"/></g></g></mask></defs><title>newLogo</title><g id="Layer_1-2" data-name="Layer_1"><g id="_789678448" data-name=" 789678448"><path class="cls-12" d="M50,67.78c-8.43,0-4.6,18-11.68,19.32a8.11,8.11,0,0,1-4.53-1c-4.13-9.78-7.08-23-5.69-31.47.7-4.19,3.06-8.17,7.51-8.29,9.3-.24,17,19,19.24,25.23C53.87,69.36,52.45,67.78,50,67.78Z" transform="translate(-13.67 -12.82)"/><path class="cls-13" d="M44.66,18c2,1,3.73,1.8,5.3,1.8,3,0,7-2.15,12-4.14s13.37-4.17,18.93-1.34c4.27,11-1.16,25.26-8.87,26.89C63.41,43.05,52.26,22.59,44.66,18Z" transform="translate(-13.67 -12.82)"/><path class="cls-14" d="M33.77,86.15c-7-4.07-13.33-19.7-16.92-35.28-1.71-7.41-6.66-30.23.87-35.73,5.34-3.9,15.45-2.16,20.82,0,2.35.93,4.35,2,6.12,2.92h0c11.76,7.07,19.76,23.7,27.5,22.07C77.28,39,82.34,25,80.9,14.34,95.73,21.9,77.06,89.8,62.42,87.1c-4.91-.9-5.61-10.72-7.59-15.47C52.44,65,43.67,43.09,33.41,46.8c-2.8,1-4.67,3.85-5.34,7.87-1.39,8.44,1.56,21.69,5.7,31.48Z" transform="translate(-13.67 -12.82)"/><path class="cls-15" d="M63.74,36.24c2.94,2.73,5.69,4.42,8.42,3.85C77.28,39,82.34,25,80.9,14.34c14.4,7.35-2.8,71.6-17.21,72.82C76.89,81.22,74.53,50.79,63.74,36.24Z" transform="translate(-13.67 -12.82)"/><g class="cls-16"><path class="cls-17" d="M74.36,76.54c-3.79,6.92-8,11.29-11.94,10.56-4.91-.9-5.61-10.72-7.59-15.47C47.59,51.56,43.07,49.46,40,46.8c15.93,10.1,18.19,33.83,24.08,37,3,1.61,6.61-1.76,10.29-7.22Z" transform="translate(-13.67 -12.82)"/></g><g class="cls-18"><path class="cls-19" d="M83.74,17.09c7.16,11.65-1.85,49.84-12.57,64.09h0L71,81.4h0l-.1.11h0l-.19.2,0,0-.1.1h0l-.21.2h0l-.1.1h0l-.19.17,0,0-.1.08,0,0-.18.15,0,0-.09.08,0,0-.16.13,0,0-.09.06,0,0a.91.91,0,0,1-.16.11l0,0-.09.07,0,0-.14.09-.06,0-.08.05-.06,0-.12.07-.06,0-.08,0-.06,0-.11.06-.07,0-.07,0-.08,0-.09,0-.07,0-.07,0-.09,0-.07,0-.09,0-.06,0-.1,0-.06,0-.1,0,0,0-.1,0h-.05l-.1,0h0l-.11,0H65.5l-.12,0h0l-.12,0h0l-.12,0h0L65,84h0l-.12,0h0l-.12-.06,0,0-.13-.06-.23-.14-.11-.07-.08-.06a4.62,4.62,0,0,1-.47-.38c-2-1.91-3.71-6.34-5.87-11.61h0c2,3.38,4.65,4.83,6.9,4.94C77.21,77,88.58,29.7,83.74,17.09Z" transform="translate(-13.67 -12.82)"/></g><g class="cls-20"><path class="cls-21" d="M33.77,86.15C22.9,79.34,16.24,50.2,14.94,36.7c-.51-5.35-1.39-16.71,3.22-20.63a12.07,12.07,0,0,1,6.9-2.44c27.77-2.34,46.21,80.44,35.82,72.83-3.44-2.52-4.36-10.84-6.07-14.93-2.4-6.64-11.14-28.44-21.4-24.73-6.58,2.38-6.51,13.35-4.51,23.38a87.5,87.5,0,0,0,4.87,16Z" transform="translate(-13.67 -12.82)"/></g><g class="cls-22"><path class="cls-23" d="M30.75,83.67C21.88,74.92,14,44.91,13.68,30.76c-.2-9.21,1.55-17.94,13-17.35,7.47.39,16.08,5.83,19.91,9.37,4.47,4.14,8.34,9.11,12.33,13.73-8.25-5.42-20-10.12-29-4.43-5.93,3.77-9,11.8-7.85,23A85.89,85.89,0,0,0,30.75,83.67Z" transform="translate(-13.67 -12.82)"/></g><g class="cls-24"><path class="cls-25" d="M44.66,18c2,1,3.73,1.8,5.3,1.8,3,0,7-2.15,12-4.14A36.41,36.41,0,0,1,74.3,13c-.2,4.23-1.81,18.74-14.21,19.52C55.61,27.64,50.62,21.6,44.66,18Z" transform="translate(-13.67 -12.82)"/></g><g class="cls-26"><path class="cls-27" d="M44.66,18c2,1,3.73,1.8,5.3,1.8,3,0,7-2.15,12-4.14q.84-.33,1.8-.66c.13,2.42,0,10.65-7.88,12.86-3.38-3.66-7.07-7.36-11.23-9.86Z" transform="translate(-13.67 -12.82)"/></g><g class="cls-28"><path class="cls-29" d="M50,67.78c-4.71,0-5.59,5.63-6.69,10.82C30.69,52.84,40.87,48.41,41,48.36c6.78,5,12,18.3,13.83,23.25-1-2.26-2.37-3.83-4.85-3.83Z" transform="translate(-13.67 -12.82)"/></g><g class="cls-30"><path class="cls-29" d="M50,67.78a4.46,4.46,0,0,0-3.08,1.13C42.6,59,44,54.9,45.6,53.21c4.51,6.1,7.87,14.65,9.22,18.4-1-2.26-2.37-3.83-4.85-3.83Z" transform="translate(-13.67 -12.82)"/></g><g class="cls-31"><path class="cls-32" d="M15.09,38.15l-.15-1.45c-.51-5.35-1.39-16.71,3.22-20.63a12.07,12.07,0,0,1,6.9-2.44c6.12-.52,11.78,3.13,16.79,9-8.43-2.21-14.65,1.14-16.67,3C8.25,41.53,26.89,79.4,32.42,84.43,25,78.2,19.89,60.4,17.52,50.69A125.94,125.94,0,0,1,15.09,38.15Z" transform="translate(-13.67 -12.82)"/></g><g class="cls-33"><path class="cls-21" d="M33.77,86.15a7.15,7.15,0,0,1-.68-.44c-4-9.74-6.89-22.73-5.51-31,.66-4,2.51-6.87,5.39-7.89a6.8,6.8,0,0,1,2.56-.39,7,7,0,0,0-2.11.41c-3.32,1.24-4.8,4.59-5.35,7.87a31.64,31.64,0,0,0-.34,5.67,57.09,57.09,0,0,0,.74,7.47,83,83,0,0,0,5.3,18.34Z" transform="translate(-13.67 -12.82)"/></g><g class="cls-34"><path class="cls-35" d="M57.52,29.68C62.88,35.6,67.46,40.88,72,40.12a4.71,4.71,0,0,0,2.35-1.21h0a13.21,13.21,0,0,0,.92-.95s.85-1.06.89-1.17.81-1.26.84-1.38,1-1.77,1-2l.54-1.29a34.43,34.43,0,0,0,1.12-3.29,40,40,0,0,0,.94-4.07,34.3,34.3,0,0,0,.36-10.46c2,11.42-3.47,25.33-8.6,26.41S61.85,34.57,55.41,27.5h0l2.1,2.17Z" transform="translate(-13.67 -12.82)"/></g></g></g></svg>