<svg id="Layer_1" data-name="Layer 1" xmlns="http://www.w3.org/2000/svg" viewBox="0 0 98.2 94.66"><defs><style>.cls-1{fill:#fff;}</style></defs><title>northwestern</title><path class="cls-1" d="M23.91,31.08a15.11,15.11,0,0,0-.42,2.21q-.06,22.2-.07,44.38c0,1.63,0,3.27-.06,4.9a4.87,4.87,0,0,0,4.08,5.29c2.23.57,4.48,1.07,6.69,1.7s2.82,1.76,2.41,4.93c-.28,2.14-1.9,1.76-3.24,1.77-9.89,0-19.77,0-29.66,0-1.2,0-2.66.15-2.58-1.61s-1-4.1,1.68-4.93c2.55-.78,5.14-1.45,7.73-2.07,1.87-.44,2.65-1.35,2.64-3.4-.1-21.34-.09-42.67-.19-64A5.52,5.52,0,0,0,11.74,17c-1.85-2.32-4-4.41-5.87-6.7A7.77,7.77,0,0,1,4.1,7.1c-.71-3.53.11-4.39,3.73-4.4s7.29-.1,10.92.09A5,5,0,0,1,22,4.3Q43,28.95,63.92,53.72c3.3,3.91,6.52,7.9,9.72,11.89A15.16,15.16,0,0,1,74.93,68l1.16-.74V61.33Q76,40.6,76,19.86a10.76,10.76,0,0,0-.15-3.32,4.64,4.64,0,0,0-3.47-3.41c-2.54-.55-5-1.29-7.57-1.88a2.4,2.4,0,0,1-2-2.71c-.06-5.13-.1-5.11,5.06-5.1,9.37,0,18.74,0,28.11,0,1.2,0,2.62-.35,2.95,1.52.58,3.17,0,5.07-1.87,5.7-2.61.87-5.22,1.73-7.87,2.43a2.71,2.71,0,0,0-2.39,3.11q.16,23,.14,45.94c0,10.71-.24,21.41-.27,32.11,0,2.08-.72,2.85-2.82,3a6.89,6.89,0,0,1-6.48-2.84Q55.71,68.39,33.87,42.53C30.74,38.8,27.48,35.17,23.91,31.08Z" transform="translate(-0.9 -2.67)"/></svg>