<?xml version="1.0" encoding="utf-8"?>
<!-- Generator: Adobe Illustrator 23.0.1, SVG Export Plug-In . SVG Version: 6.00 Build 0)  -->
<svg version="1.1" id="Layer_1" xmlns="http://www.w3.org/2000/svg" xmlns:xlink="http://www.w3.org/1999/xlink" x="0px" y="0px"
	 viewBox="0 0 100 100" style="enable-background:new 0 0 100 100;" xml:space="preserve">
<style type="text/css">
	.st0{fill:#DCDCDC;}
</style>
<g>
	<g>
		<path class="st0" d="M25.11,37.34c1.32-0.29,2.65-0.56,4-0.73c1.43-0.15,2.86-0.22,4.29-0.23c0.6,0.03,1.19,0.06,1.79,0.09
			c0.92,0.11,1.84,0.22,2.76,0.33c0.25,0.05,0.5,0.11,0.76,0.16c3.43,0.67,6.67,1.85,9.7,3.6c1.2,0.69,2.34,1.46,3.47,2.26
			c0.71,0.59,1.42,1.19,2.14,1.78c0.43,0.42,0.85,0.83,1.28,1.25c0.4,0.45,0.81,0.88,1.19,1.34c0.52,0.61,1.03,1.24,1.54,1.86
			c0.13,0.19,0.25,0.39,0.39,0.58c0.68,0.93,1.26,1.93,1.86,2.91c0.62,1.21,1.21,2.43,1.73,3.69c0.47,1.25,0.88,2.52,1.25,3.8
			c0.3,1.35,0.56,2.71,0.76,4.08c0.13,1.4,0.18,2.8,0.21,4.2c-0.04,0.54-0.08,1.08-0.07,1.62c-0.12,1.01-0.24,2.02-0.36,3.03
			c-0.03,0.13-0.06,0.26-0.09,0.4c-0.48,2.63-1.27,5.16-2.39,7.58c-0.96,2.09-2.17,4.03-3.51,5.89c-0.61,0.73-1.23,1.47-1.84,2.2
			c-0.42,0.43-0.84,0.86-1.26,1.29c-1.04,0.94-2.09,1.86-3.19,2.72c-1.13,0.76-2.24,1.53-3.44,2.18c-1.2,0.65-2.44,1.21-3.68,1.76
			c-1.29,0.44-2.57,0.9-3.89,1.24c-1.31,0.35-2.66,0.55-3.99,0.77c-1.43,0.14-2.86,0.18-4.3,0.21c-0.56-0.02-1.13-0.04-1.69-0.07
			c-0.95-0.12-1.9-0.23-2.85-0.35c-0.04-0.01-0.07-0.02-0.11-0.03c-4.97-0.9-9.51-2.81-13.56-5.84c-0.1-0.07-0.2-0.14-0.33-0.15
			c-0.72-0.62-1.45-1.24-2.17-1.86c-0.32-0.44-0.74-0.77-1.13-1.14c-0.96-1.06-1.9-2.13-2.78-3.26c-0.25-0.36-0.49-0.73-0.75-1.09
			c-0.54-0.77-0.99-1.6-1.5-2.4c-0.6-1.19-1.19-2.39-1.7-3.63c-0.49-1.27-0.89-2.57-1.27-3.87c-0.31-1.35-0.55-2.71-0.75-4.08
			c-0.11-1.35-0.21-2.71-0.19-4.07c0-0.04-0.03-0.09-0.05-0.13c0.09-0.55,0.15-1.11,0.07-1.67c0.19-0.95,0.23-1.92,0.37-2.88
			c0.05-0.22,0.1-0.43,0.14-0.65c0.64-3.28,1.72-6.4,3.34-9.33c0.76-1.37,1.62-2.67,2.53-3.95c0.63-0.76,1.27-1.51,1.9-2.27
			c0.4-0.36,0.77-0.75,1.13-1.15c1.05-0.98,2.15-1.92,3.29-2.79c2.59-1.88,5.39-3.35,8.4-4.41C23.39,37.84,24.26,37.61,25.11,37.34z
			 M38.23,92.49c1.35-0.24,2.63-0.69,3.91-1.18c0.61-0.19,1.18-0.5,1.76-0.77c0.66-0.31,1.31-0.63,1.9-1.05
			c0.82-0.45,1.6-0.96,2.32-1.56c0.37-0.25,0.71-0.53,1.03-0.84c1.16-0.94,2.21-1.99,3.12-3.17c0.79-0.91,1.49-1.88,2.1-2.92
			c0.25-0.37,0.47-0.74,0.66-1.15c0.73-1.3,1.34-2.66,1.76-4.1c0.21-0.5,0.37-1.02,0.48-1.55c0.31-1.07,0.54-2.16,0.64-3.27
			c0.19-1.45,0.27-2.9,0.16-4.36c0.01-0.45-0.03-0.9-0.09-1.35c0.03-0.13-0.03-0.26-0.04-0.38c-0.09-0.85-0.17-1.7-0.46-2.52
			c-0.03-0.57-0.25-1.1-0.38-1.65c-0.17-0.75-0.43-1.49-0.76-2.2c-0.27-0.77-0.63-1.5-1-2.22c-0.25-0.49-0.49-0.99-0.82-1.44
			c-0.45-0.82-0.95-1.61-1.57-2.32c-0.26-0.4-0.55-0.76-0.88-1.1c-0.95-1.15-2-2.2-3.18-3.13c-0.87-0.75-1.8-1.41-2.79-1.99
			c-0.39-0.27-0.79-0.5-1.22-0.7c-1.32-0.76-2.71-1.34-4.15-1.81c-0.47-0.19-0.96-0.32-1.45-0.42c-1.11-0.31-2.22-0.55-3.37-0.66
			c-1.47-0.2-2.95-0.28-4.44-0.15c-0.52-0.02-1.03,0.03-1.54,0.13c-0.12,0-0.24-0.01-0.36,0.01c-1.49,0.24-2.98,0.52-4.42,1
			c-1.87,0.61-3.66,1.38-5.33,2.41c-0.79,0.46-1.55,0.95-2.26,1.51c-0.38,0.27-0.77,0.54-1.09,0.89c-1.17,0.92-2.19,1.99-3.13,3.15
			c-0.78,0.89-1.45,1.87-2.06,2.88c-0.26,0.39-0.52,0.78-0.71,1.21c-0.74,1.32-1.34,2.7-1.79,4.15c-0.17,0.44-0.3,0.89-0.4,1.35
			c-0.34,1.14-0.56,2.29-0.69,3.47c-0.2,1.45-0.25,2.9-0.15,4.35c0,0.47,0.03,0.93,0.11,1.39c0.05,0.94,0.21,1.86,0.45,2.77
			c0.24,1.35,0.67,2.65,1.18,3.92c0.49,1.25,1.06,2.46,1.79,3.6c0.12,0.21,0.23,0.43,0.37,0.64c0.43,0.62,0.78,1.3,1.33,1.83
			c0.19,0.37,0.47,0.65,0.74,0.95c0.93,1.16,2,2.17,3.14,3.11c0.89,0.77,1.85,1.43,2.86,2.04c0.4,0.26,0.82,0.5,1.26,0.71
			c1.3,0.75,2.68,1.33,4.11,1.79c0.41,0.15,0.83,0.29,1.27,0.37c1.15,0.35,2.33,0.57,3.53,0.69c1.47,0.23,2.95,0.27,4.44,0.17
			c0.47,0,0.94-0.03,1.4-0.12C36.45,92.89,37.35,92.72,38.23,92.49z"/>
		<path class="st0" d="M35.65,53.06c1.01-1.11,2.27-1.61,3.76-1.53c0.4,0.07,0.81,0.14,1.21,0.21c0.81,0.21,1.55,0.59,2.28,1
			c0.72,0.4,1.32,0.96,1.96,1.47c0.01,0.02,0.02,0.03,0.04,0.04c0.94,0.99,1.77,2.06,2.35,3.3c0.02,0.04,0.06,0.08,0.09,0.11
			c0.1,0.7-0.04,1.03-0.57,1.34c-0.48,0.14-0.88,0.01-1.23-0.33c-0.1-0.1-0.23-0.17-0.35-0.26c-0.52-0.47-1.07-0.91-1.63-1.32
			c-0.68-0.5-1.4-0.91-2.25-1.03c-0.27-0.06-0.53-0.14-0.81-0.07c-0.95-0.05-1.76,0.28-2.45,0.9c-0.25,0.18-0.45,0.42-0.61,0.69
			c-0.22,0.25-0.38,0.54-0.51,0.84c-0.51,1.16-0.59,2.42-0.73,3.66c-0.09,0.54-0.16,1.09-0.71,1.4c-0.7,0.12-1.01-0.01-1.36-0.58
			c-0.09-0.34-0.19-0.69-0.27-1.03c-0.25-1.02-0.29-2.07-0.29-3.11c0-0.11,0-0.22,0.01-0.33c0.17-1.56,0.55-3.05,1.36-4.42
			C35.17,53.7,35.41,53.38,35.65,53.06z"/>
		<path class="st0" d="M16.86,60.48c0.25-0.22,0.49-0.44,0.75-0.65c0.86-0.7,1.87-0.85,2.94-0.84c0.43,0.08,0.86,0.15,1.29,0.23
			c0.28,0.09,0.56,0.18,0.84,0.29c1.24,0.49,2.32,1.24,3.31,2.13c0.03,0.03,0.06,0.07,0.1,0.1c0.98,1.01,1.81,2.13,2.43,3.41
			c0.14,0.64,0,0.97-0.59,1.35c-0.15,0.06-0.29,0.06-0.45,0.05c-0.44-0.03-0.68-0.39-1.02-0.58c-0.62-0.55-1.26-1.08-1.94-1.56
			c-0.62-0.43-1.28-0.77-2.04-0.86c-0.3-0.1-0.61-0.12-0.92-0.08c-0.87,0-1.63,0.3-2.27,0.89c-0.25,0.18-0.46,0.39-0.61,0.66
			c-0.25,0.25-0.4,0.56-0.54,0.87c-0.53,1.17-0.6,2.44-0.75,3.69c-0.09,0.54-0.15,1.11-0.72,1.4c-0.59,0.14-1.03-0.06-1.34-0.58
			c-0.38-1.32-0.57-2.67-0.57-4.05c0-0.06,0-0.11,0.01-0.17c0.13-1.71,0.55-3.33,1.45-4.81C16.41,61.07,16.63,60.78,16.86,60.48z"/>
		<path class="st0" d="M39.53,84.74c-1.27,0.52-2.61,0.8-3.94,1.1c-1.39,0.24-2.78,0.29-4.18,0.3c-0.32-0.04-0.64-0.07-0.96-0.03
			c-0.63-0.09-1.27-0.15-1.89-0.28c-0.61-0.12-1.22-0.3-1.83-0.45c-0.93-0.3-1.86-0.62-2.76-1.01c-0.26-0.13-0.52-0.28-0.79-0.4
			c-1.23-0.55-2-1.44-2.11-2.82c0.01-0.6,0.14-1.16,0.45-1.69c0.52-0.86,1.32-1.28,2.28-1.47c0.55-0.04,1.07,0.09,1.58,0.29
			c0.49,0.2,0.91,0.53,1.43,0.67c0.64,0.32,1.31,0.51,2.01,0.66c0.5,0.19,1.02,0.27,1.54,0.33c0.97,0.11,1.94,0.16,2.91,0.03
			c1.4-0.06,2.73-0.39,4.02-0.92c1.3-0.49,2.5-1.18,3.56-2.09c1.22-0.91,2.2-2.03,2.99-3.32c0.42-0.61,0.79-1.25,1.04-1.95
			c0.09-0.2,0.18-0.4,0.26-0.61c0.27-0.77,0.57-1.53,1.24-2.06c0.85-0.53,1.74-0.77,2.74-0.47c0.56,0.17,1.01,0.49,1.42,0.9
			c0.73,0.96,0.95,2,0.52,3.16c-0.15,0.39-0.28,0.79-0.42,1.18c-0.39,0.9-0.85,1.77-1.32,2.62c-0.68,1.09-1.42,2.14-2.28,3.1
			c-0.2,0.22-0.4,0.44-0.61,0.66c-1.02,0.96-2.08,1.88-3.25,2.65c-0.63,0.35-1.2,0.78-1.87,1.07C40.7,84.16,40.12,84.46,39.53,84.74
			z"/>
	</g>
	<g>
		<path class="st0" d="M88,10.38c0.78,0.48,1.55,0.99,2.29,1.54c0.77,0.6,1.49,1.25,2.2,1.93c0.28,0.3,0.55,0.59,0.83,0.89
			c0.4,0.49,0.79,0.98,1.19,1.47c0.1,0.15,0.19,0.29,0.29,0.44c1.35,1.95,2.36,4.07,3.01,6.36c0.25,0.9,0.45,1.82,0.61,2.75
			c0.06,0.63,0.13,1.25,0.19,1.88c0.01,0.4,0.02,0.81,0.03,1.21c-0.02,0.41-0.03,0.81-0.06,1.22c-0.04,0.55-0.09,1.09-0.13,1.64
			c-0.03,0.16-0.06,0.31-0.09,0.47c-0.11,0.78-0.31,1.54-0.48,2.3c-0.28,0.88-0.57,1.76-0.92,2.62c-0.36,0.83-0.77,1.64-1.2,2.44
			c-0.49,0.8-1.01,1.58-1.57,2.34c-0.6,0.74-1.24,1.45-1.89,2.14c-0.27,0.24-0.55,0.48-0.8,0.76c-0.54,0.43-1.08,0.87-1.61,1.3
			c-0.08,0.05-0.16,0.1-0.23,0.15c-1.48,1.05-3.07,1.9-4.77,2.55c-1.46,0.56-2.97,0.93-4.5,1.2c-0.65,0.07-1.29,0.13-1.94,0.2
			c-0.41,0.01-0.82,0.02-1.23,0.03c-0.95-0.04-1.9-0.08-2.84-0.19c-0.91-0.17-1.82-0.32-2.71-0.57c-0.89-0.25-1.76-0.57-2.62-0.89
			c-0.84-0.4-1.68-0.78-2.48-1.24c-0.81-0.45-1.55-0.99-2.31-1.52c-0.76-0.61-1.48-1.27-2.19-1.94c-0.26-0.28-0.53-0.56-0.79-0.84
			c-0.41-0.51-0.81-1.02-1.22-1.53c-0.01-0.02-0.02-0.04-0.04-0.06c-1.99-2.8-3.29-5.88-3.82-9.28c-0.01-0.08-0.03-0.17-0.09-0.23
			c-0.06-0.65-0.12-1.29-0.17-1.94c0.06-0.36,0-0.73-0.01-1.09c0.03-0.97,0.09-1.94,0.2-2.91c0.05-0.3,0.11-0.59,0.15-0.89
			c0.1-0.63,0.28-1.25,0.41-1.88c0.27-0.87,0.56-1.73,0.9-2.57c0.37-0.85,0.78-1.67,1.22-2.49c0.49-0.8,1.02-1.58,1.57-2.34
			c0.59-0.71,1.19-1.42,1.84-2.07c0.02-0.02,0.03-0.06,0.04-0.09c0.3-0.23,0.6-0.47,0.83-0.78c0.54-0.37,1.03-0.83,1.55-1.22
			c0.13-0.08,0.25-0.16,0.38-0.25c1.87-1.29,3.87-2.29,6.05-2.95c1.02-0.31,2.06-0.53,3.11-0.72c0.67-0.07,1.33-0.13,2-0.2
			c0.36,0.02,0.73,0,1.09-0.02c0.98,0.02,1.95,0.09,2.92,0.21c2.15,0.31,4.21,0.93,6.18,1.85C86.93,9.8,87.46,10.1,88,10.38z
			 M68.19,43.42c0.77,0.53,1.61,0.92,2.46,1.28c0.39,0.2,0.81,0.32,1.22,0.46c0.46,0.16,0.93,0.31,1.42,0.39
			c0.61,0.17,1.24,0.29,1.87,0.34c0.3,0.05,0.6,0.08,0.9,0.08c1.01,0.09,2.02,0.08,3.02-0.06c0.82-0.07,1.62-0.21,2.41-0.43
			c0.29-0.06,0.58-0.14,0.86-0.25c0.98-0.29,1.91-0.66,2.8-1.16c0.34-0.14,0.66-0.32,0.97-0.53c0.66-0.37,1.29-0.79,1.87-1.28
			c0.78-0.61,1.51-1.28,2.15-2.04c0.22-0.22,0.41-0.45,0.59-0.7c0.08-0.05,0.11-0.14,0.16-0.21c0.36-0.46,0.73-0.91,0.97-1.44
			c0.26-0.29,0.4-0.66,0.6-0.98c0.27-0.45,0.5-0.93,0.68-1.43c0.23-0.5,0.4-1.03,0.57-1.56c0.11-0.36,0.23-0.72,0.28-1.09
			c0.17-0.61,0.3-1.23,0.34-1.87c0.06-0.31,0.1-0.63,0.1-0.95c0.08-1.01,0.07-2.02-0.06-3.03c-0.07-0.78-0.2-1.54-0.41-2.29
			c-0.06-0.31-0.15-0.62-0.26-0.92c-0.28-0.99-0.68-1.94-1.16-2.85c-0.14-0.32-0.31-0.61-0.5-0.89c-0.39-0.67-0.82-1.32-1.32-1.92
			c-0.62-0.8-1.3-1.54-2.09-2.18c-0.24-0.26-0.52-0.47-0.81-0.67c-0.06-0.06-0.12-0.12-0.18-0.17c-0.84-0.59-1.7-1.16-2.62-1.61
			c-1.2-0.59-2.43-1.06-3.74-1.36c-0.6-0.15-1.2-0.28-1.82-0.34c-0.32-0.05-0.63-0.1-0.95-0.08c-1.01-0.11-2.01-0.07-3.02,0.05
			c-0.8,0.06-1.59,0.22-2.37,0.43c-0.31,0.06-0.62,0.13-0.92,0.25c-0.99,0.29-1.94,0.68-2.84,1.17c-0.29,0.13-0.57,0.29-0.84,0.46
			c-0.7,0.39-1.36,0.85-1.98,1.36c-0.78,0.61-1.49,1.29-2.14,2.04c-0.22,0.23-0.43,0.47-0.61,0.73c-0.42,0.48-0.78,1.01-1.09,1.56
			c-0.52,0.77-0.93,1.6-1.28,2.47c-0.36,0.84-0.65,1.7-0.84,2.6c-0.04,0.16-0.1,0.32-0.12,0.48c-0.09,0.51-0.24,1-0.22,1.52
			c-0.08,0.27-0.08,0.54-0.09,0.82c-0.1,1-0.06,2.01,0.05,3.01c0.06,0.8,0.22,1.58,0.42,2.35c0.07,0.32,0.16,0.63,0.28,0.94
			c0.28,0.98,0.67,1.92,1.15,2.82c0.13,0.27,0.27,0.53,0.44,0.78c0.4,0.72,0.86,1.38,1.39,2.01c0.6,0.81,1.31,1.53,2.08,2.19
			c0.23,0.22,0.47,0.43,0.74,0.61C67.14,42.77,67.66,43.11,68.19,43.42z"/>
		<path class="st0" d="M85.66,23.02c1.02-0.06,1.87,0.3,2.55,1.04c0.16,0.23,0.32,0.45,0.49,0.68c0.3,0.49,0.47,1.02,0.63,1.57
			c0.16,0.54,0.19,1.1,0.25,1.65c-0.01,0.01-0.01,0.02,0,0.04c-0.01,0.93-0.11,1.84-0.42,2.72c-0.01,0.03-0.01,0.07-0.01,0.1
			c-0.28,0.39-0.51,0.48-0.91,0.38c-0.3-0.16-0.43-0.41-0.44-0.75c0-0.1-0.03-0.19-0.04-0.29c-0.03-0.47-0.09-0.95-0.16-1.42
			c-0.09-0.56-0.25-1.11-0.61-1.57c-0.1-0.16-0.19-0.32-0.36-0.42c-0.44-0.48-0.99-0.7-1.62-0.73c-0.21-0.03-0.42-0.01-0.62,0.04
			c-0.23,0.02-0.44,0.08-0.65,0.17c-0.8,0.32-1.44,0.9-2.09,1.43c-0.3,0.22-0.6,0.46-1.01,0.34c-0.4-0.27-0.49-0.48-0.39-0.92
			c0.12-0.21,0.24-0.42,0.36-0.63c0.36-0.62,0.84-1.14,1.33-1.65c0.05-0.05,0.11-0.1,0.16-0.16c0.82-0.67,1.72-1.22,2.76-1.5
			C85.12,23.1,85.39,23.06,85.66,23.02z"/>
		<path class="st0" d="M73,17.71c0.22,0.01,0.45,0.02,0.67,0.04c0.75,0.07,1.31,0.48,1.83,0.99c0.17,0.24,0.35,0.48,0.52,0.72
			c0.09,0.18,0.19,0.35,0.27,0.54c0.37,0.83,0.54,1.7,0.6,2.61c0,0.03,0,0.06,0,0.1c0,0.96-0.13,1.9-0.43,2.81
			c-0.23,0.38-0.46,0.47-0.93,0.38c-0.1-0.04-0.17-0.11-0.24-0.19c-0.2-0.23-0.15-0.51-0.22-0.77c-0.04-0.56-0.1-1.13-0.21-1.68
			c-0.1-0.5-0.26-0.98-0.58-1.39c-0.1-0.19-0.24-0.35-0.41-0.48c-0.43-0.41-0.94-0.63-1.53-0.65c-0.21-0.03-0.41-0.03-0.61,0.03
			c-0.24,0-0.46,0.08-0.67,0.17c-0.82,0.32-1.45,0.9-2.12,1.44c-0.3,0.22-0.6,0.47-1.02,0.34c-0.36-0.21-0.47-0.52-0.37-0.92
			c0.44-0.82,0.99-1.57,1.65-2.24c0.03-0.03,0.05-0.05,0.08-0.08c0.88-0.77,1.85-1.36,2.99-1.65C72.5,17.78,72.75,17.74,73,17.71z"
			/>
		<path class="st0" d="M72.51,40.27c-0.86-0.35-1.65-0.85-2.44-1.34c-0.79-0.54-1.49-1.18-2.17-1.84c-0.14-0.17-0.28-0.34-0.46-0.47
			c-0.26-0.34-0.54-0.68-0.79-1.03c-0.24-0.35-0.45-0.72-0.67-1.09c-0.31-0.59-0.61-1.18-0.86-1.8c-0.06-0.19-0.12-0.38-0.19-0.57
			c-0.34-0.85-0.29-1.65,0.31-2.37c0.29-0.28,0.62-0.5,1.02-0.6c0.66-0.17,1.25,0.01,1.81,0.37c0.29,0.24,0.48,0.55,0.63,0.89
			c0.14,0.33,0.19,0.69,0.38,1c0.16,0.46,0.39,0.87,0.66,1.27c0.15,0.33,0.37,0.62,0.59,0.89c0.42,0.52,0.87,1,1.4,1.4
			c0.71,0.63,1.51,1.11,2.39,1.46c0.87,0.38,1.77,0.61,2.72,0.67c1.02,0.14,2.03,0.06,3.03-0.2c0.49-0.09,0.98-0.23,1.43-0.45
			c0.14-0.06,0.28-0.11,0.41-0.18c0.5-0.24,1-0.47,1.58-0.41c0.66,0.14,1.21,0.45,1.56,1.07c0.19,0.35,0.26,0.72,0.26,1.11
			c-0.1,0.82-0.49,1.43-1.25,1.78c-0.26,0.12-0.51,0.25-0.77,0.37c-0.62,0.25-1.25,0.46-1.89,0.65c-0.85,0.21-1.71,0.36-2.58,0.42
			c-0.2,0.01-0.4,0.02-0.61,0.03c-0.95-0.02-1.9-0.07-2.84-0.25c-0.47-0.13-0.96-0.19-1.42-0.37
			C73.35,40.54,72.93,40.41,72.51,40.27z"/>
	</g>
	<g>
		<path class="st0" d="M30.36,2.26c0.61-0.27,1.22-0.52,1.86-0.73c0.67-0.21,1.36-0.37,2.05-0.51c0.29-0.04,0.58-0.08,0.87-0.12
			c0.45-0.03,0.91-0.07,1.36-0.1c0.13,0,0.25,0.01,0.38,0.01c1.71,0,3.38,0.27,5.01,0.83c0.64,0.22,1.26,0.48,1.88,0.76
			c0.4,0.22,0.8,0.44,1.19,0.66c0.24,0.16,0.49,0.32,0.73,0.48c0.23,0.18,0.47,0.35,0.7,0.53c0.31,0.25,0.61,0.5,0.92,0.75
			c0.08,0.08,0.16,0.16,0.24,0.24c0.41,0.39,0.78,0.81,1.17,1.23c0.41,0.53,0.81,1.06,1.18,1.62c0.34,0.56,0.66,1.13,0.96,1.71
			c0.27,0.62,0.52,1.25,0.74,1.9c0.19,0.66,0.35,1.33,0.49,2c0.03,0.26,0.06,0.53,0.12,0.79c0.04,0.5,0.07,0.99,0.11,1.49
			c0,0.07-0.01,0.13-0.01,0.2c0.01,1.31-0.13,2.6-0.45,3.88c-0.27,1.09-0.67,2.14-1.14,3.16c-0.23,0.41-0.45,0.82-0.68,1.23
			c-0.16,0.25-0.33,0.49-0.49,0.74c-0.41,0.55-0.83,1.09-1.28,1.61c-0.47,0.47-0.94,0.95-1.45,1.37c-0.51,0.42-1.06,0.81-1.61,1.19
			c-0.58,0.33-1.15,0.67-1.76,0.96c-0.6,0.29-1.23,0.51-1.85,0.74c-0.67,0.2-1.36,0.35-2.05,0.5c-0.27,0.04-0.55,0.08-0.82,0.13
			c-0.47,0.03-0.94,0.06-1.41,0.1c-0.02,0-0.04,0-0.05,0c-2.48,0.03-4.84-0.47-7.07-1.55c-0.05-0.03-0.11-0.05-0.17-0.04
			c-0.41-0.23-0.81-0.46-1.22-0.69c-0.19-0.18-0.43-0.3-0.65-0.44c-0.56-0.42-1.12-0.85-1.64-1.31c-0.15-0.15-0.31-0.31-0.46-0.46
			c-0.33-0.32-0.63-0.68-0.95-1.01c-0.4-0.52-0.79-1.04-1.15-1.59c-0.35-0.57-0.67-1.15-0.97-1.74c-0.27-0.62-0.52-1.26-0.74-1.9
			c-0.18-0.64-0.35-1.28-0.47-1.94c0-0.02-0.02-0.04-0.04-0.06c-0.01-0.27-0.03-0.55-0.12-0.81c0-0.48-0.07-0.95-0.09-1.42
			c0-0.11,0.01-0.22,0.01-0.33c0-1.64,0.23-3.24,0.74-4.8c0.24-0.73,0.53-1.44,0.85-2.14c0.23-0.42,0.47-0.85,0.7-1.27
			c0.16-0.21,0.3-0.43,0.43-0.66c0.41-0.57,0.85-1.12,1.32-1.65c1.07-1.15,2.28-2.12,3.64-2.91C29.58,2.66,29.97,2.47,30.36,2.26z
			 M41.82,27.59c0.63-0.24,1.2-0.58,1.77-0.93c0.28-0.15,0.52-0.35,0.78-0.53c0.29-0.21,0.57-0.43,0.82-0.68
			c0.35-0.29,0.68-0.61,0.97-0.97c0.15-0.16,0.29-0.32,0.42-0.5c0.47-0.56,0.88-1.16,1.21-1.82c0.29-0.51,0.54-1.05,0.74-1.6
			c0.09-0.2,0.16-0.4,0.21-0.61c0.23-0.7,0.4-1.41,0.46-2.14c0.05-0.26,0.08-0.52,0.08-0.79c0.05-0.54,0.06-1.09,0-1.63
			c-0.04-0.71-0.14-1.42-0.33-2.11c-0.04-0.22-0.1-0.43-0.17-0.64c0-0.07-0.04-0.12-0.06-0.18c-0.12-0.4-0.24-0.8-0.46-1.17
			c-0.07-0.27-0.23-0.51-0.34-0.76c-0.15-0.35-0.35-0.68-0.57-0.99c-0.2-0.35-0.44-0.66-0.69-0.98c-0.17-0.21-0.33-0.43-0.53-0.61
			c-0.29-0.35-0.61-0.69-0.97-0.97c-0.16-0.17-0.34-0.32-0.52-0.45c-0.57-0.47-1.17-0.87-1.82-1.21c-0.49-0.28-1-0.51-1.53-0.7
			c-0.21-0.09-0.43-0.17-0.65-0.23c-0.7-0.24-1.43-0.39-2.17-0.48c-0.24-0.05-0.49-0.06-0.74-0.07c-0.56-0.04-1.12-0.06-1.68,0
			c-0.73,0.04-1.45,0.14-2.15,0.34c-0.25,0.04-0.49,0.11-0.73,0.21c-0.06,0.01-0.12,0.02-0.17,0.04c-0.7,0.26-1.38,0.53-2.04,0.89
			c-0.84,0.47-1.63,1.01-2.34,1.66c-0.34,0.29-0.66,0.6-0.95,0.94c-0.16,0.17-0.32,0.33-0.44,0.53c-0.48,0.55-0.87,1.16-1.21,1.81
			c-0.29,0.5-0.52,1.03-0.72,1.58c-0.09,0.21-0.18,0.42-0.23,0.65c-0.23,0.71-0.39,1.43-0.47,2.17c-0.04,0.23-0.06,0.46-0.07,0.69
			c-0.06,0.58-0.06,1.16-0.01,1.74c0.04,0.71,0.15,1.42,0.33,2.11c0.04,0.22,0.1,0.45,0.18,0.66c0.11,0.45,0.28,0.88,0.48,1.29
			c0.24,0.63,0.57,1.21,0.93,1.78c0.35,0.56,0.74,1.09,1.2,1.57c0.08,0.09,0.15,0.19,0.24,0.27c0.26,0.26,0.5,0.55,0.81,0.76
			c0.12,0.16,0.29,0.27,0.45,0.39c0.55,0.47,1.17,0.86,1.8,1.21c0.5,0.29,1.03,0.52,1.57,0.72c0.22,0.09,0.44,0.17,0.67,0.22
			c0.7,0.24,1.41,0.39,2.15,0.48c0.21,0.03,0.43,0.06,0.64,0.06c0.59,0.06,1.18,0.06,1.76,0.01c0.73-0.02,1.45-0.15,2.15-0.33
			c0.23-0.04,0.45-0.1,0.66-0.19C41,27.95,41.42,27.78,41.82,27.59z"/>
		<path class="st0" d="M36.9,8.84c0.38-0.63,0.94-0.99,1.67-1.09c0.2,0,0.4-0.01,0.6-0.01c0.41,0.02,0.8,0.14,1.19,0.27
			c0.39,0.13,0.73,0.34,1.08,0.53c0,0.01,0.01,0.01,0.02,0.01c0.54,0.39,1.05,0.82,1.44,1.37c0.01,0.02,0.04,0.03,0.05,0.05
			c0.11,0.33,0.07,0.5-0.15,0.7c-0.22,0.11-0.42,0.08-0.62-0.05c-0.06-0.04-0.13-0.06-0.19-0.09c-0.29-0.18-0.6-0.34-0.91-0.48
			c-0.37-0.18-0.76-0.31-1.18-0.29c-0.13,0-0.27-0.02-0.4,0.04c-0.46,0.06-0.82,0.3-1.1,0.66c-0.1,0.11-0.18,0.24-0.23,0.39
			c-0.08,0.14-0.13,0.3-0.17,0.45c-0.14,0.61-0.06,1.22-0.01,1.83c0.01,0.27,0.03,0.54-0.21,0.74c-0.33,0.12-0.49,0.09-0.71-0.15
			c-0.08-0.16-0.15-0.31-0.23-0.47c-0.22-0.47-0.33-0.97-0.43-1.47c-0.01-0.05-0.02-0.11-0.03-0.16c-0.06-0.77-0.02-1.52,0.24-2.25
			C36.73,9.2,36.81,9.02,36.9,8.84z"/>
		<path class="st0" d="M28.55,14.17c0.1-0.13,0.2-0.26,0.3-0.38c0.35-0.42,0.82-0.58,1.34-0.68c0.21,0,0.43-0.01,0.64-0.01
			c0.14,0.02,0.29,0.03,0.43,0.06c0.64,0.12,1.23,0.38,1.79,0.71c0.02,0.01,0.04,0.03,0.06,0.04c0.57,0.4,1.07,0.86,1.49,1.41
			c0.13,0.29,0.09,0.47-0.16,0.71c-0.06,0.04-0.14,0.06-0.21,0.07c-0.21,0.02-0.37-0.12-0.55-0.19c-0.35-0.21-0.71-0.4-1.08-0.57
			c-0.34-0.15-0.69-0.25-1.06-0.22c-0.15-0.02-0.3,0-0.45,0.05c-0.42,0.08-0.76,0.3-1.01,0.64c-0.1,0.11-0.18,0.23-0.23,0.37
			c-0.1,0.14-0.14,0.31-0.18,0.47c-0.15,0.61-0.06,1.23-0.02,1.85c0.01,0.27,0.03,0.55-0.22,0.74c-0.27,0.12-0.5,0.07-0.7-0.16
			c-0.31-0.6-0.52-1.23-0.65-1.9c0-0.03-0.01-0.05-0.01-0.08c-0.09-0.83-0.04-1.65,0.25-2.45C28.38,14.49,28.47,14.33,28.55,14.17z"
			/>
		<path class="st0" d="M41.73,23.73c-0.56,0.37-1.18,0.63-1.8,0.9c-0.64,0.24-1.31,0.4-1.99,0.53c-0.16,0.01-0.31,0.03-0.47,0.08
			c-0.31,0.02-0.62,0.04-0.94,0.04c-0.31,0-0.61-0.03-0.92-0.05c-0.48-0.06-0.95-0.13-1.42-0.23c-0.14-0.04-0.28-0.09-0.42-0.12
			c-0.64-0.15-1.09-0.51-1.28-1.16c-0.05-0.29-0.04-0.57,0.06-0.85c0.17-0.46,0.52-0.74,0.96-0.92c0.26-0.07,0.53-0.06,0.79-0.01
			c0.25,0.05,0.49,0.17,0.75,0.19c0.34,0.09,0.68,0.13,1.03,0.13c0.26,0.04,0.51,0.04,0.77,0.02c0.48-0.03,0.95-0.1,1.4-0.25
			c0.67-0.16,1.28-0.44,1.85-0.82c0.58-0.36,1.09-0.8,1.52-1.34c0.5-0.55,0.87-1.18,1.13-1.88c0.15-0.33,0.26-0.67,0.32-1.04
			c0.02-0.11,0.05-0.21,0.07-0.32c0.06-0.4,0.13-0.79,0.41-1.11c0.36-0.33,0.77-0.53,1.27-0.48c0.29,0.03,0.53,0.14,0.77,0.3
			c0.44,0.39,0.64,0.88,0.54,1.47c-0.03,0.2-0.06,0.4-0.09,0.61c-0.11,0.47-0.24,0.93-0.39,1.39c-0.23,0.59-0.48,1.16-0.81,1.7
			c-0.08,0.12-0.15,0.25-0.23,0.37c-0.4,0.56-0.82,1.1-1.32,1.58c-0.27,0.23-0.51,0.49-0.8,0.69
			C42.23,23.35,41.98,23.54,41.73,23.73z"/>
	</g>
</g>
</svg>
