<svg id="Layer_1" data-name="Layer 1" xmlns="http://www.w3.org/2000/svg" viewBox="0 0 98.15 84.28"><defs><style>.cls-1{fill:none;}.cls-2{fill:#dcdcdc;}</style></defs><title>newtooth</title><path class="cls-1" d="M58.24,33.38A17.93,17.93,0,0,1,54.79,58.5,17.55,17.55,0,0,1,52,60.24c0,.12,0,.23,0,.34l-.06,1.21A73.16,73.16,0,0,0,52.59,73a37.7,37.7,0,0,0,2.21,8.88,11.76,11.76,0,0,0,2.05,3.58c.36.39.65.57,1,.53a1.55,1.55,0,0,0,1.52-1.06,10.77,10.77,0,0,0,.84-4.65c0-1-.11-2.13-.21-3.18-.07-.75-.14-1.49-.18-2.24-.06-1.09-.1-2.18-.13-3.26s-.08-2.34-.15-3.5a14.71,14.71,0,0,1,1.78-7.92,9.42,9.42,0,0,1,6.79-4.94,10.22,10.22,0,0,1,1.74-.15,9.45,9.45,0,0,1,6.27,2.26,12.38,12.38,0,0,1,3.94,8.07,25,25,0,0,1,0,4l0,1c-.06,1.8-.16,3.68-.29,5.58,0,.49-.08,1-.13,1.46a15.54,15.54,0,0,0,0,4.25,19,19,0,0,0,.82,3.36,1.44,1.44,0,0,0,1.15.94,1.39,1.39,0,0,0,1.35-.56l.18-.23a9.19,9.19,0,0,0,.67-1,26.05,26.05,0,0,0,2.89-8.39,66.64,66.64,0,0,0,1-17.64,24.1,24.1,0,0,1,2.53-13.06A34.55,34.55,0,0,0,94,33.87a13.14,13.14,0,0,0-1.36-8.7,9.84,9.84,0,0,0-4.26-4.27,7.77,7.77,0,0,0-5.82-.2c-2.29.66-4.51,1.38-6.6,2.14a17.07,17.07,0,0,1-11.93.1c-2.75-1-5.53-1.79-7.65-2.4a7,7,0,0,0-4.09,0,8.87,8.87,0,0,0-4.94,4.1,11.4,11.4,0,0,0-.94,1.84A17.9,17.9,0,0,1,58.24,33.38Z" transform="translate(-0.92 -7.86)"/><path class="cls-2" d="M95.33,13.8C91.61,8.86,86.87,7,81.24,8.23c-1.67.37-3.31.89-4.91,1.39-.65.2-1.3.41-2,.6s-1.29.4-1.94.61a39,39,0,0,1-3.83,1.11A13.87,13.87,0,0,1,61,11l-1.29-.45a53.8,53.8,0,0,0-8.05-2.39,12.73,12.73,0,0,0-10.08,2A17.51,17.51,0,0,0,35,19.67,20.32,20.32,0,0,0,19.6,50.07L.92,64.24l3,4L22.64,54.07a20.35,20.35,0,0,0,18.91,5.67c0,2.34-.07,4.59,0,5.17A66.41,66.41,0,0,0,44,81.46,23.32,23.32,0,0,0,47.5,89a7.18,7.18,0,0,0,3.85,2.91,6.48,6.48,0,0,0,1.73.23,6.71,6.71,0,0,0,6.18-4.37,18.4,18.4,0,0,0,1.22-7.57c0-1-.11-2-.2-2.94-.07-.74-.14-1.48-.18-2.22-.17-3.33-.3-6.34-.39-9.19a11.23,11.23,0,0,1,1.6-5.79,5.86,5.86,0,0,1,5-3,5.94,5.94,0,0,1,5.2,2.37,10.23,10.23,0,0,1,2,5.75c0,2.65-.1,5.23-.25,8.31,0,1-.14,2-.23,3-.1,1.2-.21,2.44-.25,3.67A18.05,18.05,0,0,0,74,87.76a6.63,6.63,0,0,0,7.9,4.16,7.2,7.2,0,0,0,3.78-2.8,19.75,19.75,0,0,0,2.85-5.4,52.16,52.16,0,0,0,2.72-12.2,77.14,77.14,0,0,0,.39-15.44,23.64,23.64,0,0,1,2.59-13.47A41,41,0,0,0,98.92,28,19.17,19.17,0,0,0,95.33,13.8ZM24.51,49.5a15.93,15.93,0,1,1,22.31,3.07l-.29.2a15.93,15.93,0,0,1-22-3.27ZM94,28.14A39.28,39.28,0,0,1,89.64,41a27.4,27.4,0,0,0-2.88,14.82,75.24,75.24,0,0,1-1.09,20,29.72,29.72,0,0,1-3.27,9.52,11.74,11.74,0,0,1-.76,1.07l-.21.26a1.59,1.59,0,0,1-1.54.64,1.65,1.65,0,0,1-1.3-1.06,23,23,0,0,1-.93-3.82,17.73,17.73,0,0,1,.06-4.82c0-.55.11-1.1.14-1.65.16-2.17.27-4.3.33-6.34,0-.38,0-.77,0-1.15a28.32,28.32,0,0,0,0-4.51,14,14,0,0,0-4.47-9.14,10.67,10.67,0,0,0-7.11-2.57,10.85,10.85,0,0,0-2,.17A10.7,10.7,0,0,0,56.93,58a16.73,16.73,0,0,0-2,9c.08,1.32.12,2.64.17,4s.08,2.47.15,3.7c0,.85.12,1.7.2,2.55.11,1.18.22,2.41.24,3.61a12.29,12.29,0,0,1-1,5.27A1.77,1.77,0,0,1,53,87.28c-.42,0-.75-.15-1.15-.59a13.39,13.39,0,0,1-2.33-4.07A43.06,43.06,0,0,1,47,72.54a84.52,84.52,0,0,1-.78-12.72l.08-1.37c0-.13,0-.25,0-.38a20.66,20.66,0,0,0,3.17-2A20.34,20.34,0,0,0,40,19.73a12.78,12.78,0,0,1,1.07-2.08A10,10,0,0,1,46.7,13a8,8,0,0,1,4.65,0c2.4.69,5.55,1.62,8.68,2.73a19.39,19.39,0,0,0,13.53-.12c2.38-.86,4.9-1.67,7.49-2.43a8.82,8.82,0,0,1,6.61.23,11.12,11.12,0,0,1,4.83,4.85A14.92,14.92,0,0,1,94,28.14Z" transform="translate(-0.92 -7.86)"/></svg>