<svg id="Layer_1" data-name="Layer 1" xmlns="http://www.w3.org/2000/svg" viewBox="0 0 97.44 83.62"><defs><style>.cls-1{fill:none;}.cls-2{fill:#dcdcdc;}</style></defs><title>newTooth</title><path class="cls-1" d="M58.24,33.38A17.93,17.93,0,0,1,54.79,58.5,17.55,17.55,0,0,1,52,60.24c0,.12,0,.23,0,.34l-.06,1.21A73.16,73.16,0,0,0,52.59,73a37.7,37.7,0,0,0,2.21,8.88,11.76,11.76,0,0,0,2.05,3.58c.36.39.65.57,1,.53a1.55,1.55,0,0,0,1.52-1.06,10.77,10.77,0,0,0,.84-4.65c0-1-.11-2.13-.21-3.18-.07-.75-.14-1.49-.18-2.24-.06-1.09-.1-2.18-.13-3.26s-.08-2.34-.15-3.5a14.71,14.71,0,0,1,1.78-7.92,9.42,9.42,0,0,1,6.79-4.94,10.22,10.22,0,0,1,1.74-.15,9.45,9.45,0,0,1,6.27,2.26,12.38,12.38,0,0,1,3.94,8.07,25,25,0,0,1,0,4l0,1c-.06,1.8-.16,3.68-.29,5.58,0,.49-.08,1-.13,1.46a15.54,15.54,0,0,0,0,4.25,19,19,0,0,0,.82,3.36,1.44,1.44,0,0,0,1.15.94,1.39,1.39,0,0,0,1.35-.56l.18-.23a9.19,9.19,0,0,0,.67-1,26.05,26.05,0,0,0,2.89-8.39,66.64,66.64,0,0,0,1-17.64,24.1,24.1,0,0,1,2.53-13.06A34.55,34.55,0,0,0,94,33.87a13.14,13.14,0,0,0-1.36-8.7,9.84,9.84,0,0,0-4.26-4.27,7.77,7.77,0,0,0-5.82-.2c-2.29.66-4.51,1.38-6.6,2.14a17.07,17.07,0,0,1-11.93.1c-2.75-1-5.53-1.79-7.65-2.4a7,7,0,0,0-4.09,0,8.87,8.87,0,0,0-4.94,4.1,11.4,11.4,0,0,0-.94,1.84A17.9,17.9,0,0,1,58.24,33.38Z" transform="translate(-1.08 -8.19)"/><path class="cls-2" d="M94.69,14.33c-3.85-5.11-8.78-7-14.64-5.75-1.66.37-3.27.88-4.83,1.36l-1.89.59c-.61.18-1.21.37-1.9.6-1.19.38-2.41.78-3.62,1A12.68,12.68,0,0,1,61,11.28l-1.26-.45a55.62,55.62,0,0,0-7.93-2.35A13.34,13.34,0,0,0,41.3,10.6a17.94,17.94,0,0,0-6.63,9.13A20.64,20.64,0,0,0,19.28,49.81L1.08,63.61,5.19,69,23.4,55.23a20.88,20.88,0,0,0,17.42,5.38c0,1.65,0,3.36,0,3.88a65.45,65.45,0,0,0,2.45,16.27,23.57,23.57,0,0,0,3.55,7.62,8,8,0,0,0,4.27,3.17A7.34,7.34,0,0,0,59.86,87a18.89,18.89,0,0,0,1.26-7.73c0-1-.12-2-.2-2.91-.07-.71-.14-1.41-.17-2.12-.17-3.21-.29-6.11-.38-8.88a9.85,9.85,0,0,1,1.43-5.11,4.73,4.73,0,0,1,4-2.41A4.83,4.83,0,0,1,70,59.69a9,9,0,0,1,1.76,5c0,2.53-.09,5-.24,8-.05.92-.13,1.83-.21,2.74v.16c-.1,1.17-.21,2.38-.25,3.6A18.38,18.38,0,0,0,72.32,87a7.43,7.43,0,0,0,6.87,4.85,7.65,7.65,0,0,0,1.93-.26,7.87,7.87,0,0,0,4.18-3A20.29,20.29,0,0,0,88.2,83,51.11,51.11,0,0,0,90.89,71a75.65,75.65,0,0,0,.38-15.15,22,22,0,0,1,2.4-12.52,40.65,40.65,0,0,0,4.69-14.55A19.5,19.5,0,0,0,94.69,14.33Zm-10,41.33A72.06,72.06,0,0,1,83.6,74.81a27.51,27.51,0,0,1-3,8.91,8.6,8.6,0,0,1-.67.94l-.2.26a.59.59,0,0,1-.57.25.64.64,0,0,1-.5-.39,21.38,21.38,0,0,1-.86-3.54,16.84,16.84,0,0,1,.06-4.42l0-.18c0-.48.1-1,.13-1.45.15-2.13.26-4.21.32-6.17,0-.37,0-.74,0-1.13a29.47,29.47,0,0,0,0-4.5,14.51,14.51,0,0,0-4.65-9.47,11.32,11.32,0,0,0-7.54-2.74,12.09,12.09,0,0,0-2.08.18,11.29,11.29,0,0,0-8.15,5.93,17.18,17.18,0,0,0-2.08,9.22c.08,1.27.12,2.55.16,3.82s.09,2.41.15,3.61c0,.83.12,1.66.2,2.5.1,1.07.21,2.28.23,3.42a11,11,0,0,1-.84,4.71.83.83,0,0,1-.88.6,1.13,1.13,0,0,1-.31-.28,12.05,12.05,0,0,1-2.07-3.64,40.56,40.56,0,0,1-2.37-9.55,80,80,0,0,1-.75-12.13l.07-1.15a20.32,20.32,0,0,0,2.72-1.75,20.68,20.68,0,0,0-8.35-36.74c.14-.27.29-.52.44-.76a8.92,8.92,0,0,1,4.9-4.11,6.82,6.82,0,0,1,4,0c2.31.66,5.35,1.56,8.36,2.62a19.69,19.69,0,0,0,13.76-.11c2.29-.83,4.71-1.61,7.2-2.33a7.68,7.68,0,0,1,5.71.15,9.91,9.91,0,0,1,4.27,4.31,13.63,13.63,0,0,1,1.38,9,37.27,37.27,0,0,1-4.17,12.1A27.49,27.49,0,0,0,84.65,55.66ZM26.06,48.93a14.47,14.47,0,0,1,2.79-20.26,14.46,14.46,0,1,1,17.48,23l-.27.19a14.47,14.47,0,0,1-20-3Z" transform="translate(-1.08 -8.19)"/></svg>