<svg id="Layer_1" data-name="Layer 1" xmlns="http://www.w3.org/2000/svg" xmlns:xlink="http://www.w3.org/1999/xlink" viewBox="0 0 114.558 105.216"><defs><style>.cls-1{fill:url(#linear-gradient);}.cls-2{fill:url(#linear-gradient-2);}.cls-3{fill:url(#linear-gradient-3);}.cls-4{fill:url(#linear-gradient-4);}.cls-5{fill:url(#linear-gradient-5);}.cls-6{fill:url(#linear-gradient-6);}.cls-7{fill:url(#linear-gradient-7);}.cls-8{fill:url(#linear-gradient-8);}.cls-9{fill:url(#linear-gradient-9);}.cls-10{fill:url(#linear-gradient-10);}.cls-11{fill:url(#linear-gradient-11);}.cls-12{fill:url(#linear-gradient-12);}.cls-13{fill:none;}.cls-14{opacity:0.5;}.cls-15{clip-path:url(#clip-path);}.cls-16{fill:url(#linear-gradient-13);}.cls-17{clip-path:url(#clip-path-2);}.cls-18{fill:url(#linear-gradient-14);}.cls-19{clip-path:url(#clip-path-3);}.cls-20{fill:url(#linear-gradient-15);}.cls-21{mask:url(#mask);}.cls-22{fill:#0064ff;}.cls-22,.cls-24,.cls-27,.cls-30,.cls-32,.cls-34,.cls-38,.cls-40{fill-rule:evenodd;}.cls-23{mask:url(#mask-2);}.cls-24{fill:#0091ea;}.cls-25{mask:url(#mask-3);}.cls-26{mask:url(#mask-4);}.cls-27{fill:aqua;}.cls-28{mask:url(#mask-5);}.cls-29{mask:url(#mask-6);}.cls-30{fill:#324bc8;}.cls-31{mask:url(#mask-7);}.cls-32{fill:#23348c;}.cls-33{mask:url(#mask-8);}.cls-34{fill:#1a008c;}.cls-35{mask:url(#mask-9);}.cls-36{mask:url(#mask-10);}.cls-37{mask:url(#mask-11);}.cls-38{fill:#fff;}.cls-39{mask:url(#mask-12);}.cls-40{fill:#5efaf7;}</style><linearGradient id="linear-gradient" x1="-339.632" y1="-211.306" x2="-266.043" y2="-191.588" gradientTransform="matrix(1, 0, 0, -1, 362.104, -143.952)" gradientUnits="userSpaceOnUse"><stop offset="0" stop-color="#fff"/><stop offset="1"/></linearGradient><linearGradient id="linear-gradient-2" x1="-178.401" y1="-263.266" x2="-207.053" y2="-156.33" gradientTransform="matrix(1, 0, 0, -1, 250.515, -143.838)" xlink:href="#linear-gradient"/><linearGradient id="linear-gradient-3" x1="-165.319" y1="-128.14" x2="-165.319" y2="-244.815" gradientTransform="matrix(1, 0, 0, -1, 190.381, -148.703)" xlink:href="#linear-gradient"/><linearGradient id="linear-gradient-4" x1="-248.512" y1="-357.669" x2="-248.512" y2="-399.898" gradientTransform="matrix(1, 0, 0, -1, 323.117, -362.003)" xlink:href="#linear-gradient"/><linearGradient id="linear-gradient-5" x1="-208.136" y1="-41.685" x2="-273.254" y2="-275.856" gradientTransform="matrix(1, 0, 0, -1, 334.147, -158.103)" xlink:href="#linear-gradient"/><linearGradient id="linear-gradient-6" x1="5.999" y1="-195.281" x2="-105.475" y2="-195.281" gradientTransform="matrix(1, 0, 0, -1, 130.538, -144.922)" gradientUnits="userSpaceOnUse"><stop offset="0" stop-color="#fff"/><stop offset="0.067" stop-color="#e1e1e1"/><stop offset="0.212" stop-color="#a7a7a7"/><stop offset="0.358" stop-color="#747474"/><stop offset="0.5" stop-color="#4a4a4a"/><stop offset="0.637" stop-color="#2a2a2a"/><stop offset="0.769" stop-color="#131313"/><stop offset="0.892" stop-color="#050505"/><stop offset="1"/></linearGradient><linearGradient id="linear-gradient-7" x1="-155.031" y1="-243.138" x2="-43.739" y2="-178.882" gradientTransform="matrix(1, 0, 0, -1, 126.529, -160.383)" gradientUnits="userSpaceOnUse"><stop offset="0" stop-color="#fff"/><stop offset="0.053" stop-color="#e0e0e0"/><stop offset="0.155" stop-color="#acacac"/><stop offset="0.261" stop-color="#7e7e7e"/><stop offset="0.37" stop-color="#575757"/><stop offset="0.481" stop-color="#383838"/><stop offset="0.596" stop-color="#1f1f1f"/><stop offset="0.716" stop-color="#0e0e0e"/><stop offset="0.846" stop-color="#030303"/><stop offset="1"/></linearGradient><linearGradient id="linear-gradient-8" x1="-209.779" y1="-445.023" x2="-209.779" y2="-400.865" gradientTransform="matrix(1, 0, 0, -1, 272.476, -401.313)" xlink:href="#linear-gradient"/><linearGradient id="linear-gradient-9" x1="-205.049" y1="-478.783" x2="-218.318" y2="-429.27" gradientTransform="matrix(1, 0, 0, -1, 272.476, -423.102)" xlink:href="#linear-gradient"/><linearGradient id="linear-gradient-10" x1="-191.854" y1="-146.604" x2="-191.854" y2="-278.72" gradientTransform="matrix(1, 0, 0, -1, 236.372, -184.267)" xlink:href="#linear-gradient"/><linearGradient id="linear-gradient-11" x1="-194.609" y1="-239.276" x2="-226.517" y2="-294.544" gradientTransform="matrix(1, 0, 0, -1, 269.55, -217.188)" xlink:href="#linear-gradient"/><linearGradient id="linear-gradient-12" x1="-160.778" y1="-385.537" x2="-72.63" y2="-334.646" gradientTransform="matrix(1, 0, 0, -1, 130.164, -332.35)" gradientUnits="userSpaceOnUse"><stop offset="0" stop-color="#fff"/><stop offset="0.171" stop-color="#c5c5c5"/><stop offset="0.398" stop-color="gray"/><stop offset="0.602" stop-color="#494949"/><stop offset="0.777" stop-color="#212121"/><stop offset="0.915" stop-color="#090909"/><stop offset="1"/></linearGradient><clipPath id="clip-path" transform="translate(3.318 1.911)"><path class="cls-13" d="M49.954,73.812c-11.277,0-6.152,24.126-15.635,25.876a10.892,10.892,0,0,1-6.061-1.283C22.725,85.3,18.765,67.549,20.636,56.253c.931-5.615,4.088-10.94,10.056-11.095,12.446-.324,22.77,25.482,25.764,33.778-1.268-3.016-3.168-5.124-6.5-5.124"/></clipPath><linearGradient id="linear-gradient-13" x1="44.12" y1="53.922" x2="27.437" y2="-8.412" gradientTransform="matrix(1, 0, 0, -1, 3.318, 103.911)" gradientUnits="userSpaceOnUse"><stop offset="0" stop-color="#0046c8"/><stop offset="0.51" stop-color="#0091ea"/><stop offset="1" stop-color="#00e5ff"/></linearGradient><clipPath id="clip-path-2" transform="translate(3.318 1.911)"><path class="cls-13" d="M42.845,7.172c2.7,1.374,4.993,2.414,7.107,2.414,3.969,0,9.348-2.889,16.078-5.547,6.635-2.62,17.91-5.589,25.356-1.792C97.1,17,89.824,36.075,79.5,38.255,67.953,40.694,53.03,13.292,42.845,7.172"/></clipPath><linearGradient id="linear-gradient-14" x1="62.969" y1="70.386" x2="88.456" y2="114.203" gradientTransform="matrix(1, 0, 0, -1, 3.318, 103.911)" gradientUnits="userSpaceOnUse"><stop offset="0" stop-color="#0046c8"/><stop offset="0.6" stop-color="#00affe"/><stop offset="1" stop-color="#00e5ff"/></linearGradient><clipPath id="clip-path-3" transform="translate(3.318 1.911)"><path class="cls-13" d="M28.259,98.41C18.909,92.961,10.407,72.024,5.6,51.166,3.319,41.247-3.318,10.682,6.767,3.318c7.161-5.229,20.7-2.893,27.884-.056,3.146,1.243,5.826,2.7,8.194,3.91C58.593,16.635,69.31,38.912,79.67,36.724,86.537,35.273,93.305,16.47,91.386,2.247c19.854,10.126-5.153,101.058-24.759,97.441-6.563-1.211-7.5-14.356-10.158-20.715-3.206-8.893-14.947-38.231-28.69-33.258-3.747,1.356-6.251,5.156-7.143,10.538-1.871,11.3,2.09,29.048,7.623,42.157"/></clipPath><linearGradient id="linear-gradient-15" x1="122.919" y1="32.825" x2="-60.853" y2="82.067" gradientTransform="matrix(1, 0, 0, -1, 3.318, 103.911)" gradientUnits="userSpaceOnUse"><stop offset="0" stop-color="#2a62ff"/><stop offset="0.22" stop-color="#009aea"/><stop offset="0.53" stop-color="#00aeee"/><stop offset="1" stop-color="aqua"/></linearGradient><mask id="mask" x="71.65" y="4.158" width="30.326" height="97.514" maskUnits="userSpaceOnUse"><g transform="translate(3.318 1.911)"><g id="SVGID"><rect class="cls-1" x="68.331" y="2.247" width="30.326" height="97.514"/></g></g></mask><mask id="mask-2" x="39.918" y="47.63" width="46.017" height="54.074" maskUnits="userSpaceOnUse"><g transform="translate(3.318 1.911)"><g id="SVGID-2" data-name="SVGID"><rect class="cls-2" x="36.6" y="45.719" width="46.017" height="54.074"/></g></g></mask><mask id="mask-3" x="63.7" y="7.841" width="38.24" height="89.808" maskUnits="userSpaceOnUse"><g transform="translate(3.318 1.911)"><g id="SVGID-3" data-name="SVGID"><rect class="cls-5" x="60.381" y="5.93" width="38.24" height="89.806"/></g></g></mask><mask id="mask-4" x="5.802" y="3.139" width="66.017" height="98.257" maskUnits="userSpaceOnUse"><g transform="translate(3.318 1.911)"><g id="SVGID-4" data-name="SVGID"><rect class="cls-6" x="2.484" y="1.228" width="66.017" height="98.257"/></g></g></mask><mask id="mask-5" x="4.662" y="2.875" width="60.611" height="94.124" maskUnits="userSpaceOnUse"><g transform="translate(3.318 1.911)"><g id="SVGID-5" data-name="SVGID"><rect class="cls-7" x="1.344" y="0.965" width="60.61" height="94.124"/></g></g></mask><mask id="mask-6" x="46.163" y="2.352" width="39.704" height="26.136" maskUnits="userSpaceOnUse"><g transform="translate(3.318 1.911)"><g id="SVGID-6" data-name="SVGID"><rect class="cls-8" x="42.845" y="0.442" width="39.703" height="26.136"/></g></g></mask><mask id="mask-7" x="46.163" y="5.06" width="25.627" height="17.233" maskUnits="userSpaceOnUse"><g transform="translate(3.318 1.911)"><g id="SVGID-7" data-name="SVGID"><rect class="cls-9" x="42.845" y="3.149" width="25.627" height="17.233"/></g></g></mask><mask id="mask-8" x="35.897" y="49.712" width="23.877" height="40.496" maskUnits="userSpaceOnUse"><g transform="translate(3.318 1.911)"><g id="SVGID-8" data-name="SVGID"><rect class="cls-10" x="32.579" y="47.801" width="23.877" height="40.496"/></g></g></mask><mask id="mask-9" x="45.331" y="56.205" width="14.443" height="24.641" maskUnits="userSpaceOnUse"><g transform="translate(3.318 1.911)"><g id="SVGID-9" data-name="SVGID"><rect class="cls-11" x="42.013" y="54.294" width="14.443" height="24.641"/></g></g></mask><mask id="mask-10" x="5.696" y="3.464" width="35.574" height="44.635" maskUnits="userSpaceOnUse"><g transform="translate(3.318 1.911)"><g id="SVGID-10" data-name="SVGID"><rect class="cls-12" x="2.377" y="1.553" width="35.574" height="44.635"/></g></g></mask><mask id="mask-11" x="22.819" y="47.066" width="11.122" height="53.255" maskUnits="userSpaceOnUse"><g transform="translate(3.318 1.911)"><g id="SVGID-11" data-name="SVGID"><rect class="cls-3" x="19.501" y="45.155" width="11.122" height="53.255"/></g></g></mask><mask id="mask-12" x="60.563" y="4.158" width="34.719" height="35.51" maskUnits="userSpaceOnUse"><g transform="translate(3.318 1.911)"><g id="SVGID-12" data-name="SVGID"><rect class="cls-4" x="57.245" y="2.247" width="34.719" height="35.509"/></g></g></mask></defs><title>clearTooth</title><g class="cls-14"><g class="cls-15"><rect class="cls-16" x="22.083" y="46.744" width="37.691" height="55.136"/></g><g class="cls-17"><rect class="cls-18" x="46.164" y="0.361" width="54.256" height="42.245"/></g><g class="cls-19"><rect class="cls-20" width="114.558" height="105.216"/></g><g class="cls-21"><path class="cls-22" d="M68.4,31.567c3.939,3.665,7.629,5.927,11.275,5.157,6.866-1.45,13.635-20.254,11.715-34.477,19.284,9.835-3.75,95.885-23.054,97.514,17.675-7.954,14.522-48.707.064-68.194" transform="translate(3.318 1.911)"/></g><g class="cls-23"><path class="cls-24" d="M82.617,85.536c-5.071,9.271-10.725,15.124-15.99,14.152-6.563-1.211-7.5-14.355-10.158-20.715C46.777,52.094,40.721,49.276,36.6,45.719c21.324,13.519,24.352,45.3,32.239,49.5,4.038,2.149,8.854-2.36,13.778-9.682" transform="translate(3.318 1.911)"/></g><g class="cls-25"><path class="cls-22" d="M95.189,5.93c9.587,15.594-2.488,66.743-16.837,85.826h0l0,0c-.094.1-.189.2-.283.293l-.016.016c-.046.047-.092.094-.139.14l-.022.022c-.087.088-.174.173-.261.258l-.026.024c-.047.046-.094.09-.141.135l0,0c-.1.093-.195.184-.292.272l0,0-.143.13L77,93.07c-.088.079-.176.156-.265.232l-.02.018-.135.115-.029.024-.242.2-.037.029-.126.1-.045.036-.217.165-.054.04-.117.087-.053.038c-.072.052-.145.1-.217.152l-.042.029-.123.083-.052.034-.186.12-.081.05-.1.062-.086.051c-.052.031-.105.061-.158.091l-.08.045-.1.056-.082.043-.149.076-.1.049-.084.04-.11.05c-.043.019-.086.039-.129.057l-.095.04-.09.037-.116.044-.1.035-.125.044-.076.024c-.042.015-.085.028-.128.041l-.079.023-.135.037-.069.018-.139.032-.063.014c-.048.009-.095.019-.143.027l-.064.012c-.047.007-.093.015-.14.021l-.064.009-.138.015-.065.006c-.051,0-.1.008-.153.011l-.036,0-.154,0h-.058c-.053,0-.105,0-.158,0h-.028c-.053,0-.106-.006-.159-.01l-.051,0q-.084-.007-.168-.018h-.006l-.007,0c-.055-.007-.111-.016-.166-.025l-.048-.008c-.054-.01-.11-.021-.164-.033l-.008,0h0l-.009,0c-.055-.013-.11-.026-.165-.041l-.043-.012c-.054-.015-.11-.031-.165-.049l-.007,0h0l-.009,0c-.053-.017-.107-.036-.16-.055l-.046-.018c-.055-.02-.111-.042-.166-.066h0l0,0q-.083-.034-.165-.075l-.043-.02c-.056-.028-.113-.055-.169-.085-.106-.057-.212-.12-.316-.188-.046-.03-.092-.06-.14-.093l-.108-.077a7.4,7.4,0,0,1-.631-.52c-2.73-2.547-4.969-8.479-7.857-15.54v0c2.7,4.532,6.224,6.475,9.235,6.616,16.827.787,32.056-62.577,25.573-79.466" transform="translate(3.318 1.911)"/></g><g class="cls-26"><path class="cls-27" d="M28.261,98.409C13.713,89.3,4.79,50.274,3.053,32.2,2.364,25.03,1.186,9.8,7.353,4.556,9.91,2.38,13.383,1.565,16.6,1.294,53.786-1.843,78.49,109.019,64.569,98.822c-4.6-3.369-5.839-14.505-8.131-19.991-3.207-8.892-14.916-38.088-28.659-33.115-8.8,3.185-8.718,17.878-6.036,31.306a117.164,117.164,0,0,0,6.518,21.387" transform="translate(3.318 1.911)"/></g><g class="cls-28"><path class="cls-27" d="M24.214,95.088C12.347,83.375,1.775,43.185,1.363,24.23,1.1,11.9,3.44.207,18.785,1c10,.519,21.529,7.806,26.655,12.545,5.991,5.538,11.172,12.205,16.514,18.382C50.911,24.671,35.128,18.381,23.157,26c-7.932,5.05-12.1,15.8-10.507,30.739A115.023,115.023,0,0,0,24.214,95.088" transform="translate(3.318 1.911)"/></g><g class="cls-29"><path class="cls-30" d="M42.845,7.172c2.7,1.374,4.993,2.414,7.107,2.414,3.969,0,9.348-2.889,16.078-5.547A48.634,48.634,0,0,1,82.549.442c-.277,5.665-2.436,25.092-19.031,26.136C57.514,20.053,50.825,11.968,42.845,7.172Z" transform="translate(3.318 1.911)"/></g><g class="cls-31"><path class="cls-32" d="M42.845,7.172c2.7,1.374,4.993,2.414,7.107,2.414,3.969,0,9.348-2.889,16.078-5.547.749-.3,1.558-.6,2.413-.89.169,3.24-.056,14.266-10.561,17.233C53.361,15.475,48.419,10.521,42.845,7.172Z" transform="translate(3.318 1.911)"/></g><g class="cls-33"><path class="cls-34" d="M49.954,73.812c-6.3,0-7.481,7.532-8.95,14.485C24.14,53.8,37.777,47.867,37.93,47.8c9.079,6.745,16.136,24.513,18.526,31.134-1.268-3.015-3.168-5.123-6.5-5.123" transform="translate(3.318 1.911)"/></g><g class="cls-35"><path class="cls-34" d="M49.954,73.812a5.926,5.926,0,0,0-4.114,1.512c-5.756-13.251-3.872-18.767-1.728-21.03,6.031,8.176,10.531,19.618,12.344,24.642-1.268-3.016-3.168-5.124-6.5-5.124" transform="translate(3.318 1.911)"/></g><g class="cls-36"><path class="cls-27" d="M3.253,34.132c-.071-.641-.142-1.287-.2-1.937-1-11.06-3.14-30.653,13.4-30.642,7.534.006,16.325,5.171,21.5,10.573-4.873-2.994-9.7-4.65-14.2-4.65C9.725,7.476,2.907,23.539,5.413,46.188c-.9-4.133-1.631-8.188-2.16-12.056" transform="translate(3.318 1.911)"/></g><g class="cls-37"><path class="cls-38" d="M28.259,98.41q-.456-.265-.908-.581c-5.406-13.048-9.225-30.444-7.381-41.576.886-5.35,3.363-9.2,7.225-10.564a9.111,9.111,0,0,1,3.428-.526,9.493,9.493,0,0,0-2.829.548c-4.439,1.664-6.432,6.156-7.158,10.542a40.979,40.979,0,0,0-.454,7.59,74.507,74.507,0,0,0,.99,10.012A107.031,107.031,0,0,0,23.663,85.1a110.3,110.3,0,0,0,4.6,13.311" transform="translate(3.318 1.911)"/></g><g class="cls-39"><path class="cls-40" d="M60.073,22.786c7.178,7.928,13.314,15,19.317,13.987a6.22,6.22,0,0,0,3.147-1.629h0a14.477,14.477,0,0,0,1.233-1.268s1.142-1.415,1.19-1.57c0,0,1.093-1.682,1.134-1.84,0-.005,1.265-2.373,1.32-2.631l.731-1.731c.567-1.434,1.064-2.912,1.491-4.4A54.431,54.431,0,0,0,90.9,16.254a46.233,46.233,0,0,0,.484-14.007C94.1,17.535,86.734,36.161,79.867,37.611s-14-8.27-22.622-17.739l.007.007c.94.965,1.882,1.94,2.821,2.907" transform="translate(3.318 1.911)"/></g></g></svg>