<svg id="Layer_1" data-name="Layer 1" xmlns="http://www.w3.org/2000/svg" viewBox="0 0 95.85 98.22"><defs><style>.cls-1{fill:#dcdcdc;opacity:0.6;}</style></defs><title>toothIcon</title><path class="cls-1" d="M74.81,2.68C68.87-.94,63.14-.87,57.73,2.74a49,49,0,0,0-4.34,3.31l-1.66,1.4c-.55.42-1.08.86-1.68,1.36a30.37,30.37,0,0,1-3.32,2.43,13.86,13.86,0,0,1-7.22,1.87l-1.45.05a61.69,61.69,0,0,0-9,.81,14.52,14.52,0,0,0-9.77,6.35,19.56,19.56,0,0,0-3,11.89A22.43,22.43,0,0,0,7.87,62.79h0a22.63,22.63,0,0,0,4.93,6L0,90l6.31,3.79L19.19,72.6A22.75,22.75,0,0,0,39,71.05L40.5,75a71.05,71.05,0,0,0,9,15.45,25.76,25.76,0,0,0,6.64,6.28,8.73,8.73,0,0,0,5.59,1.49,8,8,0,0,0,7-8.12,20.36,20.36,0,0,0-1.83-8.31c-.4-1-.92-2-1.37-2.86-.35-.69-.7-1.37-1-2.08-1.46-3.17-2.74-6-3.94-8.82A10.59,10.59,0,0,1,60,62.27a5.12,5.12,0,0,1,3.08-4,5.2,5.2,0,0,1,5,.18,9.82,9.82,0,0,1,3.79,4.35c1,2.55,1.91,5.09,3,8.18.32,1,.6,1.9.89,2.85l.06.16c.37,1.22.75,2.49,1.19,3.74a20,20,0,0,0,4.41,7.38,8.07,8.07,0,0,0,8.89,2.15,8.21,8.21,0,0,0,1.84-1,8.52,8.52,0,0,0,3-4.71,22,22,0,0,0,.69-6.81,55.89,55.89,0,0,0-2.09-13.29A82.64,82.64,0,0,0,88,46a23.88,23.88,0,0,1-2.59-13.61,44.33,44.33,0,0,0-1.1-16.58A21.21,21.21,0,0,0,74.81,2.68Zm6.48,45.77a78.38,78.38,0,0,1,6.58,19.78,30,30,0,0,1,.54,10.22,8.69,8.69,0,0,1-.3,1.22L88,80a.61.61,0,0,1-.47.48.68.68,0,0,1-.66-.19,22.75,22.75,0,0,1-2.29-3.23,19.11,19.11,0,0,1-1.72-4.49l-.07-.18c-.19-.49-.3-1.06-.45-1.52-.7-2.21-1.42-4.36-2.15-6.36l-.47-1.16a31.81,31.81,0,0,0-1.81-4.54,15.72,15.72,0,0,0-8.49-7.71,12.3,12.3,0,0,0-8.72.26,12.45,12.45,0,0,0-2,1,12.26,12.26,0,0,0-5.86,9.26,18.75,18.75,0,0,0,1.6,10.15C55,73,55.59,74.3,56.14,75.57s1.06,2.4,1.6,3.59c.34.84.79,1.63,1.21,2.44.53,1,1.12,2.22,1.6,3.37a12,12,0,0,1,1,5.09.89.89,0,0,1-.65,1,1.08,1.08,0,0,1-.42-.16,13,13,0,0,1-3.55-2.84,44.52,44.52,0,0,1-6.2-8.72,88,88,0,0,1-5.62-12l-.38-1.15a20.1,20.1,0,0,0,2-2.86A22.48,22.48,0,0,0,23.59,29.56a5.6,5.6,0,0,1,.14-.94A9.7,9.7,0,0,1,27,22.5a7.34,7.34,0,0,1,4-1.6c2.6-.26,6-.57,9.5-.71a21.41,21.41,0,0,0,13.9-5.63c2-1.76,4.11-3.52,6.34-5.24A8.35,8.35,0,0,1,66.6,7.18a10.74,10.74,0,0,1,6,2.64,14.79,14.79,0,0,1,5,8.54,40.59,40.59,0,0,1,.64,13.9,29.85,29.85,0,0,0,3,16.2ZM19.35,65.16A15.72,15.72,0,0,1,14,43.58a15.74,15.74,0,1,1,27.69,15h0c-.24.43-.49.85-.76,1.25l-.2.3a15.72,15.72,0,0,1-21.41,5Z" transform="translate(0 0)"/></svg>