<svg id="Layer_1" data-name="Layer 1" xmlns="http://www.w3.org/2000/svg" xmlns:xlink="http://www.w3.org/1999/xlink" viewBox="0 0 95.574 87.781"><defs><style>.cls-1{fill:url(#linear-gradient);}.cls-2{fill:url(#linear-gradient-2);}.cls-3{fill:url(#linear-gradient-3);}.cls-4{fill:url(#linear-gradient-4);}.cls-5{fill:url(#linear-gradient-5);}.cls-6{fill:url(#linear-gradient-6);}.cls-7{fill:url(#linear-gradient-7);}.cls-8{fill:url(#linear-gradient-8);}.cls-9{fill:url(#linear-gradient-9);}.cls-10{fill:url(#linear-gradient-10);}.cls-11{fill:url(#linear-gradient-11);}.cls-12{fill:url(#linear-gradient-12);}.cls-13{fill:none;}.cls-14{opacity:0.5;}.cls-15{clip-path:url(#clip-path);}.cls-16{fill:url(#linear-gradient-13);}.cls-17{clip-path:url(#clip-path-2);}.cls-18{fill:url(#linear-gradient-14);}.cls-19{clip-path:url(#clip-path-3);}.cls-20{fill:url(#linear-gradient-15);}.cls-21{mask:url(#mask);}.cls-22{fill:#0064ff;}.cls-22,.cls-24,.cls-27,.cls-30,.cls-32,.cls-34,.cls-38,.cls-40{fill-rule:evenodd;}.cls-23{mask:url(#mask-2);}.cls-24{fill:#0091ea;}.cls-25{mask:url(#mask-3);}.cls-26{mask:url(#mask-4);}.cls-27{fill:aqua;}.cls-28{mask:url(#mask-5);}.cls-29{mask:url(#mask-6);}.cls-30{fill:#324bc8;}.cls-31{mask:url(#mask-7);}.cls-32{fill:#23348c;}.cls-33{mask:url(#mask-8);}.cls-34{fill:#1a008c;}.cls-35{mask:url(#mask-9);}.cls-36{mask:url(#mask-10);}.cls-37{mask:url(#mask-11);}.cls-38{fill:#fff;}.cls-39{mask:url(#mask-12);}.cls-40{fill:#5efaf7;}</style><linearGradient id="linear-gradient" x1="-335.07" y1="-208.43" x2="-273.676" y2="-191.98" gradientTransform="matrix(1, 0, 0, -1, 362.104, -143.952)" gradientUnits="userSpaceOnUse"><stop offset="0" stop-color="#fff"/><stop offset="1"/></linearGradient><linearGradient id="linear-gradient-2" x1="-182.066" y1="-251.76" x2="-205.97" y2="-162.545" gradientTransform="matrix(1, 0, 0, -1, 250.515, -143.838)" xlink:href="#linear-gradient"/><linearGradient id="linear-gradient-3" x1="-161.187" y1="-139.834" x2="-161.187" y2="-237.174" gradientTransform="matrix(1, 0, 0, -1, 190.381, -148.703)" xlink:href="#linear-gradient"/><linearGradient id="linear-gradient-4" x1="-252.59" y1="-366.672" x2="-252.59" y2="-401.904" gradientTransform="matrix(1, 0, 0, -1, 323.117, -362.003)" xlink:href="#linear-gradient"/><linearGradient id="linear-gradient-5" x1="-220.732" y1="-69.263" x2="-275.059" y2="-264.629" gradientTransform="matrix(1, 0, 0, -1, 334.147, -158.103)" xlink:href="#linear-gradient"/><linearGradient id="linear-gradient-6" x1="-8.341" y1="-195.222" x2="-101.342" y2="-195.221" gradientTransform="matrix(1, 0, 0, -1, 130.538, -144.922)" gradientUnits="userSpaceOnUse"><stop offset="0" stop-color="#fff"/><stop offset="0.067" stop-color="#e1e1e1"/><stop offset="0.212" stop-color="#a7a7a7"/><stop offset="0.358" stop-color="#747474"/><stop offset="0.5" stop-color="#4a4a4a"/><stop offset="0.637" stop-color="#2a2a2a"/><stop offset="0.769" stop-color="#131313"/><stop offset="0.892" stop-color="#050505"/><stop offset="1"/></linearGradient><linearGradient id="linear-gradient-7" x1="-142.022" y1="-237.71" x2="-49.173" y2="-184.102" gradientTransform="matrix(1, 0, 0, -1, 126.529, -160.383)" gradientUnits="userSpaceOnUse"><stop offset="0" stop-color="#fff"/><stop offset="0.053" stop-color="#e0e0e0"/><stop offset="0.155" stop-color="#acacac"/><stop offset="0.261" stop-color="#7e7e7e"/><stop offset="0.37" stop-color="#575757"/><stop offset="0.481" stop-color="#383838"/><stop offset="0.596" stop-color="#1f1f1f"/><stop offset="0.716" stop-color="#0e0e0e"/><stop offset="0.846" stop-color="#030303"/><stop offset="1"/></linearGradient><linearGradient id="linear-gradient-8" x1="-211.883" y1="-446.065" x2="-211.883" y2="-409.225" gradientTransform="matrix(1, 0, 0, -1, 272.476, -401.313)" xlink:href="#linear-gradient"/><linearGradient id="linear-gradient-9" x1="-207.937" y1="-477.841" x2="-219.007" y2="-436.534" gradientTransform="matrix(1, 0, 0, -1, 272.476, -423.102)" xlink:href="#linear-gradient"/><linearGradient id="linear-gradient-10" x1="-190.946" y1="-161.131" x2="-190.946" y2="-271.353" gradientTransform="matrix(1, 0, 0, -1, 236.372, -184.267)" xlink:href="#linear-gradient"/><linearGradient id="linear-gradient-11" x1="-198.742" y1="-243.901" x2="-225.362" y2="-290.01" gradientTransform="matrix(1, 0, 0, -1, 269.55, -217.188)" xlink:href="#linear-gradient"/><linearGradient id="linear-gradient-12" x1="-147.419" y1="-385.009" x2="-73.879" y2="-342.551" gradientTransform="matrix(1, 0, 0, -1, 130.164, -332.35)" gradientUnits="userSpaceOnUse"><stop offset="0" stop-color="#fff"/><stop offset="0.171" stop-color="#c5c5c5"/><stop offset="0.398" stop-color="gray"/><stop offset="0.602" stop-color="#494949"/><stop offset="0.777" stop-color="#212121"/><stop offset="0.915" stop-color="#090909"/><stop offset="1"/></linearGradient><clipPath id="clip-path" transform="translate(-5.517 -6.691)"><path class="cls-13" d="M49.962,69.866c-9.409,0-5.133,20.128-13.045,21.588a9.1,9.1,0,0,1-5.056-1.07c-4.616-10.937-7.92-25.743-6.359-35.167.776-4.685,3.411-9.127,8.39-9.257,10.384-.27,19,21.26,21.494,28.181-1.058-2.516-2.643-4.275-5.424-4.275"/></clipPath><linearGradient id="linear-gradient-13" x1="45.095" y1="53.604" x2="31.176" y2="1.599" gradientTransform="matrix(1, 0, 0, -1, -5.517, 95.309)" gradientUnits="userSpaceOnUse"><stop offset="0" stop-color="#0046c8"/><stop offset="0.51" stop-color="#0091ea"/><stop offset="1" stop-color="#00e5ff"/></linearGradient><clipPath id="clip-path-2" transform="translate(-5.517 -6.691)"><path class="cls-13" d="M44.031,14.27c2.252,1.146,4.165,2.013,5.929,2.013,3.311,0,7.8-2.41,13.413-4.627,5.536-2.187,14.943-4.664,21.155-1.5,4.768,12.311-1.3,28.223-9.915,30.042C64.978,42.237,52.528,19.375,44.031,14.27"/></clipPath><linearGradient id="linear-gradient-14" x1="60.82" y1="67.339" x2="82.083" y2="103.895" gradientTransform="matrix(1, 0, 0, -1, -5.517, 95.309)" gradientUnits="userSpaceOnUse"><stop offset="0" stop-color="#0046c8"/><stop offset="0.6" stop-color="#00affe"/><stop offset="1" stop-color="#00e5ff"/></linearGradient><clipPath id="clip-path-3" transform="translate(-5.517 -6.691)"><path class="cls-13" d="M31.862,90.388c-7.8-4.546-14.894-22.014-18.9-39.415-1.906-8.275-7.444-33.776.97-39.919C19.905,6.691,31.2,8.64,37.2,11.008a75.672,75.672,0,0,1,6.836,3.262C57.169,22.164,66.11,40.749,74.753,38.924c5.729-1.21,11.376-16.9,9.775-28.764,16.564,8.448-4.3,84.312-20.656,81.294C58.4,90.443,57.614,79.477,55.4,74.172c-2.675-7.42-12.47-31.9-23.936-27.747-3.125,1.131-5.215,4.3-5.959,8.791-1.561,9.426,1.743,24.235,6.36,35.172"/></clipPath><linearGradient id="linear-gradient-15" x1="110.835" y1="36.003" x2="-42.483" y2="77.085" gradientTransform="matrix(1, 0, 0, -1, -5.517, 95.309)" gradientUnits="userSpaceOnUse"><stop offset="0" stop-color="#2a62ff"/><stop offset="0.22" stop-color="#009aea"/><stop offset="0.53" stop-color="#00aeee"/><stop offset="1" stop-color="aqua"/></linearGradient><mask id="mask" x="59.776" y="3.469" width="25.301" height="81.355" maskUnits="userSpaceOnUse"><g transform="translate(-5.517 -6.691)"><g id="SVGID"><rect class="cls-1" x="65.294" y="10.16" width="25.301" height="81.354"/></g></g></mask><mask id="mask-2" x="33.303" y="39.737" width="38.391" height="45.113" maskUnits="userSpaceOnUse"><g transform="translate(-5.517 -6.691)"><g id="SVGID-2" data-name="SVGID"><rect class="cls-2" x="38.821" y="46.429" width="38.391" height="45.113"/></g></g></mask><mask id="mask-3" x="53.144" y="6.542" width="31.903" height="74.925" maskUnits="userSpaceOnUse"><g transform="translate(-5.517 -6.691)"><g id="SVGID-3" data-name="SVGID"><rect class="cls-5" x="58.661" y="13.233" width="31.903" height="74.924"/></g></g></mask><mask id="mask-4" x="4.841" y="2.619" width="55.077" height="81.975" maskUnits="userSpaceOnUse"><g transform="translate(-5.517 -6.691)"><g id="SVGID-4" data-name="SVGID"><rect class="cls-6" x="10.358" y="9.31" width="55.077" height="81.974"/></g></g></mask><mask id="mask-5" x="3.889" y="2.399" width="50.567" height="78.526" maskUnits="userSpaceOnUse"><g transform="translate(-5.517 -6.691)"><g id="SVGID-5" data-name="SVGID"><rect class="cls-7" x="9.407" y="9.09" width="50.566" height="78.526"/></g></g></mask><mask id="mask-6" x="38.513" y="1.963" width="33.124" height="21.805" maskUnits="userSpaceOnUse"><g transform="translate(-5.517 -6.691)"><g id="SVGID-6" data-name="SVGID"><rect class="cls-8" x="44.031" y="8.654" width="33.124" height="21.805"/></g></g></mask><mask id="mask-7" x="38.513" y="4.221" width="21.38" height="14.377" maskUnits="userSpaceOnUse"><g transform="translate(-5.517 -6.691)"><g id="SVGID-7" data-name="SVGID"><rect class="cls-9" x="44.031" y="10.913" width="21.38" height="14.377"/></g></g></mask><mask id="mask-8" x="29.948" y="41.474" width="19.92" height="33.785" maskUnits="userSpaceOnUse"><g transform="translate(-5.517 -6.691)"><g id="SVGID-8" data-name="SVGID"><rect class="cls-10" x="35.466" y="48.166" width="19.92" height="33.785"/></g></g></mask><mask id="mask-9" x="37.819" y="46.891" width="12.05" height="20.558" maskUnits="userSpaceOnUse"><g transform="translate(-5.517 -6.691)"><g id="SVGID-9" data-name="SVGID"><rect class="cls-11" x="43.337" y="53.583" width="12.049" height="20.558"/></g></g></mask><mask id="mask-10" x="4.752" y="2.89" width="29.679" height="37.238" maskUnits="userSpaceOnUse"><g transform="translate(-5.517 -6.691)"><g id="SVGID-10" data-name="SVGID"><rect class="cls-12" x="10.269" y="9.582" width="29.679" height="37.238"/></g></g></mask><mask id="mask-11" x="19.037" y="39.267" width="9.279" height="44.43" maskUnits="userSpaceOnUse"><g transform="translate(-5.517 -6.691)"><g id="SVGID-11" data-name="SVGID"><rect class="cls-3" x="24.555" y="45.958" width="9.279" height="44.43"/></g></g></mask><mask id="mask-12" x="50.527" y="3.469" width="28.966" height="29.625" maskUnits="userSpaceOnUse"><g transform="translate(-5.517 -6.691)"><g id="SVGID-12" data-name="SVGID"><rect class="cls-4" x="56.045" y="10.16" width="28.966" height="29.625"/></g></g></mask></defs><title>toothclear2</title><g class="cls-14"><g class="cls-15"><rect class="cls-16" x="18.423" y="38.998" width="31.445" height="45.999"/></g><g class="cls-17"><rect class="cls-18" x="38.514" y="0.301" width="45.265" height="35.244"/></g><g class="cls-19"><rect class="cls-20" width="95.574" height="87.781"/></g><g class="cls-21"><path class="cls-22" d="M65.347,34.621c3.286,3.058,6.364,4.945,9.406,4.3,5.729-1.21,11.376-16.9,9.774-28.764,16.088,8.2-3.129,80-19.233,81.355,14.745-6.636,12.115-40.636.053-56.894" transform="translate(-5.517 -6.691)"/></g><g class="cls-23"><path class="cls-24" d="M77.212,79.647c-4.231,7.735-8.948,12.618-13.34,11.807C58.4,90.444,57.614,79.478,55.4,74.172,47.311,51.747,42.258,49.4,38.821,46.429c17.79,11.278,20.316,37.793,26.9,41.3,3.369,1.793,7.386-1.969,11.5-8.078" transform="translate(-5.517 -6.691)"/></g><g class="cls-25"><path class="cls-22" d="M87.7,13.233c8,13.01-2.076,55.682-14.047,71.6h0l0,0c-.079.083-.158.164-.237.244L73.4,85.1c-.039.039-.077.078-.116.116l-.018.019c-.073.073-.146.144-.219.215l-.021.02-.117.113,0,0c-.081.077-.163.153-.244.227h0l-.118.108-.016.014c-.073.065-.147.13-.221.193l-.016.015-.113.1-.024.02c-.068.057-.135.112-.2.166l-.03.025-.105.083-.038.03-.18.137-.046.034-.1.072-.044.032c-.06.043-.12.086-.18.127l-.036.024c-.034.024-.068.047-.1.069l-.043.029-.155.1-.067.042-.086.052-.071.042-.132.076-.067.037-.087.047-.068.036-.124.064-.083.04-.07.034-.092.042-.107.047-.08.033-.075.031-.1.037-.08.029-.1.037-.063.02-.108.034-.065.019-.113.031L69,88.03l-.116.027-.053.011-.119.023-.054.01-.116.017-.054.008-.115.013-.054.005-.127.009h-.031l-.128,0h-.049c-.044,0-.087,0-.131,0h-.024l-.133-.008-.042,0-.14-.015H67.5c-.046-.006-.093-.013-.139-.021l-.039-.007-.138-.027-.006,0h0l-.008,0c-.045-.01-.091-.021-.137-.034L67,88.024l-.137-.04-.007,0h0l-.008,0c-.044-.015-.089-.03-.133-.047l-.039-.014-.138-.055,0,0h0q-.069-.03-.138-.063l-.036-.017c-.047-.022-.094-.046-.14-.071q-.133-.07-.264-.156c-.038-.025-.077-.05-.117-.078l-.09-.064a6.1,6.1,0,0,1-.526-.434c-2.278-2.125-4.146-7.073-6.556-12.965h0c2.252,3.781,5.192,5.4,7.7,5.519,14.038.657,26.744-52.206,21.336-66.3" transform="translate(-5.517 -6.691)"/></g><g class="cls-26"><path class="cls-27" d="M31.864,90.387c-12.138-7.6-19.582-40.158-21.032-55.242-.574-5.977-1.557-18.68,3.589-23.059a13.576,13.576,0,0,1,7.713-2.721c31.024-2.617,51.635,89.874,40.02,81.367-3.837-2.811-4.871-12.1-6.783-16.678C52.7,66.635,42.927,42.277,31.461,46.426c-7.343,2.657-7.273,14.915-5.036,26.118a97.781,97.781,0,0,0,5.439,17.843" transform="translate(-5.517 -6.691)"/></g><g class="cls-28"><path class="cls-27" d="M28.487,87.617c-9.9-9.773-18.72-43.3-19.064-59.117C9.2,18.213,11.156,8.459,23.957,9.123,32.3,9.556,41.919,15.635,46.2,19.589c5,4.62,9.32,10.182,13.777,15.335-9.213-6.056-22.38-11.3-32.368-4.944-6.617,4.213-10.093,13.179-8.765,25.645a95.968,95.968,0,0,0,9.647,31.992" transform="translate(-5.517 -6.691)"/></g><g class="cls-29"><path class="cls-30" d="M44.031,14.27c2.252,1.146,4.165,2.013,5.929,2.013,3.311,0,7.8-2.41,13.413-4.627a40.573,40.573,0,0,1,13.782-3c-.231,4.727-2.032,20.934-15.877,21.805C56.269,25.015,50.688,18.27,44.031,14.27Z" transform="translate(-5.517 -6.691)"/></g><g class="cls-31"><path class="cls-32" d="M44.031,14.27c2.252,1.146,4.165,2.013,5.929,2.013,3.311,0,7.8-2.41,13.413-4.627.626-.247,1.3-.5,2.014-.743.141,2.7-.047,11.9-8.811,14.377C52.8,21.2,48.681,17.063,44.031,14.27Z" transform="translate(-5.517 -6.691)"/></g><g class="cls-33"><path class="cls-34" d="M49.962,69.866c-5.258,0-6.242,6.284-7.468,12.085C28.426,53.17,39.8,48.22,39.931,48.166,47.5,53.793,53.392,68.617,55.386,74.14c-1.058-2.515-2.643-4.274-5.424-4.274" transform="translate(-5.517 -6.691)"/></g><g class="cls-35"><path class="cls-34" d="M49.962,69.866a4.944,4.944,0,0,0-3.432,1.262c-4.8-11.055-3.231-15.658-1.442-17.545,5.031,6.821,8.785,16.366,10.3,20.557-1.058-2.515-2.643-4.274-5.424-4.274" transform="translate(-5.517 -6.691)"/></g><g class="cls-36"><path class="cls-27" d="M11,36.761c-.059-.534-.118-1.073-.168-1.616C10,25.918,8.213,9.572,22.008,9.581c6.285.005,13.62,4.315,17.94,8.821-4.065-2.5-8.089-3.879-11.845-3.879-11.7,0-17.392,13.4-15.3,32.3-.75-3.449-1.361-6.831-1.8-10.059" transform="translate(-5.517 -6.691)"/></g><g class="cls-37"><path class="cls-38" d="M31.862,90.388q-.379-.222-.758-.485c-4.51-10.886-7.7-25.4-6.157-34.686.739-4.463,2.805-7.674,6.027-8.813a7.6,7.6,0,0,1,2.86-.44,7.915,7.915,0,0,0-2.36.458c-3.7,1.388-5.366,5.136-5.972,8.8a34.267,34.267,0,0,0-.379,6.332,62.326,62.326,0,0,0,.826,8.353,89.537,89.537,0,0,0,2.078,9.381,92.064,92.064,0,0,0,3.835,11.105" transform="translate(-5.517 -6.691)"/></g><g class="cls-39"><path class="cls-40" d="M58.4,27.3C64.392,33.91,69.511,39.81,74.52,38.965a5.182,5.182,0,0,0,2.625-1.36h0a11.886,11.886,0,0,0,1.029-1.057s.953-1.18.993-1.31c0,0,.912-1.4.946-1.535,0,0,1.055-1.98,1.1-2.2l.61-1.444c.473-1.2.887-2.43,1.243-3.667a45.414,45.414,0,0,0,1.057-4.551,38.573,38.573,0,0,0,.4-11.686c2.268,12.755-3.882,28.294-9.61,29.5s-11.682-6.9-18.873-14.8l0,.006c.785.8,1.571,1.618,2.354,2.424" transform="translate(-5.517 -6.691)"/></g></g></svg>