<?xml version="1.0" encoding="utf-8"?>
<!-- Generator: Adobe Illustrator 23.0.1, SVG Export Plug-In . SVG Version: 6.00 Build 0)  -->
<svg version="1.1" id="Layer_1" xmlns="http://www.w3.org/2000/svg" xmlns:xlink="http://www.w3.org/1999/xlink" x="0px" y="0px"
	 viewBox="0 0 300 100" style="enable-background:new 0 0 300 100;" xml:space="preserve">
<style type="text/css">
	.st0{fill:#1C5793;}
	.st1{fill:#47A4D9;}
	.st2{fill:#FFFFFF;}
</style>
<g>
	<path class="st0" d="M118.1,6.9h4.2l6.8,23.8h-3.2l-1.8-6.5h-8l-1.9,6.5h-3.2L118.1,6.9z M116.6,21.8h6.8l-3.2-11.5h-0.1
		L116.6,21.8z"/>
	<path class="st0" d="M131,12.9h2.8V15h0.1c0.8-1.6,2.8-2.6,4.6-2.6c2.2,0,3.5,0.8,4.1,2.8c0.8-1.6,2.5-2.8,4.5-2.8c5,0,5,3.6,5,5.7
		v12.7h-3V18.4c0-1.4-0.1-3.6-2.5-3.6c-1.4,0-3.5,0.8-3.5,3.6v12.3h-3V18.4c0-1.4-0.1-3.6-2.5-3.6c-1.4,0-3.5,0.8-3.5,3.6v12.3h-3
		V12.9z"/>
	<path class="st0" d="M158.7,22.1c0,2.7,0,6.9,3.6,6.9c2.8,0,3.2-2.8,3.2-4.1h3c0,1.9-1.2,6.3-6.4,6.3c-4.6,0-6.6-3-6.6-9.2
		c0-4.5,0.9-9.6,6.7-9.6c5.8,0,6.3,4.8,6.3,8.6v1.1H158.7z M165.5,19.9v-1c0-2-0.7-4.4-3.3-4.4c-3.1,0-3.5,3.6-3.5,4.7v0.7H165.5z"
		/>
	<path class="st0" d="M171.9,12.9h3v2.7h0.1c0.8-1.7,2-3.1,4.1-3.1c0.6,0,1,0.1,1.3,0.2v2.7c-0.3,0-0.6-0.1-1.6-0.1
		c-1.5,0-3.9,1.3-3.9,4.2v11.3h-3V12.9z"/>
	<path class="st0" d="M182.5,6.9h3v3.2h-3V6.9z M182.5,12.9h3v17.9h-3V12.9z"/>
	<path class="st0" d="M198.5,18.3c0-1.7-0.7-3.7-3-3.7c-1.8,0-3.7,0.9-3.7,7.4c0,2.3,0,7,3.6,7c2.5,0,3.1-2.5,3.1-4.5h3
		c0,2.8-1.5,6.7-6.2,6.7c-4.6,0-6.6-3-6.6-9.2c0-4.5,0.9-9.6,6.7-9.6c5.2,0,6,3.8,6,5.9H198.5z"/>
	<path class="st0" d="M204.1,18.3c0-4.1,1.8-5.9,6.4-5.9c5.8,0,5.8,3.3,5.8,5.1v10c0,0.7,0,1.4,0.9,1.4c0.4,0,0.6-0.1,0.7-0.2v2
		c-0.2,0-1,0.2-1.7,0.2c-1.1,0-2.5,0-2.7-2.3h-0.1c-1,1.6-2.8,2.6-4.6,2.6c-3.5,0-5.2-2-5.2-5.2c0-2.5,1.1-4.2,3.6-4.9l4-1.1
		c2.2-0.6,2.2-1.2,2.2-2.7c0-1.7-1.1-2.6-3-2.6c-3.2,0-3.2,2.9-3.2,3.5v0.2H204.1z M213.2,21c-1.1,1.1-3.7,1.3-5,2.1
		c-1,0.6-1.4,1.3-1.4,2.8c0,1.8,0.7,3.1,2.7,3.1c1.9,0,3.8-1.6,3.8-3.4V21z"/>
	<path class="st0" d="M220.2,12.9h2.8V15h0.1c0.8-1.6,2.8-2.6,4.6-2.6c5,0,5,3.6,5,5.7v12.7h-3V18.4c0-1.4-0.1-3.6-2.8-3.6
		c-1.6,0-3.7,1-3.7,3.6v12.3h-3V12.9z"/>
	<path class="st0" d="M118.1,38.5h4.2l6.8,23.8h-3.2l-1.8-6.5h-8l-1.9,6.5h-3.2L118.1,38.5z M116.6,53.4h6.8l-3.2-11.5h-0.1
		L116.6,53.4z"/>
	<path class="st0" d="M138.8,49.7c0-2.3-0.6-3.5-2.8-3.5c-1,0-3.1,0.2-3.1,2.7c0,2.1,2.3,2.5,4.7,3.2c2.3,0.7,4.6,1.5,4.6,5
		c0,3.8-2.6,5.6-6.1,5.6c-6.4,0-6.5-4.5-6.5-6.3h3c0,2.2,0.6,4.1,3.5,4.1c1,0,3.1-0.4,3.1-3c0-2.4-2.3-2.9-4.6-3.6
		c-2.3-0.7-4.7-1.4-4.7-5.1c0-3.3,2.8-4.9,6-4.9c5.5,0,5.7,3.6,5.8,5.7H138.8z"/>
	<path class="st0" d="M153.2,49.7c0-2.3-0.6-3.5-2.8-3.5c-1,0-3.1,0.2-3.1,2.7c0,2.1,2.3,2.5,4.7,3.2c2.3,0.7,4.6,1.5,4.6,5
		c0,3.8-2.6,5.6-6.1,5.6c-6.4,0-6.5-4.5-6.5-6.3h3c0,2.2,0.6,4.1,3.5,4.1c1,0,3.1-0.4,3.1-3c0-2.4-2.3-2.9-4.6-3.6
		c-2.3-0.7-4.7-1.4-4.7-5.1c0-3.3,2.8-4.9,6-4.9c5.5,0,5.7,3.6,5.8,5.7H153.2z"/>
	<path class="st0" d="M165.3,44c5.5,0,6.8,4.4,6.8,9.4c0,5-1.4,9.4-6.8,9.4c-5.5,0-6.8-4.4-6.8-9.4C158.5,48.4,159.9,44,165.3,44z
		 M169,53.4c0-3.9-0.6-7.2-3.8-7.2c-3,0-3.6,3.3-3.6,7.2c0,3.9,0.6,7.2,3.6,7.2C168.4,60.6,169,57.3,169,53.4z"/>
	<path class="st0" d="M184.1,49.9c0-1.7-0.7-3.7-3-3.7c-1.8,0-3.7,0.9-3.7,7.4c0,2.3,0,7,3.6,7c2.5,0,3.1-2.5,3.1-4.5h3
		c0,2.8-1.5,6.7-6.2,6.7c-4.6,0-6.6-3-6.6-9.2c0-4.5,0.9-9.6,6.7-9.6c5.2,0,6,3.8,6,5.9H184.1z"/>
	<path class="st0" d="M190.3,38.5h3v3.2h-3V38.5z M190.3,44.5h3v17.9h-3V44.5z"/>
	<path class="st0" d="M196.9,49.9c0-4.1,1.8-5.9,6.4-5.9c5.8,0,5.8,3.3,5.8,5.1v10c0,0.7,0,1.4,0.9,1.4c0.4,0,0.6-0.1,0.7-0.2v2
		c-0.2,0-1,0.2-1.7,0.2c-1.1,0-2.5,0-2.7-2.3h-0.1c-1,1.6-2.8,2.6-4.6,2.6c-3.5,0-5.2-2-5.2-5.2c0-2.5,1.1-4.2,3.6-4.9l4-1.1
		c2.2-0.6,2.2-1.2,2.2-2.7c0-1.7-1.1-2.6-3-2.6c-3.2,0-3.2,2.9-3.2,3.5v0.2H196.9z M206,52.6c-1.1,1.1-3.7,1.3-5,2.1
		c-1,0.6-1.4,1.3-1.4,2.8c0,1.8,0.7,3.1,2.7,3.1c1.9,0,3.8-1.6,3.8-3.4V52.6z"/>
	<path class="st0" d="M214.2,39.3h3v5.2h3.3v2.2h-3.3v11.5c0,1.4,0.4,2,1.9,2c0.6,0,1-0.1,1.3-0.1v2.3c-0.4,0.1-1.2,0.2-2.4,0.2
		c-3.1,0-3.8-1.2-3.8-3.5V46.7h-2.8v-2.2h2.8V39.3z"/>
	<path class="st0" d="M222.7,38.5h3v3.2h-3V38.5z M222.7,44.5h3v17.9h-3V44.5z"/>
	<path class="st0" d="M235.6,44c5.5,0,6.8,4.4,6.8,9.4c0,5-1.4,9.4-6.8,9.4c-5.5,0-6.8-4.4-6.8-9.4C228.8,48.4,230.1,44,235.6,44z
		 M239.3,53.4c0-3.9-0.6-7.2-3.8-7.2c-3,0-3.6,3.3-3.6,7.2c0,3.9,0.6,7.2,3.6,7.2C238.6,60.6,239.3,57.3,239.3,53.4z"/>
	<path class="st0" d="M245.3,44.5h2.8v2.1h0.1c0.8-1.6,2.8-2.6,4.6-2.6c5,0,5,3.6,5,5.7v12.7h-3V50c0-1.4-0.1-3.6-2.8-3.6
		c-1.6,0-3.7,1-3.7,3.6v12.3h-3V44.5z"/>
	<path class="st0" d="M276,44c5.5,0,6.8,4.4,6.8,9.4c0,5-1.4,9.4-6.8,9.4c-5.5,0-6.8-4.4-6.8-9.4C269.2,48.4,270.6,44,276,44z
		 M279.7,53.4c0-3.9-0.6-7.2-3.8-7.2c-3,0-3.6,3.3-3.6,7.2c0,3.9,0.6,7.2,3.6,7.2C279.1,60.6,279.7,57.3,279.7,53.4z"/>
	<path class="st0" d="M286.7,46.7h-2.8v-2.2h2.8v-2.1c0-2.7,1.2-4.1,4.1-4.1h2.2v2.4h-1.4c-1.3,0-1.9,0.5-1.9,1.7v2.1h3.2v2.2h-3.2
		v15.7h-3V46.7z"/>
	<path class="st0" d="M128.1,82c0,6-1.2,12.4-8.1,12.4c-6.9,0-8.1-6.4-8.1-12.4c0-6,1.2-12.4,8.1-12.4C126.9,69.7,128.1,76,128.1,82
		z M115.1,82c0,5.5,0.6,10,4.9,10c4.3,0,4.9-4.5,4.9-10c0-5.5-0.6-10-4.9-10C115.7,72.1,115.1,76.5,115.1,82z"/>
	<path class="st0" d="M130.2,76.1h3v2.7h0.1c0.8-1.7,2-3.1,4.1-3.1c0.6,0,1,0.1,1.3,0.2v2.7c-0.3,0-0.6-0.1-1.6-0.1
		c-1.5,0-3.9,1.3-3.9,4.2V94h-3V76.1z"/>
	<path class="st0" d="M143,70.9h3v5.2h3.3v2.2H146v11.5c0,1.4,0.4,2,1.9,2c0.6,0,1-0.1,1.3-0.1V94c-0.4,0.1-1.2,0.2-2.4,0.2
		c-3.1,0-3.8-1.2-3.8-3.5V78.3h-2.8v-2.2h2.8V70.9z"/>
	<path class="st0" d="M151.3,70.1h3v8h0.1c0.8-1.5,2.9-2.5,4.6-2.5c4.9,0,4.9,3.6,4.9,5.7V94h-3V81.6c0-1.4-0.1-3.6-2.8-3.6
		c-1.6,0-3.7,1-3.7,3.6V94h-3V70.1z"/>
	<path class="st0" d="M173.5,75.6c5.5,0,6.8,4.4,6.8,9.4c0,5-1.4,9.4-6.8,9.4c-5.5,0-6.8-4.4-6.8-9.4
		C166.7,80,168.1,75.6,173.5,75.6z M177.2,85c0-3.9-0.6-7.2-3.8-7.2c-3,0-3.6,3.3-3.6,7.2c0,3.9,0.6,7.2,3.6,7.2
		C176.6,92.2,177.2,88.9,177.2,85z"/>
	<path class="st0" d="M195.7,94h-2.8v-2.2h-0.1c-0.4,1.3-2,2.7-4.1,2.7c-4.5,0-6.2-3.8-6.2-9.4c0-3.7,0.6-9.4,6-9.4
		c1.7,0,3.5,1,4.2,2.5h0.1v-8h3V94z M189.1,92c3.3,0,3.8-2.9,3.8-7c0-3.5-0.6-7-3.8-7c-2.8,0-3.5,2.7-3.5,7
		C185.7,89.3,186.4,92,189.1,92z"/>
	<path class="st0" d="M205.5,75.6c5.5,0,6.8,4.4,6.8,9.4c0,5-1.4,9.4-6.8,9.4c-5.5,0-6.8-4.4-6.8-9.4
		C198.7,80,200.1,75.6,205.5,75.6z M209.2,85c0-3.9-0.6-7.2-3.8-7.2c-3,0-3.6,3.3-3.6,7.2c0,3.9,0.6,7.2,3.6,7.2
		C208.6,92.2,209.2,88.9,209.2,85z"/>
	<path class="st0" d="M215.3,76.1h2.8v2.1h0.1c0.8-1.6,2.8-2.6,4.6-2.6c5,0,5,3.6,5,5.7V94h-3V81.6c0-1.4-0.1-3.6-2.8-3.6
		c-1.6,0-3.7,1-3.7,3.6V94h-3V76.1z"/>
	<path class="st0" d="M232.5,70.9h3v5.2h3.3v2.2h-3.3v11.5c0,1.4,0.4,2,1.9,2c0.6,0,1-0.1,1.3-0.1V94c-0.4,0.1-1.2,0.2-2.4,0.2
		c-3.1,0-3.8-1.2-3.8-3.5V78.3h-2.8v-2.2h2.8V70.9z"/>
	<path class="st0" d="M240.9,70.1h3v3.2h-3V70.1z M240.9,76.1h3V94h-3V76.1z"/>
	<path class="st0" d="M256.1,81.3c0-2.3-0.6-3.5-2.8-3.5c-1,0-3.1,0.2-3.1,2.7c0,2.1,2.3,2.5,4.7,3.2c2.3,0.7,4.6,1.5,4.6,5
		c0,3.8-2.6,5.6-6.1,5.6c-6.4,0-6.5-4.5-6.5-6.3h3c0,2.2,0.6,4.1,3.5,4.1c1,0,3.1-0.4,3.1-3c0-2.4-2.3-2.9-4.6-3.6
		c-2.3-0.7-4.7-1.4-4.7-5.1c0-3.3,2.8-4.9,6-4.9c5.5,0,5.7,3.6,5.8,5.7H256.1z"/>
	<path class="st0" d="M263.2,70.9h3v5.2h3.3v2.2h-3.3v11.5c0,1.4,0.4,2,1.9,2c0.6,0,1-0.1,1.3-0.1V94c-0.4,0.1-1.2,0.2-2.4,0.2
		c-3.1,0-3.8-1.2-3.8-3.5V78.3h-2.8v-2.2h2.8V70.9z"/>
	<path class="st0" d="M280,81.3c0-2.3-0.6-3.5-2.8-3.5c-1,0-3.1,0.2-3.1,2.7c0,2.1,2.3,2.5,4.7,3.2c2.3,0.7,4.6,1.5,4.6,5
		c0,3.8-2.6,5.6-6.1,5.6c-6.4,0-6.5-4.5-6.5-6.3h3c0,2.2,0.6,4.1,3.5,4.1c1,0,3.1-0.4,3.1-3c0-2.4-2.3-2.9-4.6-3.6
		c-2.3-0.7-4.7-1.4-4.7-5.1c0-3.3,2.8-4.9,6-4.9c5.5,0,5.7,3.6,5.8,5.7H280z"/>
	<path class="st1" d="M14.6,4.7c0,0-7.3,0.7-7.6,7.8v27.6l7.7-19.2h8.4l16,38.7h-8.4l-3.6-8.6H11.4l-2.8,6.5
		c0,0,11.1,17.8,43.4,18.8c0,0,31.6,2.3,48.3-20.5v-3.8c0,0-11.5,15.4-28.2,4.1l-8.4-20.3c0,0,2-12.1,14.5-16.1c0,0,12.5-4.2,22,7.1
		V12.1c0,0-0.2-7.3-8.4-7.3L14.6,4.7z"/>
	<polygon class="st2" points="36.1,45.9 40.5,56.2 42.6,50.7 58.3,50.7 62.1,59.7 70.8,59.7 54.9,20.9 46.2,20.9 	"/>
	<polygon class="st1" points="19,29.8 13.5,44.2 24.5,44.2 	"/>
	<polygon class="st1" points="50.5,29.8 45.1,44.2 56.1,44.2 	"/>
	<path class="st1" d="M96.3,39.2c0,6.8-5.5,12.4-12.4,12.4c-6.8,0-12.4-5.5-12.4-12.4c0-6.8,5.5-12.4,12.4-12.4
		C90.8,26.8,96.3,32.3,96.3,39.2z"/>
	<path class="st0" d="M7.2,64.6v24c0,0,0.1,6.6,8.5,6.8h76.9c0,0,7.5-0.6,7.5-7.3V64.9c0,0-13.5,17-46,17
		C54,81.9,25.9,83.9,7.2,64.6z"/>
</g>
</svg>
