<?xml version="1.0" encoding="utf-8"?>
<!-- Generator: Adobe Illustrator 24.0.3, SVG Export Plug-In . SVG Version: 6.00 Build 0)  -->
<svg version="1.1" id="Layer_1" xmlns="http://www.w3.org/2000/svg" xmlns:xlink="http://www.w3.org/1999/xlink" x="0px" y="0px"
	 viewBox="0 0 165.5 87.7" style="enable-background:new 0 0 165.5 87.7;" xml:space="preserve">
<style type="text/css">
	.st0{fill:#EBBCBC;}
	.st1{fill:#58595B;}
	.st2{fill:#FFFFFF;}
	.st3{opacity:0.5;}
	.st4{fill:#E6E7E8;}
	.st5{fill:#D0D2D3;}
	.st6{fill:#BBBDBF;}
	.st7{fill:#77787B;}
	.st8{opacity:0.9;}
	.st9{opacity:0.5;fill:#FFFFFF;enable-background:new    ;}
	.st10{fill:#999999;}
	.st11{fill:#A6A8AB;}
</style>
<g>
	<g>
		<g>
			<path class="st0" d="M163.1,36.1c-0.3-7.7-1.5-15.5-1.5-15.5c-53.4-22.9-78.9-1.9-78.9-1.9l0,0c0,0-25.5-21-78.9,1.9
				c0,0-1.2,7.8-1.5,15.5s4.2,8.6,4.4,10.8l12.7,14.6h24.1c0.3-1.1,0.6-1.9,0.6-2.2c0.2-0.8,5.7-15.8,5.7-15.8S51,54.7,54,51.3
				s18.6-5.5,19-4.9c0.5,0.5,6.4,3.1,6.4,3.1s1.4,3.3,3.3,3.7v8.2h66.1l9.9-14.6C158.9,44.6,163.4,43.7,163.1,36.1z"/>
		</g>
		<g>
			<path class="st1" d="M148.8,62.4H82.7c-0.5,0-0.9-0.4-0.9-0.9v-7.6c-1.5-0.8-2.6-2.8-3-3.6c-0.5-0.2-1.6-0.7-2.7-1.2
				c-2.3-1-3.1-1.5-3.4-1.7c-0.9,0-4.5,0.3-8.5,1.2c-4.9,1-8.4,2.3-9.4,3.5c-0.9,1-1.8,1-2.3,0.9c-1.2-0.4-2.1-2-2.8-5.1
				c0-0.2-0.1-0.4-0.1-0.6c-2,5.5-4.3,11.8-4.5,12.4c-0.1,0.2-0.3,0.9-0.6,2.1v0.1c-0.1,0.4-0.5,0.7-0.9,0.7H19.4
				c-0.3,0-0.5-0.1-0.7-0.3L6,47.4c-0.1-0.1-0.2-0.3-0.2-0.5c0-0.4-0.5-0.9-1.1-1.5c-1.4-1.5-3.6-3.9-3.3-9.4
				C1.7,28.4,2.9,20.5,3,20.4c0-0.3,0.3-0.6,0.5-0.7c12.2-5.2,24-8.6,35.1-10c8.8-1.1,17.2-1,24.9,0.4c11.1,2,17.4,6.1,19.3,7.4
				c1.9-1.3,8.2-5.4,19.3-7.4c7.7-1.4,16-1.5,24.9-0.4c11,1.4,22.8,4.7,35,10c0.3,0.1,0.5,0.4,0.5,0.7c0,0.1,1.2,8,1.6,15.6
				c0.2,5.5-1.9,7.8-3.3,9.4c-0.6,0.6-1,1.1-1.1,1.5c0,0.2-0.1,0.3-0.2,0.4l-9.9,14.6C149.4,62.2,149.1,62.4,148.8,62.4z M83.6,60.5
				h64.7l9.5-14c0.2-0.9,0.8-1.6,1.5-2.3c1.3-1.4,3.1-3.3,2.9-8.1c-0.3-6.4-1.2-13-1.5-14.9c-27-11.5-46.6-11.4-58.3-9.3
				c-12.7,2.3-19.1,7.4-19.2,7.5c-0.3,0.3-0.8,0.3-1.2,0c-0.1,0-6.4-5.2-19.2-7.5C51.3,9.8,31.7,9.7,4.6,21.2
				C4.3,23,3.4,29.7,3.1,36.1c-0.2,4.7,1.6,6.7,2.9,8.1c0.7,0.7,1.3,1.4,1.5,2.3l12.3,14.1h23c0.2-0.7,0.4-1.3,0.4-1.4
				c0.2-0.8,4.8-13.4,5.8-15.9c0.1-0.4,0.5-0.6,1-0.6c0.4,0.1,0.8,0.4,0.8,0.8c0,0,0.2,1.9,0.7,3.9c0.7,3.2,1.5,3.7,1.5,3.7
				s0.2-0.1,0.4-0.3c1.3-1.5,4.5-2.8,9.6-3.9c3.9-0.9,7.9-1.4,9.5-1.4c0.5,0,1,0,1.3,0.3c0.5,0.4,3.5,1.7,6.1,2.9
				c0.2,0.1,0.4,0.3,0.5,0.5c0.4,0.9,1.6,2.9,2.6,3.2c0.4,0.1,0.7,0.5,0.7,0.9L83.6,60.5L83.6,60.5z M158.7,46.8L158.7,46.8
				L158.7,46.8z M73.7,45.8L73.7,45.8L73.7,45.8z"/>
		</g>
	</g>
	<g>
		<g>
			<g>
				<g>
					<path class="st2" d="M148.3,52.8c0,0,4.5-5.2,7.5-7.5s3.3,0.8,2.8,3.8s-1.6,9.2-2.9,14.7s-4.5,9.8-8.8,5.7
						C142.5,65.4,141.3,59.8,148.3,52.8z"/>
				</g>
			</g>
			<g>
				<g>
					<path class="st1" d="M150.1,72c-1.3,0-2.6-0.6-3.9-1.9c-2.4-2.3-3.7-4.9-3.7-7.6c-0.1-3.3,1.7-6.8,5.2-10.4
						c0.4-0.4,4.6-5.3,7.6-7.6c0.9-0.7,1.6-1,2.3-1c0.6,0,1.1,0.2,1.4,0.7c0.9,1.1,0.8,3.3,0.5,5l-0.1,0.8c-0.5,3.1-1.5,8.9-2.8,14
						C155.2,69.1,152.9,72,150.1,72z M157.5,45.4c-0.1,0-0.4,0-1.2,0.6c-2.9,2.3-7.3,7.3-7.3,7.4l0,0c-3.2,3.2-4.7,6.3-4.7,9.1
						c0,2.2,1.1,4.4,3.2,6.3c0.9,0.9,1.8,1.4,2.6,1.4c1.9,0,3.6-2.5,4.7-6.6c1.2-5,2.2-10.8,2.8-13.9l0.1-0.8
						C158,46.5,157.7,45.5,157.5,45.4L157.5,45.4z"/>
				</g>
			</g>
		</g>
		<g>
			<g>
				<g>
					<path class="st2" d="M130.6,50.3c0,0,5.9-8.5,8.5-11.3s7-4.4,8.6-1.2s0.9,18.9-1.1,24.3c-2.1,5.4-6.3,9.6-10.8,6.1
						S124.6,59.7,130.6,50.3z"/>
				</g>
			</g>
			<g>
				<g>
					<path class="st1" d="M139.1,70.4c-1.3,0-2.7-0.5-3.9-1.4c-2.2-1.6-5.2-3.9-6.8-7c-1.8-3.6-1.3-7.7,1.5-12.1l0,0
						c0.2-0.3,5.9-8.6,8.6-11.4c1.8-2,4.4-3.3,6.4-3.3c1.6,0,3,0.8,3.7,2.3c1.7,3.5,1.1,19.4-1.1,25
						C145.5,67.4,142.4,70.4,139.1,70.4z M131.4,50.8c-5.2,8.1-0.7,12.6,4.9,16.7c0.9,0.7,1.9,1.1,2.8,1.1c3,0,5.4-3.5,6.6-6.8
						c2.1-5.5,2.6-20.8,1.2-23.6c-0.4-0.8-1.1-1.2-2.1-1.2c-1.5,0-3.6,1.1-5.1,2.7C137.3,42.3,131.6,50.4,131.4,50.8z"/>
				</g>
			</g>
		</g>
		<g>
			<g>
				<g>
					<path class="st2" d="M131.3,61c0,6.6-21.1,6.6-21.1,0c0-11.3,4.2-25.5,10.5-25.5C129.6,35.5,131.3,49.6,131.3,61z"/>
				</g>
			</g>
			<g>
				<g>
					<path class="st1" d="M120.7,66.8c-5.7,0-11.4-1.8-11.4-5.8c0-5.9,1.1-12.3,2.9-17.3c2.2-5.9,5.1-9.1,8.5-9.1
						c4.4,0,7.6,3.1,9.4,9.1c1.3,4.3,2,10.1,2,17.3C132.2,65,126.4,66.8,120.7,66.8z M120.7,36.4c-5.4,0-9.6,13.2-9.6,24.6
						c0,2.6,5,4,9.6,4c4.7,0,9.6-1.4,9.6-4C130.3,49.8,128.7,36.4,120.7,36.4z"/>
				</g>
			</g>
		</g>
		<g>
			<g>
				<g>
					<path class="st2" d="M17.1,52.8c0,0-4.5-5.2-7.5-7.5s-3.3,0.8-2.8,3.8s1.6,9.2,2.9,14.7c1.4,5.5,4.5,9.8,8.8,5.7
						C22.9,65.4,24.1,59.8,17.1,52.8z"/>
				</g>
			</g>
			<g>
				<g>
					<path class="st1" d="M15.3,72L15.3,72c-2.8,0-5.2-2.9-6.4-8c-1.3-5.1-2.3-10.9-2.8-14L6,49.2c-0.3-1.7-0.4-3.9,0.5-5
						c0.4-0.4,0.9-0.7,1.4-0.7c0.7,0,1.4,0.3,2.3,1c3,2.3,7.2,7.2,7.6,7.6c3.5,3.6,5.2,7.1,5.2,10.4c-0.1,2.7-1.3,5.3-3.7,7.6
						C17.9,71.4,16.6,72,15.3,72z M7.9,45.4L7.9,45.4c-0.2,0.1-0.6,1.1-0.1,3.5l0.1,0.8c0.5,3.1,1.5,8.9,2.8,13.9
						c1,4.1,2.8,6.6,4.7,6.6c0.8,0,1.7-0.5,2.6-1.4c2.1-2,3.1-4.1,3.2-6.3c0.1-2.8-1.5-5.9-4.7-9.1l0,0c0-0.1-4.5-5.1-7.3-7.4
						C8.4,45.4,8,45.4,7.9,45.4z"/>
				</g>
			</g>
		</g>
		<g>
			<g>
				<g>
					<g>
						<path class="st2" d="M32.2,50.3c0,0-4.3-8.5-6.4-11.3c-2.1-2.8-6.2-4.4-8.4-1.2S13,56.7,14.1,62.1s4.5,9.6,9.7,6.1
							C29,64.8,36.5,59.7,32.2,50.3z"/>
					</g>
				</g>
			</g>
			<g>
				<g>
					<g>
						<path class="st1" d="M20.2,70.4L20.2,70.4c-3.3,0-6-3.1-7-8.1c-1.1-5.6,1.1-21.5,3.5-25c1-1.4,2.3-2.2,3.9-2.2
							c2.1,0,4.4,1.3,5.9,3.3c2.1,2.8,6.3,11.1,6.5,11.4l0,0c4.7,10.3-3.7,15.8-8.7,19.1C22.9,69.9,21.5,70.4,20.2,70.4z M20.6,37
							c-1,0-1.8,0.5-2.4,1.4C16.3,41.2,13.9,56.5,15,62c0.6,3.2,2.3,6.6,5.2,6.6l0,0c1,0,2-0.4,3.1-1.1c4.8-3.2,12.1-8,8.1-16.8
							c-0.2-0.4-4.3-8.5-6.3-11.1C23.9,38,22.1,37,20.6,37z"/>
					</g>
				</g>
			</g>
		</g>
		<g>
			<g>
				<g>
					<path class="st2" d="M28.5,58.2C27,64.6,47.4,69.5,49,63.1c2.7-11,1.9-25.7-4.3-27.2C36.2,33.8,31.2,47.2,28.5,58.2z"/>
				</g>
			</g>
			<g>
				<g>
					<path class="st1" d="M42.8,67L42.8,67c-4.8,0-11.6-2-14.2-5.4c-0.9-1.2-1.3-2.5-1-3.7c3.7-15.4,8.9-23.2,15.4-23.2
						c0.6,0,1.3,0.1,2,0.2c3.3,0.8,5.4,4.5,6.1,10.8c0.6,5.3,0.2,11.8-1.2,17.5C49.3,65.7,46.8,67,42.8,67z M43,36.6
						c-6.9,0-11.2,11.9-13.6,21.8c-0.2,0.7,0,1.4,0.6,2.1c2,2.5,7.8,4.7,12.8,4.7l0,0c1.4,0,4.8-0.2,5.3-2.3
						c2.7-11,1.7-24.9-3.6-26.1C44,36.7,43.5,36.6,43,36.6z"/>
				</g>
			</g>
		</g>
		<g>
			<g>
				<g>
					<g>
						<path class="st2" d="M110.2,63.3c0,6.6-27.5,6.6-27.5,0c0-11.4,2.2-29.3,13.8-29.3C108,34,110.2,51.9,110.2,63.3z"/>
					</g>
				</g>
			</g>
			<g>
				<g>
					<g>
						<path class="st1" d="M96.5,69.2c-6.8,0-14.7-1.5-14.7-5.9c0-9.1,1.4-30.2,14.7-30.2c13.2,0,14.7,21.1,14.7,30.2
							C111.1,67.6,103.2,69.2,96.5,69.2z M96.5,34.9c-4.7,0-8.1,3.3-10.3,9.7C84,51,83.7,59,83.7,63.2c0,2.3,5.6,4,12.8,4
							c7.2,0,12.8-1.8,12.8-4c0-4.2-0.3-12.2-2.5-18.6C104.6,38.2,101.1,34.9,96.5,34.9z"/>
					</g>
				</g>
			</g>
		</g>
		<g>
			<g>
				<g>
					<g>
						<path class="st2" d="M82.3,60.7c1.1,6.5-25.9,11.3-27.1,4.8c-2-11.3-2.9-29.2,8.5-31.2C75,32.3,80.3,49.5,82.3,60.7z"/>
					</g>
				</g>
			</g>
			<g>
				<g>
					<g>
						<path class="st1" d="M54.3,65.6c-1.6-8.9-3.8-30,9.2-32.3s18.1,18.3,19.7,27.2c0.8,4.3-6.8,7.2-13.4,8.3
							C63.1,70.1,55,69.9,54.3,65.6z M55.3,46.5c-1,6.7,0,14.7,0.8,18.8c0.4,2.2,6.3,3,13.3,1.8c7.1-1.2,12.3-4,11.9-6.2
							c-0.7-4.1-2.4-12-5.7-17.9c-3.3-6-7.3-8.6-11.9-7.8C59.2,36,56.3,39.8,55.3,46.5z"/>
					</g>
				</g>
			</g>
		</g>
	</g>
	<g>
		<path class="st1" d="M145.9,56.5l-6.2-1.1l0,0l-14-1.8l0,0l-8.4-0.3l0,0l-34.6,0.2v1.8l34.6-0.2l8.3,0.2l13.9,1.8l6,1.1l10.5,3.9
			c0.1-0.6,0.3-1.2,0.4-1.8L145.9,56.5z"/>
		<g>
			<g class="st3">
				<path class="st4" d="M94.2,49L94.2,49c0,0.6,0.5,1.1,1.1,1.1h2.5c0.6,0,1.1-0.5,1.1-1.1l0,0c0-0.1,0.1-0.2,0.2-0.2h1.3
					c0.5,0,0.9,0.4,0.9,0.9V52c0,0.5-0.4,0.9-0.9,0.9h-1.3c-0.1,0-0.2-0.1-0.2-0.2l0,0c0-0.6-0.5-1.1-1.1-1.1h-2.5
					c-0.6,0-1.1,0.5-1.1,1.1l0,0c0,0.1-0.1,0.2-0.2,0.2h-1.3c-0.5,0-0.9-0.4-0.9-0.9v-2.3c0-0.5,0.4-0.9,0.9-0.9H94
					C94.1,48.9,94.2,48.9,94.2,49z"/>
				<path class="st5" d="M92.1,55.7c-0.4,0-0.8,0.4-0.8,0.8v1.3c0,0.4,0.4,0.8,0.8,0.8h2.1v-2.9C94.2,55.7,92.1,55.7,92.1,55.7z"/>
				<path class="st5" d="M100.9,55.7h-2.1v2.9h2.1c0.4,0,0.8-0.4,0.8-0.8v-1.3C101.7,56.1,101.3,55.7,100.9,55.7z"/>
				<rect x="91.9" y="53" class="st2" width="9.2" height="2.8"/>
				<polygon class="st6" points="94.2,52.9 98.8,52.9 98.8,57.7 98.8,58.6 98.8,58.6 94.2,58.6 94.2,58.6 				"/>
			</g>
			<path class="st7" d="M101.4,55.5v-2.6c0-0.1-0.1-0.2-0.2-0.3c0.1-0.2,0.2-0.4,0.2-0.6v-2.3c0-0.7-0.6-1.3-1.3-1.3h-1.3
				c-0.3,0-0.5,0.2-0.5,0.5c0,0.4-0.3,0.7-0.7,0.7h-2.5c-0.4,0-0.7-0.3-0.7-0.7c0-0.3-0.2-0.5-0.5-0.5h-1.2c-0.7,0-1.3,0.6-1.3,1.3
				V52c0,0.2,0.1,0.4,0.2,0.6c-0.1,0.1-0.2,0.2-0.2,0.3v2.6c-0.3,0.2-0.6,0.6-0.6,1v1.3c0,0.6,0.5,1.2,1.2,1.2h2.1h4.6h2.1
				c0.6,0,1.2-0.5,1.2-1.2v-1.3C102,56.1,101.8,55.8,101.4,55.5z M92.2,53.3h0.5h1.1v2.1h-1.6V53.3z M99.1,53.3h1.1h0.5v2.1h-1.6
				V53.3z M92.2,49.8c0-0.3,0.2-0.5,0.5-0.5h1.1c0.1,0.7,0.7,1.2,1.4,1.2h2.5c0.7,0,1.3-0.5,1.4-1.2h1.1c0.3,0,0.5,0.2,0.5,0.5v2.3
				c0,0.3-0.2,0.6-0.5,0.6h-1.1c-0.1-0.7-0.7-1.2-1.4-1.2h-2.5c-0.7,0-1.3,0.5-1.4,1.2h-1.1c-0.3,0-0.5-0.2-0.5-0.6V49.8z
				 M98.4,52.6h-3.8c0.1-0.3,0.4-0.5,0.7-0.5h2.5C98,52.1,98.3,52.3,98.4,52.6z M91.6,57.8v-1.3c0-0.2,0.2-0.4,0.4-0.4h1.7v2.2H92
				C91.8,58.3,91.6,58.1,91.6,57.8z M94.5,55.7v-2.4h3.9v2.4v2.5h-3.9V55.7z M101.3,57.8c0,0.2-0.2,0.4-0.4,0.4h-1.7v-2.1h1.7
				c0.2,0,0.4,0.2,0.4,0.4V57.8z"/>
		</g>
		<g class="st8">
			<g>
				<polygon class="st9" points="119.2,52.9 117.3,52.8 117.3,55.5 118.2,55.5 125.4,55.7 125.5,53.1 				"/>
				<g class="st3">
					<path class="st10" d="M122.4,52c-0.1-0.1-0.3-0.2-0.4-0.2h-1.1c-0.5,0-0.8,0.4-0.9,1l0,0c0,0.1-0.1,0.1-0.1,0.1l2.8,0.1v-0.1
						l0,0l0,0C122.8,52.5,122.7,52.2,122.4,52z"/>
					<path class="st4" d="M124.9,49.2H124l0,0h-1c-0.1,0-0.1,0.1-0.1,0.1l0,0c0,0.5-0.4,1-0.9,1h-1.1c-0.5,0-0.8-0.5-0.8-1
						c0-0.1-0.1-0.1-0.1-0.2h-0.9l0,0h-1c-0.4,0-0.7,0.4-0.7,0.8l-0.1,2.1c0,0.5,0.3,0.9,0.7,0.9h1l0,0h0.9c0.1,0,0.1-0.1,0.1-0.1
						l0,0c0-0.5,0.4-1,0.9-1h1.1c0.5,0,0.8,0.5,0.8,1l0,0c0,0.1,0.1,0.1,0.1,0.2h0.9l0,0h1c0.4,0,0.7-0.4,0.7-0.8l0.1-2.1
						C125.6,49.6,125.3,49.2,124.9,49.2z"/>
					<path class="st5" d="M119.1,55.5L119.1,55.5h-1.6c-0.4,0-0.7,0.3-0.7,0.7v1.3c0,0.4,0.3,0.7,0.7,0.7h0.9l0,0h1.6l0.1-2.7H119.1
						z"/>
					<path class="st11" d="M123.7,52.9L123.7,52.9c0-0.5-0.3-1-0.8-1l-2-0.1c-0.5,0-0.8,0.4-0.9,1v0.1H123.7L123.7,52.9L123.7,52.9
						L123.7,52.9z"/>
					<path class="st5" d="M125.2,55.7h-1.6l-0.1,2.7h1.6c0.4,0,0.7-0.3,0.7-0.7v-1.3C125.9,56,125.6,55.7,125.2,55.7z"/>
					<polygon class="st6" points="123.7,53 120.1,52.9 119.9,57.4 119.9,58.3 119.9,58.3 123.5,58.4 123.5,58.4 					"/>
				</g>
			</g>
			<path class="st7" d="M125.8,55.6l0.1-2.5c0-0.1,0-0.2-0.1-0.2l0,0c0.1-0.2,0.1-0.4,0.2-0.6l0.1-2.1c0-0.3-0.1-0.6-0.3-0.8
				S125.3,49,125,49h-0.9l0,0h-1l0,0c-0.2,0-0.5,0.2-0.5,0.5c0,0.2-0.1,0.4-0.2,0.5c-0.1,0.1-0.2,0.2-0.3,0.2l0,0H121
				c-0.2,0-0.3-0.1-0.3-0.2c-0.1-0.1-0.2-0.3-0.1-0.5c0-0.1,0-0.2-0.1-0.3s-0.2-0.2-0.3-0.2h-0.9l0,0h-1c-0.3,0-0.6,0.1-0.8,0.3
				s-0.3,0.5-0.3,0.8l-0.1,2.1c0,0.2,0,0.4,0.1,0.6c-0.1,0.1-0.1,0.2-0.1,0.3l-0.1,2.5c-0.1,0-0.1,0.1-0.2,0.1
				c-0.2,0.2-0.3,0.4-0.3,0.7v1.3c0,0.3,0.1,0.5,0.3,0.7s0.4,0.3,0.7,0.3h0.9l0,0h1.6l0,0l3.6,0.1h1.6l0,0c0.6,0,1-0.4,1-1v-1.3
				C126.2,56.1,126,55.8,125.8,55.6z M118.8,57.9h-0.5c-0.1,0-0.2,0-0.2-0.1c-0.1-0.1-0.1-0.2-0.1-0.3v-1.3c0-0.1,0-0.2,0.1-0.2
				c0.1-0.1,0.2-0.1,0.2-0.1l0,0h0.7h0.6l-0.1,2L118.8,57.9z M118.5,55.2l0.1-2h1.1l-0.1,2h-0.9H118.5z M117.9,53.2l-0.1,2h-0.2
				l0.1-2H117.9z M120.4,52.6C120.5,52.6,120.5,52.5,120.4,52.6C120.5,52.5,120.5,52.5,120.4,52.6c0-0.1,0.1-0.2,0.1-0.2l0,0
				c0,0,0,0,0-0.1l0,0c0,0,0,0,0-0.1l0,0l0,0l0,0l0,0l0,0c0,0,0,0,0.1,0l0,0c0,0,0,0,0.1,0l0,0h1.1c0.2,0,0.4,0.2,0.5,0.5h-0.7
				L120.4,52.6z M123.1,52.2C123.1,52.3,123.1,52.3,123.1,52.2C123.1,52.3,123.1,52.3,123.1,52.2c0.1,0.1,0.1,0.1,0.1,0.1l0,0
				c0,0,0,0,0,0.1l0,0c0,0,0,0,0,0.1l0,0v0.1l0,0v0.1H123C123.1,52.5,123.1,52.4,123.1,52.2C123,52.2,123,52.2,123.1,52.2
				C123,52.2,123,52.2,123.1,52.2z M125.1,55.4H124l0.1-2h1.1L125.1,55.4z M123.4,49.5c0,0.1-0.1,0.2-0.1,0.3c0,0-0.1,0.1-0.2,0.1
				c0.1-0.1,0.1-0.3,0.1-0.4L123.4,49.5z M120.1,50.1c0.2,0.3,0.5,0.4,0.8,0.4l2,0.1c0.3,0,0.6-0.1,0.9-0.4c0.2-0.2,0.3-0.4,0.3-0.7
				h0.8c0.1,0,0.2,0.1,0.2,0.1c0.1,0.1,0.1,0.2,0.1,0.4l-0.1,2.1c0,0.3-0.2,0.5-0.4,0.5l0,0h-0.8l0,0c0,0,0,0,0-0.1v-0.1l0,0v-0.1
				l0,0v-0.1l0,0c0,0,0-0.1-0.1-0.1l0,0c0,0,0-0.1-0.1-0.1l0,0c0,0,0,0,0-0.1l0,0c0,0,0,0,0-0.1l0,0c0,0,0,0-0.1,0l0,0
				c0,0,0,0-0.1,0l0,0c0,0,0,0-0.1,0l0,0c0,0,0,0-0.1,0l0,0c0,0,0,0-0.1,0l0,0c0,0,0,0-0.1,0l0,0H123h-0.9l0,0l0,0H121l0,0h-0.1l0,0
				c0,0,0,0-0.1,0l0,0c0,0,0,0-0.1,0l0,0c0,0,0,0-0.1,0l0,0c0,0,0,0-0.1,0l0,0c0,0,0,0-0.1,0l0,0c0,0,0,0-0.1,0l0,0c0,0,0,0-0.1,0.1
				l0,0c0,0,0,0-0.1,0.1l0,0c0,0.1-0.1,0.1-0.1,0.2l0,0v0.1l0,0c0,0,0,0,0,0.1l0,0c0,0,0,0,0,0.1l0,0l0,0h-0.2h-0.4l0,0h-0.2
				c-0.2,0-0.4-0.2-0.4-0.5l0.1-2.1c0-0.1,0.1-0.3,0.1-0.4c0,0,0.1-0.1,0.2-0.1h0.8C119.9,49.7,120,49.9,120.1,50.1z M117.8,49.9
				c0-0.1,0.1-0.3,0.1-0.4c0,0,0.1-0.1,0.2-0.1c-0.1,0.2-0.1,0.3-0.1,0.5l-0.1,2.1c0,0.2,0,0.4,0.1,0.5c-0.2,0-0.3-0.3-0.3-0.5
				L117.8,49.9z M117.1,57.5v-1.3c0-0.1,0-0.2,0.1-0.2s0.1-0.1,0.2-0.1c0,0.1-0.1,0.2-0.1,0.3v1.3c0,0.1,0,0.2,0,0.3
				c-0.1,0-0.1-0.1-0.2-0.1C117.1,57.7,117.1,57.6,117.1,57.5z M120.4,53.3h1.4h1.5l-0.1,4.7l-2.9-0.1L120.4,53.3z M125.5,57.8
				c0,0.2-0.2,0.3-0.4,0.3h-1.2l0.1-2h1.2l0,0c0.2,0,0.3,0.2,0.3,0.4L125.5,57.8z"/>
		</g>
		<g class="st8">
			<polygon class="st9" points="145.4,56.1 145.4,56.1 141.7,55.4 141.7,55.4 140.7,55.2 140.2,57.6 141.3,57.8 145,58.6 145,58.6 
				146.2,58.8 146.7,56.3 			"/>
			<g class="st3">
				<polygon class="st6" points="145.4,56.1 143,55.6 142.2,59.8 142,60.7 142,60.7 144.5,61.1 144.5,61.1 				"/>
				<path class="st4" d="M146.9,52.6l-0.7-0.1c0,0-0.1,0-0.1,0.1l0,0c0,0,0,0,0,0.1c-0.1-0.1-0.2-0.2-0.3-0.2l-0.7-0.1
					c0,0-0.1,0-0.1,0.1l0,0c-0.1,0.5-0.4,0.9-0.7,0.8l-0.3-0.1c-0.3-0.1-0.5-0.5-0.4-1c0-0.1,0-0.1-0.1-0.2l-0.7-0.1
					c-0.1,0-0.2,0-0.3,0.1l0,0c0-0.1,0-0.1-0.1-0.2l-0.7-0.1c-0.3-0.1-0.6,0.3-0.6,0.7l-0.4,2c-0.1,0.4,0.1,0.9,0.3,0.9l0.7,0.1
					c0,0,0.1,0,0.1-0.1l0,0c0,0,0,0,0-0.1c0.1,0.1,0.2,0.2,0.3,0.2l0.7,0.1c0,0,0.1,0,0.1-0.1l0,0c0.1-0.5,0.4-0.9,0.7-0.8l0.3,0.1
					c0.3,0.1,0.5,0.5,0.4,1l0,0c0,0.1,0,0.1,0.1,0.2l0.7,0.1c0.1,0,0.2,0,0.3-0.1l0,0l0,0c0,0.1,0,0.1,0.1,0.2l0.7,0.1
					c0.3,0.1,0.6-0.3,0.6-0.7l0.4-2C147.3,53,147.2,52.6,146.9,52.6z"/>
				<path class="st5" d="M141.5,57.9L141.5,57.9L141.5,57.9l-1.1-0.2c-0.3-0.1-0.6,0.1-0.7,0.4l-0.3,1.5c-0.1,0.3,0.1,0.6,0.4,0.7
					l1,0.2l0,0c0,0,0,0,0.1,0l1,0.2l0.5-2.6L141.5,57.9z"/>
				<path class="st11" d="M145.1,54.9l-1.3-0.3c-0.3-0.1-0.6,0.3-0.7,0.8v0.1l2.5,0.5v-0.1l0,0C145.6,55.4,145.4,54.9,145.1,54.9z"
					/>
				<path class="st5" d="M146,58.7l-1-0.2l-0.5,2.6l1,0.2c0.3,0.1,0.6-0.1,0.7-0.4l0.3-1.5C146.5,59.1,146.3,58.8,146,58.7z"/>
			</g>
			<path class="st7" d="M147,52.3l-0.7-0.1l0,0l-1.1-0.2c-0.2,0-0.4,0.1-0.5,0.4l0,0c0,0.2-0.1,0.4-0.2,0.5
				c-0.1,0.1-0.1,0.1-0.1,0.1l-0.3-0.1c0,0-0.1,0-0.1-0.1c-0.1-0.1-0.1-0.3,0-0.5c0-0.1,0-0.2,0-0.3c-0.1-0.1-0.2-0.2-0.3-0.3
				l-0.7-0.1l0,0l-1.1-0.2c-0.5-0.1-0.9,0.3-1,1l-0.4,2c0,0.2,0,0.4,0,0.6l0,0c-0.1,0-0.1,0.1-0.1,0.2l-0.5,2.4
				c-0.2,0.1-0.4,0.3-0.4,0.6l-0.3,1.5c-0.1,0.5,0.2,0.9,0.7,1l1,0.2c0,0,0,0,0.1,0l0,0l0,0l1,0.2l0,0l2.5,0.5l0,0l1,0.2
				c0.1,0,0.1,0,0.2,0c0.2,0,0.3-0.1,0.5-0.2c0.2-0.1,0.3-0.3,0.4-0.6l0.3-1.5c0.1-0.3,0-0.5-0.2-0.7l0.5-2.4c0-0.1,0-0.2-0.1-0.3
				c0.1-0.2,0.2-0.3,0.2-0.6l0.4-2C147.7,52.9,147.4,52.3,147,52.3z M145.3,52.6l0.4,0.1c-0.1,0.3-0.3,0.4-0.3,0.4l-0.3-0.1
				C145.2,52.9,145.3,52.8,145.3,52.6z M144,53.5h0.2c0,0,0,0,0.1,0h0.1l1,0.2c0.5,0.1,0.9-0.3,1.1-0.9l0.4,0.1c0,0,0.1,0.2,0.1,0.5
				l-0.4,2c-0.1,0.3-0.2,0.5-0.3,0.5l-0.4-0.1l0,0v-0.1l0,0v-0.1c0,0,0,0,0-0.1c0,0,0,0,0-0.1s0-0.1-0.1-0.2c0-0.1-0.1-0.2-0.2-0.3
				l0,0c0,0,0,0-0.1-0.1l0,0c0,0,0,0-0.1,0l0,0l0,0c0,0,0,0-0.1,0l0,0h-0.1l0,0l-1.1-0.2h-0.3l0,0h-0.1l0,0c0,0,0,0-0.1,0
				c0,0,0,0-0.1,0l0,0h-0.1l0,0c-0.1,0-0.3,0.1-0.4,0.3c0,0.1-0.1,0.1-0.1,0.2c0,0,0,0,0,0.1c0,0,0,0,0,0.1c0,0,0,0.1-0.1,0.1l0,0
				v0.1l0,0l-0.4-0.1c0,0-0.1-0.2-0.1-0.5l0.4-2c0.1-0.3,0.2-0.4,0.3-0.5h0.1l0.3,0.1c0,0.2,0,0.5,0.1,0.7
				C143.5,53.2,143.7,53.4,144,53.5z M144.2,60.7l-1.8-0.3l0.4-2.3l0.4-2.2l1.1,0.2c0,0,0,0,0.1,0c0,0,0,0,0.1,0l0,0l0.6,0.1
				l-0.4,2.2l0,0l-0.1,0.7L144.2,60.7z M141.1,60.1c-0.1,0-0.1,0-0.2-0.1c0-0.1,0-0.1,0-0.2l0.3-1.5c0-0.1,0.1-0.2,0.2-0.2l0,0
				l0.7,0.1l-0.4,1.9H141.1z M141.1,55.6L141.1,55.6h0.1h0.2l-0.4,1.8l-0.4-0.1L141.1,55.6L141.1,55.6z M143.4,55.3
				c0.1-0.2,0.2-0.3,0.2-0.3l0,0l0,0l0,0h0.2c0,0,0,0,0.1,0s0.2,0.2,0.1,0.5L143.4,55.3L143.4,55.3L143.4,55.3z M145.2,55.5
				L145.2,55.5c0,0.1,0,0.2,0,0.2l-0.4-0.1c0-0.2,0-0.3,0-0.5l0.3,0.1c0,0,0.1,0,0.1,0.1l0,0C145.1,55.4,145.1,55.4,145.2,55.5z
				 M142.2,55.8h0.1l0.3,0.1l-0.4,1.8l-0.6-0.1l0.4-1.8H142.2L142.2,55.8z M146,58.4l-0.6-0.1l0.4-1.8l0.4,0.1l0,0h0.2L146,58.4z
				 M141.1,54.4l0.4-2c0.1-0.3,0.2-0.5,0.3-0.5l0.3,0.1c-0.1,0.1-0.1,0.3-0.2,0.5l-0.4,2c0,0.2,0,0.4,0,0.5l-0.3-0.1
				C141.2,54.9,141.1,54.7,141.1,54.4z M139.8,59.7l0.3-1.5c0-0.1,0-0.1,0.1-0.2c0.1,0,0.1,0,0.2,0h0.2c0,0.1-0.1,0.1-0.1,0.2
				l-0.3,1.5c0,0.1,0,0.2,0,0.2H140C139.9,59.9,139.8,59.8,139.8,59.7z M146.1,59.3l-0.3,1.5c0,0.1,0,0.1-0.1,0.2
				c-0.1,0-0.1,0-0.2,0l-0.7-0.1l0.3-1.4l0.1-0.5l0.7,0.1c0.1,0,0.1,0,0.2,0.1V59.3z"/>
		</g>
		<g class="st8">
			<polygon class="st9" points="157.7,60.5 157.7,60.5 153.2,59.6 152.7,61.7 156.9,62.6 156.9,62.6 157.9,62.8 158.3,60.7 			"/>
			<g class="st3">
				<path class="st4" d="M158.7,57.5l-0.5-0.1h0.1l-1.5-0.3l-1.9-0.4l-0.5-0.1c-0.2,0-0.4,0.2-0.5,0.6l-0.4,1.7
					c-0.1,0.4,0,0.7,0.2,0.8l0.5,0.1l3.4,0.8l0.5,0.1c0.2,0,0.4-0.2,0.5-0.6l0.4-1.7C159,57.9,158.9,57.5,158.7,57.5z"/>
				<polygon class="st6" points="157.4,60.5 155.6,60.1 154.8,63.7 154.6,64.4 154.6,64.4 156.5,64.8 156.5,64.8 				"/>
				<path class="st5" d="M155.1,62.2l-0.7-0.2l0,0l-1.5-0.3c-0.2-0.1-0.5,0.1-0.5,0.3l-0.3,1.3c-0.1,0.2,0.1,0.5,0.3,0.5l1.6,0.4
					l0,0l0.5,0.1L155.1,62.2z"/>
				<path class="st5" d="M157.7,62.8l-0.7-0.2l-0.5,2.2l0.7,0.2c0.2,0.1,0.5-0.1,0.5-0.3l0.3-1.3C158.1,63.1,157.9,62.8,157.7,62.8z
					"/>
				<path class="st11" d="M157.2,59.5l-1-0.2c-0.2-0.1-0.5,0.3-0.6,0.7v0.1l1.8,0.4v-0.1C157.5,59.9,157.4,59.5,157.2,59.5z"/>
			</g>
			<g>
				<path class="st7" d="M158.7,57.2l-0.4-0.1l0,0l-1.5-0.3c-0.1,0-0.2,0-0.3,0.1c0-0.1-0.1-0.1-0.2-0.2l-0.5-0.1l-1.5-0.3
					c-0.2,0-0.4,0-0.6,0.2c-0.1,0.2-0.2,0.4-0.3,0.6l-0.4,1.7c0,0.2,0,0.4,0,0.5l0,0c-0.1,0-0.1,0.1-0.1,0.2l-0.5,2.1
					c-0.2,0.1-0.3,0.3-0.3,0.5l-0.3,1.3c-0.1,0.4,0.2,0.8,0.6,0.9l1.5,0.3l0,0l0.2,0.1l0,0l0,0l0.4,0.1l0,0l1.8,0.4l0,0l0.7,0.2
					c0.1,0,0.1,0,0.2,0c0.3,0,0.6-0.2,0.7-0.6l0.3-1.3c0-0.2,0-0.4-0.1-0.6l0,0l0.5-2.1c0-0.1,0-0.2,0-0.2c0.1-0.1,0.2-0.3,0.2-0.5
					l0.4-1.7C159.3,57.8,159.1,57.3,158.7,57.2z M156.8,57.4l0.9,0.2l0,0l0,0c0,0,0,0,0,0.1l0,0c0,0,0,0,0,0.1l0,0l0,0l0,0l0,0l0,0
					l0,0l0,0l0,0l-0.8-0.2C156.8,57.6,156.8,57.5,156.8,57.4z M153.6,58.9l0.4-1.7c0.1-0.2,0.2-0.4,0.2-0.4l0.9,0.2
					c-0.1,0.1-0.1,0.3-0.2,0.4l-0.4,1.7c0,0.2,0,0.3,0,0.4l-0.4-0.1l0,0l-0.5-0.1C153.6,59.3,153.6,59.2,153.6,58.9z M156,59.8
					L156,59.8C156,59.7,156,59.7,156,59.8c0-0.1,0.1-0.1,0.1-0.1l0,0l0,0l0,0l0,0l0,0l0,0l0,0l0,0l1,0.2l0,0l0,0l0,0l0,0l0,0l0,0
					c0,0,0,0,0,0.1l0,0c0,0,0,0,0,0.1l0,0c0,0,0,0,0,0.1l0,0l0,0L156,59.8C155.9,59.9,155.9,59.8,156,59.8L156,59.8z M154.3,64.1
					L154,64c-0.1,0-0.1-0.1-0.1-0.2l0.3-1.3c0-0.1,0.1-0.1,0.2-0.1l0,0l0.4,0.1L154.3,64.1L154.3,64.1L154.3,64.1z M153.5,59.9
					L153.5,59.9L154,60l0.4,0.1l-0.4,1.6l-0.9-0.2L153.5,59.9L153.5,59.9z M155,60.2L155,60.2l0.3,0.1l-0.4,1.6l-0.3-0.1l0,0l0,0
					L155,60.2L155,60.2z M157.7,60.8l0.4,0.1l-0.4,1.6l-0.4-0.1L157.7,60.8L157.7,60.8z M152.4,63.5l0.3-1.4c0-0.1,0.1-0.2,0.2-0.1
					l0.8,0.2c0,0.1,0,0.1-0.1,0.2l-0.3,1.3c0,0.1,0,0.1,0,0.2l-0.8-0.2C152.4,63.7,152.4,63.6,152.4,63.5z M155.2,63.4l0.2-1.1
					l0.4-1.9l1.3,0.3L157,61l-0.3,1.6l-0.4,1.9l-1.3-0.3L155.2,63.4z M157.7,63.3l-0.3,1.3c0,0,0,0.1-0.1,0.1h-0.1l-0.4-0.1l0.4-1.7
					l0.4,0.1h0.1l0,0c0,0,0.1,0,0.1,0.1C157.7,63.2,157.7,63.2,157.7,63.3z M158.6,58.2l-0.4,1.7c-0.1,0.2-0.2,0.4-0.2,0.4l-0.3-0.1
					l0,0v-0.1l0,0V60l0,0v-0.1c0,0,0,0,0-0.1l0,0c0,0,0,0,0-0.1s-0.1-0.2-0.1-0.3l0,0l0,0l0,0l0,0l0,0l0,0l0,0l0,0c0,0,0,0-0.1,0
					l0,0l-1-0.2c0,0,0,0-0.1,0l0,0l0,0l0,0l0,0l0,0l0,0l0,0l0,0l0,0l0,0l0,0l0,0l0,0l0,0l0,0c0,0,0,0,0,0.1l0,0
					c-0.1,0.1-0.1,0.1-0.2,0.2l0,0c0,0,0,0,0,0.1l0,0c0,0,0,0,0,0.1l0,0l0,0l-0.3-0.1c0,0-0.1-0.2,0-0.4l0.4-1.7
					c0.1-0.2,0.2-0.4,0.2-0.4l0.3,0.1c0,0.2,0,0.4,0,0.6v0.1l0,0l0,0c0,0,0,0,0,0.1l0,0l0,0l0,0c0,0,0,0,0.1,0.1l0,0l0,0l0,0l0,0
					l0,0l0,0c0,0,0,0,0.1,0l1,0.2h0.1l0,0l0,0l0,0l0,0l0,0c0,0,0,0,0.1,0l0,0c0,0,0,0,0.1,0l0,0c0,0,0,0,0.1,0l0,0
					c0.1-0.1,0.2-0.2,0.3-0.3l0,0c0,0,0,0,0-0.1l0,0c0,0,0,0,0-0.1l0,0c0,0,0,0,0-0.1l0,0c0,0,0,0,0-0.1l0,0c0,0,0,0,0-0.1l0,0
					l0.3,0.1C158.6,57.8,158.7,58,158.6,58.2z"/>
			</g>
		</g>
	</g>
	<path class="st1" d="M83.6,86h-1.8v-3.1h1.8V86z M83.6,79.8h-1.8v-3.1h1.8V79.8z M83.6,73.5h-1.8v-3.1h1.8V73.5z M83.6,67.3h-1.8
		v-3.2h1.8V67.3z M83.6,61h-1.8v-3.1h1.8V61z M83.6,54.8h-1.8v-3.1h1.8V54.8z M83.6,48.5h-1.8v-3.1h1.8V48.5z M83.6,42.3h-1.8v-3.1
		h1.8V42.3z M83.6,36.1h-1.8V33h1.8V36.1z M83.6,29.8h-1.8v-3.1h1.8V29.8z M83.6,23.6h-1.8v-3.1h1.8V23.6z M83.6,18.5h-1.8v-4.3h1.8
		V18.5z M83.6,11.1h-1.8V8h1.8V11.1z M83.6,4.8h-1.8V1.7h1.8V4.8z"/>
</g>
</svg>
