<?xml version="1.0" encoding="utf-8"?>
<!-- Generator: Adobe Illustrator 24.0.3, SVG Export Plug-In . SVG Version: 6.00 Build 0)  -->
<svg version="1.1" id="Layer_1" xmlns="http://www.w3.org/2000/svg" xmlns:xlink="http://www.w3.org/1999/xlink" x="0px" y="0px"
	 viewBox="0 0 86.3 88.9" style="enable-background:new 0 0 86.3 88.9;" xml:space="preserve">
<style type="text/css">
	.st0{opacity:0.7;fill:#DCDCDC;enable-background:new    ;}
</style>
<title>clockIcon</title>
<g>
	<path class="st0" d="M75.8,37.1l-0.5-0.7h-0.1c-0.1,0-0.2-0.1-0.2-0.1l-0.1-0.1h-0.7l-5.1,1.3l-0.4,0.2v0.1h-0.1L68.4,38
		c-0.4,0.7-0.3,1.5,0.3,2c0.2,0.2,0.4,0.3,0.7,0.5H70l0.3-0.1c4-1,5-1.3,5.2-1.5l0.1-0.1c0.2-0.4,0.4-0.8,0.3-1.2L75.8,37.1z"/>
	<path class="st0" d="M72.9,52.6c-1.1-0.6-2.2-0.9-3.4-1.1h-0.1c-0.7,0.1-1.3,0.7-1.4,1.4s0.3,1.4,1,1.6c0.8,0.3,1.7,0.5,2.5,0.7
		h0.3c0.6,0,1.1-0.3,1.4-0.8C73.6,53.8,73.4,53.1,72.9,52.6L72.9,52.6z"/>
	<path class="st0" d="M52.7,76.2c-0.2-0.7-0.9-3.8-1.2-4.6c-0.2-0.8-1.1-1.3-1.9-1.1l0,0l0,0c-0.8,0.2-1.3,1.1-1.1,1.9
		c0.4,1.5,0.8,3.1,1.2,4.6c0.1,0.7,0.8,1.2,1.5,1.2h0.4C52.4,78,52.9,77.1,52.7,76.2C52.8,76.3,52.7,76.3,52.7,76.2z"/>
	<path class="st0" d="M37,14.3c-0.1-0.9-1-1.4-1.8-1.3c-0.9,0.1-1.4,1-1.3,1.8l0,0l0,0V15c0.3,1.5,0.8,3,1.2,4.6
		c0.1,0.4,0.3,0.8,0.7,1c0.2,0.1,0.5,0.2,0.8,0.2c0.1,0,0.3,0,0.4,0c0.4-0.1,0.8-0.4,1-0.8s0.3-0.8,0.1-1.2C38,18,37.2,15,37,14.3z"
		/>
	<path class="st0" d="M18.2,51.4c-0.4-0.5-1-0.7-1.6-0.6L15,51.2L11.9,52c-0.5,0.1-1,0.5-1.1,1c-0.3,0.8,0.2,1.7,1,2l0,0l0,0
		c0.2,0.1,0.3,0.1,0.5,0.1c0.1,0,0.3,0,0.4-0.1c0.6-0.2,1.3-0.3,1.9-0.5s1.5-0.4,2.2-0.5c0.8-0.1,1.5-0.7,1.7-1.5v-0.1
		C18.5,52.1,18.4,51.7,18.2,51.4z"/>
	<path class="st0" d="M25.7,25.4c-0.6-0.9-1.4-1.7-2.3-2.4c-0.6-0.4-1.5-0.3-1.9,0.3c-0.5,0.5-0.5,1.4-0.1,2c0.6,0.7,1.3,1.4,2,2
		l0,0c0.3,0.2,0.6,0.3,1,0.3c0.3,0,0.6-0.1,0.9-0.3c0.5-0.4,0.8-1.1,0.6-1.8C25.8,25.5,25.8,25.4,25.7,25.4z"/>
	<path class="st0" d="M36.3,70.4c-0.8-0.2-1.6,0.2-1.9,1c-0.3,0.9-0.6,1.8-0.7,2.7c-0.1,0.8,0.5,1.6,1.3,1.8h0.2
		c0.6,0,1.2-0.4,1.5-1c0.3-0.9,0.6-1.8,0.8-2.7C37.6,71.4,37.1,70.6,36.3,70.4z"/>
	<path class="st0" d="M51.7,14.1c-0.8-0.2-1.6,0.2-1.8,1c-0.3,0.9-0.5,1.8-0.7,2.7c-0.1,0.9,0.6,1.6,1.4,1.7h0.1c0.1,0,0.3,0,0.4,0
		l0,0c0.5-0.2,0.8-0.5,1-1c0.3-0.9,0.5-1.8,0.7-2.7C52.9,15,52.4,14.3,51.7,14.1z"/>
	<path class="st0" d="M65.1,65.8c-0.4-0.4-0.8-0.9-1.3-1.3l-0.3-0.3l0,0c-0.4-0.4-1-0.6-1.6-0.4c-0.8,0.3-1.3,1.2-1,2
		c0.1,0.2,0.2,0.4,0.4,0.6c0.5,0.6,1.1,1.2,1.6,1.7c0.6,0.6,1.6,0.6,2.2,0c0.3-0.3,0.5-0.7,0.5-1.1C65.6,66.5,65.4,66.1,65.1,65.8
		L65.1,65.8z"/>
	<path class="st0" d="M17.7,36.8c-0.9-0.3-1.7-0.6-2.6-0.8c-0.9-0.1-1.6,0.5-1.8,1.4c-0.1,0.7,0.3,1.4,0.9,1.6
		c0.8,0.3,1.7,0.5,2.6,0.7h0.3c0.7,0,1.4-0.5,1.5-1.3C18.7,37.7,18.4,37,17.7,36.8L17.7,36.8z"/>
	<path class="st0" d="M23.6,63c-0.3,0.1-0.7,0.2-0.9,0.5c-0.4,0.4-0.9,0.8-1.3,1.2L21,65.1c-0.6,0.6-0.7,1.6-0.1,2.2l0.1,0.1
		c0.3,0.3,0.7,0.5,1.1,0.5s0.8-0.2,1.2-0.5c0.6-0.5,1.1-1.1,1.7-1.6c0.4-0.4,0.6-1,0.4-1.5C25.2,63.4,24.4,62.9,23.6,63L23.6,63z"/>
	<path class="st0" d="M69.7,25.6c-0.2-0.8-1-1.3-1.9-1.2c-0.3,0.1-0.5,0.2-0.7,0.4l-1,0.9l-0.7,0.6c-0.7,0.5-0.9,1.5-0.4,2.2
		c0.3,0.4,0.8,0.7,1.3,0.7c0.3,0,0.6-0.1,0.9-0.3c0.1-0.1,0.2-0.2,0.3-0.3c0.4-0.3,0.7-0.6,1.1-1l0.6-0.6
		C69.7,26.7,69.9,26.2,69.7,25.6z"/>
	<path class="st0" d="M68.5,10.8l0.7-1.9c0.7-1.9,1.4-3.6,2.1-5.5c0.4-0.8,0.3-1.8-0.3-2.5C70.5,0.3,69.8,0,69,0
		c-0.9,0.1-1.6,0.7-2,1.5l-3.5,6.2C42.5-3.5,16.3,4.4,5.1,25.5S1.9,72.7,22.9,83.9c6.2,3.3,13.2,5.1,20.2,5.1
		c3.9,0,7.9-0.6,11.7-1.6c23-6.4,36.4-30.2,30-53.2C82.1,24.7,76.4,16.5,68.5,10.8z M46.1,55.5l-0.2,0.4c0,0-11.1-8.1-14.5-11
		c1.8,0.6,11.2,4.2,11.2,4.2c1,0.4,2.2,0.2,2.9-0.6l0.2-0.3c0.3-0.5,6.7-12,11.2-19.8C53.3,37.9,46.8,53.7,46.1,55.5z M42.6,44.2
		l-17.5-5.5c-1-0.3-2.2,0.1-2.7,1.1c-0.5,0.9-0.3,2.1,0.4,2.8c0.1,0.1,1.5,1.3,8.5,7.1c5.7,4.8,13,10.9,13.7,11.5
		c0.9,1.1,2.5,1.2,3.5,0.3c0.4-0.3,0.7-0.8,0.8-1.3c0.5-1.4,17-44,17-44C82.7,29.1,85.5,52.7,72.7,69c-7.1,9.1-18,14.3-29.5,14.3
		l0,0c-20.7,0-37.5-16.8-37.5-37.5S22.4,8.2,43.2,8.2l0,0c6.1,0,12.1,1.5,17.6,4.4C59.9,13.9,44.1,41.5,42.6,44.2z"/>
</g>
</svg>
