<?xml version="1.0" encoding="utf-8"?>
<!-- Generator: Adobe Illustrator 24.0.3, SVG Export Plug-In . SVG Version: 6.00 Build 0)  -->
<svg version="1.1" id="Layer_1" xmlns="http://www.w3.org/2000/svg" xmlns:xlink="http://www.w3.org/1999/xlink" x="0px" y="0px"
	 viewBox="0 0 97.2 98.4" style="enable-background:new 0 0 97.2 98.4;" xml:space="preserve">
<style type="text/css">
	.st0{opacity:0.7;}
	.st1{fill:#D3D3D3;}
</style>
<title>smilesIcon</title>
<g class="st0">
	<path class="st1" d="M23.7,36.5c1.3-0.3,2.6-0.6,4-0.7c1.4-0.2,2.9-0.2,4.3-0.2l1.8,0.1l2.8,0.3l0.8,0.2c3.4,0.7,6.7,1.9,9.7,3.6
		c1.2,0.7,2.3,1.5,3.5,2.3l2.1,1.8l1.3,1.2c0.4,0.5,0.8,0.9,1.2,1.3s1,1.2,1.5,1.9c0.1,0.2,0.2,0.4,0.4,0.6c0.7,0.9,1.3,1.9,1.9,2.9
		c0.6,1.2,1.2,2.5,1.7,3.7s0.9,2.5,1.2,3.8s0.6,2.7,0.8,4.1c0.2,1.4,0.2,2.8,0.2,4.2c0,0.5-0.1,1.1-0.1,1.6l-0.4,3l-0.1,0.4
		c-0.5,2.6-1.3,5.2-2.4,7.6c-1,2.1-2.1,4-3.5,5.9l-1.8,2.2l-1.3,1.3c-1,0.9-2.1,1.9-3.2,2.7c-1.1,0.8-2.2,1.6-3.4,2.2
		c-1.2,0.7-2.5,1.2-3.7,1.8c-1.3,0.5-2.6,0.9-3.9,1.2c-1.3,0.3-2.7,0.6-4,0.8c-1.4,0.2-2.9,0.2-4.3,0.2l-1.7-0.1L26.3,98h-0.1
		c-4.9-0.9-9.6-2.9-13.6-5.9C12.5,92,12.4,92,12.3,92l-2.2-1.9C9.8,89.7,9.4,89.3,9,89c-1-1.1-1.9-2.1-2.8-3.3
		c-0.2-0.3-0.5-0.7-0.7-1c-0.5-0.8-1-1.6-1.5-2.4c-0.6-1.2-1.2-2.4-1.7-3.6c-0.5-1.4-0.9-2.7-1.3-4c-0.3-1.3-0.6-2.7-0.8-4.1
		C0,69.3,0,67.9,0,66.5v-0.1c0.1-0.5,0.1-1.1,0.1-1.7c0.2-1,0.2-1.9,0.4-2.9c0-0.2,0.1-0.4,0.1-0.7c0.6-3.3,1.7-6.4,3.3-9.3
		c0.8-1.4,1.6-2.7,2.5-4l1.9-2.3c0.4-0.4,0.8-0.7,1.1-1.2c1-1,2.1-1.9,3.3-2.8c2.6-1.9,5.4-3.4,8.4-4.4C22,37,22.9,36.8,23.7,36.5z
		 M36.8,91.7c1.3-0.3,2.6-0.7,3.9-1.2c0.6-0.2,1.2-0.5,1.8-0.8c0.7-0.3,1.3-0.6,1.9-1c0.8-0.4,1.6-1,2.3-1.6c0.4-0.2,0.7-0.5,1-0.8
		c1.2-0.9,2.2-2,3.1-3.2c0.8-0.9,1.5-1.9,2.2-3c0.2-0.4,0.4-0.8,0.6-1.2c0.7-1.3,1.3-2.6,1.7-4c0.2-0.5,0.4-1,0.5-1.6
		c0.3-1.1,0.5-2.2,0.6-3.3c0.2-1.4,0.3-2.9,0.2-4.4c0-0.4,0-0.9,0-1.3c0-0.1,0-0.3,0-0.4c-0.1-0.9-0.2-1.7-0.5-2.5
		c-0.1-0.6-0.2-1.1-0.4-1.7c-0.2-0.8-0.4-1.5-0.8-2.2c-0.3-0.8-0.6-1.5-1-2.2c-0.2-0.5-0.5-1-0.9-1.5c-0.4-0.8-1-1.6-1.6-2.3
		c-0.3-0.4-0.6-0.8-0.9-1.1c-0.9-1.2-2-2.2-3.2-3.1c-0.9-0.7-1.8-1.4-2.8-2c-0.4-0.3-0.8-0.5-1.2-0.7c-1.3-0.7-2.7-1.3-4.1-1.8
		c-0.5-0.2-1-0.3-1.5-0.4c-1.1-0.3-2.2-0.5-3.4-0.7c-1.5-0.2-3-0.3-4.4-0.2c-0.5,0-1,0-1.5,0.1H28c-1.5,0.2-3,0.5-4.4,1
		c-1.9,0.6-3.7,1.4-5.3,2.4c-0.8,0.4-1.5,1-2.3,1.5c-0.4,0.3-0.8,0.6-1.1,0.9c-1.2,0.9-2.2,2-3.1,3.1c-0.8,0.9-1.5,1.9-2.1,2.9
		c-0.3,0.4-0.5,0.8-0.7,1.2c-0.7,1.3-1.3,2.7-1.8,4.2c-0.2,0.4-0.3,0.9-0.4,1.3c-0.3,1.1-0.6,2.3-0.7,3.5c-0.2,1.4-0.3,2.9-0.2,4.3
		c0,0.5,0,0.9,0.1,1.4c0,0.9,0.2,1.9,0.4,2.8c0.3,1.3,0.7,2.7,1.2,3.9c0.5,1.3,1.1,2.5,1.8,3.6c0.1,0.2,0.2,0.4,0.4,0.6
		c0.4,0.7,0.8,1.3,1.3,1.8c0.2,0.4,0.4,0.7,0.7,1c0.9,1.1,2,2.2,3.1,3.1c0.9,0.7,1.9,1.4,2.9,2c0.4,0.3,0.8,0.5,1.3,0.7
		c1.3,0.7,2.7,1.3,4.1,1.8c0.4,0.2,0.8,0.3,1.3,0.4c1.2,0.3,2.3,0.6,3.5,0.7c1.5,0.2,3,0.3,4.4,0.2c0.5,0,0.9,0,1.4-0.1
		C35,92.1,36,91.9,36.8,91.7z"/>
	<path class="st1" d="M34.3,52.3c0.9-1.1,2.3-1.6,3.7-1.5l1.2,0.2c0.8,0.2,1.6,0.6,2.3,1s1.4,0.9,2,1.5l0,0c1,1,1.8,2.1,2.3,3.3
		l0.1,0.1c0.2,0.5,0,1.1-0.6,1.4c-0.4,0.1-0.9,0-1.2-0.3l-0.3-0.3c-0.5-0.5-1.1-0.9-1.6-1.3c-0.7-0.5-1.4-0.9-2.2-1
		c-0.3-0.1-0.5-0.1-0.8-0.1c-0.9,0-1.8,0.3-2.5,0.9c-0.2,0.2-0.5,0.4-0.6,0.7c-0.2,0.3-0.4,0.5-0.5,0.8c-0.4,1.2-0.7,2.4-0.7,3.7
		c-0.1,0.5-0.2,1.1-0.7,1.4c-0.5,0.2-1.1-0.1-1.4-0.6c-0.1-0.3-0.2-0.7-0.3-1c-0.2-1-0.3-2.1-0.3-3.1v-0.3c0.1-1.6,0.6-3.1,1.4-4.5
		L34.3,52.3z"/>
	<path class="st1" d="M15.5,59.7c0.2-0.2,0.5-0.4,0.8-0.7c0.8-0.6,1.9-0.9,2.9-0.8l1.3,0.2c0.3,0.1,0.6,0.2,0.8,0.3
		c1.2,0.5,2.4,1.2,3.3,2.1l0.1,0.1c1,1,1.8,2.1,2.4,3.4c0.2,0.5-0.1,1.1-0.6,1.3c-0.1,0-0.3,0-0.5,0c-0.4,0-0.7-0.4-1-0.6
		c-0.6-0.6-1.3-1.1-1.9-1.6c-0.6-0.4-1.3-0.7-2-0.9c-0.3-0.1-0.6-0.1-0.9-0.1c-0.8,0-1.7,0.3-2.3,0.9c-0.3,0.2-0.5,0.4-0.6,0.7
		c-0.2,0.3-0.4,0.6-0.5,0.9c-0.4,1.2-0.7,2.4-0.8,3.7c-0.1,0.5-0.1,1.1-0.7,1.4c-0.5,0.2-1.1-0.1-1.3-0.6c-0.4-1.3-0.6-2.6-0.6-4
		v-0.2c0.1-1.7,0.6-3.3,1.4-4.8C15.1,60.3,15.2,60,15.5,59.7z"/>
	<path class="st1" d="M38.1,83.9c-1.3,0.5-2.6,0.8-3.9,1.1c-1.4,0.2-2.8,0.3-4.2,0.3c-0.3,0-0.7,0-1,0c-0.6-0.1-1.3-0.2-1.9-0.3
		s-1.2-0.3-1.8-0.4c-0.9-0.3-1.9-0.6-2.8-1c-0.3-0.1-0.5-0.3-0.8-0.4c-1.2-0.4-2-1.5-2.1-2.8c0-0.6,0.2-1.2,0.5-1.7
		c0.5-0.8,1.4-1.4,2.3-1.5c0.5,0,1.1,0.1,1.6,0.3c0.5,0.3,0.9,0.5,1.4,0.7c0.6,0.3,1.3,0.5,2,0.7c0.5,0.2,1,0.3,1.5,0.3
		c1,0.1,1.9,0.1,2.9,0c1.4-0.1,2.7-0.4,4-0.9s2.5-1.1,3.6-2c1.2-0.9,2.2-2,3-3.3c0.4-0.6,0.8-1.3,1-2c0.1-0.2,0.2-0.4,0.3-0.6
		c0.2-0.8,0.7-1.5,1.3-2.1c0.8-0.6,1.8-0.7,2.7-0.5c0.5,0.2,1,0.5,1.4,0.9c0.7,0.9,0.9,2.1,0.5,3.2c-0.2,0.4-0.3,0.8-0.4,1.2
		c-0.4,0.9-0.8,1.8-1.3,2.6c-0.7,1.1-1.5,2.2-2.3,3.1L45,79.4c-1,1-2.1,1.9-3.3,2.6c-0.6,0.4-1.2,0.7-1.9,1.1L38.1,83.9z"/>
	<path class="st1" d="M86.6,9.6c0.8,0.5,1.6,1,2.3,1.5c0.8,0.6,1.5,1.2,2.2,1.9l0.8,0.9l1.2,1.5l0.3,0.4c1.3,1.9,2.4,4.1,3,6.4
		c0.2,0.9,0.4,1.8,0.6,2.8c0.1,0.6,0.1,1.2,0.2,1.9V28c0,0.4,0,0.8-0.1,1.2C97,29.6,97,30.3,97,30.8l-0.1,0.5
		c-0.1,0.8-0.3,1.5-0.5,2.3c-0.2,0.9-0.5,1.8-0.9,2.6s-0.8,1.6-1.2,2.4c-0.5,0.8-1,1.6-1.6,2.3c-0.6,0.8-1.2,1.5-1.8,2.1
		c-0.3,0.2-0.5,0.5-0.8,0.8l-1.6,1.3l-0.2,0.2c-1.5,1.1-3.1,1.9-4.8,2.6c-1.5,0.5-3,0.9-4.5,1.2l-1.9,0.2h-1.2
		c-0.9,0-1.9-0.1-2.8-0.2c-0.9-0.1-1.8-0.3-2.7-0.6c-0.9-0.2-1.8-0.6-2.6-0.9c-0.9-0.3-1.7-0.8-2.5-1.2s-1.6-0.9-2.3-1.5
		c-0.8-0.6-1.5-1.3-2.2-1.9L60,42.2l-1.2-1.5v-0.1c-2-2.7-3.3-5.9-3.8-9.3c0-0.1,0-0.2-0.1-0.2c-0.1-0.6-0.1-1.3-0.2-1.9
		c0-0.4,0-0.7,0-1.1c0-1,0.1-1.9,0.2-2.9c0-0.3,0.1-0.6,0.2-0.9c0.1-0.6,0.3-1.2,0.4-1.9c0.3-0.9,0.6-1.7,0.9-2.6
		c0.4-0.9,0.8-1.7,1.2-2.5s1-1.6,1.5-2.4c0.6-0.7,1.2-1.4,1.8-2.1v-0.1c0.3-0.2,0.6-0.5,0.8-0.8c0.5-0.4,1-0.8,1.5-1.2l0.3-0.2
		c1.8-1.3,3.9-2.3,6-3c1-0.3,2.1-0.5,3.1-0.7l2-0.2c0.4,0,0.7,0,1.1,0c1,0,2,0.1,2.9,0.2c2.1,0.3,4.2,0.9,6.2,1.9
		C85.5,9,86.1,9.3,86.6,9.6z M66.8,42.6c0.8,0.5,1.6,0.9,2.5,1.3c0.4,0.2,0.8,0.3,1.2,0.5c0.5,0.2,0.9,0.3,1.4,0.4
		c0.6,0.2,1.2,0.3,1.9,0.3c0.3,0.1,0.6,0.1,0.9,0.1c1,0.1,2,0.1,3-0.1c0.8-0.1,1.6-0.2,2.4-0.4c0.3-0.1,0.6-0.1,0.9-0.2
		c1-0.3,1.9-0.7,2.8-1.2c0.4-0.1,0.7-0.3,1-0.5c0.7-0.4,1.3-0.8,1.9-1.2c0.8-0.6,1.5-1.3,2.2-2c0.2-0.2,0.4-0.5,0.6-0.7
		c0.1,0,0.1-0.1,0.2-0.2c0.4-0.4,0.7-0.9,1-1.4c0.2-0.3,0.4-0.6,0.6-1c0.3-0.5,0.5-0.9,0.7-1.4s0.4-1,0.6-1.6
		c0.1-0.4,0.2-0.7,0.2-1.1c0.2-0.6,0.3-1.2,0.4-1.9c0.1-0.3,0.1-0.7,0.1-1c0.1-1,0.1-2-0.1-3c-0.1-0.8-0.2-1.5-0.4-2.3
		c-0.1-0.3-0.1-0.6-0.3-0.9c-0.3-1-0.7-1.9-1.2-2.9c-0.2-0.3-0.4-0.6-0.6-0.9c-0.4-0.7-0.8-1.3-1.3-1.9c-0.6-0.8-1.3-1.5-2.1-2.2
		c-0.2-0.3-0.5-0.5-0.8-0.7l-0.2-0.2c-0.8-0.6-1.7-1.1-2.6-1.6c-1.2-0.6-2.4-1.1-3.7-1.4c-0.6-0.1-1.2-0.2-1.8-0.3
		c-0.3-0.1-0.7-0.1-1-0.1c-1-0.1-2-0.1-3,0c-0.8,0.1-1.6,0.2-2.4,0.4c-0.3,0.1-0.6,0.1-0.9,0.2c-1,0.3-1.9,0.7-2.8,1.2
		c-0.3,0.1-0.6,0.3-0.8,0.5c-0.7,0.4-1.4,0.8-2,1.4c-0.8,0.6-1.5,1.3-2.1,2c-0.2,0.2-0.4,0.5-0.6,0.7c-0.4,0.5-0.8,1-1.1,1.6
		c-0.5,0.8-1,1.6-1.3,2.5c-0.4,0.8-0.6,1.7-0.8,2.6c0,0.2-0.1,0.3-0.1,0.5c-0.1,0.5-0.2,1-0.2,1.6C59,26.4,59,26.6,59,26.9
		c-0.1,1-0.1,2,0,3c0.1,0.8,0.2,1.6,0.4,2.4c0.1,0.3,0.2,0.6,0.3,0.9c0.3,1,0.7,1.9,1.2,2.8c0.1,0.3,0.3,0.5,0.4,0.8
		c0.4,0.7,0.9,1.4,1.4,2c0.6,0.8,1.3,1.5,2.1,2.2c0.2,0.2,0.5,0.4,0.7,0.6C65.8,42,66.3,42.4,66.8,42.6L66.8,42.6z"/>
	<path class="st1" d="M84.3,22.2c1-0.1,1.9,0.3,2.6,1l0.5,0.7c0.3,0.5,0.5,1,0.6,1.6s0.2,1.2,0.2,1.8l0,0c0,0.9-0.1,1.8-0.4,2.7l0,0
		c-0.2,0.3-0.6,0.5-0.9,0.4s-0.5-0.4-0.4-0.8v-0.3c0-0.5-0.1-1-0.2-1.4c-0.1-0.6-0.3-1.1-0.7-1.6c-0.1-0.2-0.2-0.3-0.4-0.4
		c-0.4-0.5-1-0.7-1.6-0.8c-0.2,0-0.4,0-0.6,0s-0.4,0.1-0.7,0.2c-0.8,0.4-1.5,0.8-2.1,1.4c-0.3,0.3-0.6,0.4-1,0.3
		c-0.3-0.2-0.5-0.6-0.4-0.9l0.4-0.6c0.4-0.6,0.8-1.2,1.3-1.6c0,0,0.1-0.1,0.2-0.2c0.8-0.7,1.7-1.2,2.8-1.5
		C83.5,22.2,84.3,22.2,84.3,22.2z"/>
	<path class="st1" d="M71.6,16.9h0.7c0.7,0.1,1.4,0.5,1.8,1l0.5,0.7c0.1,0.2,0.2,0.4,0.3,0.5c0.4,0.8,0.6,1.7,0.6,2.6v0.1
		c0,1-0.1,1.9-0.4,2.8c-0.2,0.4-0.6,0.5-0.9,0.4c-0.2,0-0.2,0-0.3-0.1c-0.2-0.2-0.2-0.5-0.2-0.8c0-0.6-0.1-1.1-0.2-1.7
		c-0.1-0.5-0.3-1-0.6-1.4c-0.1-0.2-0.2-0.4-0.4-0.5c-0.4-0.4-0.9-0.6-1.5-0.6c-0.2,0-0.4,0-0.6,0s-0.5,0.1-0.7,0.2
		c-0.8,0.4-1.5,0.9-2.1,1.4c-0.3,0.2-0.6,0.5-1,0.3c-0.3-0.2-0.5-0.6-0.4-0.9c0.4-0.8,1-1.6,1.7-2.2l0.1-0.1c0.9-0.8,1.9-1.3,3-1.6
		C71.2,17,71.4,16.9,71.6,16.9z"/>
	<path class="st1" d="M71.1,39.5c-1.7-0.7-3.3-1.8-4.6-3.2c-0.1-0.2-0.3-0.3-0.5-0.5c-0.3-0.3-0.5-0.7-0.8-1
		c-0.2-0.3-0.5-0.7-0.7-1.1c-0.3-0.6-0.6-1.2-0.9-1.8c-0.1-0.2-0.1-0.4-0.2-0.6c-0.4-0.8-0.3-1.7,0.3-2.4c0.3-0.3,0.6-0.5,1-0.6
		c0.6-0.1,1.3,0,1.8,0.4c0.3,0.2,0.5,0.5,0.6,0.9c0.1,0.3,0.2,0.7,0.4,1c0.2,0.5,0.4,0.9,0.7,1.3c0.2,0.3,0.4,0.6,0.6,0.9
		c0.4,0.5,0.9,1,1.4,1.4c1.4,1.2,3.2,2,5.1,2.1c1,0.1,2,0.1,3-0.2c0.5-0.1,1-0.2,1.4-0.5c0.1-0.1,0.3-0.1,0.4-0.2
		c0.5-0.3,1-0.4,1.6-0.4c0.7,0.1,1.2,0.5,1.6,1.1c0.2,0.3,0.3,0.7,0.3,1.1c0,0.8-0.5,1.5-1.2,1.8l-0.8,0.4c-0.6,0.2-1.2,0.5-1.9,0.7
		c-0.8,0.2-1.7,0.4-2.6,0.4h-0.6c-1,0-1.9-0.1-2.8-0.2c-0.5-0.1-1-0.2-1.4-0.4L71.1,39.5z"/>
	<path class="st1" d="M29,1.5c0.6-0.3,1.2-0.5,1.9-0.7c0.7-0.2,1.3-0.4,2-0.5l0.9-0.1L35.1,0h0.4c1.7,0,3.4,0.3,5,0.8
		c0.6,0.2,1.3,0.5,1.9,0.8l1.2,0.7l0.7,0.5L45,3.3L46,4l0.2,0.2C46.7,4.6,47,5,47.4,5.5s0.8,1.1,1.2,1.6c0.4,0.6,0.7,1.1,1,1.7
		s0.6,1.2,0.7,1.9c0.2,0.7,0.4,1.3,0.5,2c0,0.3,0.1,0.5,0.1,0.8c0,0.5,0.1,1,0.1,1.5v0.2c0,1.3-0.1,2.6-0.5,3.9
		c-0.3,1.1-0.7,2.1-1.2,3.1l-0.7,1.3l-0.5,0.7c-0.4,0.5-0.8,1.1-1.3,1.6c-0.4,0.5-0.9,1-1.5,1.4c-0.5,0.4-1.1,0.8-1.6,1.2
		c-0.6,0.4-1.2,0.7-1.8,1s-1.2,0.5-1.8,0.7c-0.7,0.2-1.4,0.4-2,0.5l-0.8,0.1l-1.4,0.1l0,0c-2.4,0.1-4.9-0.5-7.1-1.5
		c0-0.1-0.1-0.1-0.2-0.1l-1.2-0.7c-0.2-0.2-0.4-0.3-0.6-0.4c-0.6-0.4-1.1-0.9-1.6-1.3l-0.5-0.5c-0.3-0.3-0.6-0.7-1-1
		c-0.4-0.5-0.8-1-1.1-1.6c-0.4-0.6-0.7-1.1-1-1.7s-0.6-1.2-0.7-1.9c-0.2-0.6-0.4-1.3-0.5-1.9V18c0-0.3,0-0.5-0.1-0.8
		c0-0.5-0.1-1-0.1-1.4v-0.3c0-1.6,0.2-3.2,0.7-4.8c0.2-0.7,0.5-1.4,0.9-2.1l0.7-1.3c0.2-0.2,0.3-0.4,0.4-0.7C23.3,6,23.7,5.5,24.2,5
		c1.1-1.1,2.3-2.1,3.6-2.9C28.2,1.9,28.6,1.7,29,1.5z M40.4,26.8c0.6-0.3,1.2-0.6,1.8-0.9c0.3-0.2,0.5-0.3,0.8-0.5s0.6-0.4,0.8-0.7
		c0.4-0.3,0.7-0.6,1-1c0.2-0.2,0.3-0.3,0.4-0.5c0.5-0.6,0.9-1.2,1.2-1.8c0.3-0.5,0.5-1,0.7-1.6c0.1-0.2,0.2-0.4,0.2-0.6
		c0.2-0.7,0.4-1.4,0.5-2.1c0.1-0.3,0.1-0.5,0.1-0.8c0.1-0.5,0.1-1.1,0-1.6c0-0.7-0.1-1.4-0.3-2.1c0-0.2-0.1-0.4-0.2-0.6
		c0-0.1,0-0.1-0.1-0.2c-0.1-0.4-0.3-0.8-0.5-1.2c-0.1-0.3-0.2-0.5-0.3-0.8c-0.2-0.4-0.3-0.7-0.6-1c-0.2-0.3-0.4-0.7-0.7-1
		c-0.2-0.2-0.4-0.4-0.6-0.5c-0.3-0.4-0.6-0.7-1-1c-0.2-0.2-0.3-0.3-0.5-0.4c-0.6-0.5-1.2-0.9-1.8-1.2c-0.5-0.3-1-0.5-1.5-0.7
		c-0.2-0.1-0.4-0.2-0.7-0.2c-0.7-0.2-1.4-0.4-2.2-0.5c-0.2,0-0.5-0.1-0.7-0.1c-0.6,0-1.1,0-1.7,0c-0.7,0-1.4,0.1-2.2,0.3
		c-0.3,0-0.5,0.1-0.7,0.2h-0.2c-0.7,0.2-1.4,0.5-2,0.9c-0.8,0.5-1.6,1-2.4,1.7c-0.3,0.3-0.7,0.6-1,0.9c-0.2,0.2-0.3,0.3-0.4,0.5
		c-0.5,0.5-0.9,1.1-1.2,1.8c-0.3,0.5-0.5,1-0.7,1.5c-0.1,0.2-0.2,0.4-0.2,0.6c-0.2,0.7-0.4,1.4-0.5,2.2c0,0.2-0.1,0.5-0.1,0.7
		c-0.1,0.6-0.1,1.2,0,1.7c0,0.7,0.2,1.4,0.3,2.1c0,0.2,0.1,0.4,0.2,0.7c0.1,0.4,0.3,0.9,0.5,1.3c0.2,0.6,0.5,1.2,0.9,1.8
		c0.3,0.6,0.7,1.1,1.2,1.6c0.1,0.1,0.2,0.2,0.2,0.3c0.2,0.3,0.5,0.5,0.8,0.8c0.1,0.2,0.3,0.3,0.5,0.4c0.6,0.5,1.2,0.9,1.8,1.2
		c0.5,0.3,1,0.5,1.6,0.7c0.2,0.1,0.4,0.2,0.7,0.2c0.7,0.2,1.4,0.4,2.1,0.5c0.2,0,0.4,0,0.6,0.1c0.6,0.1,1.2,0.1,1.8,0
		c0.7,0,1.4-0.1,2.2-0.3c0.2,0,0.4-0.1,0.7-0.2C39.6,27.2,40,27,40.4,26.8z"/>
	<path class="st1" d="M35.5,8c0.4-0.6,1-0.9,1.7-1h0.6c0.4,0,0.8,0.1,1.2,0.2s0.7,0.3,1.1,0.5l0,0c0.6,0.4,1.1,0.8,1.5,1.4v0.1
		c0.1,0.2,0.1,0.5-0.2,0.7c-0.2,0.1-0.4,0.1-0.6,0l-0.2-0.1c-0.3-0.2-0.6-0.3-0.9-0.5C39.3,9.1,38.9,9,38.5,9c-0.1,0-0.3,0-0.4,0
		c-0.4,0.1-0.8,0.3-1.1,0.7c-0.1,0.1-0.2,0.2-0.2,0.4c-0.1,0.1-0.1,0.3-0.2,0.4c-0.1,0.6-0.1,1.2,0,1.8c0.1,0.3,0,0.5-0.2,0.7
		c-0.2,0.1-0.6,0.1-0.7-0.1l-0.2-0.5c-0.2-0.5-0.4-1-0.5-1.5v-0.2c-0.1-0.8,0-1.5,0.2-2.2C35.3,8.4,35.4,8.2,35.5,8z"/>
	<path class="st1" d="M27.2,13.4l0.3-0.4c0.4-0.4,0.8-0.6,1.3-0.7h0.6c0.1,0,0.3,0,0.4,0.1c0.6,0.1,1.2,0.4,1.8,0.7h0.1
		c0.6,0.4,1.1,0.9,1.5,1.4c0.1,0.2,0.1,0.6-0.2,0.7c-0.1,0-0.1,0.1-0.2,0.1c-0.2,0-0.4-0.1-0.5-0.2c-0.3-0.2-0.7-0.4-1.1-0.6
		c-0.3-0.2-0.7-0.2-1.1-0.2c-0.2,0-0.3,0-0.5,0.1c-0.4,0.1-0.8,0.3-1,0.6c-0.1,0.1-0.2,0.2-0.2,0.4c-0.1,0.1-0.2,0.3-0.2,0.5
		c-0.1,0.6-0.1,1.2,0,1.8c0,0.3,0,0.5-0.2,0.7c-0.2,0.1-0.5,0.1-0.7-0.2c-0.3-0.6-0.5-1.2-0.6-1.9v-0.1c-0.1-0.8,0-1.7,0.3-2.5
		C27,13.7,27.1,13.5,27.2,13.4z"/>
	<path class="st1" d="M40.3,22.9c-0.6,0.3-1.2,0.7-1.8,0.9c-0.7,0.2-1.3,0.4-2,0.5c-0.2,0-0.3,0-0.5,0.1h-0.9c-0.3,0-0.6,0-0.9,0
		c-0.5-0.1-1-0.1-1.4-0.2L32.4,24c-0.6-0.1-1.1-0.6-1.3-1.2c-0.1-0.3,0-0.6,0.1-0.9c0.2-0.4,0.5-0.8,1-0.9c0.3-0.1,0.5-0.1,0.8,0
		c0.2,0.1,0.5,0.1,0.8,0.2s0.7,0.1,1,0.1s0.5,0,0.8,0c0.5,0,0.9-0.1,1.4-0.2c0.7-0.2,1.3-0.4,1.8-0.8c0.6-0.4,1.1-0.8,1.5-1.3
		c0.5-0.5,0.9-1.1,1.1-1.8c0.2-0.3,0.3-0.7,0.3-1c0-0.1,0-0.2,0.1-0.3c0-0.4,0.2-0.8,0.4-1.1c0.3-0.4,0.8-0.6,1.3-0.6
		c0.3,0,0.5,0.1,0.8,0.3c0.5,0.4,0.7,1,0.5,1.5l-0.1,0.6c-0.1,0.5-0.2,0.9-0.4,1.4c-0.2,0.6-0.5,1.2-0.8,1.7l-0.2,0.4
		c-0.4,0.6-0.8,1.1-1.3,1.6c-0.2,0.2-0.5,0.5-0.8,0.7L40.3,22.9z"/>
</g>
</svg>
