<svg id="Layer_1" data-name="Layer 1" xmlns="http://www.w3.org/2000/svg" viewBox="0 0 196.94 76.38"><defs><style>.cls-1{fill:#fff;}.cls-2{fill:#58595b;}.cls-3{fill:#a6a8ab;}</style></defs><title>straightTeeth</title><path class="cls-1" d="M182.48,50.65s2.7,2.35,5.07,8.06,3,16.39,1.83,15.74a49.9,49.9,0,0,1-12.94-13.8C171.7,53,167.82,40.22,182.48,50.65Z" transform="translate(-1.53 -3.07)"/><path class="cls-2" d="M189.48,75.65a1.44,1.44,0,0,1-.66-.17c-1.4-.77-8.58-6.49-13.37-14.21-2.32-3.74-5.75-10.93-3.95-14.17a3.07,3.07,0,0,1,2.83-1.55c2,0,4.91,1.36,8.83,4.15l.09.07c.12.1,2.93,2.59,5.38,8.49,2,4.9,3.23,14.91,2,16.75A1.37,1.37,0,0,1,189.48,75.65ZM174.33,47.89c-.59,0-.72.23-.79.35-.87,1.57.91,7,3.9,11.8A52.06,52.06,0,0,0,188.8,72.62a41.07,41.07,0,0,0-2.33-13.46,22.75,22.75,0,0,0-4.72-7.6C177.24,48.37,175.17,47.89,174.33,47.89Z" transform="translate(-1.53 -3.07)"/><path class="cls-1" d="M171.92,46s8.43,7.86,8.43,15.07.62,15.3-.67,15.3S166.52,67.77,162,63.45,164.48,37.32,171.92,46Z" transform="translate(-1.53 -3.07)"/><path class="cls-2" d="M179.68,77.56c-.41,0-1.36,0-8.32-5.07a118.81,118.81,0,0,1-10.17-8.19c-2.71-2.58-2-9.32,0-14.34,1.81-4.54,4.43-7.14,7.19-7.14a5.92,5.92,0,0,1,4.41,2.39c.78.73,8.76,8.46,8.76,15.88,0,1.85,0,3.75.08,5.58.15,6.93.11,9.45-.85,10.43A1.48,1.48,0,0,1,179.68,77.56Zm-11.33-32.4c-1.7,0-3.62,2.17-5,5.67-1.89,4.74-2.14,10.24-.53,11.78a124.16,124.16,0,0,0,16.37,12.32,72.11,72.11,0,0,0,.09-8.21c0-1.85-.08-3.75-.08-5.63,0-6.63-8-14.14-8.06-14.21l-.09-.1A3.79,3.79,0,0,0,168.35,45.16Z" transform="translate(-1.53 -3.07)"/><path class="cls-1" d="M159.09,43.35c1.75,1.74,6.26,6.45,6.26,15.74s0,17.25-3.78,18.89-11.83-3.24-18.37-19.06C138.61,47.8,154.7,39,159.09,43.35Z" transform="translate(-1.53 -3.07)"/><path class="cls-2" d="M160,79.45c-4.43,0-11.79-5.26-17.91-20.09a11.39,11.39,0,0,1,1.22-11c2.77-4.15,8.13-7.28,12.46-7.28a5.7,5.7,0,0,1,4.12,1.49c1.63,1.62,6.6,6.56,6.6,16.56s0,18-4.48,20A5.08,5.08,0,0,1,160,79.45ZM155.8,43.38c-3.12,0-7.91,2.34-10.52,6.24a9.12,9.12,0,0,0-1,8.85c5.28,12.81,11.86,18.64,15.74,18.64a2.6,2.6,0,0,0,1.08-.21c3.07-1.32,3.07-9.33,3.07-17.81,0-9-4.45-13.45-5.91-14.91A3.55,3.55,0,0,0,155.8,43.38Z" transform="translate(-1.53 -3.07)"/><path class="cls-1" d="M17.91,50.65S15.22,53,12.84,58.71,9.82,75.1,11,74.45,19.2,68.31,24,60.65,32.57,40.22,17.91,50.65Z" transform="translate(-1.53 -3.07)"/><path class="cls-2" d="M10.91,75.65h0A1.37,1.37,0,0,1,9.76,75c-1.23-1.84,0-11.86,2-16.75,2.45-5.9,5.26-8.39,5.38-8.49l.09-.07c3.93-2.79,6.81-4.15,8.83-4.15a3.06,3.06,0,0,1,2.83,1.55c1.81,3.24-1.63,10.43-3.95,14.17C20.16,69,13,74.71,11.57,75.48A1.38,1.38,0,0,1,10.91,75.65Zm7.74-24.09a22.59,22.59,0,0,0-4.73,7.6A40.77,40.77,0,0,0,11.6,72.62,52.06,52.06,0,0,0,23,60c3-4.83,4.78-10.23,3.9-11.8-.07-.12-.19-.35-.79-.35C25.22,47.89,23.15,48.37,18.65,51.56Z" transform="translate(-1.53 -3.07)"/><path class="cls-1" d="M28.48,46s-8.43,7.86-8.43,15.07-.63,15.3.66,15.3S33.87,67.77,38.4,63.45,35.92,37.32,28.48,46Z" transform="translate(-1.53 -3.07)"/><path class="cls-2" d="M20.71,77.56a1.48,1.48,0,0,1-1.07-.46c-1-1-1-3.5-.85-10.43,0-1.83.09-3.73.09-5.58,0-7.42,8-15.15,8.75-15.88a5.92,5.92,0,0,1,4.42-2.39c2.75,0,5.37,2.6,7.18,7.14,2,5,2.69,11.76,0,14.34A118.81,118.81,0,0,1,29,72.49C22.08,77.56,21.12,77.56,20.71,77.56Zm11.34-32.4a3.79,3.79,0,0,0-2.68,1.62l-.1.1c-.08.07-8.06,7.6-8.06,14.21,0,1.88,0,3.78-.08,5.63a72.11,72.11,0,0,0,.09,8.21A124.16,124.16,0,0,0,37.59,62.61c1.61-1.54,1.37-7-.53-11.78C35.66,47.33,33.74,45.16,32.05,45.16Z" transform="translate(-1.53 -3.07)"/><path class="cls-1" d="M41.3,43.35C39.55,45.09,35,49.8,35,59.09S35,76.34,38.82,78s11.84-3.24,18.37-19.06C61.78,47.8,45.69,39,41.3,43.35Z" transform="translate(-1.53 -3.07)"/><path class="cls-2" d="M40.36,79.45h0a5.11,5.11,0,0,1-2-.4c-4.48-1.94-4.48-9.89-4.48-20s5-14.94,6.61-16.56A5.65,5.65,0,0,1,44.59,41c4.33,0,9.69,3.13,12.46,7.28a11.36,11.36,0,0,1,1.22,11C52.15,74.19,44.8,79.45,40.36,79.45Zm4.23-36.07a3.56,3.56,0,0,0-2.47.8c-1.46,1.46-5.91,5.89-5.91,14.91,0,8.48,0,16.49,3.07,17.81a2.63,2.63,0,0,0,1.08.21c3.88,0,10.46-5.83,15.75-18.64a9.14,9.14,0,0,0-1-8.85C52.5,45.72,47.71,43.38,44.59,43.38Z" transform="translate(-1.53 -3.07)"/><path class="cls-1" d="M121.92,46.41c0-6.09-21.72-6.09-21.72,0,0,10.53,1.76,27,10.86,27S121.92,56.94,121.92,46.41Z" transform="translate(-1.53 -3.07)"/><path class="cls-2" d="M111.06,74.58c-10.86,0-12-19.7-12-28.17,0-4,6-5.74,12-5.74s12,1.78,12,5.74C123.09,54.88,121.92,74.58,111.06,74.58Zm0-31.57c-5.35,0-9.69,1.53-9.69,3.4,0,6.06.69,25.83,9.69,25.83s9.69-19.77,9.69-25.83C120.75,44.54,116.4,43,111.06,43Z" transform="translate(-1.53 -3.07)"/><path class="cls-1" d="M143.76,48.23c0-6.47-21.84-6.47-21.84,0,0,11.18,4.61,28.65,13,28.65C142.76,76.88,143.76,59.41,143.76,48.23Z" transform="translate(-1.53 -3.07)"/><path class="cls-2" d="M135,78.05c-4.32,0-8-3.77-10.77-10.89a56.66,56.66,0,0,1-3.43-18.93c0-4.16,6.07-6,12.09-6s12.09,1.86,12.09,6C144.93,68.29,141.66,78.05,135,78.05Zm-2.11-33.5c-5.47,0-9.75,1.62-9.75,3.68,0,11.2,4.62,27.48,11.86,27.48,4.93,0,7.64-9.76,7.64-27.48C142.59,46.17,138.31,44.55,132.84,44.55Z" transform="translate(-1.53 -3.07)"/><path class="cls-1" d="M78.47,46.41c0-6.09,21.73-6.09,21.73,0,0,10.53-1.77,27-10.86,27S78.47,56.94,78.47,46.41Z" transform="translate(-1.53 -3.07)"/><path class="cls-2" d="M89.34,74.58c-10.86,0-12-19.7-12-28.17,0-4,6-5.74,12-5.74s12,1.78,12,5.74C101.37,54.88,100.19,74.58,89.34,74.58Zm0-31.57c-5.35,0-9.7,1.53-9.7,3.4,0,6.06.7,25.83,9.7,25.83S99,52.47,99,46.41C99,44.54,94.68,43,89.34,43Z" transform="translate(-1.53 -3.07)"/><path class="cls-1" d="M56.63,48.23c0-6.47,21.84-6.47,21.84,0,0,11.18-4.61,28.65-13,28.65C57.64,76.88,56.63,59.41,56.63,48.23Z" transform="translate(-1.53 -3.07)"/><path class="cls-2" d="M65.44,78.05c-6.71,0-10-9.76-10-29.82,0-4.16,6.08-6,12.09-6s12.09,1.86,12.09,6a56.66,56.66,0,0,1-3.43,18.93C73.49,74.28,69.76,78.05,65.44,78.05Zm2.11-33.5c-5.46,0-9.75,1.62-9.75,3.68,0,17.72,2.72,27.48,7.64,27.48,7.24,0,11.86-16.28,11.86-27.48C77.3,46.17,73,44.55,67.55,44.55Z" transform="translate(-1.53 -3.07)"/><path class="cls-3" d="M164.4,60.23c0,1.15-.59,2.07-1.32,2.07h-6.85c-.72,0-1.31-.92-1.31-2.07V55c0-1.14.59-2.07,1.31-2.07h6.85c.73,0,1.32.93,1.32,2.07Z" transform="translate(-1.53 -3.07)"/><path class="cls-3" d="M180,60.23c0,1.15-.59,2.07-1.32,2.07h-5.41c-.72,0-1.31-.92-1.31-2.07V55c0-1.14.59-2.07,1.31-2.07h5.41c.73,0,1.32.93,1.32,2.07Z" transform="translate(-1.53 -3.07)"/><path class="cls-3" d="M190,59.55c.25,1.11,0,2.11-.46,2.22l-3.74.84c-.51.11-1.12-.7-1.36-1.82L183.3,55.7c-.25-1.11,0-2.11.46-2.22l3.74-.83c.5-.12,1.11.7,1.36,1.81Z" transform="translate(-1.53 -3.07)"/><path class="cls-3" d="M116.75,60.23c0,1.15-.69,2.07-1.54,2.07h-8c-.85,0-1.53-.92-1.53-2.07V55c0-1.14.68-2.07,1.53-2.07h8c.85,0,1.54.93,1.54,2.07Z" transform="translate(-1.53 -3.07)"/><path class="cls-3" d="M140.41,60.23c0,1.15-.68,2.07-1.53,2.07h-8c-.85,0-1.53-.92-1.53-2.07V55c0-1.14.68-2.07,1.53-2.07h8c.85,0,1.53.93,1.53,2.07Z" transform="translate(-1.53 -3.07)"/><path class="cls-3" d="M36.1,60.23c0,1.15.59,2.07,1.31,2.07h6.85c.73,0,1.32-.92,1.32-2.07V55c0-1.14-.59-2.07-1.32-2.07H37.41c-.72,0-1.31.93-1.31,2.07Z" transform="translate(-1.53 -3.07)"/><path class="cls-3" d="M20.53,60.23c0,1.15.59,2.07,1.32,2.07h5.41c.73,0,1.32-.92,1.32-2.07V55c0-1.14-.59-2.07-1.32-2.07H21.85c-.73,0-1.32.93-1.32,2.07Z" transform="translate(-1.53 -3.07)"/><path class="cls-3" d="M10.5,59.55c-.25,1.11-.05,2.11.46,2.22l3.74.84c.5.11,1.11-.7,1.36-1.82L17.2,55.7c.24-1.11,0-2.11-.46-2.22L13,52.65c-.5-.12-1.11.7-1.36,1.81Z" transform="translate(-1.53 -3.07)"/><path class="cls-3" d="M83.75,60.23c0,1.15.69,2.07,1.53,2.07h8c.85,0,1.54-.92,1.54-2.07V55c0-1.14-.69-2.07-1.54-2.07h-8c-.84,0-1.53.93-1.53,2.07Z" transform="translate(-1.53 -3.07)"/><path class="cls-3" d="M60.08,60.23c0,1.15.69,2.07,1.54,2.07h8c.84,0,1.53-.92,1.53-2.07V55c0-1.14-.69-2.07-1.53-2.07h-8c-.85,0-1.54.93-1.54,2.07Z" transform="translate(-1.53 -3.07)"/><path class="cls-2" d="M190.18,60.14l-1.4-6.29a1.08,1.08,0,0,0-1.27-.81,1.06,1.06,0,0,0-.8,1.27l.5,2.26H187l-.49-2.22a1.06,1.06,0,1,0-2.07.47l.39,1.75H179.6V54.4a1.06,1.06,0,0,0-2.12,0v2.17h-1.16V54.4a1.06,1.06,0,0,0-2.12,0v2.17H163.79V54.4a1.06,1.06,0,1,0-2.11,0v2.17h-2.37V54.4a1.06,1.06,0,1,0-2.11,0v2.17H139V54.4a1.06,1.06,0,0,0-2.12,0v2.17h-3.94V54.4a1.06,1.06,0,0,0-2.12,0v2.17H115.31V54.4a1.06,1.06,0,0,0-2.12,0v2.17h-3.94V54.4a1.06,1.06,0,1,0-2.11,0v2.17H93.36V54.4a1.06,1.06,0,0,0-2.12,0v2.17H87.3V54.4a1.06,1.06,0,1,0-2.11,0v2.17H69.69V54.4a1.06,1.06,0,0,0-2.12,0v2.17H63.64V54.4a1.06,1.06,0,0,0-2.12,0v2.17H43.3V54.4a1.06,1.06,0,0,0-2.12,0v2.17H38.82V54.4a1.06,1.06,0,0,0-2.12,0v2.17H26.3V54.4a1.06,1.06,0,0,0-2.12,0v2.17H23V54.4a1.06,1.06,0,0,0-2.12,0v2.17H15.66l.39-1.75A1.06,1.06,0,1,0,14,54.35l-.5,2.22h-.21l.51-2.26a1.06,1.06,0,1,0-2.07-.46l-1.41,6.29a1.07,1.07,0,0,0,.81,1.27l.23,0a1.05,1.05,0,0,0,1-.83l.43-1.91H13l-.44,2a1.05,1.05,0,0,0,.8,1.26,1,1,0,0,0,.24,0,1.07,1.07,0,0,0,1-.83l.54-2.42H20.9v2.16a1.06,1.06,0,1,0,2.12,0V58.69h1.16v2.16a1.06,1.06,0,1,0,2.12,0V58.69H36.7v2.16a1.06,1.06,0,1,0,2.12,0V58.69h2.36v2.16a1.06,1.06,0,1,0,2.12,0V58.69H61.52v2.16a1.06,1.06,0,0,0,2.12,0V58.69h3.93v2.16a1.06,1.06,0,1,0,2.12,0V58.69h15.5v2.16a1.06,1.06,0,1,0,2.11,0V58.69h3.94v2.16a1.06,1.06,0,1,0,2.12,0V58.69h13.78v2.16a1.06,1.06,0,1,0,2.11,0V58.69h3.94v2.16a1.06,1.06,0,1,0,2.12,0V58.69H130.8v2.16a1.06,1.06,0,1,0,2.12,0V58.69h3.94v2.16a1.06,1.06,0,1,0,2.12,0V58.69H157.2v2.16a1.06,1.06,0,1,0,2.11,0V58.69h2.37v2.16a1.06,1.06,0,1,0,2.11,0V58.69H174.2v2.16a1.06,1.06,0,0,0,2.12,0V58.69h1.16v2.16a1.06,1.06,0,0,0,2.12,0V58.69h5.7l.55,2.42a1.06,1.06,0,0,0,1,.83.91.91,0,0,0,.23,0,1.05,1.05,0,0,0,.8-1.26l-.43-2h.21l.43,1.91a1,1,0,0,0,1,.83l.23,0A1.06,1.06,0,0,0,190.18,60.14Z" transform="translate(-1.53 -3.07)"/><path class="cls-1" d="M183.91,28.27s5.74-6.61,9.56-9.6,4.23,1,3.57,4.8-2,11.8-3.73,18.86S187.49,54.86,182,49.67,175.05,37.3,183.91,28.27Z" transform="translate(-1.53 -3.07)"/><path class="cls-2" d="M186.2,52.89a7.4,7.4,0,0,1-5-2.37c-3.11-3-4.73-6.22-4.79-9.73-.08-4.26,2.15-8.74,6.63-13.31.46-.53,5.92-6.77,9.7-9.73a5,5,0,0,1,3-1.3,2.38,2.38,0,0,1,1.85.86c1.19,1.42,1,4.24.63,6.36l-.17,1c-.68,4-2,11.42-3.58,18S189.82,52.89,186.2,52.89Zm9.51-34.1c-.12,0-.57.06-1.52.8-3.68,2.89-9.34,9.38-9.4,9.45l0,.05c-4.05,4.12-6.06,8-6,11.65.05,2.86,1.42,5.58,4.06,8.08a5.19,5.19,0,0,0,3.38,1.73c2.39,0,4.67-3.26,6-8.5,1.6-6.46,2.87-13.84,3.55-17.8l.17-1c.52-3,.07-4.33-.15-4.48Z" transform="translate(-1.53 -3.07)"/><path class="cls-1" d="M161.34,25.11s7.49-10.85,10.84-14.44,9-5.62,11-1.55,1.19,24.16-1.44,31.1-8,12.24-13.88,7.86S153.61,37.16,161.34,25.11Z" transform="translate(-1.53 -3.07)"/><path class="cls-2" d="M172.19,50.84a8.33,8.33,0,0,1-5-1.83c-2.81-2.1-6.66-5-8.71-9-2.36-4.67-1.72-9.89,1.89-15.52l0,0c.3-.45,7.57-11,11-14.58,2.36-2.53,5.58-4.17,8.19-4.17a5,5,0,0,1,4.71,2.89c2.24,4.47,1.35,24.83-1.38,32.05C180.42,47,176.44,50.84,172.19,50.84Zm-9.88-25.08c-6.68,10.43-.85,16.06,6.26,21.38a6.1,6.1,0,0,0,3.62,1.36c3.81,0,6.87-4.49,8.47-8.69,2.66-7,3.28-26.57,1.48-30.17A2.69,2.69,0,0,0,179.52,8c-2,0-4.57,1.38-6.48,3.43C169.84,14.89,162.64,25.28,162.31,25.76Z" transform="translate(-1.53 -3.07)"/><path class="cls-1" d="M162.14,38.75c0,8.39-26.94,8.39-26.94,0,0-14.51,5.37-32.6,13.47-32.6C160,6.15,162.14,24.24,162.14,38.75Z" transform="translate(-1.53 -3.07)"/><path class="cls-2" d="M148.67,46.21c-7.28,0-14.64-2.3-14.64-7.46A67.22,67.22,0,0,1,137.8,16.6C140.63,9,144.39,5,148.67,5c5.63,0,9.69,3.93,12.09,11.69,1.69,5.48,2.55,12.91,2.55,22.08C163.31,43.91,156,46.21,148.67,46.21Zm0-38.89c-6.92,0-12.3,16.9-12.3,31.43,0,3.33,6.34,5.12,12.3,5.12S161,42.08,161,38.75C161,24.41,158.84,7.32,148.67,7.32Z" transform="translate(-1.53 -3.07)"/><path class="cls-1" d="M16.09,28.27s-5.74-6.61-9.56-9.6-4.23,1-3.57,4.8,2,11.8,3.73,18.86S12.51,54.86,18,49.67,25,37.3,16.09,28.27Z" transform="translate(-1.53 -3.07)"/><path class="cls-2" d="M13.8,52.89h0c-3.62,0-6.63-3.75-8.24-10.28s-2.9-14-3.59-18l-.16-1c-.37-2.12-.56-4.94.63-6.36a2.38,2.38,0,0,1,1.85-.86,5,5,0,0,1,3,1.3c3.78,3,9.24,9.2,9.7,9.73,4.48,4.57,6.71,9.05,6.63,13.3-.06,3.52-1.68,6.79-4.79,9.74A7.4,7.4,0,0,1,13.8,52.89ZM4.29,18.79h0c-.22.14-.67,1.47-.15,4.48l.17,1c.68,4,2,11.34,3.55,17.81,1.3,5.24,3.58,8.5,6,8.5a5.19,5.19,0,0,0,3.38-1.73c2.64-2.5,4-5.22,4.06-8.08.07-3.61-1.94-7.53-6-11.65l0-.05c-.06-.07-5.72-6.56-9.4-9.45C4.86,18.85,4.41,18.79,4.29,18.79Z" transform="translate(-1.53 -3.07)"/><path class="cls-1" d="M38.66,25.11S31.17,14.26,27.82,10.67s-9-5.62-11-1.55-1.19,24.16,1.44,31.1,8,12.24,13.88,7.86S46.39,37.16,38.66,25.11Z" transform="translate(-1.53 -3.07)"/><path class="cls-2" d="M27.81,50.84h0c-4.25,0-8.23-3.81-10.66-10.2-2.73-7.22-3.62-27.58-1.38-32A5,5,0,0,1,20.48,5.7c2.61,0,5.83,1.64,8.19,4.17C32,13.48,39.32,24,39.62,24.45l0,0C43.26,30.11,43.9,35.33,41.54,40c-2,4-5.9,6.91-8.71,9A8.33,8.33,0,0,1,27.81,50.84ZM20.48,8a2.69,2.69,0,0,0-2.62,1.6c-1.8,3.6-1.18,23.16,1.48,30.17C20.94,44,24,48.5,27.81,48.5h0a6.1,6.1,0,0,0,3.62-1.36c7.11-5.32,12.94-11,6.26-21.38-.33-.48-7.53-10.87-10.72-14.29C25.05,9.42,22.45,8,20.48,8Z" transform="translate(-1.53 -3.07)"/><path class="cls-1" d="M37.86,38.75c0,8.39,26.94,8.39,26.94,0,0-14.51-5.37-32.6-13.47-32.6C40,6.15,37.86,24.24,37.86,38.75Z" transform="translate(-1.53 -3.07)"/><path class="cls-2" d="M51.33,46.21c-7.29,0-14.64-2.3-14.64-7.46,0-9.16.86-16.6,2.55-22.08C41.64,8.91,45.7,5,51.33,5c4.28,0,8,4,10.87,11.62A67.22,67.22,0,0,1,66,38.75C66,43.91,58.61,46.21,51.33,46.21Zm0-38.89C41.16,7.32,39,24.41,39,38.75c0,3.33,6.33,5.12,12.3,5.12s12.3-1.79,12.3-5.12C63.63,24.22,58.25,7.32,51.33,7.32Z" transform="translate(-1.53 -3.07)"/><path class="cls-1" d="M135.2,41.73c0,8.46-35.2,8.46-35.2,0,0-14.63,2.85-37.49,17.6-37.49S135.2,27.1,135.2,41.73Z" transform="translate(-1.53 -3.07)"/><path class="cls-2" d="M117.6,49.24c-8.66,0-18.77-2-18.77-7.51,0-11.63,1.83-38.66,18.77-38.66s18.77,27,18.77,38.66C136.37,47.28,126.26,49.24,117.6,49.24Zm0-43.84c-6,0-10.42,4.2-13.22,12.47s-3.21,18.49-3.21,23.86c0,2.9,7.22,5.18,16.43,5.18S134,44.63,134,41.73c0-5.37-.41-15.62-3.21-23.86S123.57,5.4,117.6,5.4Z" transform="translate(-1.53 -3.07)"/><path class="cls-1" d="M64.8,41.73c0,8.46,35.2,8.46,35.2,0C100,27.1,97.15,4.24,82.4,4.24S64.8,27.1,64.8,41.73Z" transform="translate(-1.53 -3.07)"/><path class="cls-2" d="M82.4,49.24c-8.66,0-18.77-2-18.77-7.51,0-11.63,1.83-38.66,18.77-38.66s18.77,27,18.77,38.66C101.17,47.28,91.06,49.24,82.4,49.24Zm0-43.84c-6,0-10.42,4.2-13.23,12.47S66,36.36,66,41.73c0,2.9,7.21,5.18,16.43,5.18s16.43-2.28,16.43-5.18c0-5.37-.42-15.62-3.21-23.86S88.37,5.4,82.4,5.4Z" transform="translate(-1.53 -3.07)"/><rect class="cls-3" x="71.07" y="23.49" width="19.61" height="12.31" rx="2.72"/><path class="cls-3" d="M43.46,36.15c0,1.5.84,2.72,1.87,2.72h9.73c1,0,1.87-1.22,1.87-2.72V29.28c0-1.5-.84-2.72-1.87-2.72H45.33c-1,0-1.87,1.22-1.87,2.72Z" transform="translate(-1.53 -3.07)"/><path class="cls-3" d="M16.28,36.15c0,1.5.84,2.72,1.87,2.72h7.69c1,0,1.87-1.22,1.87-2.72V29.28c0-1.5-.84-2.72-1.87-2.72H18.15c-1,0-1.87,1.22-1.87,2.72Z" transform="translate(-1.53 -3.07)"/><path class="cls-3" d="M2.5,36.15c0,1.5.59,2.72,1.32,2.72H9.27c.73,0,1.33-1.22,1.33-2.72V29.28c0-1.5-.6-2.72-1.33-2.72H3.82c-.73,0-1.32,1.22-1.32,2.72Z" transform="translate(-1.53 -3.07)"/><rect class="cls-3" x="106.27" y="23.49" width="19.61" height="12.31" rx="2.72"/><path class="cls-3" d="M156.54,36.15c0,1.5-.84,2.72-1.87,2.72h-9.73c-1,0-1.87-1.22-1.87-2.72V29.28c0-1.5.84-2.72,1.87-2.72h9.73c1,0,1.87,1.22,1.87,2.72Z" transform="translate(-1.53 -3.07)"/><path class="cls-3" d="M183.72,36.15c0,1.5-.84,2.72-1.87,2.72h-7.69c-1,0-1.87-1.22-1.87-2.72V29.28c0-1.5.84-2.72,1.87-2.72h7.69c1,0,1.87,1.22,1.87,2.72Z" transform="translate(-1.53 -3.07)"/><path class="cls-3" d="M197.5,36.15c0,1.5-.59,2.72-1.32,2.72h-5.45c-.73,0-1.33-1.22-1.33-2.72V29.28c0-1.5.6-2.72,1.33-2.72h5.45c.73,0,1.32,1.22,1.32,2.72Z" transform="translate(-1.53 -3.07)"/><path class="cls-2" d="M196.07,27.3a1.17,1.17,0,0,0-1.17,1.17v3.08h-1V28.47a1.17,1.17,0,0,0-2.34,0v3.08h-8.73V28.47a1.17,1.17,0,1,0-2.34,0v3.08h-2.32V28.47a1.17,1.17,0,1,0-2.34,0v3.08H155.35V28.47a1.17,1.17,0,1,0-2.34,0v3.08h-4V28.47a1.17,1.17,0,1,0-2.34,0v3.08h-22.5V28.47a1.17,1.17,0,0,0-2.34,0v3.08H113.4V28.47a1.17,1.17,0,0,0-2.34,0v3.08H88.94V28.47a1.17,1.17,0,1,0-2.34,0v3.08H78.19V28.47a1.17,1.17,0,1,0-2.34,0v3.08H53.35V28.47a1.17,1.17,0,0,0-2.34,0v3.08H47V28.47a1.17,1.17,0,0,0-2.34,0v3.08H24.13V28.47a1.17,1.17,0,0,0-2.34,0v3.08H19.47V28.47a1.17,1.17,0,0,0-2.34,0v3.08H8.4V28.47a1.17,1.17,0,0,0-2.34,0v3.08h-1V28.47a1.17,1.17,0,0,0-2.34,0V37A1.17,1.17,0,1,0,5.1,37V33.88h1V37A1.17,1.17,0,1,0,8.4,37V33.88h8.73V37a1.17,1.17,0,0,0,2.34,0V33.88h2.32V37a1.17,1.17,0,0,0,2.34,0V33.88H44.65V37A1.17,1.17,0,0,0,47,37V33.88h4V37a1.17,1.17,0,0,0,2.34,0V33.88h22.5V37a1.17,1.17,0,1,0,2.34,0V33.88H86.6V37a1.17,1.17,0,1,0,2.34,0V33.88h22.12V37a1.17,1.17,0,0,0,2.34,0V33.88h8.41V37a1.17,1.17,0,0,0,2.34,0V33.88h22.5V37A1.17,1.17,0,0,0,149,37V33.88h4V37a1.17,1.17,0,1,0,2.34,0V33.88h20.52V37a1.17,1.17,0,0,0,2.34,0V33.88h2.32V37a1.17,1.17,0,0,0,2.34,0V33.88h8.73V37a1.17,1.17,0,1,0,2.34,0V33.88h1V37a1.17,1.17,0,0,0,2.34,0V28.47A1.17,1.17,0,0,0,196.07,27.3Z" transform="translate(-1.53 -3.07)"/></svg>