<?xml version="1.0" encoding="utf-8"?>
<!-- Generator: Adobe Illustrator 24.0.3, SVG Export Plug-In . SVG Version: 6.00 Build 0)  -->
<svg version="1.1" id="Layer_1" xmlns="http://www.w3.org/2000/svg" xmlns:xlink="http://www.w3.org/1999/xlink" x="0px" y="0px"
	 viewBox="0 0 95.8 98.2" style="enable-background:new 0 0 95.8 98.2;" xml:space="preserve">
<style type="text/css">
	.st0{opacity:0.7;fill:#DCDCDC;enable-background:new    ;}
</style>
<title>toothIcon</title>
<path class="st0" d="M74.8,2.7c-5.9-3.6-11.7-3.6-17.1,0.1c-1.5,1-3,2.1-4.3,3.3l-1.7,1.4c-0.5,0.4-1.1,0.9-1.7,1.4
	c-1.1,0.9-2.2,1.7-3.3,2.4c-2.2,1.3-4.7,1.9-7.2,1.9L38,13.3c-3,0-6,0.3-9,0.8c-4,0.7-7.5,3-9.8,6.4c-2.2,3.5-3.3,7.7-3,11.9
	C5.5,38.3,1.8,52,7.9,62.8l0,0c1.3,2.3,3,4.3,4.9,6L0,90l6.3,3.8l12.9-21.2c6.5,2.5,13.8,2,19.8-1.5l1.5,3.9
	c2.3,5.5,5.4,10.7,9,15.4c1.8,2.5,4.1,4.6,6.6,6.3c1.6,1.1,3.6,1.6,5.6,1.5c4.1-0.5,7.1-4,7-8.1c0-2.9-0.6-5.7-1.8-8.3
	c-0.4-1-0.9-2-1.4-2.9c-0.3-0.7-0.7-1.4-1-2.1c-1.5-3.2-2.7-6-3.9-8.8c-0.7-1.8-0.9-3.8-0.6-5.8c0.3-1.8,1.4-3.3,3.1-4
	c1.6-0.8,3.5-0.7,5,0.2c1.7,1,3,2.6,3.8,4.3c1,2.5,1.9,5.1,3,8.2c0.3,1,0.6,1.9,0.9,2.8l0.1,0.2c0.4,1.2,0.8,2.5,1.2,3.7
	c0.9,2.8,2.4,5.3,4.4,7.4c2.2,2.5,5.8,3.3,8.9,2.2c0.7-0.3,1.3-0.6,1.8-1c1.5-1.2,2.6-2.8,3-4.7c0.6-2.2,0.8-4.5,0.7-6.8
	c-0.2-4.5-0.9-9-2.1-13.3C92.4,56.1,90.4,50.9,88,46c-2.2-4.2-3.1-8.9-2.6-13.6c0.7-5.5,0.3-11.2-1.1-16.6
	C83,10.3,79.6,5.6,74.8,2.7z M81.3,48.5c3.1,6.3,5.3,12.9,6.6,19.8c0.8,3.4,0.9,6.8,0.5,10.2c-0.1,0.4-0.2,0.8-0.3,1.2L88,80
	c0,0.2-0.2,0.4-0.5,0.5c-0.2,0.1-0.5,0-0.7-0.2c-0.9-1-1.6-2.1-2.3-3.2c-0.8-1.4-1.3-2.9-1.7-4.5l-0.1-0.2c-0.2-0.5-0.3-1.1-0.4-1.5
	c-0.7-2.2-1.4-4.4-2.2-6.4l-0.5-1.2c-0.5-1.6-1.1-3.1-1.8-4.5c-1.8-3.5-4.8-6.3-8.5-7.7c-2.8-1-5.9-0.9-8.7,0.3
	c-0.7,0.3-1.4,0.6-2,1c-3.3,2-5.5,5.4-5.9,9.3c-0.4,3.5,0.1,7,1.6,10.2c0.6,1.2,1.2,2.5,1.7,3.8s1.1,2.4,1.6,3.6
	c0.3,0.8,0.8,1.6,1.2,2.4c0.5,1,1.1,2.2,1.6,3.4c0.7,1.6,1,3.3,1,5.1c0.1,0.5-0.2,0.9-0.7,1c-0.1,0-0.3-0.1-0.4-0.2
	c-1.3-0.7-2.5-1.7-3.5-2.8c-2.4-2.6-4.5-5.6-6.2-8.7c-2.2-3.9-4.1-7.9-5.6-12l-0.4-1.2c0.7-0.9,1.4-1.9,2-2.9
	C53,52.8,49.6,39,39,32.5c-4.7-2.8-10.2-3.8-15.5-2.9c0-0.3,0.1-0.6,0.1-0.9c0.3-2.4,1.5-4.6,3.3-6.1c1.1-0.9,2.5-1.5,4-1.6
	c2.6-0.3,6-0.6,9.5-0.7c5.2-0.1,10.1-2.1,13.9-5.6c2-1.8,4.1-3.5,6.3-5.2c1.6-1.4,3.7-2.2,5.9-2.1c2.2,0.2,4.3,1.2,6,2.6
	c2.6,2.2,4.4,5.2,5,8.5c1,4.6,1.2,9.3,0.6,13.9C77.7,37.8,78.7,43.4,81.3,48.5L81.3,48.5z M19.4,65.2C11.9,60.7,9.5,51,14,43.6l0,0
	c4.1-7.6,13.7-10.5,21.3-6.3S45.8,51,41.6,58.6l0,0l0,0c-0.2,0.4-0.5,0.8-0.8,1.2l-0.2,0.3C36.1,67.3,26.6,69.6,19.4,65.2L19.4,65.2
	z"/>
</svg>
